<mxfile host="app.diagrams.net" agent="Mozilla/5.0 (Macintosh; Intel Mac OS X 10_15_7) AppleWebKit/537.36 (KHTML, like Gecko) Chrome/137.0.0.0 Safari/537.36" version="27.1.5">
  <diagram name="第 1 页" id="IriWdeVh2p2jG0kUoDnx">
    <mxGraphModel dx="1554" dy="757" grid="1" gridSize="10" guides="1" tooltips="1" connect="1" arrows="1" fold="1" page="1" pageScale="1" pageWidth="6400" pageHeight="6400" math="0" shadow="0">
      <root>
        <mxCell id="0" />
        <mxCell id="1" parent="0" />
        <mxCell id="07tge18XdGWjkMhopAtY-22" value="" style="shape=image;verticalLabelPosition=bottom;labelBackgroundColor=none;verticalAlign=top;aspect=fixed;imageAspect=0;image=data:image/png,iVBORw0KGgoAAAANSUhEUgAAA0IAAAH2CAYAAABdmjw+AAAAAXNSR0IArs4c6QAAAIRlWElmTU0AKgAAAAgABQESAAMAAAABAAEAAAEaAAUAAAABAAAASgEbAAUAAAABAAAAUgEoAAMAAAABAAIAAIdpAAQAAAABAAAAWgAAAAAAAACQAAAAAQAAAJAAAAABAAOgAQADAAAAAQABAACgAgAEAAAAAQAAA0KgAwAEAAAAAQAAAfYAAAAAPgjAkQAAAAlwSFlzAAAWJQAAFiUBSVIk8AAAQABJREFUeAHsnQdglMXz979Xc7n0CgmhBEjovdfQQXoVpEkTkA7Se1eaNBVUVKQKgkiT3rsgHaRDQkhCQnq7fu/sJZeEEIo/4/9NyKySu3vKPvt8ntu5mdnZWYnZbG4NoAn909M/LkyACTABJsAEmAATYAJMgAkwgfeagEQiGSchQ2gZ3eXI9/pO+eaYABNgAkyACTABJsAEmAATYAKpBMgQkkjpPY8E8VeCCTABJsAEmAATYAJMgAkwgTxFQBhCXJgAE2ACTIAJMAEmwASYABNgAnmKABtCeepx880yASbABJgAE2ACTIAJMAEmIAiwIcTfAybABJgAE2ACTIAJMAEmwATyHAE2hPLcI+cbZgJMgAkwASbABJgAE2ACTIANIf4OMAEmwASYABNgAkyACTABJpDnCLAhlOceOd8wE2ACTIAJMAEmwASYABNgAmwI8XeACTABJsAEmAATYAJMgAkwgTxHgA2hPPfI+YaZABNgAkyACTABJsAEmAATYEOIvwNMgAkwASbABJgAE2ACTIAJ5DkCbAjluUfON8wEmAATYAJMgAkwASbABJgAG0L8HWACTIAJMAEmwASYABNgAkwgzxFgQyjPPXK+YSbABJgAE2ACTIAJMAEmwATYEOLvABNgAkyACTABJsAEmAATYAJ5jgAbQnnukfMNMwEmwASYABNgAkyACTABJsCGEH8HmAATYAJMgAkwASbABJgAE8hzBOS55Y7vPkvG9nNRkMskuaXJ3E4m8J8RcLWXo1s9N9irZP/ZNfJKxfsux+D6kyRIWLTklUfO9/kaAiYTUCSfEt3qur/mCN6cmUBUvAFbz0YiLsmYeRd/ZgJ5joDeYEbfxh7wdlXmmnvPNYZQgsaIG0FJUMpZW8k13y5u6H9GwMtFAaPJ/J/Vn5cqjojT41YwGUJ56ab5XplAFgQMRjMUiix28KbXEtAZTHgQmoyIOMNrj+EdTCCvENDqTdDo3HLV7eYaQygzVTPrgJmR8Of3nACPWPyHD1jIk1RLiGXLf8iZq86ZBOi7z46A/+3RCG4Z1RGWH/8bRz4rdxPIzfpJrjOETCRlPJxUKF3YniV37u433Pp/QED82EZTCMbfQfEwGCl+hct/QiC/qwolC9rDyNrMf8KXK815BIRseRFrwI3HMTmvcbmsRQq5FGWKOMJRLXvJOMplt8HNZQL/iID4ubz+MB6xibp/dF5OOTjXGUICuLOdErXLukDKLqyc8j3idvzHBIS35cEzLe4FJ5Ah9B9fLA9X7+akRP0KztBzlEse/hbkrVsXsuX2Ex2uPIiGjH9U/9XDF4ZQuaJOKOihAPtS/hVKPjkXERC+2QfByYhJ0OaiVqc3NdcZQqLpYhhagDezIZT+JPnde01A6CdiNJTLf0vATIyFbOFBt/+WM9eecwgIQ0h87/nnNBueCYloE83dtOgnLK6zAShXkRsIiO98bv66c/rs3PAt4zYyASbABJgAE2ACTIAJMAEmkK0E2BDKVpxcGRNgAkyACTABJsAEmAATYAK5gQAbQrnhKXEbmQATYAJMgAkwASbABJgAE8hWAmwIZStOrowJMAEmwASYABNgAkyACTCB3ECADaHc8JS4jUyACTABJsAEmAATYAJMgAlkKwE2hLIVJ1fGBJgAE2ACTIAJMAEmwASYQG4gwIZQbnhK3EYmwASYABNgAkyACTABJsAEspUAG0LZipMrYwJMgAkwASbABJgAE2ACTCA3EGBDKDc8JW4jE2ACTIAJMAEmwASYABNgAtlKgA2hbMXJlTEBJsAEmAATYAJMgAkwASaQGwiwIZQbnhK3kQkwASbABJgAE2ACTIAJMIFsJcCGULbi5MqYABNgAkyACTABJsAEmAATyA0E2BDKDU+J28gEmAATYAJMgAkwASbABJhAthJgQyhbcXJlTIAJMAEmwASYABNgAkyACeQGAmwI5YanxG1kAkyACTABJsAEmAATYAJMIFsJsCGUrTi5MibABJgAE2ACTIAJMAEmwARyAwE2hHLDU+I2MgEmwASYABNgAkyACTABJpCtBNgQylacXBkTYAJMgAkwASbABJgAE2ACuYEAG0K54SlxG5kAE2ACTIAJMAEmwASYABPIVgJsCGUrTq6MCTABJsAEmAATYAJMgAkwgdxAgA2h3PCUuI1MgAkwASbABJgAE2ACTIAJZCsBNoSyFSdXxgSYABNgAkyACTABJsAEmEBuIMCGUG54StxGJsAEmAATYAJMgAkwASbABLKVABtC2YqTK2MCTIAJMAEmwASYABNgAkwgNxBgQyg3PCVuIxNgAkyACTABJsAEmAATYALZSoANoWzFyZUxASbABJgAE2ACTIAJMAEmkBsIsCGUG54St5EJMAEmwASYABNgAkyACTCBbCXAhlC24uTKmAATYAJMgAkwASbABJgAE8gNBNgQyg1PidvIBJgAE2ACTIAJMAEmwASYQLYSYEMoW3FyZUyACTABJsAEmAATYAJMgAnkBgJsCOWGp8RtZAJMgAkwASbABJgAE2ACTCBbCbAhlK04uTImwASYABNgAkyACTABJsAEcgMBNoRyw1PiNjIBJsAEmAATYAJMgAkwASaQrQTYEMpWnFwZE2ACTIAJMAEmwASYABNgArmBABtCueEpcRuZABNgAkyACTABJsAEmAATyFYCbAhlK87/oDIJIJcBEno1JzxD8OMoJIvPdClp6ivtgcmgRZLG+NYGSA0vEB4UhMQMh0roWyB9h39plYuLmzJenz7Ttnepw3qMqCKt/MNzrXVIX6okrTZ+wwSYwH9NgPqekElpsoNkkUyeKqtMBuh1hhQhlVU7JGYYEqLxIiIBVjFk1sTgeUTS68/Jop40OfAOsivjsSw2soDJm5jAf02AOp4hMQHaLESDIT4CCTozaTJvKVSHLiYEMYkmmF/TkSVUiy4xColaUlLeVOj8jHLhnd+/5rpvuhTvy9kE6KeLS44lQMqF3b11WHHYF23G1YPbur5oM7YiFpgXot3Ne9i++RoKfNoRVVR6BJ74El9eao7Px1aBks7LqphJYXAKnoF2zQ6h55l76OpJgsmcgODzJ/BUb0+2zGvEkNkMiXtJVPLzgoLqttEE4cBP3+OWugU696uDolRv3JOL+CswkRSbN0sJCdWVrCqACqX94KQSypQBCYE3cS8oGnoZVfSORWIyQusdgIbFZdBbtal3PJcPYwJM4F0IkGJC1o6dAykMJBqE4aNLBPT0Xp8Uh5goDTSRNxEcCySF30d4pAba5GTEvHiE4LiS6DJxOKrmV7wiERTGSJz8PAATo5bg0Hct4Ejd3nRiKfpNu4Whf2xDR0dAm1kU0ee0TdQO28QgnL/5BFpj2tZ3uSFIFbYoWL468isz1PdOZ/JBTIAJ/BsC9tIH2DjtM5yu/Su+7q5Eks5aWwxOfNoGp7ttw/h2PrB9w++5zAa4PbU2vi96DIum+kJNvpOMRRhHyvgLWN1nNpLG/YBRNbxekT/ieInMhIQ7Z3H7hTFdrmSs6LXvpVB5V0XZoraQvqGdrz2dd+RIAmwI5cjHktoo+o2XecXhxvSPEFglGPPkDpBDC6nJjMe/9cX4Pe3w+yApJAYNnp35EQeCS2Ouucob78gMGTQyhRjQsRQJnuHIwDb4SuMKFVlQWflkTLo4xDf9DocX9oanLSktChcUkl3CxHHL8fuORui76Hd0vbQSU+ZvR/jzZOhIY0oxh8iAUtpBadZAZyCBI6SUmTw5xYZg7eavUbUwKVjyJAT9sQAzP/8Vj17RfrK6FaGcKWGnJiNxYBT+mqVGbCZhmNVZvI0JMIF/RsBMQ64e4V+jX4tNCJboLf3XRCM9BpI3Op0GyQlk+CSEIiaZ+qTVHvGqg6p+xVC0UWHIhecli6K9PB+LfjCj+ebaUJN32EBiwaFqVdSIm405Mx6i5epiQEK6oSKqtvh2UoQKRLX5wn7F7BGL8Sz4ORKogtRdWVzNuonkjsoNHkWKYcjWC+ien4w5qxC0HsKvTIAJ/DcEqAObruzH1l92wdBJAVsnMlio74u+rUjahR2HXqDYJz7I50pGCm0XRThejCQH4slgEqqD2h6wt9Ui/Gwwksv7ogB9NpMzVRNNzlVxAP3vrHqKX7q2xMpT0SRU/kT/gHZw1ZCMSaky7a/M1oDQbyZhzB9/IjZGD1OazpJ2SKY3QsYpoXL3QJVep7FyTmEoySnE5f0gwIZQTn6O9EMd5zIMi0aMRsDyzejVyob6ugyG+JtY91UCPvl2EIqpJTAlJCL49kMUbehsCaN72y2RvEgrEhrDSYzPh2bzrmBaNw/IDFaNJuUQiVmHRz83QofD8bA6X/VSB/gO3IdbHTdhXPUe2PLtCQRUTEDE84H4XLcUH4TrYXH2kMEVtWskttuNRLd6heFAXhhLoXgamUWzEZ8oTCYuGIGVd+DKry1SJGPKUVn+NUsV8NRsQ9+qXXA62SL7sjyONzIBJvDvCEiouyYU84ff9cu43XgAKrnTiK/BAOcqfVHFMQqmAuQZLaCGxMYFHi6pxhD1bSGjxLkyMerysjiBXHoLa/ssxWPa/ribM7ZZhZHQemibeUNxlNto3ZjSfrOiEj757jCGt3ZJ88LKTImIeRaGcr+Zsb66Hgn6t9yrrQLqZXbwXxn96mjTW07l3UyACfw7Akr9c+zdshzXfNZgX4NH+NKhOBYlyWAJAqHubiI95EQ3OdZm6PpGoxGFVzzCwY98YR95GpPbt8DP5zXkCCan6nQ5Cs00wmishGGPLmMUjSKrpOexqmwTzIv3x9Q/duD+qAao3eQHbN/bD+WoXl2q+iHuRIgbU8wzROffiWMhLeAWRcbQG2+RjDeXXZhn1xGXKCxPGF1c3h8CbAjl1GdJXk+7xwfw/e4b0Eh64YOyehzdf5MMjIc48HVxlOjZCsbz32Ll3fbo31WKwCt2cKkbhfMnT1i8p1IxgYg8t3qvADQqLUF0yCM8izLD4dkLCiXT4vndh/g7TIV8FYTiQv2ajBY5xb2l2SepXCicn5QXccTLGo3YHufeHfNDuyOZlBDjd4voGDJwFHS8nEac6BSpjQbXlqzAhvKl0KrpYLi8UnvqRcSLRAYFnffyVTLst76lehUK+Ztqsh7Jr0yACfxLAskxTTEsNg6droRCUbgQPJypQgoJMd/bjqHNmuLIrqtYXlCOZKsWQXIr6VRbNOkYgf5Hj6BfGTKU6BTq3pAmBeNY57L4IqII2i28gGl9PaEQHhPa53BhMhp12oIaVx5ijjvS66PdQibIxeBSFqEoEvoFUyhIdtHuNxaSS/8g8vaNVfFOJsAE/hmB5IdHsW3TA1T7JgBFDI4oO2EMhmjzQUkRJsFfTcAueSt0GdAM7obkNB3ATKPOLmVdQQEw0Kh8UffjRSjiMw+ztptRd+xsVFeGQavzQzWZFrEX1mHkJ2NwTFobI08dxLBi1N+P7YHHB0PQo8ACNPtyN4Y0L4wCjuRMFgLJWkiACJ1FyJAsxIv1KMurnPQOIYa4vH8E3vr78f7dcu65I7MhElFRTxCnd4FD0nbsPHPDMsR7aIEj7PvWhkv0fSTSFn3YFpyOoeDZvavww0EDzPpkPLh8ARrfsijW4yTalDPi5M+DMO2Hm9BLYhAZL8W6T2phbVxPTI8eARvjc1z6dSoW3LAjTy6Fs5HWolQpYdIkw0Del5ir12hMunsaODldSiUUHhpy1lBYmoyGp8W8AVHMGi0ufjsB+4KERXQOx++RQedxCxunjiJvshRyxwKo3OxTNK1BCpJV8shVsL33NeZOPJBSyRv+mqltauMNXI2i61Mo3UtC7Q3n8S4mwAT+OQHRv3ShR7Cm1Qc40O8i9o2vCiX1fcf8vihf/DEWj7+DGccqwy4uxU6xl9zGhhG7oW39Axr7pRpBNDykuXsCW4Y3wsIokkl4hKs7p2DRPXsa4SELipw2irBTiDRF4vLnkzBHlURzF1PbSopKgdpT0bsLjQaRvMlYJCRiHn0zDdO2xb09zE2hhvQcCSttwtuPzXgRfs8EmMD/ToD6sdzuBc5M6oET3uOwsXpxSElfCJi4BI1JjjhLT2PEdAl8x+zB5zNIlyCnqrXrCw8KBaQgibptkroAAvp+CtOT6Zhd7FtM+6IjSlHYnFxzH1vGtkbbnw9TkH9+VBrSFLabZmG2GCGW2cG5bTtUDlqJXaOrYW+1xfh9ywAUs0m1hKghkrDlWDJiP+w0FPr7xruUQ257G6fJXJKLJAwZjak3nsc7cwMBNoRy6lOivpbk1x2j53SHggTH/S8qYAMpG0BtVK5wEWf/rofFq79HHU8gbOJs3HXphC/nr0Xd4hLon5/EnKbTUPTLXehRxYUMKSMqD9qIdT3lcAwai/Z9LqDrlj/R2tkMJ00YNpCfQyG3h73akYadTTBEPsC+73bDof8INLSXwb7ORAwqXQ+OpHhIjEm4srgNVsbNwNLZ9eFGGotWxOdaiyYWF775Bte7fY+PKzRC9bo04mTUw2iiV8VD7O8/BXvdeqBRHTXkVkOIskwZXKqjRr1a1lre8EohOGiCSo1GQ+ZrC5qmwIUJMIH/koBDM/RZNBgHBk7Elo93oY+XGglOldG+aROs+PwjrHl6F+NdyMagpAphY9tjUUghDNzSj8J2yTgSwfkULmcX/AfW283FN2vdsb/8BLyo0hGt27iS4kP9WSqHw98vcPhAMPxat0M7midgDWMhVwfs8pFBlUXoG003hHPF1qhdPBwaYwYZlCULUnNqH0AdmlxYlOq3hvlmeShvZAJM4N8ToC4nJbmQOCMAw0/Rh/pqOOhvY/+SvQik6A+J1AYeoeuxgcJHCoT/im/nB1Pyk5f7sZmy4RboOAGtClBzZNE4vikWio9bwjizDQa7z8D8zsVRyr8Cuq4ehPgTP+LKlT142Z0qhbJeL3w+bDyco+XwUGRICWUmBcSuAio3DIAzKRJC1ry+iNDfxqi24TO4FCoIJRlnXN4fAmwI5eRnST/0ZgobOddTgh4Xu2L4gJL4fo0Xeh7YD5vu7uhVNAyfB3fG06/ETTzBuaRYNKYRF3P0BQSq/NDR2xtONHpjotgTG2dveJEC4KJ3Jo+uHM5eTihIRpTJFAKjzBMV20/AUKpTRoqL6f4hBG77G77Dx2B4fmdLmFsaJpMCrs6+eDYvADV+6ozRf/yK4ZVICUo7gN5IPFC4VgCaNC5CE6bTd8hsHiNENRWXyBP0UhHpdj3qoEmrlpbN7zzKQ3VzxriXSPIHJpDtBMzkKPGv1QUNSjbGgtWxGDRfjUSSE2Xq10Sp2I9AM/ugIznleXY8Albfh+cMMyaVo9BZmsMnijBYDA0W4WAAhaDYrMNe6JEcGYEXIaTbGGgnyaOk5xoaBUpCzHMJXmgioEtzrkiQRCPcBYravJpNivQYt9o10KIGKVuZZ0OnXDrLv2aSGyLchgsTYAL/IQHSPWw3NEb5hbdTkxWQw0N3Cj/OGg+KMXmpPF73Iea9tCX9Q7XqE9CxMGW8vf8bVj0vjA6dZIhfdJUmCcRQhIszfAYsRj+yYSQdO6efRP3b2sWlNEUg5K+/EORfHnake1i3U+gMzA4N0KhDE5ojRNvfZAel12ypQNhQXN4fAmwI5dRnSR3W6fkWDKvTA3/ka4JxO3/B4MsfU5ytmkLRHNBh1QPYTzCjzBdVUNWuNBrWsMOFi7dgrFMA0lO/4+9i9WBPhk+WhSwNcshAdGazVAcDxeJGBl7BzSs0i4dcpeagu4glpSTi1mXcDHOwTCI0k7Fi41sFJdyUKDRwDY5Wr4nxoydj66gtaEhGmn1YAh0nYmglUKpDsHdkAK46iOQOGQrFwkXE21uGxDNsJU8LZXRK3RB7ZTyGt1iEyzayN8bjmrRGNN5rxhoaRErMwlucsX5+zwSYwP9GQKwNJBwTyUVq4aNZl9CnspdFqbG1IwfN1mO49dNmHJrcGzVtY3B82z14BJzAd9PJMUKKhZAxFBWX5qywOjikSMLj899gYzANddN+cQGbqEeIp9HmO1sm4ielOcOIjQz5KnqhRPNKUFOYjFVOmGnk2lrcI09hXM+22HYljqp6SeJYD0l9NcKh0DasvdcJJcJTLp3pAP7IBJhAdhCgbugWuh0fTzsKs89IzO95BpP3xyHMfio2PxsEPek3LpKTmFWrEX4oews3NpV4KVOkpQnU2UV/F2uVJdGbqN2/4Z5jDwzVXcaDSB00Dg9x71YlFCl0A4v9GmKHjRMcKG7XpI9GYvl+ODq/HmbMvYPO345G8rLW2NDuEDZ2q5o6v9gEU+qwMPlhELa+O3pP24wQE3l03lQoxPaDn+OwsiG1ifWON5HKVfvYEMqpj4s6vtG5LOpP3IE+/dugEQLx43fBqDZvMmpRB0y2L4hW1YLwfacX8Bl2G5NKTkSX1U+RMAYIPUTrCxWZaElFmeqKEU5XUB+m9JI0NBz7HEe+noMrD73QYZMLwnXROPvDx7i1PkWJEMPR8dpYXB3VC6fEAiJkzhgTo1Fo6QP82t4bOvL0JpcdQOsbNcKtqKIolmTA3XjKuuLgj4KUJvuBxh31p2/HlLoFIUtzvVIiBuV9bK7eCg/SdRhI9TTRMT4yTfFRFWiFbhOd0FBN8bvCdfuaYjboUNiHPNHsmXkNId7MBP4FARIFtsb7OPbDXtyhmHiRoFquJCHy4CSOUp+WKk14cTuULhCDy999jZVKslKKtkL7ItexZ+4ly8RjiVGDuDIj8Fkje8siitbWmOCIEs2mYnB7d8jF5ELKBGl3azmGTNiDckO/xCduydCKbCupxaSPwK2TQahethDIPyLEEZJiI2g0O2VkJ1Hti6Z9Z6FQS53Y9fpCGV6UDuXgTnMLXi9ZXn8672ECTOAdCVAHi/cKQO8BC1H3w3Fos9kVkym0TIy6mMlBIhaJl/95njK2AaWXl4Ar9eU4yjKZVuh8MRfZTKEmIupDiSfYd/gOksP/wMBqs1IPG4weq+5iftTHUPrUwcyVu9HEnxK3hM7EtMmJsEu8ijPHT9BkggnIp7KHSlw0tUilL/A8ihQZmqMopik6VO6OAZPLI8H0FpWYMiv4+rLeYeX4vry+5am/L7eZC++DBIHGyQO+OIQTXy/E8cDz+HXtLRQZ+Ru2zJWR4WCAxKcTmu+4hjXeHih5rxJ8767HvsSieHTYFRVXdkMB8qSIiBGpSYcXF3fg959X48CFqwg1xODp1xtRbcgP8NY/ggZF8dEXp9GvVopQMD0+idndPofPxi0Y6OmQkk2FtA65S770icakwETRecVE7K4hEdGRiTB52MNOjDJRoFwChb6Eh4jsbhIa2RHxtVLSd0IRS0acJMMYtITq1WpJ2rk50Rwi8hL5BuDDmQF0zFuemRCodHN6+ieheUIZqnzLibybCTCBtxEQ3c/RcBkbpo3G8ZfiXq1nUgdMNSfOzx6G89bNmV/b9sKUFhkNIbGAYRwu/NADd7enaD4i9E5kgjQ5JOHk6Ba4KM3gKRFXodAWY5MV2LmgL2i6kMXY0WtJ3hht4eVGSomLD5r1HoHmoknvUEgcUiZOnif0Dqj4ECbwPxPQ6dxRceg4VCH7I9pIykhqEf5NmTQB54+fxguK7DAML4u6ckN6uKpUCSVNIE5Wd8C4n6ehqacNrUPojWqz9uDXz5IpwUoCri/vgp8LUeKEjh3hS6PJVxMe4/TuVYjMTwusx/6JcGUFGh2mJCz0n7jyKz5VqZYiSUgZKZgP7iRubGu0Rt9ara1NfOOriKTRkwwRBtTb1JQ3VsQ7cwwBNoRyzKN4tSFyVSQerv0SP9NoiyQkDFHObtBt+wr3KZ5EExeG+EJqtPljBDxJnzCXq4umZRZgVbkOSHQrjKkNSWEQVhAVpT4MJ9eNwpebo1GydikodWZMP3gVH+ajRcrubMQFtRN6FvVCvvy0pg91blO8G2xo0VIHj/zwFHOEUqqxhJ2kd3wJ1Kq9+MJvJypfnw8ZxfWbK1SGP61S6FA8Hve/GYBR9O2ShYYgTOYAJzJ0lLQUs867GALcqJbUiuSaRLwIDQJ8nWDYMwxD9mpBS36kFOvFLOEu1g+p++jFTK4l93JD0XtoGbjy5MV0MPyOCfxLAsIR8VzZFV8/7fpKTZLkCOz4xBNTDqbukjmi8pB9WDGLMlmmypyMJ2Vc8Nhs8ke1DsNRvv88dK/lQKG4gI0pFEcmN8UsxwM4M6VsukKUsRJ6b1VmRKhM6FMTZar0hYe9Hr8N64DDWm/Ird4TISpeZxRRGG60WwBGDOoNf/dMF+CPTIAJZDsBYTBk7o7y+GTEupVCk57elFo/w17yhipCf8EvByLg3Hc8yjvbpOgftJipq28piGh/mSEOsa5K2OQvgZIVvGATez/FGfs8ECEGchIn0Fphb8qVT5dTRz7FncRYoJw3ZDsnYvDWCKhFOkxRrKpGhmal7Ej5a9KrUaDdp+jXqCQowIbLe0CADaEc/BCTI0uh7fUgdLn9FXrV34JGe06hf3USBJSZ7ZdOvvixfiVKhpDSeRNUFdGjTSWsOLsb7s12okNRkg0Upy+KVuWDprND0f4boNDTMSgfcMDizaBEblA+ukQGFo1Bn/8RY+f9gFCNnMLgIim87R4u9W+LS0I4kAsksuRI/DyjC9xpboAoZvLM2q2cgO+faTHyIoWp0MxnaQfSLOxd0GOLFm2TlMhXCAgfKkHNewOx+bfF8A66j+fOfihB0iyBRqVFMVFoXHKMCd7FaPQoIRihIUmws5HDzvAYx4/fgV5VAuXrFoeDmNhI4lQi1jSyWGZiXpECsgJiSChF0FrlV0rN/DevENCS8W2jSOkHeeWe/6/u02p8iOuJEVtp+D3sG1MCU253Rp+6j7DhtBIff0OpackYmeq6GzOGVocXHZuW/tpyIsmL8Af48/INymCpgmfXdkDkCRz5nToyhcWpKUzl/N2nCLG5gGP7n9EiiTRv0RK/b9UyaM6Q3h4FA+qiLClAwhCKj4inlAvtULxQMGJDA/Fcq6f1y2xguLMbfwbZolDVWvBxpp83EgpCZIhkVGKgyUyyLEYSnT6yLdrHJU8TEN9xHXkAWYb8330NtDYeqDVwAeqTTKHBYFCXt4TM2YSfwqLKKyFt/AVWTv0YXqSaWGQJ9V9h25iS4hAVehvPaI5QUuI+rB50C2VWNqCIkqroOuZbfFCKwmZDZmLsp6GkJlg9qq/elzKWomKSjFCU96AF3cMRFhJEegetR2YKxo1jNxHtWgFVychSktCQkMAxUdYqBaWuFG0x6uyhprVDMkTvvnoB3pKrCLAhlIMflxgIMSfG4/yk4Til9YHjmQuUuakG8H1HLL7UGlOXBMBiB1HnVBvj8FfoU8uq6Vr5Q0QnF4En3Rs5XOnHXwp7J3olmyGO5vNY7AjaLuYNBZ27TikuByI/pbVcd84eLT+rQymxJQhoSztp6NhIR8ff24p1Z+5bwtAELhGG5qG9jLmrb0He8Ar6eN/F6AdKNKxKQXA0geji55UwJWYRti9qg0QRVkPzeTSkrP49zB8fSVbit+3DUFpspn/JCbEIuuMI/6I0rNXkd+zsQwKPFlnTLmiJ0sdD0XzpRawc5AClMJxMsTgyZT6etJyAj+tT6l26bzFMnSxi/qlNXPImgbBoPa4HJqKkjxp+XjQBn0u2ExDzC7V/bsXKsV2x+u8umHx0Lept6ITNp5/BrvkKbF54D+1Ht8SIwMUYN78PGtDxcRlC6szRQbh1/jBCk1N+ckQ4nMzeHY6PVmHV3meW9kowAEOOkiyrNgYf1pZDH0/KBvVx6t3Qa5yhqVwN5ShZi9z0HA/u3EOy/8eoK/WF57Yb6ElKUn7tRYyrtBs3GnyD1b/0QWlHMt7o/Kf7l+O7S3UwYkZVuJO8EAkcxBpowlPNhQkY6Et28lYcHO1kKFfYLn1kgNH8pwQMpADY3t+GBbtU+GB8a1R+cAQLujTBcs/ZWElrEdal5T0SSRcRxTb+PvZsWI7jZ6/j1uVTuBdB2yo9RnzNinBLJIduxFGsHFEfW+zIkau5jaduXVOTImRxC1Sl9ukjhEQDlcqYYFf3R+ykgW8JyazkZQ1R/Zgnuq6i6QFtHUFTISGJCMHmZcuQ2GshhpLioiGZYiLZphHGWxbV86bcR4ANoRz+zIx6JXzn3sTWyzuwbH4X9PjOAdK4Z2iy7QiaFEiZI0PrEeLp7zMwZnk42s8ejEvT+2FlszuY1ZksitR1digihDLEvXyzNrb3cfRnLbxa9EIph68oOUNH9Jw6CH5kdAgDylJIaIQeCsb+SelaA4Xw4vnm77ApiJIa/FoR+GsdHsf2wlh/J+jCluHrFWY02lQFavp2kYyiYoJOI0X1pVNRrdoMfP9jW8z7tBCU1LbE+OO4E18D7XzIbCPBkkiSRXF0GbVjH3QjnmDRRw4wkNCjXaTASGBr2IE5veXwOz8bVeiHyyKI2AiyUM6rf7xcFFh/Mgn7r8aSImOLTjXd4CEWveLyrwkIB4MNeWWfbxiC0Z+twiX1THx1fhwal1DhyU866n8Si7FSpNdenHQhA6hPPwy8tBmfLDqAkfVI4SABIDzuUv9G6DejkaU9tEYqnEnpuEWLIn666RncKs9Ak3w/YYvrcqyWdMPgXw7iYav1WDKblBwSRLTWoaWfi24uDCO7yMc4H3gbaFYJ+YUMIYXKyTEIq5u1wddPGmEKeVN86RoJ8SQz6CRHaRTOrqiGo75m/NnFjEidSP3AhQmkEFBQaJaXixLfHAiDkzoabau7oKafg+W7w4z+OwI0hQf6wB3YNmcztuyuDl/937hosxybNo5AZRfRr9N7qVSiQ3S4AapaEzBjzEI8Xt4B66oMw/gRjaCKPI5dztXQafTXqFdUAk34KixdRhoDDTNR2idKxZ8iB6x3IkaUn9IIdHRSR7SoTusukr6jIf+Z+++9UGvccdgOfYQxzRxppIjaRycpFHpI7/yK+c1s4f9oFmqQzBHbubw/BDKpxu/Pjb0vd2KGDex8SlE4Wzt8UMKG0lzfQxhlO9k5eQ5Ov0i5S+3V+RjXdxkSJm3GjE9XYfWAIGwb/hF+upSUNvpjOTJdrliGoQucXo7piZSetmM1FNCIBcX00FOGKC1NYNSl/dNBRxkJzJZ5OinXs4+7hDWb1iKq9EbM8YvFxe1LEdi+Barb67Cv22jca/MpPmxCsbcZHwIpNMm+c2hhsxjs2/glrgfTTmqP/tgPuFGmKso52luOlj+7iAWTR+PP+idwZroPJDR8radVGQ0GaptJjUp9VqCz7Xz0/vKJJfNMxkvw+7xJQElhcR/WcqNwSyMtNJyAieuD8MORcIvSnDG0K2/S+Xd3bRt3AZs6yFGP5MqlGsuw5+IMNKQFVcVkQosTIrV6EToibb0eV24sR4P7B7HyAzs0mHISUUnCpZp6EHljTNSX4y6uwydlJGg26zhsxlPihMMDUc2BrBl1EQQs0+DUmuaImlcJ1fNXxthfYhBjogQLZAFZrxf1NBT37wD1Gtla5jTKKWPdzUn9MPnPRDQ6dAQDvEhmUDpJI7mc9SS7ZA3GYn6bKggdWAcLX5AzhX/1/t2X4j08u0QBFUoXUCOYQq6+2huG2b8+xZUnKW689/B2c8QtmclWSQ7YiHN3DuGD8Au4eMseTae1Q3mKsBejRRlLol0ZdJm5GlOHtELlsqXhTWGvEhHrSnqFyGlpUjihQPFyKFm2LPz988NeG4/bFVbhTuTfGGIbj+R0Py5lqgzH9Rt7EVKuE7pRzKyW5JP7k3XoNHQDwqocx6ZFvrCj3xKjRe8wIFlaGL2mDoOffjYGjIqCzi5dpGVsI7/PvQTIb8YlRxKgzqmIfYDLt0LwYP9MrP75FIWCDMfkm19isPICZk1bixfX7+LShfYYvPgpfIasx680NCyGcovOiMCCR16Y0LghgrbuwJTG3pBGBOLu0wjI/76LZBIdalMyvpu1FTpXCkdpTx6RRWqon8/H6BZb4ECZ3KxKh/DF6qKuIkI1y6LPkMhB8KkD2HsKaHOwEZxvUWjLrvxovbEe8p3ph1WqlhgyYxR8wh4jSKdAeAzRldLqQkIZIqHlOvAP9Dq3D+HJWii0j7Fm2UMU7Vkd+WhASEJrFx0eUx0/XC+IGp+sx8ym4xFG7mhp9B3cCkyAnbM9OXmSKHTBDZKv6mDYB8/wTS0ZaHoAlzxOoLi3ikLjVLgVlEzzS4DD12Jp3kk8mlV0RkAZR3g68QjRP/qKkBfD+d436PLBUJxT1Ubzz2ZhxuQmcCG2YvqOxbaxCIl0SSGhHfH5h+ObwE7YMro5li0PQP3zG7HrSHcUuPUXzu/+CeuWfo3zxsIo3HAuvt4zBa29yRmSFJMaAkctJPnl1mEx9jXuic0TJmDtAh8EDAGKdJmHwSMHopWfBLePT8ZJ4xisreRKhpABL34fj4HLjkBT7jOU+akRWv5tgL1DLJ6duU7rlniBTGQkKvKhoMMDrO65Do3+6I3idJ0MutE/QsMHv38EFHIpmldywl+PKBshfbnvh2gw/9dnqFnCHg3KOqFUAVuoU+fjvn93/39xR+lyIuPVRJhqoltjzPrzAYqNbohZnYqj0+zT+HZADXiSdpoSGptyhohqsRRRlfBwZfRy0Ucx0pNEjuKnDx8jkvaR2oHoa8fxJDoKj59Tll2xgYo++BoOb7qPItPKQQRSy+LuYumnA3A2xBmVup7AigYj8VDuDvuISzj/WA8HTzW0NDrk6kkLzv9UCFM/iMfnTWkZEhGmwuW9IMCGUE59jCSM1dpL+GXaN4ir1Q5916xEqxZl4E4dPsJcA2N/rAHd1x+g1G/1MeSbfujapQby0b3QVByYVe5ot/oGbOaPxM5HkdA080a+R1sxvedUBDsXR+mus1BNHozzcjdUWrgMLWih0zvJMZQOuzxatGwED0qNbZU5IqA+8U4i7lzTpobLmSFz90D9z35Hv3K20J2Ngmu34ehZIx8SXDfg4B49NI4xuDiuP6YdCkTiC2/UGtoRBciLIqwrpVdzTD/R3BJjqwh/DJsaDdGxeXvko/s1kudXVrgDOg+rDDdKx2LbujjKyWRQ2XVDK4U3ihRxppkFavh4mXC0b00sXHEFzwKqwpMMobT25tTnye36TwlIydLuWtsd04KeWq6jlJOnj77Hv1+IwsnbcahbygGVi9rzHKJ3fQpk8MSWGYJVa5U4Qs6SllXpRHKQW3IYWOogGSGPI5lgmyoXxEYKOaOOmCT1RtfVV1Gp1W5EBLRHqSQdwh8dxo5LOpQYtQIfNuyNxtWcYEv9Np5i7UXmJblJdGISEFRMFHoSR8lfOq45gA7PruLU7t04fiWUnCe0TpBJBZmuJOpMag5/SqpCbhry0Pqgce+JULmqYbBrjhZF5bCxtYWijRQqj3LwdqQQPpdy8A/qhw69Z2LXtd4YW56uQ/fIhQlYCRTLr0I9khMHr8VYEieobSS4/DARN4OSSG7YolF5R1SgOUS21uxi1hP59a0ERGSLUAAsyxJmOtoiM2yKof+Kcyjm/xHG7b+MJ31rIL8whDIda/1oJj3AKGJsLYV0DkUiDGTVGH5ph37b5CjTZRYKOpMs+m0gxhxQQe36IfqV9SX9QegZJMiqTsSYRqUsDh2zQQHHqr3Qu1ph2FG8nk2zj1CUHLAqVWc0l7rDwy8f1JQpzsPfjGtdq2HR2n0IadrSkhQmRWKlNoNfci0BWrPSvIhaPzan38FfDxOweGeoJXOIXwFHdKyfz5INKKe3+9+0TyI1IOlFEiQujqA5gJYf7rSOJ5QHbQSC4pzhlZ9y5dNQcto+cVHq8bKkRCTSEvC2tENmiEdIWBRMKhr5sfeAExkm5qhwxDp4woWyDuijQhEcS5mZ/GiCIB2fsS5j4gs8eyFFPi9XkOOMRncozTZpRDLhYaED9XQdib0d5OIkapcY/dFFBCGMZkubZWo4enjTnADamLHSVDCmxAhoKIOMuD+x26hPspwjMsmkOnDSzktzANFlDSEPECz1gbeHKuW6qfW9ry8i89UD8lLuPhtKCr6RYtoVmNSpAMW0W38M3tc7f/f7MpEivfZoBA5dj6V1KAhYahHfG/GdtFfJUL6IGl1qu8HVPp3buuMRlhEkcUzpIg7oUJfWy8oUmmGtK8+9CjlCN505sYCQAbqoYITFyOBYhPo3scvcvcUcAKHkCPtGRlkf42nxHlviLuRExvoklDYl6UUwIqVe8HEVClOGQvWKbFEUGZuSNYp2mWndsWSqw1Zlk6LIGCmpi5myTtIzlwm5IY7J0Bjre4k5FmEP4mFTkBLPpCxhlOFCefet+N7fCdTi1xOBJHMlqFzMDp+1paG6PFjuhyRj2R5amoJCowQXaxGyxZZGhNwcFGhXI2UOkXXf82gdFu4MwYs4A40aydGhnjd8PJQvfQetx+bVV1NsEIKS7OCdz40ysb2GAvFWGKMQkuCKfGTEiAWTsyw0NKSNCkG0wh35HGnhdVMSXpBuY+vpA4ekJ3gYZwcPdzfYqykSJTEcEZRMSap0gLOjrUVnlFCGpUSaCqBUks4iZBTVp6PfVJmCstDSZyFvLOIjVYZY5YcQNsbwu3hmLoj87mqk/4Jk2co8tVH0j/WHQhFK60nqSTec36MQipJjITcUCRV+ljn4SZlplWNbV0p9RMWY2XtJndSg9IA3xdOK9GsZfvctxwtXilFlBxXtEPsMcgd4+jik7KO/ItsanDxByeRIUSEFwsUbhWmCopgF+IoOaOOOAgVoX2oxi+OFZi6KEF52wqpK+SheheBQuBVCQVrsMK1Y96dtSHkjtfMg30766TKRnkp8Fu1/nSCk7VLP4ihkOdByOP9hAhYlrrq/Pc5QSFxK+uUUKFaFJkFjxOm/4/Hn/QTLCFGfhp4vKTuMMAsCoh9msVnIAIVLQRQUMoNKVt1byBjrdiPl3lZT7hZRWeb6zKRS2LoXgY+lpkx/qAIh+0TYi1UcSMhbmyIlUo6V0Grv1h8yipRLOy5TTfTRCR7FhMTjwgSyJuCbT0Ujx3Y4eiOWlOTU3zg6VBiIYoQ5JEqHFbvDcKhgLNpUc0HFInaW73j6kVnXm9e3Sp0Kocjbuh71db3UlRLdvMEIEiBJGNi4+SC/FapUDXfvFIlgciwC3xSVySIIzLaecBdyJ0Mxk4dGTQ5iazFTfYpU60zoHWItxdcViVuJrOXU607g7bmCgPX3I1c0lhvJBJhACgHxo3z3mQZ2qhT3lZy84Y62lEXPqnnmEVDCyEnWmZBEST6EMiIMoCIeNrgXqslyxFjY78JjdZAyzJ0jg6l1VRckaMRaEXkEGN8mE3gDAdEP4slhcI9Gn/WkEQqd0C3D6OkbTs21u8Q9Cxmgo7hyIT7FaLEYPRZLPmRVFCRr7z5LxvUnSahd0h5laWFzMerJhQkwgdxJgA2h3PncuNV5nMCLOD3mb39Ghk/KL7BYDFAkBMhrP8jCfomjMJZYWh8rxZaRWCY1ZwyNy/xVEceJ/RrKq/rL6UjL6KZ1gDPzsfyZCeQlAmKkXxhBY9c+sTgHhDwp6C7iCFN61/vIQhhCkfGUHYwypYoiRoLUNpQF8Q23LDiJOUSXHiTi6uNEy4jR+8iG74kJ5AUCbAjlhaf8lnukKBcoKZzThhxgCRkWQXzLaVnvprpsRCbsJFpDJHMMTNZnpHjj6QeXnWqvAZTFZmeaVPVhbZpwLjIZMbs0NU1GSoxQTC4/TnqjIiOQitEjd0c5XCnu//FzmqHPJY2AlKbqUIg9xdLT1+tdOyYdL2LuacpO1n2Z6pFTRIqQM4m0dkfaQ0u7avobOYWzWI77t/IovUp+9w4ExLyMwh4KNC/vmRZe+q6P/x2qz9GHWO0eMSJ27GYcOVfe/AMm+oUwogq4KhGdaLSMSufoG/w/bJxYa1Aol3rKrPavvz9Cp6DIN0p0a0kG9e63IQSOxDLnmbLpv1QomhYi+zZNDXprkdKxIueo7nVyjfbJSF7KKCw383XeWjkfkCMIsCGUIx7D/99GOMTfxaqPa2K5/1lcmVrq9XNz3qGZhqhDmFl0ICQ/n8XUel40SfrNJ0n1iQgOi4DKvTBcLQkVKBsVzYw2kivyLadaKpZIafI1aV/WH7E3X+392StC4gLKOVnC4d6fu/r3dyI8u3v+in7j98Hq6e3f1BONieF6SpbwKEzD4XGp+CW0bPq9GWXQ/tFEHF05AJ6ZYuyzekoiMYLh7h7s/dMflfv507pkr87VUTrH4kh9Z0wqfQuHV5WGLaWkzaqPq0yB2DMgAHO8D+DslBJZKj9CARUnmyj1m5HkhUmroyTZtnAmo5bsMdpBawhRHvWs6re0n1aXlippblFeExyWm3/9HxNp9+6USaIB9Yu8Wk79HYfwWL0lc9zrGIjvn5erAh1quKEkpe6f82swG0KpsKSyRNxYPAV/2HZEn8H14fEOxsbrOAtBbg7fjkkd1qDixn1oV4SMz9d26ky1KGmxj1+mY6XPWAyqKSYepexX6CNwevM3uOfzKXrWo3mimU576SNNdAz6eTjW2/TBiI7VKavcS3stHxSyFzg9ZznONR6PcdUcspRXr57FW3ISATaEctLTeE1bJORiDTu3BWeChBP1bQYCZUpR2KFQ+ZaoXFoJyoydUqgDp2Vhy3QdGaWcM8TFQKOlTHCk0IgRosxFbBLpZq0ySCY8PhaN4+Uj5eTKNSfQgoaUJ1OMMlkyyWU8hCow0vwWg1isgYou7Bx+aNwUW/yn4/Nx3dGwnhvurBqJb3bfQdxLDZFSVhe6IC1ylp5EQQrXyoMxYUE/FKe6rG2zVJwH/ljD4vLArb7zLYrY/cAIHewyrfkhstrQABB8PW1Q3c8e7aq7ptWZ1743aTf+mjeUShSmpGAaHtZlSJf9moOtm8llajjwBSbMroqlo5ahMHlvdSRL9MGXEajxgVdRT4hHIgmTQO5JfT8LGWOtSmRxik9OQiTN+7IWiSEZ8TSMlBT+FJGxEYiI18EQFYHwh+dx6fg+HPorELLaP2H99j6oQN5Z1amp6Dj7GPRyElS65HTPr1wFlYyMpheF0HLfNoyjJDAk9l4u9FlcWaTxfiVxzMtHvp+fMvN4P+8yy7vS0rygPZeiIdYVylyEc05J24vlt0Gtkg5oROsLiRJGWePyJDLqwwrqXiLL2ktFagcv3Rr8vDwEJVvUR2f/LLo7ATPQaNGbEhNQIkjYR53AV206Y1ugP5JOPkKrokWhzKCHvHTdDB+E6uAmuYipn83BunKt0eV8dfjEp/RraXw0LiyaicMTO2OAKlPCHOrwyTTyI4wtGekvSlooOuHcKhzJ1xyjyCEk8qCZKKRal6q/kB8WIZumYMaS78ih2xz969aFK8kNUnG45CIC9Bi55HgChgRcW9kL009TJjbKUiN9rdglL6c0BIH3jAiYegcVKnhDLgwhEgqG2Cg8D4+iH/bMUguwSwxEtAhVoZSUj++qshBOZHwZnODs5wZnCj1SmsNw8advcfh+LC0+l67RiL5vTg7GFbwAfpyK+YddXlk3wGzniTo9JqA+KSDCoFEWaoQx+46j7JcdMenDr9Huj8do8ugk/rTthZmdCqXOeaH7UgXjDi1wJ69ZCYXy0SiQRUeidLzeZSFUWpY7BCEPF/H8xTfxhyPhtOBu+ndchK8kUoxmucJqVC9uj7qlHXkU7R2+JxJL7uv0vv0Op5BWRGv30HohZP9YipS0hqhVrfHp5d6Yu/cLNBBb6dGIDHCWQs+GsutDQcoHDeikO2DospTRNOWB0oEyZQLurZuJpVsO4eH9IFolPgYvSKlxrPMJ2tcuBjcXco5UX4C1X3WFH9UpFtQ1+DRFl74R+GXYBhh7fIXulck5Y5LBeGQk5t+pioGDW8Nx3scYrFeQPCOjiqxk8R0SRaQGN+rKodnqCfiA2kp6EZc8QuAKhdU+pEQrdpQswVrEd0N8HctQUoSWlZ0tawplXFz1H/YSa7W5+5Vu2ub5Gaxd8x1uh4q+lZECjcQkFoJ9wm9YPKodzuS3pnETt0y9TKKEzLkImvWejkYlU/SAV2CQZuoedx5f9mmAJQnjMGFaPH6cUweDFQ+xcRAtcEoLtb/kJ81UASWSQ8yKz/FzUgl0WlwJITM6YP4Ne0vorlmTgBvPaP2zHdMw+kR69jgYEiFruB5Le9vBoHiGM5M+x7aQOESeowXn3VZh2oBt5Py1QYlhazCoFIkySsL79Mt26Ln4PMqMmQK/pZ3xsWIlFn7ZBRUJB/mRuOQSAmwI5ZIHJUZzFB9Nww+TP4S9LN1T+nLzbaBUb8QMn3FIVlBPTP1ll9DxsXsXYPikJQg0kwsnUxEeWLFOB661QdtdGQWa9UADtBryiNzZjEEu9lCYo/Dw8DpsPR4CEw37SMl1ah3hEWl1dUiG5PB6PBOBuJZC6SlVCkj0Wmid/OHUYgIa+JAApH0mClGx9wtAx6X3UWfAUxhKx+O6yNZT4SN81K+cxTMrBF7+xNX4YMJq2LRagVmf2kFHXhdLoUPTR4hSt/FLniMgvrVbz76whKdYEyWI7HAOlElvYDNPVPS1syg3WX278xwsccMkT8SIrRhktcoJKwexaCl1VxrOtYHIMmuXkpnWujvFQCHZIvrgG2PsCbY5KhKhISHQ0fuM7MXCDQ7kwbj9eR8cKLcWvRpSW0gGqWl+ob3RATbCI6+0hz0pG8IzHH11H47bfoGTp6tAEbwf03qPgHTiHEyu5khOoi3YeMUbvh62UAr9lWSCxqcxPuwfhb+G7YS+8Sfo2ZE8vbRdnzAN8xMro/WAj5E0YT1+3XYUQV71Uam0O3ma6QCy0kwhf+HkVSUqbyRMtAbJSw1Pp8Dv3kMCq/Y/hzrVCBJOFDEKVJRGgD5u4AkfNyVUGZws7+Ht/6NbUsTew9lt63DavQc5NuNp9DilhwtuUllpVG9dipbpMCEhUXSilCJS5SvjDuPQXg/4NJ2OxmRQvFKoGtuYm1jarxYWXeyHOVcWoCstov6B4T6afOaG5kFh2Pe5EwzRKSM8WZ3v/OwIRq3fAWPHp5hbPAoHftPQiDJdXQxfPdqDIEc/VCJnT8a2SfQJiEoypcwtpVAaQ3QMjUxfpuQhznDzsYM2IQEamd6ytIe7QzB+69gSI/64gSLTI/HFKFeoelbD/Cbt0f5kV4z/fiMGVpFBR3McSapwyeEE2BDK4Q/I2jwhXCQ2trB3JI/2G56aUm1HXlkzmSIZipGMjQYDMe2nptAIrSJTUSc9xI4lA7Ct0Bqs6lsgC8NCeEi9UNie0oTSuYnS0uiy6SF6U5v+3j4VN0rPRZfy9KMhPLEvTmNqsR4wbr6Azxvnt4TGqaV/Y/2wX3Cv2yzMrCsmStMCrsYUoWkZUKJ6zEpXeFYmYWJ8SiNKVOiGJckJePowDMm2LojcMRcXtLboVVGJB1cfUjgLhQCSdehUqDDcSGmjKrjkcQK7/4y2ZIMTc4DEiEKPAHc0LOOYZZhLHkcFc+AZzOpdF9ue2r8c2kLcLOG3iZTtRD8KTYuPplFmSiv8UgczI0lVB8N/3IpPqjvBHB9FfdqBItAM1A+1SIpJQmysiQaIyKoR3dzSyVNexUejPhJPd85C/96zcJWUE99OE9GjdUkUeLIYdT3H4XbawymEAsvI81y5NjrmLwaJXX54FfCGVENygsSYkaweKSk2Tt6F4XyJUj2/1EZSQGgDBflBl5iImBgjtCYF9MIaIheMNk6C8kuOYCnJoYHmz7BgRVt40i6ZwozAJV3RPqYKapFhpk8RU2kt4jfvL4FdFBInRn9E1jghQ/LTHKDWVV1Rh8LguGRFgCQFKfqFx67B2nYqWHNLyCQGXD/9EB7lS8BTDAZl6Jf0sw2X+yNRpvrBLEd0pGSAaJ4/xA89ymFp6EAsuvQ12riTc1UvQ76ph3FJWhZV5jqjaZuJTOgAAEAASURBVNBOfLWsLXyFwyZD/aKVUokGf21dg8N/N6Zok3yiU6PJtH1oLvoyOUr+6izBjYrDsOSbIfARjqAMRSwAbUkYpS2E2l9tQMvb/VHz6mMM2rAdHT1IctC1NNc2o0+J7tj1RAm/r83Y0i4a8eHRSLZviJEn78J7cAksbLwVX3fejw1fNUMpuoYhUxszXJLf5gACr2rFOaBR3ITsJSCUGFWBYqhWmJSJLKp2iMuPq2tpR7GqCGhe4rWd1kRDvWIURxQjCUCd7T1cmjQPM8sWhv+mT+AnOryG5hWQ8mHUJkND1piYjGw6txsb1s5GSLnJmFbdJm30SIIYPP7jOCLLNkONYmoytlLqtvylsW31o0/RNmAD1CUD4ONSHvUaAnen1sdYGlq3jzqLcw8N6HnBjFnFyNtrbViGKvht3iEgQuJEvHlRWtG9cjE7tKjkTPOE0sNb8g6Jd7xTGw8UrdwctQrZgvS+lKKQQ3tpD06H5EdhPyAw0Q35QgIR6NkcTWrZWmLjUw4kR4a8LIrbUWICGmC+3N8NvU/Ykq9XS6G3JzE5/2qYbFpg+oHfUY9OEOt2K8moeHTiAC4nSRC1rx7aX6qKWp3GotVvi3BTNICeXYyqBUYtccILaRTO/Twbux2mYV4Xcqbkt4V+6zIyuFLbmfGFjCwTTVg0R9EFqI7MRYpo7Btuj32jaI9QRugYdXP62ROXJHnjUrsOXqw9ivAXbUGD3ZDqQnHjwXnE15mC4sIQylwhf34vCQgDaMf5KEuChMxzgN7LG86GmyJXpaXLSWiyj16vouQk1MXIMLE/3Ql92+xBpQWhWDrQE4oMv+vCENLr9ZDQhGPhZLCKHpGZTR4XjL+PLMW8/l/iz6rTsHj3bLQuQDoF1SuKMZYGiSffxLViH6H78Hbo0GokJs+chLYN8sGRjhEZ20T9uLsNq7/8BdHOX6COrQkRd/9EqEFNBpKMbKJr2HHQDsU+8UX4vVuIyTAP0XIR+iPzLAd/MnrEZTV7tiCm+HfwCjqELQ9rokOFGBxYPA33S3RCffNF3JhIC/COznAjdEfm4u0wYrAvrl3aiVuJzVCWjEE2hKx0c+YrG0I587lke6vM5B3VGSQUHvRq1QpSgCyZtEQGNuFhyaRQiImDYog3s62h1fij4+ZP8VWTldh+rhPG1k2fgG69ilwXh+PbF9Ko0WLs6K5EUgbNQm6IxIVlHTA3pBoaj1yH+YNLwoZiaKSWSQR0UZkdVK71MPTX4xgiYomFIkPFSG0sdKQjJM0PWSZgp25O2cl/8xyBwAgt4sgd2buBO2qWcIALpRbn8mYCknz+6LVqP/qmaiKiD3lI7uLz2jtwusRWfFGjFT66NwmLNBPQ5e+S6PHLUjQhAZBBp4FehMaRXPCfexSbacRY/0sf9PvWHyPOjkeNGDUKVaQuTKFE5vDjWNW9Dh6fOItIuo57jRWY8/1QNCunx5Hji3CZ5I2QMUk2ZVG/f1nYGUMgPbEUuwt2Qfc+xUi5isaJnbNppc+s7klCmSntIItPJOXq1f1myiRXefBG9K1lpAnOchj39sb4F6mSjK4pLdkexZ7dQWIcnUuGkAjlu3PtKfwHyVl5eRXne7tl+/lI+FP2t9ZVXOCbz8ayoOp7e7PZcWPUd3QFP8DwNb/DSKPuIt2+Lf1zkv+NJSN3IdFvDgYN84QrHWfIKI5J3piLjsKSzd3hVolUDTGMS46QmBNL8P3CJfjpnD2azj+EA/2boKKnMJro+EztlfbejJ01BmLTmA8xpfMxHOrWDT3GTkKTQrQYruYPTO7bC39Q2BycKaOkPAKHu9TAjDgHqMlpInMwQ4NEGH/sjP6baQHyTHWL0NgSU2KwYzA5V9WJOLklEQU+bQHJ+pqYotqND6uVQLM1d9COwnKM98hJRBaOEKESYwJi4oxQ2JGjlxIseNo4ovnQfPAnIygLWyvzVfnz/2cCGb+i/5+bwpd/GwGJQmWJoX+dnidGfmzI0hG2TOYObiZLJ//T3zHp5z8zhbmQl0UXjr8e0UlRCzFnstsrISZJdsXQrHN/1ChI9YqKUx0gFgHgNxVDKxTA9P1HMKxWF9iSsEk5gEJsyDujubcEy372Rv8dH8OPBF7q6ZZ69DJfdN76AF6f98CoKaXQRG3Go4+SEBUfQRJN1EPzBqLOYUXLcliv1tK5KdtExTbxj2knSV4ueZ6As1qGAU08LcqL5euX54m8AwDqiDqKfrMaNhLqSnd/XoofrpVAj5uV4foVxfXH26D4/ImoWm0mVs+agirT3CFJD/dPu4i9X0NUIAeL5owD9VCaq1O5LKo9fYx9w+pgxnYxdPwUD5UjsOzGJoS39MWi/E1RvQTNxRHZ3IRASC2idxvE4ZS+2yAUJBoi1lEDJSI0T/R9sS1zIaXDwb4wHCXxNB4l9qfKiNTjzFCjYPUOaNmW2keGkv6JGuOPpNdj59QQFTVrcSIyApW9PZAQ9QD3rtdBy/I+ma/En99TAiJTXLMKzpY12VSWSXPv6Y1m421JJHo8v3MI5/ZfQ+yxCzgouhSNzCofbMVa0iVsa+pwbMZkHLIKmIzXJiEtobTUNvF6fNSmIQrfGYW2HZbjkd8oLBq6BxPmd8elxRRXYu2mEgUUtA6HkYaGqAtbioRi8uJtB+OL+VexdPxkDLsbj58398KTpr2xJkyJMh3bI+SAhsJw86PFL9dRmryncntbBA4thjGSTzBj2zyU176g+l6WF6JyZX4K3ydfSaF7SzHnUQV07O8Ku88oZRxNO7Cl+ZLK+ycwq0tbbLtOI9HidBpaTq7+Hc5srIBLMzfAPGoc4ifUwYjKp3FzuDMbQpYnlrP/sCGUs59PWutEBibtqs6ouCpt0+vfyL3wQaa9YsjYMeowtq3dmC5g0o4hcSAn703iVmz5KW1j6huK+vcIQLkG/SGxGEImiuF9jMBIY8ooEgk0v3kXsFXtiZB7D2GMuU/BKDpIgp7hwW09ZKYPMW5TLcgdknD/9j2qk6SbrSsK+nhQnD+lxHYqhkYrzuNsl3tIrk0C6AUpP/FayMiTIuSg0cYPTUevQyvKfWkVjCZalbHwlcFotuBu5sby5zxIwOl1noE8yOJ/vWWbkNP4Ys23CP84CPM99fhLZIEyJuKFzwSsGDIJtdd3w66Oh9G+SKozJOOFqKMKB4nFSZJisuDZb19hJSkgesqfb1+kFxZvG4kAdSz2U7SiSPtudahkrMbyni4rIUeHJWucJhaxoaEIeXoaz5JIAylD8SpCKGQqUkqRrXj6DI9pfgHlyUxTllIOo/lA8XGIjjJAQ8qQniZDZ9R9bJ1c4V+J1lE79RCjy3kg9uxkHC3dDcPcaO5Tpuvwx/eTgA0ZP+Ifl39AgPpa3OPj2LNmA56paJkO6rcmbSKSKD5N7ugOm9vLsfGmtT5ygFJfTjLIoLKj0Vs61kzhdPadXdG2RUPEllyGLad7Iq5cVRS5UAw3EJy21IeZYm/VN1dg1Tl31OnYA/4uqe4OswGxtg1QutdinO75DNdu2qF8IWd4VlWgUJkELPH6EF320vVJ8XEsXQ6l6a2T3UHsvmyEZ+dJaFfVA4pYkicZi5A9qXJM6Ft/Lv0Jj8yPsJIS7Sy2zJmkkLn1cgz97nckBudHzaU/oAeNDGnu7sfcIzQEJb+LE6uXIrbrFHyojaNspWmu24xX4fc5kAAbQjnwoWTZJBGwWqI5OtYpDiWt0ZN1oRhY+W0cW339lTA2KQ3h3q30FW5GfJWmB4haZLownFy5GQ+rD0K3BjQvhzwh4lIkE9IL6Q5JieSppR1SowZBm3pj6MYoiBSiog6huJAUgK3uGm4FprZtbF0cc6uKUm5JZBaR9kMLHKZ4dQ1IqjQAK+aPQ2nnlEsYaMK0qo4/XOnaIkuPGA53c6N9VJVRqUb+0pVQplhciveGNCijwhElEulkWgY99WopFfFfJsAE/jEBqTwRf64cjt/udMOCXzxIYbH2f5ICFP7mMuEYPtnQgLyvG1Dzu57woitYPbNZXUzs82o/F+sGLYG5vwo1jhtSsieRU/XlQmnxhaChPi88qzKSLVEh93D55kFcCaVJ6ztrofqPHijbrStqk2dZkYXcM1P6O3tajNlFexYPSTmql8kQktI8xP0jnbB/dOqVqXGWOUKpH7UO+VGhZktEbXyAiM/8cHnVHRRvWR4eQkd6002mns8vTCAvEjBTZskiHb7Hjo7fW25fSg7RawtroscKd4yhdb0+IacpLbdjKWK0+a8OEvRKmoxN62ejhFM6MYtDhI5Tl6oKew0lYakyDDNrpe+n/CZwW7sVq+74oc3EWehWxCIuLL/7QuvQ0Ki2VlIAZavQK9kifitCcdAhGXdXkTKRWsQ1TDSX0fbX1fiR+rSr4gx2fbkvLbkDaTWkN5EAkrqjVPtOqEKqBYkS2JTsiBbtn5FRlozIv47hgrI2GlX0QAG1Do9NtnB0UcLBmUaJnFSwsVhQFNZP8kcYelxyFwE2hHLJ8yI7AjYN+2Pq/C5vzBpno96O0av7W2LxX741io+lOJRELb2SUkFJWGBPMfHJUdGIeXIQy+fNxaYWP2L22naoQlnd4kmOSCgFt0hfq4+jUSHSVCw6Cy2YWuyTffi1l8HiBRLXECkxHZ2e40i32hgTqIKLitYXUsYj1q4+BvyxCA100Uiis63ywUyLGjpkSMRjput4nJ2OUTGzMbdSMhIoXt/bg1wyZM45xF/B1s/q46Stljy6MtgKg0ppA1XsdQJCaxq9fJP8iQkwgXclQAqChH70Exe2xOBVj1Fj5S40p35nMpD1k6GYVAHos3I0/ug/EEPm1sD6RX5wIKUjNfFjhiOFLCAPLm15HvKY5gaUprT84iIvHULHkAwi5cgFEQh7QYlcCnvDgeSNg/EPzGndBxvDaDKQOKfZIqykdUhqFpVgy6cV4ELGiUVxerk62FBIrdruJp5E6iG1J7lBl7QWERpXdRhlt6tD2ePEOkK7PsKo5+lKkokUmqo1G6LgomlYNGs3/npaGO2adYAbaVnkZ+HCBJjAWwhYnBgP5mH+l4Gov2ovPvUlx2nqXGBhgHie+QjDj7qg+ZKBKCocnKTLZC7C8BC9UnQ5yzzl1AOEIaQQlgU5W2WkrYp91sgQ4RchdcbS30VCBfFWQ3qNlAwqc6YYaYVci/PXbVChak0Yri/CuivpYslsSsSzOw+R7DYVqzt1stRjpDpc+y7C14Pp+rZJOD2gFrq7fI/vF3kDN3fjlPIBztLoTwzJMWP4Azw204GiAVxyJQE2hHLRYxPDySITm/INT80kocUB6Z6y6pNyOwmuz+yJuy3Xo9bt0Rg4MhmfxH2LTrP3olaT8ejycXv0KNIcQ8/sx1CKk9UcHYyenwSj0eU96EX6RcoK7KTE2DtaMixZ0NGFVEoNbs8bgqmnvNDr4I/QNvsQ8iUjcGfoPMzrVQUljnVHcTJuXpc5RWmnxfFlG/DLcVrt/XZVRD0tibIlVIgvuhy/PVpBk6DJ1HLcg4We3XCx5yWsWViK1hqhC2s1lFKX2pmu1+Sip8lNZQL/fwlIyBHisrExqs46CY9uf1E67YJQaqlNViWCupjlLb26t5mNlX0uotsKf3SQROHwAlosOTZFcRF3QQmZKLyIMsdJD2JptaW4dakMuh8+iT5ZSCK5NBJXln6EAbN34ip5dIv6OUJFilOcugHaLzuOQeXkODiuCeb6tkHz6n6wi7yAqEi3/8fefQBGUbRhAH737nLphV6ld0GaINKLiIKo9GZBKSIoICBFRRSxASIoYEGQIhZQQRQbKMKPINJBpEvvJEB6cu3/5i4XLiGBJCThyrsacrnbnZ155m5vv53ZGVSqEmifwyONmpwMhYQXQVjho9iyOwm68nKFxeV4oAZLKFWvA9rc5zhOmA9ImHZGg5+coKkhuGXEbyQ16YCnK0zHmHeXSteaL9DpHtmDxGJcKECB6wuoCxMBul/wRuMJkEuTMHz0PKaV/AjDW8nE7PLZKhbzBXp3/xJJZV9B736l4S/HF5ePZ5rErdIqU2nbi6g25BsJflK6KkoAZIg8AFw4g8n31cYHgY4IS5P7CM8WGIgPl4xEfX+X7rAuF0FcEzcnGFF62Fx88my6FaSb/cExGnof7YpR34xDUzkmOs5TZEQ8yWiiXBOyyaz0VunVEhB/FtsXL8PFopVhTaiDByd/gMGFQmHa9jn6zYrJ8CKNax742H0FUt5t7ptB5ix3BNRVm9CkhfjqncWYu+oKQqwy14dcCZHGIfmkSxeVe6Zi3ZYZaGnagK+HLMZeObEp1LA1CketxGdjtiFSurVIEmkXeUJvuojt03rgiSnrUOOb7ZhY9rKkaUJ08RH49cBUVPqrDwbKjZC75SZr5/lVmkTkHVhoz5d4e8sRBE7qj7uOrsQBcx00CAqzX9XZO6kZ3lgTCf8CcrIkOTAEFUPRCx9jRNl6mHAhAhFsEkrDyT8okCUBmUX9nHRzqzbgd/hVmoExo0vgwt//YM+uPfhXfg7LPYC4dBEHd++3/71z20n4930do1uUx9kZBfHAgFU4qsasl2NA8sVj2LNwNPq89RPMMqT+mcg26P/dT3ihib+cPrieeEirsL88ZyyECo17oPkjozDm23gs62FBjByIzOaCuP2eeihVMFSCFElYJnpWW8dER+LcuTBULitDeLsml1LQxKKlUbtEOA5tlWF55biVukh3HTWPkCk2BlEXzuL8mQs4dV7ObPZswNQe9dD6YzNC5YquyVwZzbsUsXfLLdCvB6pKXtgYlKrIBxS4rkCCpR3GXrRi2dRHUevSCizoIr1GQotg8MwvMKbtaPyYXA09VkxAKzlcyP/XXWwycq2f9PjwkysV9h+j/FbHAtUiJIMj+am/1WuyjtFP5hG7bmouL8oJkD5Auv4HajDHydXkgGDp7SL3Ky2piN6f18bjH3+Kx2urtmzHogaDSDp7DAdXzcO7vdtiyFfbkTinKbqMfBurTkh3uMCj2Pb1t1j22SJ88+M6nEwwZHx+40yQv91a4DptC26db5/MnCZtw/L5z7xFSE4S/P391B051yyqn67usy/wDUqjZ88I6H5Ne0jSpEPv+WJDsWB7U2wKqIdKR3bgD4sMTzlpHBpMGogfntqCXrdLsilnCNJDDraDv+LbD8bhtU/OoNGcg/iohR5XzsmNzrKaznwZJwqPxPy1ZjzbYQQeeewIxr/4Nro194dN7jdytg4ZZOrXDT8sw964x/DWI3Kx9uOP8G/NfigvEY5hx2C8Nu8KWrcvLjPGO+68tEnXOEONrujW5Dk82308Om95Dc3UyVgGJ0jXIPAJClDALpC8cyaGjluMiFafYsqyjjjUtC7eVhOVqjMLCUCSzsul2+Q5mDxSrs7azzZMiL/SHiN3rMWs5/ph/FfdMLXBFkx7rBJ29yuHx/+uhgb3jsCw/mPQ98GCCJELH2qUNteubOa4AFR8+T0MjSiBAjWq4Zk3H4ZNLvBuef8lnGs2Bi1rpW3NcVSVDZfPH8dRU2M8JKM2ZRSgJAVVRr1yt0P/9QrsmPYUbpdDm2n7KixcvwA7ZOiWk2PKY83wSBkOtxhKGOOhk+G4LTJa3D3VNPuJme6vSeg96QDK1SyMw2P7YmnT+ehYTA51aQ+RfOdQgAIZCKjv+2QZXKXagIVYOVIe//UFJvTujQXje+M3tX69N1Ft+2o5r5AhsaWniRoZ0jkVhmty6j7mw3VexR9bXk19WnWNKzxPeoC8WgUjv/8OvcrL5zLlu151jZNrHKnnEqkbZfJADRgVdGYunr1jKKJfXoNnMBFDJupwz8SFGNJVJpaWtJzHl6Cg/fjisU74KOk2VJN5EmsW24U/W+zC5tmVUOTQ93hamowj/16JDXK+Zbt4SP5qJOc9ZrkEHCejxF29DSCTrPBpNxNgIORmFZJZdtSVzqR/pLVmQYKcrDg/runXlmEmjb/hoNyzI9/jaZZw63+Y9eXfQO1P8WwN6RLyk3pZrpLYT3Icj3XSlH0+tB4qy7vCtGUeXny5KEbsWInB71TH/OXf44EqHREirwUazdg/ZxzemTkVvx3vgGd+WYEn65eSWbntF4hT9isHA0kP1cfgndUVMbtHN7wk3W/+fGIshr7YARWlPGrwBUvUGXy/8DtoA9bj3qCz+HLGCZTt3Ri3+63EC49/gMjHN+DR1hLcpZyUqFOXGEtZPDxnBr6pNhTTJvVCzTdqIFi62HChAAWyJhBQcxAmLW+JkFp3obRcIK2wZBta2OSqpmyuWRNx6K1yeOyIzPfx3gAUC1QfPul3b5V782xBCJ3xAxY+sQMBVSvBIIFM/bdXYFZifTSqL/f6SAImuX9IrnXIPYbSCm0fEEVd5ZUUTEaUaj8AZeQERt2GJP9DH3gWW6a9i21+/dGsbqj9/kV5OnVREy9e2vkR9tTqg4qBctKR+srVB+ZkP9x9X2UYF8kId5uewuI6koeoX7Fq9x1oMakvqhUNQEhQOMJkQunCyxri/m0PYtwn01BNLg5Zzv6O1weMx9H75+C71ypjyT0tMWZoc9Re8CTKSv5TDjtXd8ZHFKBAWgH5LpeGXgTJucGRFe/gw49/xl/nJYC553W82KM4ds/vB7m+IKO3NUO9ji9h9Lh7cYccJ67IAcD5eVbnNwa5F0g+ckiQ45FzscrxJT5ZznfkOGCS59VrzkBIraOOMX6SiDT+2ifUdm6X0W81nkFi6MMY/P4VvDWxFfrKLB2GwZH4+KWCcuFHPuvq4JeyxCdWxwMf/YhmYeVQpqIJ25+6GzI7AAIkz7Eyc3dybF10/OhbPFdIj+QtS9F78jEkxT2IPgtWyKBW0XC5DdGZJH+7sQADITeuHNesyeTswJ/v4a0/XZ/N5LE+7fDZ6iBzdvkCfPa/KNRZ0R6l5aaaw3Js0SEKJ+UqSFCQenx1MWjR+HPNOvyXNACljZVQWu5+nD1tNQ4Muh93BkXjq26F8MJaWf+eH/HdH/fYT1DUGYPzoHY1JTloyX78ynfFsI3JuOd5f3Sf/gB+WtoP7yydjXsrGRH3+1OYc+QhvPFIExT+sQkmxtbC8PZ3Y/PAivgq+nl8NO1u+yhVBoOMxiIJq6F3ZeRO6Xr3LKYMH4EGP07HrqEfo3G4es11z3xMAQpkJmD1D0flenfZP7PqekVggcJyN41j0UkgFBoonzZjIEILhCJcjg+ui0nugL6tdkPHB15dk6nWES3lJEKdjNi72qasLA1LKFBCnoz8H/74yYIad1mhSx2BQHWTS8TlOb0x3VIR/euUQ5BcEbbIwCmBWqDjHgF1giMf6nWf7EHNxxohWPrvp16ydc2QFMDUoRv6hC7CYpk89e+tfVCj+euY3URG0dTLjxzcVLdcdUXYtEo2NJuQKFelgyxfYmzNXvis1hDMe70/yhYDBi96Dwfa98N9nYxY8csjqCwnYlICLhSgQDoB1d1eRs4GDm3G5/MH47P5MmBJbCJMofeg11wzRreUQ4h0aWvdrjsGHP4BM57ohS/ffgB/zZJJjieewwcyoqTBHgzJYEz7t2DtkRi5x1ASdVlshiCE7bgsEUwU9v+xGWv3xaYJhNSqNpm/KKxGE3trk0UdjzJb5HhiDboN1bu/hM+aV8WkDo/is7nl0a3mFXz1iHzOXQIwmwzMFFK+sppjGZoM/Z0kwY86wVBBmF4uF2kye7MpIR6JyaoVW3Xhtco8RyVQtWMJhIZfxM8Z3geQWcb4/K0WYCB0q2sgS/tX3+IyDv6w7/C/1x68/qhxgT9gpNYfF+WEwrmoE5RCHQbj+U96oEETA2LlJKBiwzqoXu0FLCqm4UPniq6/5VJLmSkPoXqiARfvX4hXCiehfKhBZnkvgOav/IQJJ8rIZGg11JyHaQMQueyi/pPDR2pq9gBF54eas6z457GP8d4aHepUNNqHzt3xyzrc1ncamlU7jXndd6JoQ7lPSe5YrNXkHH4/Ddx2dicWvDMKGyKjsM8vApWrlEaYnPgkysgNwS+acPBVOQ7JY7M6KnOhAAWyLKA+pRku8oJjBoxM17Afj1y3zegihMx5CP3gn/H0nO6Y3z8EX6kru6nHBUfaWlAhVG87Ax3vliTlinDkcA23z1Mp61FtRgQCDo7EopjGePKuJpCpxVziIHXpJuUzL0ld0XXAyOfKYMmyS4iRFinI3EJGl6s7Kn/2H3XJRy8jW8YswdN1e+GH6o/ijUUz0ay4tLjLcTK00bOYtfAcBgx5FN16V8WGZQ0QKAO9XO/8SvbGhQK+JSAfvbAT3+Kp7l3w82EZKTKiKIpU7ox+L0vXs3sDYJSRZ5OkiUV9yvX+IQit2RNv7u2J0bMfxgOT12DLew9gUYPVeLKafC6ln1zkD30wZNp5xwUYV0n50KpgqJjxKFZMbIdlGXzP2/wL4f43DqBBJ3tMYt9ak+2sqgkog0U9ayopXXv31UC1lm3x0kv1Ma3MVjzbSLbP7KqHbORyOJFyyV9+coVoSSd0nrUVByLGQyetYglTi+OO9ySiSopH+Y66DLsAZpAlPnWLBRgI3eIKyMrubX7BqP70Z3glpA4s0gUs9jrn/PEJtdDx/fcR1yAcOrma6VzibMVwT9di9v656kAQ0+BZfPJdFxze+xd2nbe4dJFTX/oBCCvfGs3qBMuVEDngVW2KPjXl4CFXb6xyICp4x314RLqfqFnf0x9qtMBSaPxMf+jKFExz4FD5kAvN0O4ciDFywElSTdxydtF8bhJWXoqTbjPB6LbuexQ+0Qo15YafBDmIligs68cXRpka9XF4fzyKj5+E7j39YZITLHUSpLaXgePsj9W/XChAgZsXUDcsF2g+Fr1l/q5Q1Vclh4s6D4nX34PnD0dh4NHTOHNZHQBcDl7S3cVWrBKqlJBGGplLzCxXg8sMW4PXG5yBX5EmaNGsBKK197Dyt78RWVBOqlKiEVNYVTR74kVYiwddDVDkeOL37PeY/3BN3GG0yUiSLvtJyb/Kj77eCDwZIV36ij2Md74+gzbVh6FTEZkuwORYXyaJR2DnSVhQ+GHsv/tOBMvIeOZrk8qhCDejgJcIyGcptmJnvDx5MRqZa6BZozqoXEzOEeT8JFHuD0xyXqRwFlc+u3FyQcF/4HJs6b4GPx5uhVa15HtejX8trUYlnjuAPSOcK2fvtzoHUceGxJTzHZvND4Wqd0KPITJJvBxv1OvpF2nQwYU4Gdnyj72o9u1pVGguQZAcQzJarJYglG7xGAYHRdgDG2toFTTt2x+F5OZJrWlPdNh9D54e0BVh0jpmfHQlphXfg4TCzdCmbbh9VMqM0uRz7iUggbNtimRplHtl69rcbD0ci6nfnbGfsFcuFYbOzYs5JuO7dlWvfEbOTaBuDlT34dxo0cvJi+o+plpzr7vIRQ2dukCawRe9OrCoqyMZHUSum6akZZArI6qPzA33n5KQOjdSV2vVsdMg+UlfRlUe9bzKjJps1bWPcEoSXv9L9Rg4dDoR3284gySTBSUK+GFcl1LSbYnXMm628hf+cQGrd16xn6PXKBeKTk2LyUhiN5uqZ2+vuuIa5T2XLJ+3bB8DMii6nOukiYFSV5HEU3vLyZOq+5rR3gdWjgNSB/bDgtpWjkephzN1nJCTDpkpAGqaItdFdYO7bvcYSVvmgZZyqSvNMgqlJJrRcUqVX90zmYXDrevuPfKxOv7uO5aEpWuPyfeBhnoVgzHywZIeWZZbkelzl5Ix+bvTuBhtlknGDejUrCRKFzGm7SlxKzKWD/tUnxP1DaTOFbL8vaw+v/IZTP8973qNJNtZl+OA66FA3Q6gphlRF01TjxuZJKrOL9S9SK7bp19VOrTAICuo+5rVeYq651FdNFHXW4wp29uPI6pssl910cV5/Eqfljf+bZXKX7TqjIwYGgeTtPC90acMKhSXOVc8YNFkUe9hLh4goCZUvdEH2lkMS8qVEeffmf6WBNVJSFbTzTQd1xfUAcDeSuP65PUf24MgtYraNoMzD1WeDJ6+fqJ8lQIUyLGAmuDQ3vCa4xTSbqgurMjH+4aLCnhM6Q5I12yrjhOZZO66QZDauxxIVBc4+9mMlFGd12S0OCd4zOg1PkcBCjgE1Ockq6cbqWaZfM+nngekrpjzB+p2AMfn/MZpZOV8SQVKEvc4Fsm/o1eK/CmPk12PRaps2QZxJszft0pA4nIuFKAABShAAQpQgAIUoAAFfEuAgZBv1TdLSwEKUIACFKAABShAAQqIAAMhvg0oQAEKUIACFKAABShAAZ8TYCDkc1XOAlOAAhSgAAUoQAEKUIACDIT4HqAABShAAQpQgAIUoAAFfE6AgZDPVTkLTAEKUIACFKAABShAAQowEOJ7gAIUoAAFKEABClCAAhTwOQEGQj5X5SwwBShAAQpQgAIUoAAFKMBAiO8BClCAAhSgAAUoQAEKUMDnBBgI+VyVs8AUoAAFKEABClCAAhSgAAMhvgcoQAEKUIACFKAABShAAZ8TYCDkc1XOAlOAAhSgAAUoQAEKUIACDIT4HqAABShAAQpQgAIUoAAFfE6AgZDPVTkLTAEKUIACFKAABShAAQowEOJ7gAIUoAAFKEABClCAAhTwOQEGQj5X5SwwBShAAQpQgAIUoAAFKMBAiO8BClCAAhSgAAUoQAEKUMDnBBgI+VyVs8AUoAAFKEABClCAAhSgAAMhvgcoQAEKUIACFKAABShAAZ8TYCDkc1XOAlOAAhSgAAUoQAEKUIACDIT4HqAABShAAQpQgAIUoAAFfE6AgZDPVTkLTAEKUIACFKAABShAAQowEOJ7gAIUoAAFKEABClCAAhTwOQEGQj5X5SwwBShAAQpQgAIUoAAFKMBAiO8BClCAAhSgAAUoQAEKUMDnBBgI+VyVs8AUoAAFKEABClCAAhSgAAMhvgcoQAEKUIACFKAABShAAZ8TYCDkc1XOAlOAAhSgAAUoQAEKUIACDIT4HqAABShAAQpQgAIUoAAFfE6AgZDPVTkLTAEKUIACFKAABShAAQowEOJ7gAIUoAAFKEABClCAAhTwOQEGQj5X5SwwBShAAQpQgAIUoAAFKMBAiO8BClCAAhSgAAUoQAEKUMDnBBgI+VyVs8AUoAAFKEABClCAAhSgAAMhvgcoQAEKUIACFKAABShAAZ8TYCDkc1XOAlOAAhSgAAUoQAEKUIACBk8l0GmAJj9cKOALAuq9zrd73te0JtA8tuS9M/fgPgKO71EeXXKrRpSnOoZYcytBpkMBNxdQ35uevHhkIGTQa7gca5NAyLPxPfmNw7znr4B6qyebNAb/ecyebLYhKgYwW/J4R0yeAm4koNcDNjfKj6dmxXmcviTHEHp6ai0y39kVsFptMKjo30MXjwuE9IJ96HQMjp6N9VByZpsCOROwyTer2cLrjDnTy9pWh0/FYs6ZuKytzLUo4CUC6qTd308nxxeevt9MlcYnmbFs/Qm23t8MIrf1SAF17NCpYMgDjyEeFQjZ5ExQ2oFgkehT/XChgK8K8N2fezXvtFS/eWzJPVemRAGfEFAXwuXgoY4f6mJVspkXq25Fvbu2R6i64HJrBDzR3mMCIXUhvFCYH/ykWxwXCvi6QGigHlZ+3+bK2yDQqEOBEAO7HeaKJhPxZAHVxYXXGLNXg+rcRB2PPfBCePYK6uZrq4tYMfEW+3E8Qo7nKijlkv8C6kKAp52baNLKMkWoRuU/V/b2eDnOjOgEeZOz0Tl7cFzbKwX0Mt5jYbkwYDTwwsDNVnBUrBlxiYwqb9aR23uBgBxOVDBUtoi/FxQmf4qQmGxFpBxDPO3kL3908mcvOvk+PHfZhNk/n0Wwvw4vd78N8Uk8puePftq9qH5bhUL8EBzgGYNSy1gDmse0CEUEG6B+uFCAAhTITYGCcvWwYEhupsi0KEABXxEIkBblUgWNvlJcty2nuj1F/aj7yAuFGuTHbbPKjLmZgGeEbG6GxuxQgAIUoAAFKEABCriHgGMUYfaQcI/a8KxcMBDyrPpibilAAQpQgAIUoAAFXARUaxAXCuREgIFQTtS4DQUoQAEKUIACFKCAWwhwWkm3qAaPzAQDIY+sNmaaAhSgAAUoQAEKUEAJsEWI74OcCjAQyqkct6MABShAAQpQgAIUuOUCmsbT2VteCR6aAb5zPLTimG0KUIACFKAABShAAbYI8T2QcwEGQjm345YUoAAFKEABClCAArdYQDUIcbyEW1wJHrp7BkIeWnHMNgUoQAEKUIACFKAAgyC+B3IuwEAo53bckgIUoAAFKEABClDgFgvoOGzcLa4Bz909AyHPrTvmnAIUoAAFKEABCvi8AOMgn38L5BiAgVCO6bghBShAAQpQgAIUoMCtFrAPn82bhG51NXjk/hkIeWS1MdMUoAAFKEABClCAAkpA02yEoECOBBgI5YiNG1GAAhSgAAUoQAEKuIOADnp3yAbz4IECDIQ8sNKYZQpQgAIUoAAFKEABh4CmY4sQ3ws5E2AglDM3bkUBClCAAhSgAAUo4AYC6h4h3iLkBhXhgVlgIOSBlcYsU4ACFKAABShAAQo4BDhqHN8JORVgIJRTOW5HAQpQgAIUoAAFKHDLBTiP0C2vAo/NAAMhj606ZpwCFKAABShAAQpQgAIUyKkAA6GcynE7ClCAAhSgAAUoQAEKUMBjBRgIeWzVMeMUoAAFKEABClCAAhSgQE4FGAjlVI7bUYACFKAABShAAQpQgAIeK8BAyGOrjhmnAAUoQAEKUIACFKAABXIqwEAop3LcjgIUoAAFKEABClDALQQ4hLZbVIPHZYKBkMdVGTNMAQpQgAIUoAAFKEABCtysAAOhmxXk9hSgAAUoQAEKUIACFKCAxwkwEPK4KmOGKUABClCAAhSgAAUoQIGbFWAgdLOC3J4CFKAABShAAQpQgAIU8DgBBkIeV2XMMAUoQAEKUIACFKAABShwswIMhG5WkNtTgAIUoAAFKEABClCAAh4nwEDI46qMGaYABShAAQpQgAIUoAAFblaAgdDNCnJ7ClCAAhSgAAUoQAEKUMDjBBgIeVyVMcMUoAAFKEABClCAAukFbOmf4N8UuIEAA6EbAPFlClCAAhSgAAUoQAEPEGAk5AGV5F5ZZCDkXvXB3FCAAhSgAAUoQAEKUIAC+SDAQCgfkLkLClCAAhSgAAUoQIG8E7CxNSjvcL04ZQZCXly5LBoFKEABClCAAhTwBYEi4QZYGQz5QlXnahkZCOUqJxOjAAUoQAEKUIACFMhvAZ2m5fcuuT8vEGAg5AWVyCJQgAIUoAAFKEABXxbQNDYH+XL957TshpxuyO0oQAHfETh2PgmHziRCz0snvlPpLCkF8lDAZLah5R3h8NPzKn4eMvtU0nppEbLJjULqP03+40KBrAgwEMqKEtehgI8LqB4HyzdHISrG7OMSLD4FKHCzAuq6fZLJirurh0ogpL/Z5Lg9BewCms4R/NisgMaLdnxXZFGAgVAWobgaBXxdwCBfMga5eqtOYqy8I9XX3w4sPwVyJKBPOVm1WnnFPkeA3ChTAXuLkLyqvp4YB2XKxBfSCTAQSgfCPylAgesLBBn1qFwqHCaLXHbjQgEKUCCLAupm9n9PXOaFlCx6cbXsCTgu06ltGGRnT86312Yg5Nv1z9JTINsCOp0OdSuHoUgBg70/drYT4AYUoIBPChgNGvZ8cQn2ZmWfFGCh81JAp3pZSmuQ1T6hEIOhvLT2prQZCHlTbbIsFMgXAbkRVb5j1MAJNhu/bPKFnDuhgBcIcLAVL6hENy6CZtPZY2w1WAJbhdy4otwsa+xG6WYVwuxQgAIUoAAFKEABCmRPwN4iJJtYLdnbjmv7tgADId+uf5aeAhSgAAUoQAEKeLyA84SWHRU8virztQDO902+7pQ7owAFKEABClCAAhSgQG4J6OX+VXV7kI2jmuYWqU+kw0DIJ6qZhaQABShAAQpQgALeK6Bp6t4gjsXhvTWcNyVjIJQ3rkyVAhSgAAUoQAEKUCCfBFKmqLLPI5RPu+RuvECAgZAXVCKLQAEKUIACFKAABXxZQJMzWnubkKNhyJcpWPZsCDAQygYWV6UABShAAQpQgAIUcD8Bg+aYSMgxj5D75Y85ck8BBkLuWS/MFQUoQAEKUIACFKBAFgXs9whJaxDHSsgiGFezCzAQ4huBAhSgAAUoQAEKUMCzBWR+b9UrTo0cx4UCWRVgIJRVKa5HAQpQgAIUoAAFKOCWAjJ6tn2xOe4Ucss8MlPuJ8BAyP3qhDmiAAUoQAEKUIACFMiGgJpHSMVAnEcoG2hcFQyE+CagAAUoQAEKUIACFPBoAekZ5+gaB/WICwWyJsBAKGtOXIsCFKAABShAAQpQwE0F1PDZauFgCQ4H/ps1AQZCWXPiWhSgAAUoQAEKUIACbiqgTx0sgaMluGkVuWW2GAi5ZbUwUxSgAAUoQAEKUIACWRXQpdwjxBahrIpxPSXAQIjvAwpQgAIUoAAFKEABjxbQpdwaxOGzPboa8z3zDITynZw7pAAFKEABClCAAhTITQE1oSrnEcpNUd9Ii4GQb9QzS0kBClCAAhSgAAW8VuBqixDvEfLaSs6DgjEQygNUJkkBClCAAhSgAAUokH8COp1edmbjqHH5R+4Ve2Ig5BXVyEJQgAIUoAAFKEAB3xWwd41TE6qyQch33wQ5KDkDoRygcRMKUIACFKAABShAAfcRUMNnq8Vxp5DjMf+lwI0EGAjdSIivU4ACFKAABShAAQq4tcDVe4TcOpvMnJsJMBByswphdihAAQpQgAIUoAAFsieg0+vs3eKsnEgoe3A+vjYDIR9/A7D4FKAABShAAQpQwNMFUnrGwaY5H3l6iZj//BBgIJQfytwHBShAAQpQgAIUoECeCehSzmhtbBHKM2NvTJiBkDfWKstEAQpQgAIUoAAFfEhAb9PsE6pa7f/6UMFZ1JsSYCB0U3zcmAIUoAAFKEABClDgVgvoUoaNs1lvdU64f08SYCDkSbXFvFKAAhSgAAUoQAEKXCOQOo8QeI/QNTh8IlMBBkKZ0vAFClCAAhSgAAUoQAFPEHCe0No4o6onVJfb5NH5vnGbDDEjFKAABShAAQpQgAIUyI6ALmW0BMZB2VHjugyE+B6gAAUokA8CNosJySazfZ6Lm9+dDZbkBCRZbFlOSrOZkJSUCFMm/ec1q3o9CeasJ5nlfefXipolEUkmS4a3SmvWJCQlmpANssyzrVlhTszcMvMN+QoFKJBXAqpDnE3+szASyitir0yXgZBXVisLRQEKuJeADVfWvYSBj0/C5kuWm+rBLgMjwT9qDaY9VBmDf/hP5szIQkn1QIF/PsQT7Tti5nEgIljSCLj6ozcA4Zum4cluT+LzOHkcdPU1tZ5RXrcvsi81RUf6H50tEVeO78fh/XtwaP+/8iO/D8hv9aP+lt+H9/+DfcdiYJa8pM+yEefwzw/L8eu+ZPjJ6zlaJJ+xM1qi14QfcUby6+d39Qf+UuY/2uHhh8Zi9RUgUP52fd25T03usk6OjcaVS5cR7fJzJeoS4k2OfNvkW7NAzCcY37wFZmwVG2NajxzlnRtRgAI3LaBTxw51QPTgizk3jcAEsi3g/HrL9obcgAIUoAAF0gqoC5HGMCDomiOrhuBq9VB0XU+M+P5Z7H2uUIYtL5YEIC4x8+9x9f0eHnQYXzzcAwu2XYR+1jSsbTML7cNsiLNq1wQYztz5IQ4b16/Bf/+sh2nWMIwPNyA5IQ4mi7RQaQ3ReUpf6Netwt5Nu2F4awQuBuhgNiXDLPNx2DQjijYfi36diyBh1kA8v/qSBEZ6GCR6sCUlw2QsiLZ9hyNxUV988mcULP7J9pMRi1UHg8UCGKwwXb6CpAAD/G5fhuU/t0BhCUac5yoqsCh27me8M6wvdo6yoHdD4Io4ZLqo8xxJ1iw/zsUqJ0DF/5uKdlM2IbbJX9j4XRK2J5vlZRvig6qhU0sbJk9YixNnzdi75gdAH3t1e2mps1VqjwfqFEJA4kmsev8pzPnlLEz6YIRIwJioMmPUod67m/FqbUkxNBZ/PfEyvj99HybWBXQqH/bITl2L1mCQf81Zik6duedvClAgNwR0KZ9DTiOUG5q+k8Y1X9e+U3SWlAIUoEDuCgSEH8GPnfvgzR1HJJCQ2SxcZjjXLMmIkVaFpBeqoOYUaa5It9gs4ag95kO81bcV5Pz7mkWdW4cHReKXni0x9u8QPPv9MsQ+3wHPtbDAuvlDdPSTYMhiPxO4ZlvzuRP4ae4y+Hebhd4VlmHmK/+iar/X0KqabGurCOPRf7Dk898QdFdnFDi1Gkt+PIzC9VujQkl/Oa33h+6KrCdJm83H5CQ/BLjwHzZt+g/h97ZCBYMJMdIlLf7EPzjVYwc2DQpGkp8Jh59pgyeMS7B5SikkaAnYP7gVBhxPkiAkbfYU0aXDRxApcUvVgBNY+8tJJGRSDvuW0mrjX7IKqlcoCoNsqwKqAsGH8XGv17Hd6g+/7e/gtS1hiAiRAEzWvVLjIZi/Oo45B2TF8D1YPPphKUcBhAVLwCJb2xKjYeu7ER0kENJZonFscxRKj5iHZ7RX8Oz4IDy5fCCO398am2MkppNWp4Slr2HMqnOA6TNMqr4cb0uwZ9P8ERBsRFiDx/DGR2+htnyzOgO9tKXlXxSgQF4J6DSd/XOnLklwoUBWBRgIZVWK61GAAhS4gYCmmZFw4TjOXmqITkNqICxBnWqnLNJcZJMvaseUf84nHb/V/UN7FryP8zGJV9d3XUVO+P1NB/Ft9/vx3M9WNFl+BGNaAMGr5yGq7iMYXjUKkX8uQfdicgKeukNnAhYcm9Mcn2gjMf/Vwbir6GCU/VvDWAlwJvXrg0JxUdg4ohC+KvkOVn45AlVCge0vGtH9/P2YP3swSsrJv1W1wFy2IWLAL5g/CLBsXoxH281HqwVf42l/HQKSt2KSuvkorASKFQtBotGES4ES7PkXR9HiJZBgSEZkkPRHk3KkL6BOZ8PxA+eRaPXDmVer4lEVcV1nsSUnIuLpBVj2wmOIUN3fDNH4a1BvTNgXgI4bL2FW7Bw80PZD3Ll1K169TWK2ZS+jx+PzoZtiw/lhwJFPR6DzUyfw+P6lGBQOSPuVFE5afiRIVYvNGo4iNSqjDkpL98EkVK1fEVbpS7dZ1cGJNRg3dTIOVVqMNT/1QIjcj2TVSQAU9xoer/km/OqNRW3xs12vRcuxG/5LAQrksoBOcxz8rj0G5vKOmJxXCTAQ8qrqZGEoQIFbLqD6t1UYgxenNkbhWAkiJEOqNefid+/hh7DO6N6sNILTtYrY5Gx88e8zsCiDO/n95H6d+O1L8dGEkZi1pQi6/3QI0xvZcDEeiAzognlbC2B810fwavOmODL1czz1UBkUlTOBpJSAwmDZgf/tbo2nxg9F7RKSHznhrzbqPTT/PlRO+oHLk0tiwOZxeH/NCJSTbn3J8lz1pzbimZmbcU4acIpKXu0nFtJ0Y5OAIVmCIqsa9EFKZklORrIuQPV+k4jEH9rGz7AgVJP7gJJx5r8oaUJZgAVzisKkS8Cp/85nWDV62wUcPvg/nC7zOf63uSsKSf6uieXSbykr2NcRV9vhLVh50oQW35zBwnoS08S0xAM9FuOH36ww9IrF+hVzcNDQE2/3Ekfpdli1y5Po+utw/LYGeLablEf2Z1X5T10kYLWnb9+DPJbfcvOB4fhOzHr3Pnx7tjJKnR2NCRu6Yu6DRgQknMDyvhPwd6XBmDUkAn6yD3twlZoeH1CAAvkhoEtpgbexa2p+cHvNPhgIeU1VsiAUoMAtF5AWH2OyRA9+MYiToCFIghXVyys4/hu82mcY9jxVHm0blLYPNuCaV1tyLJJkPYt0sXKcfsur0tpRSB+FX18fi1nz52BryEC8/Mu76FVFAqBEuR9I1tdLUHI6sDWe+2Yt7nj5CQzq3xDblw3GY1NfRk9pDYmWQMysr48+s1/A4ucH4tlFMhiAdKDX9AEI8LNgdNcPEHhW7pE5/iZe77QDi8NM9sBN0xngL/fFbOm3GmHhIWj92nx0Kuo4wTdKvqx+Bmnc0UEvf6hBB/QqkJBtbGf+xu6tGiw6My5dEAfDJuzaUkzKlYSoCzIKQ4RrqR2PjdGROHT4H6BdVRQVM/n/xouU3Q4lWFq1hniwaQd8s3IABq6QG44MFiTElEKZrYMwdJseuvjbUdj0Fd4bGoLtYTpY9NJqZyqH235/CkN/l+5xiQVQddBIPFJdCqiStenhFxiEIKkAdYU5wBAEo38QIpcOw5ubWmPcui/RblkjNH2sMz78aQVaru+FoWuboPf6mbhPBk5IYBRkd+Q/FMhvATV6tv0ihvqHCwWyKMBAKItQXI0CFKDAjQQSYyri3h/OYKMuFAUlCNJJbzBjIHDmpT74sUgjjO/XEaWkhceSpgVCUjWGoOevl9HZPwzSE00WG0xb5+DxESPw++44BDx9BP97oxxKSHoqAJDz7bRLUGW0e389DnV5Dp0fmIDnNyzF7yM/x8QBtRAo6ydd2IuNK/YibO5S9CsvfbdcFwnehklgYZNmkTSnD/7hCPyyPtp/EIfbxknXMmkZCjl7EL/9cw6Wg3txyXZGBh7YiA3Sbaz6HUZoyRLoPDQVbw4Lla5xyTjw+Cb8ETAdb80sgwR9IvY9shFrD7nu2PE4LioOB3ZruLNfBPQSVKkY50aL6gEjjVGO/EpzmtUWI4HXZSRLWdSiSTqIkgEaJFq0RMnzsqZ2OQmX5F4mi1wtVkFkkjRYqXsJzIk6xCQ6K0STIOgw1r0zFi/hVxyL1GHO6FcQeeIiwib+gD8/0hBQOBjGUf/i+/M6dGxXBO+bjWi+8C+Mqybd6xgE2f35DwVuhYCW0iJkZSB0K/g9dp8MhDy26phxClDArQTk5Nr/8A946/1PceyKo++bTUYGMAYcwq6lSdAXTMTPkx/BRpmrx3m6r8kwRzbnEEcyz8/l4Acw4q2+qK2dwtJRT+HX4w9hyPqeMDUtj8YfZK20DedEY/KCCIx+YxBK1fkWw+6UG4dUoINQFKtYQhplEiDDA8h/Vxf7Y7mc6gxC1PhzWkRJ3F5GwjLp1qbCC2koQYl9I9G/12oE+lmRJP3kjve/D38UKIXRK36CnxqySQaESJYWMZkxyT7iHKzqbxlZTu4RMqftf5a685gLv+PIeSNOzR2GQV843FJfTPdAjcqm5kOKLPUYJo97GCUCpRteYkHUGD4d78nJT4zck5VyLuTYUtPD+ucsPNr9KKpOnI3XK/hLvl0TlVYtf2kBkufM9lhI/jacw+k/l2GV4RQSEwzY+tMvuCJVVi0oBMWFMlaarFSXwJD6TRA+709cqTQMvasWsG9vVIBp0nfdFx9TgAJ5KeAYNU4+guwal5fMXpc2AyGvq1IWiAIUuCUCchJssCXBIsNSJ8WrJgk9ghL2448N+5BQ9F7c0zAYydI6oVop1Nmy6coh7NyyH8YG7VFbumzZ5ARf9eswqsAotAy6roxGdwlewsOPY+OUObgtOBB6+5VO6d4VvRXfSiuNZejL6FatcMrzsrk5GRENQ9ChhwUtTxyCX+Fi9uBGF1EGjZ94DHX0CzGw2Us4fPtDaFVSBScZSMnY1DHbf8WOuh9jzcBB6P7kBdwpA8VJTINDTVdgz1l5vGUx+naYh5b7f8NAaaUKMm/BZL00dX36AHqu1skAAmbE7D0mAdjD6PlguHSNMyF+939A+XStTkrCbEKpDg+isExSaskkWHLmUpOOe9F7V2D78VbQm5WjY5HYBKU3DcO9z2+EUUYqUPcx2Qsu/9hio3DaFon/Hm2BXf5J9q5/9q1s0vUtvCxaPT0XQx4q5LjPCRYkxjRF7xU/4l2MwN2dk/D27tfxb5kS+FxiNH8p6/k9/8Nvk1ph7K93otOwmSj533g8dddGPDTjDTzWtg3ukC6JJmkNzIjWkVv+SwEK5IWAXnVU2FHNAABAAElEQVSNk4TZIpQXut6bJgMh761blowCFMhPATnzjS/fBc9/0MVx/46MIHBxwZPotOEKGn24Ah+1ktYIdcauFvm2PvdJPbT691G8Pmch7i/l+AJXX+ISD8gXuXR/Mzq6sMXGl0GdAf1RX70oi/pluVAa28d9DVvrbujSsqQEYPaX7P9YZR+xMl5DSNFK9sEQ1Et+Re5G3/fvRvFz7+F1CQ7qvCuTl7aVe4iubpb6SIUXe0aGotl2E8xNxuCN9tJakihdyJyjudnjDxVpyCITqcIWgHhdJXR4+XNUj4qHSdYzBp3FxlfGYeGFLug+rhHCY2V9GR3OFFEXMg2PvQyOBGRE60Yv4p0WKXGL88lMfqs5e/55pTg67pKgy/XbS/LkH70T/+3Zg7rPf4VBlWPtgz5AusrZ9v+C99/9GqWeGIaexfxkSG2Vbz/phrcaC/p/g1OdBexqTCV1Z0JSTCyuQLrRSfQXZ74ibWgSUB3bhy+GD8Xcb/7G0bumY9aGp9G+kR7hl3uh3fJpmDKoLfpWboc7WwzFqLH3oZw0D7lUSyYl4tMUoEBuCdhbhORDZx/gJLcSZTpeL+D6VeL1hWUBKUABCuSlgP3E1/5FLMHKyW348O0FuPjMZsxqKUGQtKg4Wwn0tjX4+IXtuO3ZMWhQXNZ1viCZc548p+nmLifqzqud9vzLH6r7mrpxRy8tFRJj2Bf7+XxKjJKmcUVeT5bgyGxfz4YdHUMQLts59+XY2vmvDZZ4adKQQEmNEpco27lGCipfzhMNx2NJVxeBMo3uRbmUJPzDTiJ55kQsTGqBlp3vRVG5H8dZRDVqnXqsybePn+OWHqjg7UaLNHbBZorFyb3noCulk2Gz022hEjSEokzrjnjwLhm0QKWp0t8QjcXTf0DZ+3viwfJGGabbsZ2ffwLW9P9WWq/SpZPBn5oxGJc+6Y3ndmyXjBdCwT2z8E6/2XhHAUoLn04KFVcwCDH/bEVUFz0KygRHGdtmkDifogAFckVAU6MlyJLm2JkrKTMRbxZI/1XizWVl2ShAAQrkj4BEJMdmN8XiS0HQzeyO+5Jewmv9H0KlwuGICIvGnx1b44uy3fBGnx4oIgFJhl3UUnLqF3wSS2rfhvFngxGQEvHYpNUlCXHQydBwP6oRBlIWc2w8GnyRiMVt/RF/neCi3MjtmHL3RRk9zR46OTdP/W2TcbVthSqjqAz0kPkioZiceFilH5gt+jTWr/0dxy+r8EyTiUdPY/spaW+6+DWWzjiL8PgkCQysMkx1GdTufz/qBptwcOoATNmcUZtUuj1KNHYlSCaOndwP9WSku/PHpYddgzL20erSrmmP0OytYKpFTQUihrij+PXbd7HHegExv53Clb7lZTS4RFyKSpDR4y5Bci6DU9hDyqtJaRYkx0VLa5l0c5QAJz46Bglxl1Fo1gX8of8Ufe8diKMhpWB0RnFqSxlC3P8/Eyp3+QIzX26DsIuO/V9NlI8oQIG8FlBHM/W5d150yev9MX3vEGAg5B31yFJQgALuJCDfxhXfSsTuQWuw/MMvsWnPDIy4ux9i73gO/UvPxay/SqHj/CXoWU9aLi5dP+NWcwjKd+6D7leKwJgSCFnjT2HjwpVA6+5oXDpCtQ3ZF2tSHMqW0l83sFIrJkVuwZGj8UjMNFiSVo4T/+BoVFf0aFbwaouVBG0Bcp+M1egPg/9x/Lv4U7z3zwroKg1F4LlfselAkj0vOkM8zkdJ4qZt2PjzeQTIxKPSziRBSi0U73u/NNTI6GzmApJQVgIh6fZm1iNARmuwYh8O7i2CCqVuc7QmOc94xNvsXwKht11BQcmfjHgN3T+rsfS9oXh3UawMf+2PyxMrofE/y/HVkKLYOGkgFu5KgH+rbni8VgH7MOQOQR38Q3Zieb822GY7gMOn9BjTZAPiz5pRRhrJkkMSER3SF6/8PAf3Fr0a7KjRAXe009BfJipKkhYvLhSgQP4LqFZzFQk5W6zzPwfcoycKMBDyxFpjnilAAbcXkJGaoZVshW7vtMKTFgv+frMNnnjjXczaobJuxo6lQzDN9jKe6l4MwTIqWXwmJ9CWpAjUf/EzNJJoR13tVIvlwv/wwsLNwIC3ML5VcRkswfG8CojUoAZqUtTrLQkHdmFXUiwkPslw0RlicPyXBfizRn080tIRCKkhqRO3fo05S+Zj86aD2J5wEMljX0O9x19Fv7at0KJaOymnIzn/sBP4/t5GeO70REz+vj2KS7Dn3JUa+joh3oCSw97FzAz3nvmTfidWYh0qoFepSvZhxp0eMjYDTt/xBhZ+pUf50rHY/OZITP/4Y/xZfgE+/SAKU4a+jkrzl6LRks7o1qEm7uw0Dm++2hY1ihdCsARNqrueY5H7mBLLodHAIehSuiBUTxurvd+iFQVrSL7/kzqVATHio5MR7W9MrQ+dtJzFSRqqdx4XClDg1gjo1Sic6j/ngeHWZIN79TABHrY9rMKYXQpQwAMEJCJR8+4YZcKfuK1fYMpTA/HJv7EwNHodn340GiXXPYsXR8zGzJUf46NxzdHr49/wShsJNGQggdQYRqXh6PJuv1dH4pvUxWIyO77wZbhqk5yAO0fgtq+Qsm91lp7mPqHUrTWU7P8mJrazINY10dTXpUUl8DzWP/03/rzs8qQEQvoVQzBjznlENHsB438ZjjaVQxAQGIggGWVbBTjOAQwMBp1MRip/S/RkkG8ZvfyoP9Viv69IApcbnqzIBq7bqMgn5pPXcLxcexQurbfvz3m+I3O5Ql+oLMLWPo+hHaZi3UWZJHXaaezuXQK2jbOhAiVjhcboOfMQ6i56Bk+83AsDPi+GeiN/xOvP1EM5STtRglGZdQjJsSEo3eIB3CsTrDrTd2Y8Tp6wSXuWQWaRVRPJOl9XQaIU+cZlsifEfyhAgbwQcM4jdMNjS17snGl6rAADIY+tOmacAhRwNwFN7i9JOH8eF87vx96vp2LanJU4aZKBCUqVQ8f3fsaEJ0shKF7ulun9Ab7pNRUb3+yF8Yt/x2cPaviq7kTMWjAejWTwBHWGnXRyD/5Y+SsuyqhsaRc5XY/dIZ3EImH+bjE+21NABktwnpI71rRZDQit2QJtmlWBjHydbpFWj/0nsbPI+UzvIzL4R+LIRYnK/JyhiGRJWriC+v6NVa+WRVU58ZdeYI7BF/ZMxpiXViMqJDA1cNEbonF61zng0vMY9mAFhMh41o4cWhFymzw3szmkF9vVoC9dDtUgB/oze7HtpMy/5CdDiBcKQsDp9zDiA+C2Tn1Rq4LkRwIXtfjF7cfqiT3xzPwdsAWVRIW7J2DOzFfQqpgEN9IM5aCRvcsDi7Egyjz9OXY+OABvD+uHT6ffjTaTJBps9TV+WdIFpUPvwNC1a6FJ2ZJSI1LHfuz/SpNPYOxyTBsYiS8CUqJUeUGTSO/SZj8EtXRZlw8pQIF8FdDsV2Ocn/l83TV35sECDIQ8uPKYdQpQwL0EDDJPzaX37sf9n0ajQv06qPnIK+jTph8e7lQaJaVVIjZOdRGT4EIex2jBqPvaCvzx9F+Y/8ZMfPf3emw+eAz1i5eV+EO6d1w6gv0bf8chm9yAkm7R5IS8XLcuQOQ2bDmfdnJUtaoKhEoGVURzCYRcF82WLENBA/8tex4zN8VfHRLbdSV5rOmlHNtPADL6WuoigUFy2bIoLXmPdnYlk6LYDCHSghSGQH8/eyuNPjAARhlZrUCHqqgtTTGmJAmCgp2pyLSuMlydzMea2prifMX1t5q8tdSZyWjd9RtE+0nrj9UCs99tqNrlOQwe3w2VZfg7NaS1WqwFy6JCje7oMXwAmvYejPvukOckhktUeVSxipYsLWYy95Ksrs6TVEB3vkgrDF7xH549vA3fLlqEEy0b4TbJk4p9kuVeoMwWm0wUmxDoh7ACBVAwQDKZsmh6afqTASAuWyVC5EIBCtwSAZ2M4KguuPAeoVvC77E71eQNM0VyP8pjS8CMU4ACeS5w/EIS3v3+DKJizQgOMKBbi9IoVtDArkDp5NWE5qFJB/HXwQAUL1saRQvJCGpydq26rzlaRNJtoP6Uk3U510f06QvQlSiCAAk0nOvK93rOF3XS77q1pOVvOoa/1+2FVvs+1Jeb/TMbrU7Tq4lLN2OntQaaVQtN2/XONc2Ux6obnHNfOokJVEOS8+9rVpcXkiUYudHk7wbbZZw6eAax0j9QTaRq1cJRuFxJFDPakKSiGpdFdY1ThhZxvqZM0cexZ88pBNW9CxWlFUcFO6mLspfYRRNz+ySsqS9k/MASK2nti0X5u2qgiGznLKMm+47Z/rOMTnc3atQMh1HS43KtgFHqadLiQ/aR/ZKloj4ZUhEhLgHltVvwGQpkXeD0JROen38UfVsVQds6EVnfkGv6rIB0p+StnT5b+yw4BSiQ6wKqxSHWWBk1b3ckbZXuW5nchnN13ypQkp/AIkXsLUXOk2u1Qroeb1e3yckjSTjJUBa1W5e1b53ZQAnqRZtZh5DKd6GJPE5z/5F9y2v/cV3HImV2Doxw7Zopz6SNYzJczaxFoFgV+Un3avogSL2s5iFKnaw23foIK4Pb7y5jfzZNEGTfUOxTutil3yyjv/UhZXDHnfKKFFB1u3Nd/KrchzrqCQZBrix8TIF8E1CXTNTiejzKt51zRx4rcLWTs8cWgRmnAAUoQAEKUIACFPBlAXWPkLqQ5HoxyZc9WPasCTAQypoT16IABSjgdgLqC99fRkMINFx7n5DbZTaTDBnkFii9akrLxqJG5LPPGZKNbbgqBSjg3QJ6vaNFiPcIeXc953bpGAjltijTowAFKJAPAuoemwjT7/ik90N4fZOGoJzcp6/63smgdOHSnT4s/OpPqMyto8m3Q4D8DsrsRwZAyMkuU2lk15rMv7Nz0Sc4lCQTuKa+cP0HBnMizu79F/9dNCH1HipJS02ier28cmSg67vyVQp4uoA9DJJjgTVX+xR7ugrzfyMBfjfcSIivU4ACFHBHAfnWDzQfw7ofV+DYg8CrEkmoEeFUa4njumjmmbbJzTL2fvQBGkzTq6LaBwkIdQ5OJ7eOFrp3OhYOK4CZH3yNqHjn0Neu6an5durj3ul90UqGjk53u4zripk/lsDFMiUQPabWQP+S/TG8hayahYRCYzZj7pDmWD/oFFZ3LykDJ8gcQaFH8b/hU/CjVeb4kROhtIsJSbGN0H7mY2imRo9L+yL/ogAFvETAMaFqLt9b6SU2LEbmAgyEMrfhKxSgAAU8QkCd+6sWooIJK/HqkzOxS6IhzaImXU272CRE0utLoO6weRguIyEkyjZ+0QcQF1UO5ZqUR6AEEpatv2Hflu8Rc+52fPfpezgd3gb1y8WlDrWtgizbZZmHaN9hlJ/SB21kyLY0g7hZZRjpE4cQX7ACSkh0dU1QJk8YNCuSlt4rw4fLUNtFo3DhxGnEW0tCjbKdPs+pJZBAT3WHM6h/VCAnQ7UZ1EhxsoIx4Dz+/fJjfGMrg3JFZZ6llFERVIuRJfokTkWeQdWZfdAiZRjt1DT5gAIU8BoB57FGHee4UCCrAgyEsirF9ShAAQrccgG5F0jO7oPkviA1ZHUIAiGxAHTSxSxEntMst6GUaQM+Wm9B7U5PoXJAbOpw0TZp6QlJ3ITvvvkZke3n4fnmEgip8kg64fVmY/bv96M6YjCvfBjmNJuB+kVmQkbRRuhrq/HHkzI3qnN0NVnfuulr9Gg1WzZ1zNvhymK7tAcftGuLuJnbMfGe0teckvjrzfhv7oPoNnoDqg/4DoPLTsNLY+rj/Ikv8cqEFqicbEN8mshKsijfVEkbP8LSPRaExh/EgUgZbvyP+VgQG4LYoCq4r3tBCZLMiBh0GLvektckQ9LghHgZTvviklfQ6ZGt1+TDNc98TAEKeL6ATu+4jGLjsHGeX5n5WAIGQvmIzV1RgAIUuBkBm0Q/EVEL8HLXz3E4NBjB1oPYJU0iyW/0Rs/PLuJ4relYM+khTL//L9w16h2MkvlU1dDcapE5VlFl6yP4+psdqHG3tJSoYZ5TvgFs5jjIHKQI+/0JTDpaAV0HBSEkWrrESdCjvyxBkPxcsUdNspIKhGISU1uI5Jk0i+n8t9gY0hbDq5d2ue9HAjiDhgJBF7GiV0MMW34JtSeswJRB96CUvgVqRjyKrs92wBPrO+PxjxZiSGXZn2TI2TqkydxEiT8Nx5sfJst9QVIgybttyQS8+m0SbCW7onizFyVbEpQlJSPWbMC+iQMxZvfjmPFlM+jiEqXVSDLNhQIU8GoBNXy2GjbGedzw6sKycLkmIH0MuFCAAhSggKcIGEzHcXDTn9ixbQM2/XEAMRIXJB/agG1/r8e+fSdx8fZHcV98NC7tMUF6utnnIlL3DsutPNj1yy65j+gpNKkrsUS6+W7UwAfrP9mA+KZfYUglxzw5mkx2eXmkhjIFNNQqkfJTXEPtDo9iqy346mAFKXg21Tz1ywycqloJZVwmANKMGgK3jMXDYcUxeGUCmr+9EbOG3IMikr9kmxGFen6FTRueQ4VNi/DmXeXRffJuxEqeneGLNV6CtPGx2HXShOM716CnzNNU+r2D2HfSjJ1/LUWnGle7AWpyVTjx6E5s3xmJZJUfLhSggE8IqHuEVBTEBiGfqO5cKyQDoVyjZEIUoAAF8lZAk2/4i0XHY6E0l+w7fRZLn2gMaSxBiTePYseFeJxcfK8MRd0Wjeufx5ZNf+CsyxE+SLcfPyw7CnQajXYSPEmvsdRFdZsLM/+GeT+cQeVBd6KotP6oq6o2mTU0YqoNRyNt2Hk65eeMDdu/X4h6Wtw1E77q/SxYtzwBtar3RWkZhU6LO40ze9djxaA6qNTubew2haL+mxswokUSTuzchr27Un62b8XmhEfx4vrlGFD6PLa+dgfuqtYV76/ehZMXEuR+IElLr5dgTgZDMBjsAZj62yA3Can7hNT5DxcKUMC3BZyjSHLQON9+H2S39CkdI7K7GdenAAUoQIH8F5AOYBKhSIOPDHKwGvPXb4G6defMc1UxtsyfGN2qMHTSVa52l7I4suIXRF5si8KhsoIERH5bV+GrMzGo9k5ZhMnwcuo+mtTFZkGsoTEe7Vwen09+HavavojHVfAh+7IUAAoVlCSSU9aW560RgfDTqVDp6qK60YVHfojFe0NRZWoFGdpbtj87Dy+2HI+/S3REp0njUPXnMZj3ThM8Njntts5UbDIgd7mmSzFr1hX888FozOpzF/Z9fhYz2+kQfSwScbJZwuVziJe8mC4k4vTxU0iQlqkSwSn9/5wJqd88G3LV4GMKeL1ASoMQh8/2+prO3QIyEMpdT6ZGAQpQIO8FJOi4uG0fdkhLTSHZm7lTe2zv1g0L/1iGJ6tGwL/Jc6j+wg/YejYOVeReIoM+Flt++wFH9S9grtwfFJeuW5zqWZ9sCcTtU7/HczVqYtYnY/BoB4meZEjtuJfrouG7EoAZ/CTISpR7jmTncWew31IbjWU7+cuxSNOUbuUb2BzeEb3vlDxJIGStOASvfd0OlyrUQI1ywTA/2ACtTIbrtuDo/IuiSKkANK/eGG2eTkL4neEoKqPhTej5NFadj4feZkK83D+U9FZjdHzXhES/Zhj77XBpNUrJiYwMZ+8RFxEKvwziI2d2+ZsCFPAuAS31GOBd5WJp8laAgVDe+jJ1ClCAArkuYDBFYePad2Ft2gtllnyCqPsmY3yJiuj58PuouftFNCneFvfXHobZv+xGz0qNoJ06iJ8+/wV+QyahjuRGDTmdflGtP7F+t+PxPsCHKz7F3nYy9LU8py/RFA2rHMH/flqJ0zWeQceKSbBIC1Klug1QUbqpqbhILUZ/K9Z9eQEh9UegibQiWS6p7nUFUKpZA5RSK0hgZCxWwfFY/X29RZq5kgPKorzcy6Qye9HQQYKdXXhW8lMgai0mPPkwDgzdgU/uMSLRGoziFXdjvr0FSIYH153GIek2aK1YHmVMNpy43n74GgUo4DUCehUIyTGCE6p6TZXmS0EYCOULM3dCAQpQIPcEzJF78N2SIugyqx5+WSZBg9EP9z07A/f/1g9fbB2DVk1Lo1HHVpgxbRH+7N8INdaNxKJD3TChWy11npDpoiZaLVXtdiT8sASnzj0MTYKXgAHvY9bAWCzteSee0I/C1HllZYcS15z4HbPe/Q0Vh9+HstJyFBH9JT7daEKRuXegZBwgA82lLsbg0/hz+Ch8vP+MTIB6vRyosd9kafgMpgzrgqJqDGxZVLAVVDQCQfLbP16DWQZPSI47j8DSd6CABE0BEoRZZNhtkwRNAVcu4lj0FaDsWfwXWVEatczynwwc4UiK/1KAAl4qoEkjtjq6cLAEL63gPCoWA6E8gmWyFKAABXJdQFo9tFANpyb2xo9l+2NkzYJYZf/ml95qZR7AyHlHULSqETFmIxp2eQbtZnfB6OcK4u71a1By2Go0LSURSyaLCoL0MnTcoR2npOmmIYxy341K2iZBz+WEELRp1xT+g57E7Dd/Q9eNL2D0gCnYUGsUyvS/DxVkDiPDT99jlbUxhrWXEeckgHJddIZ4nN/2GzYm9MawjqFIMmcSDEn5rqx5HV9suR9x6Zqt7A0+kujli5dxSe5xOvFCV4wtuBXvPh4KU1xp1H/+NQyu64eEQ0ew7XwMMK8p+t5tw6o69+OJYQ1QU4a0c7ZeueaNjylAAe8SsDkPFt5VLJYmjwQYCOURLJOlAAUokOsCARr8FzVGl7lX0HLyBNQOn5+6C6vJDyWqhEN6rdmX+PKdMfn5u1Br3CSsrzgc055vgwi5Yprh1VKDP/w3vo3Hnp6O/Xsvo8LY6WgQ9mFq65HclgOt02PoP6QdprW4A3MuX0bdYT/j6yfayD1IkqZfEjYt3wtL3XfQW/5Oljgk7aLJeA1yY9KdL2HsxEK4Ii06GS2qK94J6/vSqpXSMpRuJU0yEnlsGbaWmo5vR8xFh0Et8WbRrXi5TUnUGf4S7pSobeeX32F3SG20xk7sku0Dq7XBIxNksAj5tkuWAIoLBSjg3QIudy56d0FZulwRkK9FLhSgAAUo4AkCVglyilYoBn3QcDw6UAYnkHtgXBfVquNcAqyHsPzbCxLB6GRwgTXYfUDWt/c7c65x9bfNYoJWtQv6vbIWXx+2YeXoMBhl6GznogKUy1pzvDS9GkzHTuHON47jg1FtUF5aglQWQi7vxnf796Ngn4YoJENvu2TDmYTjt9UEk7QwqYEUMv6xyEStacuUJgGJZPYsXI6A5oURMXgX1j6zDYtGdMWKQ9JyJXFWUuQhrHhjPkIH9Ec1fzUEhCzyT5DlZ3wwfD2OSzBkH0ghTaL8gwIU8BYB1Rjkehz0lnKxHHknwEAo72yZMgUoQIFcFdDJyf7xBp/jpz8norGMnCZ/XrPopHub4fLfWPp4e7y8MxnNPlqL0X67MeuxhzB3ayLU6+kP/JqcOSQWqYTWbaugtLTomO2RTErUJJGDUUaE84uNx6EHVmNuwwT8+vq9WLjHKvP4SJwlqyUf2oNtRyuic1s/mDLKVGoupaVH1s/sRwVtmS022Zft8ATM/esOPNLuYYTJCU/hMfsxrnYR++SwAYn/YdXTt2Nm6CuY0r0JAtXw3rIvGUQOIXEnsWZeM0z5V1qIJB0uFKCA9wrYUtuyvbeMLFnuCfArIfcsmRIFKECBvBdIDkR4YQk+5DzfdVH3v4QHJ+PfT1/FBwtmYMWBWuj9xWpMbB2M5DuX4+IjXTClzwM4NWwGBo25HSWu2GQOItkoZVGtPiZpqXEmq6l2HQmCTP+bh/cP7JAuc39jXanPsGXxV+jT+kFM6tMOx8cvxeheYTi6fR3+CeiLl4v421uInGmm+e0XDO2vERg1OMQ+qEGa15x/yOXcuO0S4ZVIGxBZJR/Fzn2DUX2n42DbOXi9YTB0kj2bfxUM/OoDmLd+g5lPdsW7a7ph3JoJuLPERqyX19U64RLYhR45jnPSWa5FJQnyrjZ0OffK3xSggJcI6OTQYb1eq7KXlJPFyD0BBkK5Z8mUKEABCuSLgFVO8J3NOuqxCoIiLq/FuP5D8OWqPYi6/T3M3tQfzQsF2icf1Up3xKjlf6HGU00x6uVW2PhHF7w45wM0lrET1DmDurnYGQCpAhj1Ufh2/mpEyr0+SV/0w2vBDdF64Ai82rUUYsIrYew3K2Ds0w2f9i+DTXuP46vhr2JJs3CUk753rum4Ytj77V8+glNnwmHJbOQ4yUdStKRQwiU/UraClo1446FeWHRmCKav6Y+q0qplkXJrlgRsf6cPxry0DAfLv4XZW59B0zIq2CmDQgHAheHlcfskobp0FKcqfYf24RLYXXP/kmsu+ZgCFPBkAeekqp5cBuY9fwUYCOWvN/dGAQpQIHcEJF4w64JQvmQRyFgHuFK0BXo2r40zj/6Dtx6W12RgANVfXi3qty28Htp/H48202uhX+L7aFJUgglpHTGFVUORokXSTD5qshZEk3vboGWpVzFkQDNUkaBCDU2tgi57AFK2I17cfBbtRy9BzMQIBMZEoHxpx74y+tdqM6JgkBH6x1biq9cKIFruI8pwkXyefv8uPLA7BP7ORiF57pL+brzw+SIUM/RAB7kvKUnyoRabPhBlG/ZG69f6S1DWHgUkaFL3CiVElkKPA5dQa9UfOG4OgMlQDne0qoaSEgSxQchhx38p4I0COul3ywYhb6zZvCuTJlcCp0jyo/JuF0yZAhTwdIHjF5Lw7vdnEBVrRnCAAd1alEaxgobUE21PL59n5t8mLUEagsOkB1u8DTHJMplooMyjI0FCvAxIkOEiEZEWKNvIi7H2EdQkypC/Q+WSWJwECVeHl5YWGT9ZT7qkJck8PZk14Ohlnh9N5gwyX+1hl+FuVTORQfIZIkHKJRkxTt0jlNmik6ArVPYbI+tdPaGR/OhlxDxJJzklCHJur0ne/eUnSYIreTnNooYDtw8QIS9YZN9X00uzGv/IJwGj1NOkxYfsN7Mny41onwypiJAAqWwuFMglgUemH0TrWuF4so1c6eFCgRsIaLLIYYkLBShAAQp4noAMSS0n+Akyd6gaFUAFF1YJBiR+yHyRlWyyjtyFozZx/CN/23uLpQlOJD25Xyhefq63WNTO0myXydqyjll2oiZZvV4QpLZWZbAXKU1Skh9pyskovlMtQInyk9Eig+GxBSgjGD5HAS8V0KnuuemviHhpWVms3BFwdj7IndSYCgUoQAEKUIACFKAABW6BgLrQwjjoFsB78C4ZCHlw5THrFKAABShAAQpQgAIOAftgCWwS4tshGwIMhLKBxVUpQAEKUIACFKAABdxTQG/vGpeV/rrumX/mKv8FGAjlvzn3SAEKUIACFKAABSiQywJq1DiXwfdzOXUm540CDIS8sVZZJgpQgAIUoAAFKOBjAprMDM2ecT5W6TdZXAZCNwnIzSlAAQpQgAIUoAAFbr0AR4279XXgaTlgIORpNcb8UoACFKAABShAAQpcI6DuDmLXuGtY+MR1BBgIXQeHL1GAAhSgAAUoQAEKeIaAs0WIQ2h7Rn25Qy4ZCLlDLTAPFKAABShAAQpQgAI3JaBOahkE3RShz23MQMjnqpwFpgAFKEABClCAAt4noNfLqHFWCYYYDXlf5eZRiRgI5REsk6UABShAAQpQgAIUyD8BDp6df9besicGQt5SkywHBShAAQpQgAIU8GEBnaazD5ZgY5OQD78Lsld0BkLZ8+LaFKAABShAAQpQgAJuKKDpOI+QG1aLW2eJgZBbVw8zRwEKUIACFKAABSiQFQEdpHOc3B/EBqGsaHEdJcBAiO8DClCAAhSgAAUoQAGPF9DJWa3qFsexEjy+KvOtAAyE8o2aO6IABShAAQpQgAIUyCsBnaaGS+BCgawLMBDKuhXXpAAFKEABClCAAhRwUwGd5ugWx65xblpBbpgtBkJuWCnMEgUoQAEKUIACFKBA9gR0EgnZ7xHK3mZc24cFGAj5cOWz6BSgAAUoQAEKUMBbBKRByD58NkdL8JYazftyMBDKe2PugQIUoAAFKEABClAgjwXYIpTHwF6YPAMhL6xUFokCFKAABShAAQr4moD9HiFfKzTLe1MCDIRuio8bU4ACFKAABShAAQq4g4Be3SNk5TxC7lAXnpIHBkKeUlPMJwUoQAEKUIACFKBApgIyejaHz85Uhy9kJMBAKCMVPkcBClCAAhSgAAUo4FEC9nmEZCIhDp/tUdV2SzPLQOiW8nPnFKAABShAAQpQgAK5IWBvEVKBUG4kxjR8QoCBkE9UMwtJAQpQgAIUoAAFvFvAPmqcGkCbTULeXdG5WDoGQrmIyaQoQAEKUIACFKAABW6NgE5TQdCt2Tf36pkCDIQ8s96YawpQgAIUoAAFKEABFwGdprMHQgyGXFD48LoCDISuy8MXKUABClCAAhSgAAU8QcDeIuQJGWUe3UbA4DY5YUYoQAGPENDkblSLzNOQbLLByi4IHlFnzCQF3EHAZpOxjblQIA8F7PcISXMQW4TyENnLkmYg5GUVyuJQIK8FTGYr/tobBasEQ1woQAEKZFVA5rqEPRRiPJRVMq6XTQH11lLX5xhzZxPOh1dnIOTDlc+iUyAnAkkmC/afuJKTTbkNBSjg4wJqnhcuFMgrAZ1eg01dpGNvhbwi9rp0GQh5XZWyQBTIGwH7VbaUpFX3OC4UoAAFsitgPz+Vf3ieml05rp8VAXXju+M9xndYVry4DsBAiO8CClDghgI6+Xbp1LAgeDX3hlRcgQIUyIKAyWKDvx/Ha8oCFVfJhoDqfqnmEGIYlA00H1+VgZCPvwFYfApkRaB0IX+oHy4UoAAFKEABdxVwXqxjIOSuNeR++eLlGPerE+aIAhSgAAUoQAEKUCCbAo5R42QjRkLZlPPd1RkI+W7ds+QUoAAFKEABClDAawRkPlXHhKpeUyIWJK8FGAjltTDTpwAFKEABClCAAhTIcwGd/f4gaQ5ii1CeW3vLDhgIeUtNshwUoAAFKEABClDAhwV0MrKPmkyVcZAPvwmyWXQGQtkE4+oUoAAFKEABClCAAu4noEaN4zRC7lcv7pwjBkLuXDvMGwUoQAEKUIACFKBAlgRUIGRvDmKTUJa8uBLAQIjvAgpQgAIUoAAFKEABjxdwDJag5hFiJOTxlZlPBWAglE/Q3A0FKEABClCAAhSgQN4J6CQSsodAjIPyDtnLUmYg5GUVyuJQgAIUoAAFKEABXxTQ6aQtSIIgxkG+WPs5KzMDoZy5cSsKUIACFKAABShAATcSUCe1VgZCblQj7p8VBkLuX0fMIQUoQAEKUIACFKDADQR0ztES2CR0Aym+7BRgIOSU4G8KUIACFKAABShAAY8V0DSNXeM8tvZuTcYZCN0ad+6VAhSgAAUoQAEKUCAXBfRyVmvvGqduFOJCgSwIMBDKAhJXoQAFKEABClCAAhRwbwFpEEoZKUE94EKBGwswELqxEdegAAUoQAEKUIACFHBzAQ3SNU7yyHmE3Lyi3Ch7DITcqDKYFQpQgAIUoAAFKECBnAno5KzW3iuOPeNyBuiDWzEQ8sFKZ5EpQAEKUIACFKCAtwmoUeOsEgkxDvK2ms278jAQyjtbpkwBClCAAhSgAAUokE8C9nuEZF8cKyGfwL1gNwyEvKASWQQKUIACFKAABSjg6wJqGiFHEMQ2IV9/L2S1/AyEsirF9ShAAQpQgAIUoAAF3FZA55xHiHGQ29aRu2WMgZC71QjzQwEKUIACFKAABSiQbQFNk/uDeI9Qtt18eQMGQr5c+yw7BShAAQpQgAIU8BIBe4uQKgtbhLykRvO+GAyE8t6Ye6AABf7P3nnAR1F8cfx3d7lLrxB6J/SqdJAm0kG6oqIoRVRQRMQCiEgTBP0rIKCAYAHpiICCCtIE6b0Teg/pPbny/81eLrmEhKKoKW8+hLvbnZ2d/e7O2/dm3rwRAkJACAgBISAE/mECKmpcfJIVSRaxhP5h1LmmeDGEcs2tlAsRAkJACAgBISAEhEDeJWCgIRQZZ0FsgjXvQpArvy8CYgjdFy7JLASEgBAQAkJACAgBIZAdCejoE8fAcXCE0c6OdZQ6ZS8CYghlr/shtRECQkAICAEhIASEgBD4CwSUa5wkIXA/BMQQuh9aklcICAEhIASEgBAQAkIgWxLQ60StzZY3JhtXSp6YbHxzpGpCQAgIASEgBISAEBAC90ZAr5cgCfdGSnI5CIgh5CAhn0JACAgBISAEhIAQEAI5lgCXEZIkBO6LgBhC94VLMgsBISAEhIAQEAJCQAhkRwIGgwqXIEkI3DsBMYTunZXkFAJCQAgIASEgBISAEMimBHQQtTab3ppsWy15YrLtrZGKCQEhIASEgBAQAkJACNwrAZkjdK+kJJ+DgBhCDhLyKQSEgBAQAkJACAgBIZBjCUjQuBx76/6ziosh9J+hlxMLASEgBISAEBACQkAIPCgCotQ+KJJ5pxx5ZvLOvZYrFQJCQAgIASEgBIRAriWgLagq0RJy7f39Jy5MDKF/gqqUKQSEgBAQAkJACAgBIfCvEjDoJGrcvwo8F5xMDKFccBPlEoSAEBACQkAICAEhkNcJ6GQhobz+CNz39YshdN/I5AAhIASEgBAQAkJACAiB7EZAc43LbpWS+mRrAmIIZevbI5UTAkJACAgBISAEhIAQUARiEiy4Fp6UJQwddFnuc+w4dCFOK8fxWz7zNgGXvH35cvVCQAgIASEgBISAEBACOYGAi16HbcejERZjRvva/igWYEpXbf0duvd3B8fg90OR8HY3oEKRAumOkx95l4AYQnn33suVCwEhIASEgBAQAkIgxxBwM+lRvaQH/rf6Gv6gQdTmYV+0qumP/N52dTYzO+jSrUR8vSkEwdcSYDLq8WKrAnDlpyQhoAiIISTPgRAQAkJACAgBISAEhECOIFC2sBsqFXPHvrOxWLMnAj/uCqdB5IfHqvvBMSJktdpwMzIZC7fewl6OBNkYUtvA0aQi/kbUKuOVI65TKvnvEBBD6N/hLGcRAkJACAgBISAEhIAQ+JsElHtc82q+OHg+TitJ56LD+n2R2EC3twYVvOHlpsfGI1E4ejEO8YlWGLlfTR1KNts0d7q/eXo5PJcRkLHBXHZD5XKEgBAQAkJACAgBIZCbCSj3uLIFXbWRHjXaYzLqoOcaQttPRGtub/s5CpRssdmNIIKwcISoWikP1C4ro0G5+bn4K9cmhtBfoSbHCAEhIASEgBAQAkJACPxnBJ5pFqgZO84VUO5vKqkw2s7x45I4GtSBwRUkCYGMBMQQykhEfgsBISAEhIAQEAJCQAhkawKlAl1RN8jrNmMoY6XVyFDDSt6oVsIj4y75LQQghpA8BEJACAgBISAEhIAQEAI5jkCPR/LBZNCB3nFZJg9XPZpX9c1yv+zI2wTEEMrb91+uXggIASEgBISAEBACOZJAIT8jGlX2gZmub5klTg1CEKPMleOfJCGQGQExhDKjItuEgBAQAkJACAgBISAEsjUBFUHukYre8OEiqZklEyPG1aP7nAfXH5IkBDIjIE9GZlRkmxAQAkJACAgBISAEhEC2J6DWFKrKKHKZpUAf+4hRZvtkmxBQBMQQkudACAgBISAEhIAQEAJCIMcSaF3TV1sw1fkCVJCEdrX8tDlEztvluxBwJpCtFlRVseC3HY/ChsNRcOHkN0lCIC8TMFOI12AvV5f6AXkZg1y7EBACQkAICIE7EihXxB1lCrji5LUEricEqLlBxQNMaML5Q5KEwJ0IZC9DiDUNjzHj5JV4KL9OSUIgLxNQq2AXCzBq0XCkNeTlJ0GuXQgIASEgBO5GYMjjhdH382BtQdWkZCt6PRp4t0NkvxBAtjKEMt4PFQNErQYsSmBGMvI7NxPg4tjaCtny4OfmuyzXJgSEgBAQAg+SgKebQfOgWLY9DLXKeKJa8cznDT3Ic0pZOZ9AtjWElJtc4fxuqF7GWzOGcj5quQIhcHcCelpBF24k4sSFyLtnlhz3RcBqBVbuDEV8khXK2JQkBIRA1gSUa1FhfyNaVPeTPpmsMaXbk8BRiC1Ho3AzMllkTDoy/84PJdaj4y3Qc/a76khfsCXk3zmxnCVTAsqrpc3DfijkZ8p0f3bZmG0NIQUowNuE+pV8kZScXXBJPYTAP0vAhRFAbdZYHDsfwROJtv4gaVvZu7LxUCQi4viiFLQPEq2UlQsJmNlxUI1zFFtU8xNRdI/3Vyl+f56Mxsmr9nkq93iYZHuQBNjL5WbU4/jleBy7FPcgS5ay7pNAHDsd65bzEkPoPrndll31Sqk/SUIgLxBQz7oaDZX0zxDQ0wLS/sQQ+mcAS6m5hoCeferSYXD/t1NkzP0z+yeOUKP+Ohn6/yfQ3nOZysMlJ9yDbD0idM+0JaMQEAJC4D4IWGlxVi6lwq3aNBeK+zhUsgqBXEtA9Q/EJdoQfCU6117jv3lhpQt7wsNVmZSShEDeIKCMn8shCQiPTsoxFyyGUI65VVJRISAEHhQBtb5E2/oF4OUqI3APiqmUk/MJqLkVp68wcuulKG3kNOdf0X93BcqorFsxHyqWMMFi+e/qIWcWAv8mASOtii9XX0VYVOK/edq/dS4xhP4WPjlYCAiBnEhAKSnJZiBJzcmS7tqceAulzv8AAQMNIbV+mWofkv4eASVWzBarNseZH5KEQJ4goJ77nPZKpdiTJASEgBAQAkJACAgBISAEhIAQyFsExBDKW/dbrlYICAEhIASEgBAQAkJACAgBEhBDSB4DISAEhIAQEAJCQAgIASEgBPIcATGE8twtlwsWAkJACAgBISAEhIAQEAJCQAwheQaEgBAQAkJACAgBISAEhIAQyHMExBDKc7dcLlgICAEhIASEgBAQAkJACAgBMYTkGRACQkAICAEhIASEgBAQAkIgzxEQQyjP3XK5YCEgBISAEBACQkAICAEhIATEEJJnQAgIASEgBISAEBACQkAICIE8R0AMoTx3y+WChYAQEAJCQAgIASEgBISAEBBDSJ4BISAEhIAQEAJCQAgIASEgBPIcATGE8twtlwsWAkJACAgBISAEhIAQEAJCQAwheQaEQDYjoNfpslmNpDpCQAgIASEgBISAEMh9BMQQyn33VK4ohxOw5fD6S/WFgBAQAkJACAgBIZATCIghlBPuktRRCAgBISAEhIAQEAJCQAgIgQdKQAyhB4pTChMCQkAICAEhIASEgBAQAkIgJxAQQygn3CWpoxAQAkJACAgBISAEhIAQEAIPlIAYQg8UpxQmBISAEBACQkAICAEhIASEQE4gIIZQTrhLUkchIASEgBAQAkJACAgBISAEHigBMYQeKE4pTAgIASEgBISAEBACQkAICIGcQEAMoZxwl6SOQkAICAEhIASEgBAQAkJACDxQAmIIPVCcUpgQEAJCQAgIASEgBISAEBACOYGAGEI54S5JHYWAEBACQkAICAEhIASEgBB4oATEEHqgOKUwISAEhIAQEAJCQAgIASEgBHICATGEcsJdkjoKASEgBISAEBACQkAICAEh8EAJiCH0QHFKYUJACAgBISAEhIAQEAJCQAjkBAJiCOWEuyR1FAJCQAgIASEgBISAEBACQuCBEhBD6IHilMKEgBAQAkJACAgBISAEhIAQyAkExBDKCXdJ6igEhIAQEAJCQAgIASEgBITAAyUghtADxSmFCQEhIASEgBAQAkJACAgBIZATCIghlBPuktRRCAgBISAEhIAQEAJCQAgIgQdKQAyhB4pTChMCQkAICAEhIASEgBAQAkIgJxAQQygn3KW71FFnAPS6u2TKajePM/D4LA/nE2J0ucP+rMqV7UJACAgBISAEhIAQEAJCIBsTEEMoG9+ce6oa72D47gU4cCUZyfd0QFomG60f18gd2LTlPKK4OaMxZWPZ7se/w4xvluByQooxxGNMnoAbjaPUpLa5cZv7/f85F5NannwRAkJACAgBISAEhIAQEAL/MAHRQ/9hwP908SaPbVjY6RXs7V8Zn0x8CL5x93FGIw2hNT3x5lfd8dWPH6OCnw2mJB2sKUXYOFLkeWgCPpteDOXaPYHiNHSsSclYP7wDTnb+Dv3qBsLFxhGlsJP4ae0KnIvgAfeYdLDAaq2Aeq90RS3Ww8xyJAkBISAEhIAQEAJCQAgIgX+LgBhC/xbpB3Aem40mipPBYDHpUeaHdzHD4o3ujR5CYKIV/Jd10umhc/KBM7klYu3Miyj4UBdcnVQVT+4ahV9/fgJFeRKL1QqrxcBPC8vjb35YWLbhzFuYMj8Gvbv5g/YL1KiSW9he/Pz5cKw/p79tVCmrythYvg318fbLXVGPZYghlBUp2S4E/mEClCtWyhWdnvLhHk5lU3nvJeM9lHV/WWywsaI2yrGMo9f3V47kFgJC4L8lwHasyZEsBAllko3SSPffCJr/Fo2c/V8nIIbQv478r53Qw3IWq8YMxbd7Q2BJEQ46kwdsR/+ghaLD1int8eRnkVRoMhcs1sQYBL70LT7rWlVTdmy88/l2DsR7p/xRd+4j6F/iExxu1xote3hiy1dlsPr1Npi1LQHGpFtAwkUMb1gArokdUbHxV4hp+yXq1mUBZl6LdjoLkiL90WN/GGZUBRKdjLXMrlbPQ2PGNkGFUaoASUJACPwlAmx7XjHBWL/nKnyDGqF6cT1HWe0lWa78iV03CqN6tZLwVD0WWSQr9xVe2giBo4wYtXILngqiOElpv7Q3QNtI+7MlxCP08hlcvbATf5ypgFZPNEZJL3aEZGzrzB+zax2OetZAzcqF4Zpxfxb1uJfNbqbjWPRYM3xRdTkWf9YYvonp+oUyL4KMXEy8hsz3ZrnVSj9js1Onkk4fh4jga4gy3Jux6CjYYvBE/sAC8GQdJAkBIWAnEHNlPZbODUGDIc+goneG1mlJwuEpjfCZ50hMGdAJfpnIL03t0P5LI6pEjV4Xg9Az1xHjQu8Uh3CivqTjTrVfqU42urq4+hZEfn9X6LWNViSF38CtyHhY78fworFm8SmD0gH0olHlSMqxBKiSSsoJBMx6bxSo9Ria+EdoPSU2Fw+4H5yNyeE2FH7mM/QuE4U4Mxt8FhdjNSfCq5Rf6l4390j88tEa3Kr8KQY9DFxMaoUJ88fgYr8V2G2di6cn70Frsxvyr6yOmnODMGLFr6j5RRm0+7IJXtvbH5VYUnxqaXYBEx8DREXcgyFEF7vYeDXSJEkICIG/SkDHdpQ0ewgGjFiNCnNsWFeG7YrGgRICcQc+xqA+V/Dq5l/xQkVPTQnI6jw6Kxttcj6oQx1JzyPib57Bme0/Ydu+YNy4dhrHNq/DkXA/VOjwOoo/1hilfWg0ZWjGBlMUfuvdFtOa/YglX3eE112MFaWgJGfoD9G70sDj3226hWtldHg8ACM//wA73/gN3Sqk6TqOeivdJ54THtk3pKXkqI1YMn4lgl2obKUWyL5mgwlGAx10kxLopOukiKnjLP6o1HcQugTlTz3E1Wc3VnR9Dl/b4pHMa7q7vsSTGTyAoE4YP3kqmpW7va6OOsunEMhrBJJOzcHMz4ESzz9BQ4iNPV2yIvbIHvzpewFJqW02LYPOHIfj81/EvAPuMLm6wmSwwcyO3lj3p/HWJxYsbd8fK3w82L7tB+vM7LzQs5Vb4hERmwy9WxAavjwTw1+tCR/OfTa4xODc0hH44PM11IPSzpP1NxunD5jgRflr6h2MLW+7IcpZGcr6QNmTTQmIIZRNb0zGaiXpAvFQl4GolfKC9zDewE/Pz4DVNBwTZr2K5mzzGfSJdEVYudPh3qbe+14H52PazhvQt2+P6jw2kj2g4WXexYeLrXAPpLubMRDe7IkpUIit3d0bpa9Ow/Dvz6H0zGAMrU7lJVrTt1IUBQNMPuFY36EQ6qhJQ3dL7Gq2hV3nsVXvO8DD3YqW/UIgTxCgHAi4uRlvL1sNlPsGH/fgwC1f6lpiEwxoPBqv1q2KKaO3oefy1nC7UyQVbejHuRPFhtiDizD2hT74+QoNhfwN0bjXixjY938oUsgL+QKLwZ86fkYjSJ3bZF6FnbfcUdjXgAtb9+NycgZLyV5D7X+djSPJnhVRq6YvdA7hxV7WG/N7ofvCS/BwzTjnkC5x8ZHAzfOY9HQ9fBfgnqHjJwlGnzEY8cNjKBPG+Yw8iznmD/w4by5i6jRGoFeK8DS4IOnEVuy9HI3CTbqjjCEqdV6kLjEcJ7cfxsXHntEMIUd19fp4hF+9CP83juHzJ2gkZqahOTLz06YzQXfoNXR99xwS7km5cjpYvgqBXE7AsvtnxNUficrFXeHjm3KxbJ6J7MRIpMjQUTPVM5xtSotNT4MyIjr8Mq6F+MDt7Fpsv+iG0k1bwN0nFDE8MCQsGpXe2IoRrc1IosGy98UKWFV/A97vy46NBB129quKH2/EaW79WsE6KxJuncSxQmOxYmpjjhjdWYex6YzIl/Qz3u70Og6E2cRNN/3dyZG/xBDKQbdNTdfRvDUoHUK2LsXMH0+j/Lx30SQqEttXr8JlqxdtnIyNWAebqxfKNGqFigH2izXaQrD226U4EsrfNIoskbdw+ZqZQofBEvwKwrx5EsbNO4QYD0+4B18CLl/HwD7bEBb9EJrt6I9Bv8XB87FBGNqpIdy1J4gKTbQfmiy4gIlByezFyVR8ZSBNH2F4wou6ToKTC0qGTPJTCAiBTAjodInYt/wbrN/vhzYbeqASlW3nTkmzfxX0HDQeq59rg/ZL47GjhxvinI0hKhNmczLd4FyRpCbo8eVv4f7k5CRu08MSH4KzUc/g8zOz0dSfrh9so+rPIV0y0xWUm13gjsVYzZro5nfC8/McuTO5ALVJCbSqG7F5f3PkSzFclAxKPP8rju0KhYuRxoQaMkqXdDDRzSzs9EGEptbGkSEZXgXOINblsTQFiocn+7bH0GlL0SzInk+NpMV92Bi1x5nRe9ESDGDES4cMMt3ai0md6+J4JjJMBwM8C1ZCuYopI2+O02byqQ7XRfgxmAyHye9FHGZShmwSArmTgA2ndjKq05/D0bLQcKdL7IRX932HlwumqKVZtBub0Qt1396EBWzHPtPzoej4Zhi8fDk6qJKMSygVTPAuVAalytq9Uy57usAjX1mUCCoMF8q4Sx5K90ifdBRoNq9SKFuhcqpHXfocab9U2y6QcARelHd3HxlOO06+ZV8CYghl33uTZc1cEk7i+4mv4uDDX2NjSy/Ehu/CjuljsJZBE1wcwoOLC7kZw3DhwDlEMqxBjTdWYerbbZGPpcbs+QGzf/gTHrz7sRQAod+2QpdJwTCHRyFpgg37K17H+bOnEa8MIXMBeMScRbxvddR+xAdRx48jPDkBPrWi6FKSknhO1Yvi7Z2EAD83XDm9E+cj7jKhmb3ByV5V8VCgv9YbnFEwOYqWTyEgBDIQYOeF7uw6zJ7wFW48uQETqrohPkNnApsXArq9gHd++g4vDKiGEcUPYmRDDuOkuKrFn/gKQ5r3x7aUhqfExuSmOkxWpzJMxec7GAyFhViSk2kwmW5THDLUSPvJgRZc2LIB8KuHD3b9iSfoiZucoV4Zj1Onp5hKkyUqA9140XwaNiwbiLLeaUeovHoqHy68tnTlsvJqdMqdHjZJPDT6Oo26dNEU1KRrHktuFFNaD659t9poV2YcCo2Oo2OKRebJilv7vsfKxQYkJqeAyzwjC2VFzxznfEmGnrkLg6yKkO1CIDcScE1aiFXbPFGtxxh0qMtRXUZhij45CzOXFEINgytHatiY2Qit18/jFAeAixRge8/Q3FSb0jxctO10VeMhyh2WzZmHxuHizqX4kdvM1H1O3UzGjaOrsHZpAU12HLtlhPKUTZcoWEzXf8PqpZx6kOFc6fKpHxx18jFvwlWOXiWrCZVZC4zbDpUN2ZOAGELZ875kWivVQF39zTgysCcm7amHgas6IZCNUBdQFy//fgYvO47iKIuvLgrbP30WNh1angAAQABJREFUww4YUXvSDLzzXAsUYF7VbsP2zcC52lMxPHwShrAV53tuE357ci+WP9IKn1KZKND6f1jYESiYfAKzn++Lc1cqoP+yH9Gvtgu0B4Zl0E1Xm4/Ar7DQrUUJIqUt2eJCsHFkY4ze5KjMHT5rrMbvezqgUEZF6A6HyC4hkHcJsNeSPR1+UWsxpV9n/ODZGx+PaAKTehGrhpghxcYVRsvJ32JUcG2MeeJZlFr7PZ6tRqOGvaLGgk3w1NjJaOQSAOtPfTH5QDm07Pcm6uSL4Xu+AUpE7qViQeXA3QR39rxmMkCilZPgNMpkcDNj/89WuAYMQvXSrEy43fjIUK3bfjqCM6TuUNeTHIcoHh/D0Rp3jnZF08Ax8PuxSa9ho+/b6P1KUXikDIG56i9h47Sp2Bj1BF4dUwcBzkYQLRwXduTs3vADEo7zOshJb3JHPIfD6QCII6t/x1pjROootkvkaZyiouQwjFLrpH2xIe76YZw8prcrQOl33v5L3w0vvlsN5Qvaz3t7BtkiBPIWARtHc105H+cnv4oYPewN9K5EXYK6w7VZX2Ja2WIo5GZku7Ro/Qj4fQoGPOuFr359H83YcOOsSjDYk/Lm5TQ/zgNSv/UwsN/ByLat1BAdR6SvcG3F9VdM9KDR49otC0KPrMaGJHrM0IC6HMb5PRkNIXYc62PO4/Txe+v0sSEAjV8fjZb1TOL6ar8lOfp/MYRy0O1zz2fB+ZdrodecQzBXfRbli/pqPSBKB3JEi9J6Jy79iQ8HN8b04+wR3vAFelQrBOoyqdGg8j2xDgu6eyBi4ARu1UHv7YNCgYXg62J/HOgZA/cjC/Fc79ex+nAEGk3ajYqh+7HtJypiPJnByx9lKpbThoYVvvgYip4YK3y4z+ZREG2nB6N+vL0XVu3PNLEgi2shBHCethJekoSAELgzAWUEBcb8iLdaPY9vLlbGcz/NxxMV2H7u0ICSvWthwMqNuFXtUXzYrS/c1sxA99IcOc5XHs1fehOmgBj8PL0vtYhCeKj9i+hdy96pEb1tJ4zRW7BoygfY60GH2zQdRKukzZwEz/pP4ZlHKoNR/LX9fuGrsOxUEvz6dUE9KiixNFzu5QVjTuBk54wnoBua0TMSe/rUwZzyuzDjLT9NxhW4Mg2fr0tEvee+QC2eQ8k+z5Bj2LRsChZXHYSxVHRoNzklPVwtezF3eBenbWlf1/R/FGvSfqZ8C0DzDNdr32FAiXYT8M6LHFijEuaWaZ70hdnYSZTA67Pcdn3p88kvIZAXCLh5n8aS4RcA74KIpNxirBKtU+HC7kNAmae1hdkVB9VZ4/X4YDT/9XO83laPmT+9h9psb/aRISviLx/F6SsuMJ5Qk5+v48TmcwhkdMaHa1J+wR/1XlyKSZ24nAjd5P7o8SMWN56OD18vChcGTtjU0Q1fOeYkOqBbEpAQ1A9DR7WG0n/cuGh8SqwFR45MP1WHcDzreg+iINPjZWP2IHAv76nsUdM8XgsTPeK3v9IOfb46DmPJ4pq2ooySjEm9by3LO2L6uZcw+7dpYNRrLbSj8s5Q2VWDNTF0ZAmfJEQ6FZA6QZCZ4n8ZhR7PjMUBureD0el2jKyT4kLDo6kAWWp0xIwlP6IxJzmqMq2MxGCxVEChwuwpTeJgtG8xFOS+e0nWxGT2QBtlwuG9wJI8eZcAm57nlZ/x6lNdsfSsETXr+mNVDx/8oGYVa8nu9+4c8iB1Oxt/5+ln8MSLQXh/Qh+0n9Mc7my4yn7Kf3A0Jl9WObfio7GT0Gj22yjLHg0be0hN+pPY+OVEbFFCg8lKl9hkK5UPN56TkRkChtREj0Y0hNRObvL6Yw1+YaG2P4fgpacYXc0Ruk3tzyxxkrKOrmOtPpqENnSBS+fuxtqZrb4objiNTT+8g+0vzUIDjlYX69oNWH0eZ88AtTlXR8mfm+dv4ewpd3rTMehCeiuIGSyI9X0CX/y2GI+Ws+fXs1cobnwT1Bxjxts3t+NllktbRUumkIOY2PFhHFECM12y81Wb3P1OYln5ZhgdnnhnZYn+O171euLj6bNQXYUaT1ee/BACeYuAGg0qvOxdvBlFYWGNwo1DUUgs7wOD5Rz2/uaKh15vAm+2Ey18JRtLrG8tfLo8HnXbjcYHg1ph7ux6COAosM6WiHNrX0P/kZuQoEZ2rDvwRZcymNnzZ+ybpYQV//Qc4aElo8ItGNTwrvab7vq0crRBpAzo09qmDRF73sOwNhNwKL+fPbx2hryOn5aEKDRfYca02qxrRsPKkUk+cwQBPpGSsj0BtuPYXSswfc15BA29jB86vYuHn6KDKl/gYesW4rcwK+cG2ZuyimhiPcQuiqTT+HPlUlxX8SFVYtdkolsjdOhWHt5prd6+L8P/N4L3Az0/xYgdI/DRYzGI/FTzctFe5P5zK8KNEwmUuFFJR2UmKuwswq2lUCL/HiyoNwgrOe/HxHMYGJ7WyonYNuU3x/U3UpMSTClGmM0/CD3fn4cuZWlj3aZ8pB4hX4RA3ibA9hRXoi3GvTeOI7LvYJruXXSfVQxeNEp0hjicXrQSF8o0RoO6JeGhVj5mstFfxOv0GizZG4oozhx+e/M1vFEwUDOClAgw0CA4M2sZrnn48wdHm3Z9jRFz62P2sKac5J+EaM+X8NWpmXgsH/UIup6cHdISzVa+hq3nO6IkRQztIkRTMVFlKW+0EzdKokGzNkhMPINrl7nRIST4NWPSsW5JJzZg/41mqDWTx6tCnBN/U99BqUFDEdh4Mw5TJDWox/PVfgNPhvfE0ZOXkVipGFyt8bhw8Avs8hiC78t53xZuV8dJQ8nsI2b/DetlP4GaK5SkCRuuA8JtSaxnkkP2JKlgEemrrjqX3MKu4gIvSNXTwqA0BR9pjcYxyZkqVamXQRnnVr46vFNGrlK3yxchkNcIsA15RO/G6PdXM2b2FxjTfTS+/ONn9Ov6JMpenIhFkeXQpUYDu1dJChtdciTO1/0CW2ceRe2h3TBuwW5M7FIYRkY7qdLvd+x8lWVOzYfSH7XExOBF6KpkhnEp+2TCsGnyI+j1jQs7gfUIP8A10M52Rt/N3my/Ntw6yvbbPE0f0TMefnRseIrHDF1pfSuiRpvH4evtqXncZHWrrEnxqMwOXxVrRlLOJiCGUE64f2xo3hyFeXNpJ5SrWgDWrXH032dPB5WTW1y8cNsFC4VDyoUo59nTHK+NOY/D29bgqqtZU1RUL0qMT0E0615eEzZZXjbLKfXiaqxmZJU/G42HeR8nMc71QVwiV3qmk77nllC60aQJEWVgxUYGIyKgMqonlEJi/1dg8nCHi7cHoiY/jUlHrag7ZCG6BiXQ0GGoSb0XQ+yGI0GtcqiUDzd/VKAeJguSZXlHZIcQsBOg0p7c6h2M56/rtg8xv6ndCHE1bcDwRevh/9Q8TB1TFp40TrTEjhLv+Y2xrP9R+NLoKVK6kBY5TmtrbOcBN5fgjUWe6PFseSxcm4hBb3XGgte646UKIViQPx4WGlnGSDMiuAKy3t2M6AR2e1pjEEUDKIL9MGpEyZFsDCft1nU0Zj+V3ohw7M/4yYFmBD9XBc2+ZVjr/LyOm045OBoFH45cU8xElR6CFwt8jOXb16NnndbsxHkItRpdwuQjOzGkQzEYqYUcWrIV7n1HoAwXUXTWSZQBY7h2FpeNbvCiwuJLOaMy6Cl6XNwpPJnc/LidLnyuKYaQKdkHrlwCwLkcZdCZIsNxnfndWS9bUlE0nTMfLVUB3HenpIJWqAAOCbFUmO6UUfYJgdxOICYS4f6P4ek5fdAt5hrm916D4PFPwmXcd7heugcq12LbZDtMkyvseFAdLT22YM6e4nh67FT0aj0BD3uyg5WyQfWn0pmEiWHz+b/aZkmsj+6fzEY1VzXqxOONIdi6awsOVGyB9j2rwTOJpffyQcHKFeCRMnqs5yTn2Hg2UB/6w7GgAjV6YeRPveydM3dp31yaiKH0WRc2bvF+zbkPsBhCOeTeJZgKoUp5Njb2xNrf2TYks+0GvfslJjtNIrTxLW+d9SvWLW+Gvh/OQp1AvoVTko19JSYerI7PbHjYkU9NQExSoXXpdmO7sA4bf/Xhooc0hNgt7Homlq5sadJBb07A9ZObEfZQO+S3lIRf35dRhU9VqROjUIUGmnf3Q5j+QTXQE0/JJUR9XRtN5rfDnEVjUDvQfkYVAUYMIQf9B/d54HwsB+J0qFaCWqek3EGA7V/ZOaoFKncMeqoh3965+JqTd3tULAvXCI4cpWjcSqkIP5dMpb48CrOtmVX+FA1fbzTjxPyl2FB2NI7VGo+Fy31gaTwE455hBMoGNHQOcpTXqwjyKRlwN3KUF27siVH5VOCUOyVVbzUKY3ahO8xRWj9l6qIydROH8qNcdEMv8SI8qMRQsdGjAGo9UwLjtwUjrh+NFhp0JeuWQMhedqawHL8b4zHvcB0M+uARLQpmZpU13foOg5r8RgMnpWaqsyj2liYHPylbBDN5kOMaddYkRNzywyPM4khqzoD3hVM4ytrUN0bjlxkT8MdlGofqLqh/2gg35WOmmhDXMomrjqaju6MBDUrHdTrKlk8hkCcIsIEl5G+Bgd82hI6dD2632qFl0fcw46OSMKyNR/lB49AigHKAfbgZk82iR8V3DmL9izrkp1zQ2ir/U04l6k8l7Ts/zebiqN6nH2poW2kouV1FwpB3cKFyV3R6oQECUspXHRRKHqrDDYnxCAthN0eJAJg3jsGoTclw03QcLryshJCSD9oJlPTKmFzgX/FpdO4ZpC3OmnGv/M4ZBByvhpxR2zxeS0dbTG2ObMV69naygzM1qZe2VTVi9qq6sEdYrbx8L0nF0WesFugir+C7Hq2xodUS9KCzrku7JZgz1cQVme1Kl9/8bVj1edrr3MrZjtf2XEFAXTcY+TQpo8Y7/A+8MWAqLhrfx9z51eBH4UP9TUve7eahzyfV8cqcFtjyVlN7xKt7qaDkuScCStG9GJKApTvCcP56Ij7qXeKejpNMOZOAauNH5vzA4Z3SKP+wvf05X4lZm3jjRjdVbk1RGtR+l0s7MHvxz3ho9JfIFzFa20l9ANWnf49qScm4EHkd0d5VlRi5Y1LyxvjbG3j+26vwum0B1NsPVW6ydd5fhNf013EumsNKjaqjAs9L0yc1cSkjBNJyM7F31kbf/sAGL6DclPXYFPs8nubiHfkffhSlNkUjkfuvfTQBZ+u8hBo1PTl3IN0lKisKxoMbEZGvFtp0botAE0+kGHB9osTt32Lp3kiU6fQKHnZRbjF2qaqLu4adi1alGoyqUspuMt88zfL0qBp4A0dXfYefj5mUNyEXlg7F9ZuRMBQsh6LeFrtixu1W1Rut+fslIza0O8q+11UrJ/Ui88gXKwWSXvlNSsrzBFRHgcmHnXLUERILVkH3zs/jh/fH44ahLF4ZWByuHGlWnTyZJZNPfhTlaOydkjJsPKL+wMofzzGYCRutzUCvmQvYzbUFQo6uxQ9zLsOHc5JtVFJci1fFIw1rwkvpLHRxi49IRoFHXaE7uRSrV8bBm5FQDLYEXA2+giQXH+QrXhgeeocWo8SImo2pDCQ3lIxqjXbPBkHH+juJ2DtVVfZlMwJiCGWzG/JXq6MUFqU4qKEeS6qf3L2Vpr3od+/ArzHxMI+pic8f74dhLcvC7XsurHh2NX5e44FYzia2udDF5FA0z5HyYlMfkRuwdkdptBhURzu/LvYi1o4ejPmH6mHwxmdQeN8RHGMva0xoKGLpfw8uBBlYvwbiP3kJ49scwxSGgolNky/3VmHJdRsBtZ7ByStcOPNkNNbtj4CJCyU82yw/PO5BOb2tMNmQIwjwPQ//q1Px6rfx8G69Ah04YmwOS6u6wSUBF4O5Lgb6oFRhyoUb3Kc1XRuubPoAa8yv46uG/gyfbT9G7dJGnBmCMv74LsQWb6m536aVmMk3dVDCNYRcvY4ENyofd0tUQqKoCHlcO4ntUUnwqlzUHno/9bg4nDnE66rKCE/q7UR/F/9ibdG4xXbcYn4U9EChtvPweze6qV2ZhJ7L3fDYjJmozV7m5AxalJJrZ4/egFudQXjt45GomGLUaQuqjvsDy/Za8PjEkXiFrnGpC6qGHMGE3YtwyEmjUesjndh7kZVpiqINg9Cv9SUM5nUb6A+z4Zl8eG7TEMw++AlasQ7qniQd2o4lO7zRjOs3lWSfETu0ER+uHHjyTlLy6CBHpF3pRi0j0nnnvt/rleqsJhQp76aF5ofL0whie1ILMlM90IwJNWJjpRxyaobpiuZANUP7s0NHdWAkXcORxV/gz9VJ6PixGzZ/PQfnPdhRoY7Qx+Im21/s8dVY8/UWuNAwt3HY2r1Jb1StZzeE4mOicSXYBeWKM9h2h8M4PJT1YO+y5/c9UeTp1Wj41lHMHc/5mKpuPP7o0lUIqd4ZTSszHytopf4Sxz4dJ8ecdHWVH9mfgBhC2f8e3V5D1fg4guMQEmqV+Ztbv8KSVUcQ7c63+p5rPCbR3jt5+9FpW6iQaJkoS/Q3ziGkynCM7Pc8Oj5eDgW9ErCD0Rhs20fho1vunCDMvNQsXG7cgJ4LEqlzK1/7c5wHtK10V3xRrYR9MdeNgzDo672welXCul71MCPCBg8uzJoUfgWJxRqivG8cbD6l0aDkL1j+/POo98fX6MxIMamTldNqJ9/ukcChC3H4eV84zlxL4NpOjFTlxl50H64fVdYri/VQ7rFgyZZ9CbDN+pnP47t3P8AGrqk+eAajNnJYhQO3qUlnCEdoCIdjA0uhABtsmueWDl6NJmJqKS+UZLS2jMlmNeDiruso1bAUlDi5U1JrH5rbcZHR9nfKlX6fqse1P0IQHWZgr6zdRcWRQ2f4FScuFUelUtXZA8utSu4UqYF+89fA381kl0PKuDBEYXP/MdhUfBQWPMVrY29sxmR0O45Na4yo8Hw7BtSlskIUKqmBmng1V4CzdpK4LY7ncBhC5nhGu+NvVjE1GV1vYMumCOhK9KOrMadf0qC0snc6ZkozvLzcF08vHYU6rGtEJI+jMudycSVmDfocC25dxeK3aR3RCHLI6tRCc/EXZQD9tC8C18KTMKJbsVx8pXJp90+AegtHCHWXl2D4gJk43/B19D4wFm+05fyhz8ahd3Nv2GIMcC9TFtW8CqXNfXY+ES2P65tmY/m6A7i4kXOWE0Px1fAENOs5Fu75O2DK7/3p1m8/wOB2HvMLBOGHLrMw6+M01zjVIJX3hEqx0btwOrQJHi1bUJMjKqy3+56FGNB3MeK7rce4t4pBRy9eNm8u/nodJxe+gKEfBWPZ+jdQPsUlOJ3A0EqV/3ISATGEctLdSqmrnn4uhRiWLXUdC50rvGxx2PPLDByOZjeJqQ46jhqOKoV4gFIkMkvKkPKLhs2Tb3AOKSc3HIGvH3KDjzc939nzkUSXG5sX/WZ77cay97wQGc/Vm13c4bP0EVRf5AJXChrVExLwzHwMK1ucvX48CY8zNxyKjz9hpKdaZVDYl8ErmU+nQley60Rn9ITJwF4eky9KnXsTtR9jNKhzQHc69IohlNlNuvO209fiMW9DCG5Fm6nYsTeLrI0crVPMHy7jiQK+aohQUq4jwPvrRj+MX96rh2HLDWi54mu8TH1bC+HKfZrWzU+v8NPYHcI3+CMPoyYV/hgnEO7FaqMWdVSHMuC0ixvXYvMfQWj6YkN4qW5VZTPcKTkpFZlmY11UtVRS7r0uxigc2v0zriT3Rv/qlD0pQyW0v1Bw51dY5lEYg4MKwJ+iTOXn1cKLBdi/240Nt59HYegmM1puexct2ZESyzIosrRrT4qzIZHuwfm5UOwnCf7o3ORhzl/UxJPKcV9JGW2B5zZi3gUOtfXuhmocEI+md0+BlV1QZ+wOlP0gBiPaucPE86tRedUGDR0nY/37X6Pi5AaY0vw43quaNm/rvk6ewzKfuhqPryiPwmLMiOJEtS71AhAoMiiH3cV/srrUOWg4FAj/Gi/WfR6r8vfG5ImT0dq1P7y7VsHY9l9iRpMP8PrEoeg25jS+54uM66umtntNiFBXSYqLxbFvBmLGKh+U7vcdZs9riUocKfbM56W5uql8qg9FyUEXE132+VXH9yI9YhlcJe366KiidXok75yHfUFtMcyLvRtMbuFnMOPtZ7C2+gqs+7IVSrM8s1KrtEILo+ukb7GxY0c8/dULODkwAFFOZaaVLt9yEgExhHLS3WJdGa0a1rrf4fd9bMQ0PLRV2bnNvfFQLDw+NHUEwKIa+R0UmOQoV1SZF4VgCotwupTo9B5a0BRlOCndIynSDTWXmhHM33E0eLxSeo5tfXbi9ItUKnhutYirV63e6FOX9eBvlQz+TdH6OZahytGUGPv2jP/fqjQFm9mZY0nkitFmShpJ90TAzBt+OTQR834PYc95PFwpnRU9pYA5kivd4trXVn3gknIXAc7jYwgy8+llGNf/WSwKLoUGU3/G/xpxki9fxno23ujzoRwV1sPd5IKY7b9ga3AyjP2D4OTeniUS1VxttCZcPxuAFSXq4KMaAXQlYTvP8oh722GLDsH5S+FIdPVFQX8GGTi7CV/P/h1xT09BRyWnUoox8tzbZ/wElHoSbU1folnhATivumGzSnzmLz9Cxcp5P8/x8o4IjAjajwnP7oKp1Fj0aEdFJoPbnPMhao5AdEycZhTqb0UwIh47cFIalJpbdWDNFpy6VRo9++q0YBDuf76PBv1+QKKhN2q5jceI7icQ584Fqvd8i0NR+eHuEoHwMBM8DJFY+/44tFs4EpWUQZkLk4WW9KVbiVi5Kxw7TkTDLUUeFfAzok45r3RyKRdevlzSfRBQ+oBl+eOo2H81wos9isGz56NDGW4zV8br28Lw0HudMfL79zC64dt4T5VrKowS9Zugon+K9wtln/7xeZjezRcNx4Vg99z88KdxwqULoXe9hYMfjcD8w9dhVj2BWuI8PUMIguMtuLJuOIY9WYiLK9uVInO8Pyq/MRoDObdw1bRDdLcdhgIc7dWxN3fre1Xw8bbKaPXBcSx6dgEuc5619epu7Dt9XVuSIDkhjJEgDTCPaoR3Hj+OMcU4onwHXSulMvKRjQmIIZSNb06WVaNmwvUM0yduS8y4LX2O9L8oK1SPiNIPHGIjXQa1n8ZNxv0qTGQ8/1KTEm7Ov7lDLRt0t6R8axM05STTs9/t8Dy1XxFK4IjPkYtx2HwsivOAYrQoXUrpyJiSGE64Qy1f+HrkUs0r4wXnod8GoxWhs9ug6cgjKNmiPwaP/hD9OueDLs7eeaH3SsLVT9qi16pjXIFdjeB6o2Cl9/C/HjrEsa1nmWx8DbDnQj1NbvorWP2LK6q3GosG5bjZaRjJpqPbmMEejj/LsjLZkRzxB+a27YLV8OAEZNUr7IEClYbjf2+WSxts4kPuYf4Nvx/Uo8yjn6BiuYvo2HsQbnB04X6SgfGtVR9A7JJP8ZWhIlp9/i6ask3QsS2tGMoem6cXAtmL7K5Gcbb9D92fHIEr3K5Gn/zK9sHAIGpFTC5JNxF8+QiM7edhWBG2Q8rZ0DNWFKzdFsXdb+DMulCOcOnYIeGJos1eQcWC1RFU3ASzqSpqGudxEvhy/L77DVRo4GEPx6uVmvP/U3OAjl+Ox5+nGEVvfyTnAulofKfJo4pF3VGm4F38KnM+BrmCeySg1zP8/to30eXlPxD42AC8NHEWXipvX4dMFZGg90fjqZuxY8RZbPlpPn7ddBo32AObHBuJGLr8UstAUkwZtGxk5Lo9ergVyq/10DgMEA74IDlZLeURSQcX/mBgExM7g3TwRqlOT6AMFxIzx8bSSFJlsbTEKHYaGzhX8Wvsdq+HJ1pyPjPFoNUchetXg1CzeRDiNv2B865GUOTBq0JjNK1WAdVrFOTcIz9ULBGHlYOexsI3D2LQjzVA55q/3WFkr5n8/18QYLAwG5fHxJv/xckznlO5aazZHYbvt4VqLj5VSvuga+MCYBAjSUIgTxDgUijYdTwO63Zf5sicDq1r+iG/twtUKOyTVxI4R4JB0JXUzySp9uPvacAnfUrBxXmIKJO8eXGTYvf63POIiLNwBMWKN54sD0/lAqopwDmACG+7R8xh/LxbhwrNqqIMXT3UGhap1ed+Gyf7n7iuIiOpF7Mb/MtWQkkuj5HVon8q6pvbla1YdYIR4+o2RhG6mRkij+KMpQrKBaQdp+Mq7bHHN2JrSBCaNOWirVQOUs97N3RmzmE8twchCR52c4TrkeUvUwmFWa+UDlqtBKVGx5xbg+OeHVCvMOtBn5b7fYxVnRjRn/MVr2PXdqBSs0Iw8Xe6uvJElusHcfKGNwpULYNSSZe51sh+hPO50LsVQ/HKFVG2AEGog8jUGH0RJxMLIigfe4ZVTZM44mP1Qz66yBn4/Khl1dQIuEoa95TvZgaHCd66AUlVW6I8R8Iyb7X247LL/2rd6zNXk7Hwt3PaqJgKdPB2l6KpngaqnmpO4po94Th/k2vTURNV7rjOSWGb9GwJFPbnA5rHUjRHHz5bcw0nryZoz263JsVQvpibfW5bHmOR8XLddCHYu/0q8jNYUimjjR2q6Z8bLT+fPxUkRf3xq9aWlfqncmrNkf+p91ymiZnUYJBWKv8z8fFLHRzKcIDabqFcSGSnbfKNQ4jwrY4CtNtV0UkqtL5bfniyfatYQ9rpUs7pkFeq7yh+2wpsdmmGBjUD4Mk2n1W1Mpw61/9U0YPn/XwVl0NikZBsw5inOOezGH0Ls2ni8gcq9oak7EJAKSVqcrJapIvPT6ZJrfCubtp9GYdszOplzaWB/lZjVYoJ10/NWhBlWuM7b1Thf7mIfcqqznfOm9f2KgVjC0eAlHKlXOKU8M7KCFJslNKoXsSD55xPRZXViyA1Q8oXV86p8GL3uJ4HqGNUyFulFKk/NXqnZ11U+Qb2tHGT6nDT8nL6lxadR+XXtvFTrauidCOtDDU3TJXF3+qT//hdby9XnYvl8NT27SqTKpvblSGnjrfXxcZj0n6rtZHUn72u3JdSF7VN5VfnV5y0eqTWlc8Z92XRrLTzZvv/WPk4z2po1pw1Vd/ZbtIlbtPlr4rK9sEM+y5uy8oIUhmUq21i4cZoW4RFMq8q1+JTBWX41fk4G2cfe1RogTYVmOV+jCB1EjbyAuUboaD67kjqPBlGjpX94FGmA2qrOnOf+vuryWwrBC5Ur01+VpeVLvFEhgI1UIUVUtcc41oMD1NhdU4aC7WB+5O9SoBxR9J6fE1+WvAF5RpsVbLa+cB0300o06StVsZtdUiXL3v/UG1KpTPXE/DVbzcREpWMRL6g1PaMRpDqbGhU2TtPGkF2SvJ/VgQSbIGo2pDCiY0hUyNIHcg2xcEb7c+5HEf7cXw670v9zp2q3Try2D1OUvdm+cVYqDoCnY4zeXK0iUm5+3OwPfPEOrrU6orHuFebBpB5LtmaQwiIIZRdbhTvhO8fw9Domd1os28T3uHkZ4a/T5dcPBNxbHgXfOYxFZNHBsEzNq3Rp8vo/IMvq7hfh2HcgfYY/FIzFX32/hPL8DLvwvyJp1C4Xy884h2F6GQqmlmWxLkMBnd4c/X2LPNwh1viEkzueRZVpryNFiUYiS7D9WZZfB7ZoXq+1GiQigSnel6V4uVQSrJCoF4Cal5D6tsgq4wZsiRS601k0IVUBVDbn/Z2UOWq5Lxf+53yn32/+l/dcbo/OQ7Qftn/c9rEDenL0rzAUzI48jmXcXt+bQsL0VZzUD+0pFx2bktOm1Q4X9pLOTpl5JLxYu62P2N+9TvjMU7I0rJzY6bb03Jk/e1ej73XfFmfKXVPxmtK3ZHyxXm/8/eM+dTvv3rddys3s3Nll22OZnKWBtAaRqXccjQaHmoOEHdkJYeSKUc61+EEcnbIOK5dlWNkb4fjd3a5vgdRj4zyJobXbclMBj2Ik+WCMrLlM/CXG/dflwu54FbmqksQQygb3U4XKxcJjL6kKbyOamkjQOzxVm9ik6cL4n/7BdsYgtr4IYdt2RXpsB1U4ATV450x6VwjsWvkFPxIP5ReL9IQypjhHn6rmPqxiz7BxP/9ghYde8LviwZ4Z70aM86sy1b11tsQXmsK1k1qC9pCmm7sotxcnM5l40ipx6TX8MXOAAyNf4fr3bBnNbPi1DG8LhX8Ia+9X9QLVQ0pP9ssECv+DMPBc7E4H5JIJcQ+suKEU/uqXjJqdGRq39IZd933b7UQoipPC9POB0ut6KD1gHMb//G72s8/PoDaPkdeLqbg2K8MOS1PSn6Lyq8Ml5TtqjyqS9qIk9qnnctxvCqPBTjOr8rRfrMs+/Ep+9VvRx2Y/0JIUpaGjqrPnjMxSMprDxIZSRIC90tAjbheCU3CsG8ucE6inm6kzhI889LUvMWXZp3V2qgjhxrZLVdIuYexAeaipIxBhwuc47KUbPbielp3Grl35JVPISAEsgcBMYSyx33QakGVkK5CjFiUUie9yYzr6+Zh8w1O2KOAdfGMYfQi9sjFLMbiuYc4IqQmLlthcG+Cxj2DkI9uGs6vGivvbrGdA/FucCF0e2so6pbhcK7Dj4Mn0fF7FCf5ZWV/ONB4RBzFtO8XI6HVDrxfPRZ/jj2G6Eoj8Ea7GmqlIUc27VPPMN6nf3gbM7iQoVJ01cUYwk/h9y3bEBLneJHyWtyjcXAm1yTyroKQg4uxYG98qlGXrkBuNScWQ6UnmqG6uynD2dLnzHW/yE65xCmXrx4N86FVDV/8digS245H42pYkrZYoXoZO5L6rnxyF2+7hScfsQ/vO/bd76dSXlRKexqdTnS/hWWj/K8y4EQi54JIEgJC4M4ElGT34ZxDE10bVQeDw/U0q6OUnRPA5Ri61Atkp1b690Ius4FSEdSvQJ9Jp6SC1ew+E4swjq47y2anLPJVCAiBbEZADKH//IbwhaEi7qgRElc1oVYZCfa5QnBLwpXJ7+CDfVzDIl2agIn90jZ4FJqBeQyRG0hDyFnFMzHk9YaRyxDNNc1/fL04fhnmpMyaYxFbby5WLX8WZZ1GltJKtX9jwFhc3vo5lu5ojjf3VoUPQ8Yp+yZf9eZo2akFPJyKVEcYrFHId/pjzLhmP17973F1PeaPeg07nbaxywwMJMOyNuKbgRvTMmf6rTH6t6yDGnnNEEphoVQKhdmXI4JqbY72tfzx464w/H4kCjF0m0uxWbTcymd/w+EotH7YH34SOS6FoP1DGZWS7oMAHzpGYv9bc3UyO1vGuYZKYVSjfH83qTmW6oWmLf6cUhjjMsBAoZhMGXdPp2Bd1HojKqKmelzUotEqhLgK0etIar0gdZ4sR7AdGXP4pxqN9ebizO91L6ZFiJu1/gbljSXLQCxqNPpmlAU1SnuhdAEGlsit1s8d7quao3nueiJClSF0h3y5dhfbjIHu90a2NxVd1pmBan8ubE8q8ixj1fy9pNo6G6E2v5glqbmmSjHJqo1rc1GZh4HlskyO+ddqXbPMvGtU6ToTI0SyBMZB0fQgR2HqvCr8v7q23C4XHNecmz7V4yPpvyTAVVGtY3Qo666Df9vpuG49hVmcL1OkVAt886sH6m4JxXkuEKj+rvLFtLSmO9yaHscRfr+Qsv3omZdR7UZ6IwgUOPlX98LTuxLhWaIWKlYJQvGgstpfydJF4MnhIOuJuHSCKjMMupjzWPzuTFx6qhc6MZJSqqFFCaeEi1Ji0v+pSepOJVFCRFV9FQtP269BXccNaxim1y0Mq8ckzOF1XOVirefv+LcFw4r6pxM8TmfIU1/VSI1yP3mCIz4TepXgwqkeNKDtzdjxEkjiW+an3VzOXlKeIqDaoz1gxV/8dG63LMv98kpMmr4f0Xyw7E8Y27o1AXER4YiKikBU5O1/0WobozGlkwFOd8GU/Au+GDAV2ymvVKE6XRQu7D2Ba2E8ifP5nY65p690vfXY8ilmrjmNyJSijO4XsKCyDp3e3o1QRqi7UzKwYygyIgwRR37GK82a4JvDVxEZfgsbGf3sqcl/4lpsOKPK2WA0JuHMV4Pw2vdXwX6r9Lz/Tv3vVLn/eJ+aV/cQF2j+4uUy6MaOGBWaX91fiu50Sf1WLmELNoVo25Wsyot/f+s5Tkc05/3wCNyF7/Lr8NB0wI8duqmJz4tv3CbMeX4AxuynbFE9CX81MQBP7OGFGNt5BNawh8MQfhEHflyN85wekJnc0RmScX39RAybsEWTZZk1U5PHdex48ym8MGwfbvmmyTvnKuqpo51+ntfW6WMcVrLLsZNf/HU/YlLTdhj6I6cw8LpV56Sqi/qUlP0J/J3HMftfXU6ooRqN6bQM4yvr4Xt8JkZ8uhvVP/4OHfJ7oWpFNio2JPWCUe8cx5/6pn1XPSCqofGPCyhr6wg5fnvFHMRHH6xAcuG+mLxvDp7ioskcPNCS/vopjG9RATO7NUIQz59ZJ4kq390rFgdeq4bplynEGC+X0ze0SiiF69bBDfhp+U24qqhg3KDjRA11jOYaR7c4Z4mkIlPFM7CDSioMb/SqifhoeziqLnkLba+FIziERlmmEoPzjVx94JefVp0qXFI6Av5eLhjSoQjdVhKxem8YjnGB1chYi+bCso/ziVrU5AKWsrJ7Oma59Yc17jL2r1yNszZjqtFy12tle1ZzGlQYSKvVgICazfFI9VKqD0Xr5Ii/ehYnR3dFp4g9WPF+LfhTUASEzcdbj0/HcS6uoaJQpiXKJE4m9GDHjudz+7FygAHRNIjSJcqg5EE98emqEhj66mtoXIin1i/Ah23fgteUYEzsUwDUWVJTZsq22qnnW0utOB/P8h3KuKdrOFaMfwNTr11CjS4fowl7bHRGI1zCdAyVHqsdY8jwttMiYLI8G0d48l/6BR/O2QFrbBjOHgtG9KwpuBJgwNXdlxiO/HPMDc+H+HofYUbzI1j91efYULEYlukKUnbSdcxkYPS4WCRW7otnHjYgMTOBmnpVOftL1wb50JnG0A87w7H/XAyCOfphoPHjEN9qVOg0gyscZojtaiX/SmSenM0nr9deR++TKL6rvRjpyeYkifQGK278+j2+XbUE9V/7QnteVKeNSmokBlxY/d7H0Civrp/Dzs1bkI9Kie7ELHzy1pe4WnMA3vlkHNoU1mnrqClPGw8KMyN1lCP7v8PqXeUxgY+kcpRQI760m9ipyP8oAgtFHcZPaxdhd58FqMFtYfR4VOpOIqcOpEb5VqKSekxSXEiq3GEWjnJZcG3mF1hw8GeU4jSCo39Ga4vE63VJiDVVRz2+h9VIkaTsSyDDqyH7VjTX1owvbJdq3dC9FpWMLb9h3GcXUKlzezxbOBrbpwzGC78cRaLWzcGXjdGM8OPxSHDpjb6t8nOVEI4mJXKhMKsHyrblKsmvPkTXNTZ8WwIOzBuAKYdKov26L9GJAifEaYAg9uhsrA2ui1dbF87UCFKsXbko4bXRT2LAYhaoUqohQmnAIeDQHz7EqNX27XoaOtpyjBR2WlLDRo0obZQkyZB0MZexZPJHuPjIN9jYHLi08U30HbAe0V6mtOzUbmxGb/h5cfE0l7LoOGoOejfx0VxcMhQnP8m4JN1QXmxZCOduJmArw21v5wrvl0MTtcAA7egipz0+QipXE7BE7sXiN17BT3/5Kg0oM2QFHlKGEOUFF1OHS7uhWP7NDpR//jPsHPENerCn02i5iiOnT8Gn/3IMbGpl4AmlBFMx4cIa/onrMebFabhygypQipLjqI4yNoqfnIjG34Yjf49N6PkQFQzGptVzIR53+KZbjFM7hm8m9ploC55GUWlJEyUW3Nw+GRN+qI5R77Wz9zpTkdL9Nh7TDtpQ+JXXUOz4CRyNN8DgdhZXqIDEhZ3DyQMlkM8Rb1zV1+wB78olUZTnUQtAhxZqjX6vPorE9QPwe/AAvDpmFGr4WBFSuzj+LPQM2tYwINJqwukVQ7Eg7lF0LxCDk0ciYAs9hd+W7kShXt1Rnj3hyhDI7UmN8nRtEIDm1Xxw+loCvt96C5cYVEFFlFNJ3ft1+yNQuYS7Nrc1t/OQ60sjoOY5a0ZxWoPVduoiz2Hp7C9xE/lx+N3G6GRWHatGTglwYWdvZ/Rf+xrqU9VQ9oIyjGhbZ53Y8WrkIkFGKiImCglT8wlYtK0FpnbsgMFDH8G2VW0RmMhFpFeMxPPf7aSrrBmhwSdpvIxHvw4z2eCNKNb5bbzkvhqjlhzUDDbPhCvYwRkI1pVt0XEH5yXTUkqK7YQBm99Ak5j0xpCOD3hq9fhFd3Ebpsz8iSagO65+2hr9lW+cK3umE6Jhdu+AMVvnoxWNK+flCLK+ONnzXxAQQ+i/oJ7xnGw3yodduTSpsR4rvycnW7n8hidHQwoi0Umr8O3YC6V4vOXmGfy5JRj5urZBRRuVCS9qKVQc1IhQ8oHxGDVqJzyGbMAHNfWIdeplVZ00J/83BRcbDkez4vky1kT7rYI0XJ7yIp6dsBZhT57B5KQgDKcyopLN5INms2KwWxk7PJc+IRTr+pbEmEpfY/073eCpHOpVPajgqN4Y56SUofDFzTB2XysM39gZBVTWOp9i+k9hMDtdo41WWIk/eqLaoLUo2OxNNGvqAxdKyFRbzLlQ+a4RMDE8bYUi7ihX2F1bhHXx9lD8tCcCTav4MIoRwUvK1QSMhTpg3PlofODUC3unC9YZTDCvHobOr6xAiz2n8G6gBYlss2oE2nRpIaZ+vBUhXh7sVPFE4+4+2Dn4FRx49BWMq0cDgy/8Ig91RKsOjCYZGYsYsyc8GO6/WEwoZtKAis7EGPBwvYRFQ77E4aSueG9ydfhR6VE9spklNden0PlZaNnuQ9g+vIAfu7DMFPmj5+Ie11d9iD/0n9Iqsx/tnXgEs2YuxQXKJNu00mgzzT5inlr2qj7ouyr1V8qXknhy7xmML+GCBMohs9EDBQqewJcfLMaVSKB3tXGaQmezMCCNdTBGdD6Mc0PfxWNvbEI8WiCgzzAMKuGGS3Q/XnZkKOa8NwRFfKh8pdQz49ly4281Il23nBdqlvbEYS74/MUvN3n99hfDGRpIxy/Go6qMCuXGW3/bNakVKTkwCldOqlNvGx17BJQt4MrHQc2vu7nwMXx0sile/WAAivrr+S6nB4x5B2aM/R92PzIVc3mQenKUEXTt99U4Ge9JYyiLNz63x+w7wrnP13Dkl63YyMVZLbS+ar46DcP4rjvxcxiMbQOoPyXCL5D6U8x5BF/xQbnm5eCfz8hgtyYuluoPC1daVvt1+kSEHdmD+OSqqFO9EHy4wJmNUwcSogPo4aIuRo36UNzwetQ16jgkrX1nW09KSsAvI5phscdE/HB0EIpxxMlm8oTv70+iVq8l8PpsPjrQLTcvyYXbHo4csEEMoexwk5RBwZe/XrmYsQHGXL6AvWevwKPLBHwykBXMIA9UD7/lz4V44rFv0WbuN3iZwiNRGVJsmNbj49G/1TgcajURKwc9CnqqpCa1GrLHoYF4/zcfPPR2OxTk2mbsxrgtWcwuqEahEdBhDb6eUwwXurFcNmZ7Uu5qnlSF7Emvi9cWa9VRkXD3cNd6cFN2pftQa9vYtj5Lf/2zKNJrEJpy0T2VdJ7eKBpk/65+27hqe+iKIWgycgOKPX8cK+dUhHeovadI7Zd0ZwKqN654fle8+XgRHKRyosJtVy0uLip3ppYL9nIGv8nd7s/h1KeQ7sKUKNBCjVOeKMXFbFLBWRjq150dKeoRUR0TzKSP3YdfVi3DLW9XKgJqzl8yoq7dQJJLa7z3cIpAUWVQJoT290KzNZ9iYdxglFCTiTJJypU2ZPF0fLjpHPDuWQzkcbcyus05HedGt96P33wfB264oE1xVov1ciQLh5EObzKh6RvNtJD7OiotwT/MxHfrbqD1Mium1KdIU9VgvV08TuK7kpWxotsGzPpfMwRwjo8jqTDurpSbyghSio7BfANbO1XCJ14v4u0FQ1HZEspgCToEVKoPl9mP48mTP2LVYHbMjLmE/+E1PNl+Oiqvb48DYzeh6YjJKBhAuehUT8d58sKn6oSpFeSFL/m39I9QbOOIdGh0MradjEYFhv/PuOhqXmCSp66RsuTy2zq0nqNGYWmUUKfQjTOi6CS6zxafiKVTDmPQyPPcWBhXKj+KgY8V1DoZwr/fhOvRgejyXlWYODqsFi81uofh6NDueO06R4sy6VCxc2WD5TBuEnWPqy91xhY2PK1lU9DobYnwKjoLn3d7AVXaTcbHndjGd/dDq+CHMWraVNQszFFmtnvlFmvWTce0J+keZ76FRS9XwY5qSxiNt1LqMh1Kz0pmpTwid2Nsn0b4cpujR3ksuvqMRfGPj+KLS/Xx6uo66PNVZ7gn3UJYop76ymK88s4SRHfYi9XtL+PCdS7AHOClBVjJU89FDrpYMYT+65vFxmYJ3Y+DOw7h9O+HEG88j0UtymJZk9fx6ctmHI04w+grGSQCW6gteAtu2c5h79dz8I2LJ/LV6IzmD8Vi/5ercK7Sy/ho3Nuo7G8faVKXqHpZAxK2Y2L/GaA6Apcta3C9fyP4pdkgqSTUnJ4bQe9i2XweFxWHYNZRjfDkv7gYHy86nu7Fpnptgi9QqCSvw/xPjlE+qX4dJgokc0AfvDQ4CH6Jkbi0+B30HfgdbuncUZYalFKOWOxt6ci4enhlhTtafH4D43v4wEojiN43Wl7HfIDbDpINmRKoUSrVes10v2zMZQTYpowXf+eaUxdpPCjlwLmFKXcwbxR+tA0aFEof8teZgo7zheIrTcH6sClabyhtAbid+xZd649DEF12fdz2p2Wn9qFz84aBbq0ZJFRqHnW86fJiTPrwI1xQ2oq3mYZKZq8d+yiOmyEEG8c9j0m/m1Bv0j58XoejTo6hI5ZliFqI9dfLo2Ol0qDOBcvZRZg8bAYintuIcY3tgVpc1WVzn9HN3mGj5iWqCcxuKWtUqcppWSjnVJXooQP8NgXfFGiBMoeWYPMPRREVGI6jEz/F9aU2/C/+ImL9p6DTkuF4nFkLWsag39fVMKj2SBjqf4DFPUrBlwUqo0qVl5dTj0b50KV+AFYzWMv+s7G4yI6YslxDSFIuJsDn3qdOb3SMp3xJ2olvlu2Gqe4gPFEzFMfWz0Lfrufh+exnmFxyI95+fTBKr1iEoV6r8daouTC9tg9jg2gEpdgYyTEBqLv0EH4yu6aTXunoKf3n5BqMfGkQF83bh8nVDJQpqkWrRKlnKIICSm+gKqK0kUvzlsLY+GNEf/su3iw0HDOe90ZcCOc/Bl/iovVcmoTLe2zYdhOBXfdh66bw1Das4zqJyd7VUbdiebQftgwVXzLh8sS2mJrwOF4ZPgj1Xdbi/UnRnCN3DD+Mao91yhsm4TKuXneBTwEGpgruiS4Vg+Ha/jN8OXsQyuR14aDdn+z5X2ZvpOxZ01xaKz3fERfGNsIzC+MZdtIDloRiaPvNLxjSuBICVndDm3dX4FYSe1r0asVqJwjKmZbp4pv9sd6QD7VHNES96iVR97M1+OaML4pRuCh3O0fy9IzGtjcGYtqZALSc9BnMY/vhsx0DMadVMThlc2TXeofVdod4UTv0SVbEx8TCkuLAa6WiEbv2A6y/yFwXZ2OmdRgGPkw3FtZTZ01EgnsiFaRYHP2uL155YzkiBq7H5Aut8bHqsuU/NeysJiLSlkpNFzefgqHLGrze1gfJEfbNareSMZastK3Uo+WLEMjDBCjNvQ9y7t5rv3KyMH+o+PSOxPYDaz40WbADDQuVc2zN5JPGBNtvtJpTyIbnFngTK9v0w6Eqs/BWcxe4XM3kkCw2qXbr774Xn3Z9DqsvcISGBWblJ2/TuSGfzzWs7NQaw9aeRs13d2Jqn0DEO4wgVR11SRum4hAjar5K+aZGt1yKNcDTc7diSMNHOCqTJkvUuY1GX21EXAVc8aYh5MPjMyY1Pyg2gkZiq8mY2fI7DA/cjEPnjuJMWAyusRA/GknXbp1DYFWeLyIOJzd+hmGfz8K6sMfRZ0Q+bB3/CV7vZcFLw0eiR2WjhM4lYBU5ThlDj1TyhpGjRZJyOQG2Q5/u8/HJs0DhX57BgpW7OYenOnrOegFFf5uFD3+tiCcHN0MNl1ZIXlcbw3u2wi4fBhUoNQjTXqmsrWeo2qtKqk17l6oA3yw6SrVMfKTcUACB7MQ96xqA0uUD7CO72k5ViDZgpP1yM/yKBT/oUWtxGyR8UBXreU7Ti96I2bsIoweNwMloNnB2JBuUq+603nhhppOSYaEG9PAWbNrRGBUaPY5K7Fc88S0wM6IamnRpiWq6lvi8xEW80HInHhuzAC3Z/rH/ZXT+wIaXZ85B0+JWHOC0gSnmhHR6lKOa8pl9CGTyasg+lcsLNVHRS0r3+RELRz6GR44PQJ0ev6NovUooy07b+B6L8EtXHYyhe7DzRiXUreLOSXxs5RxOse6Zh75dluDRUyvQhwveWejE6kJ3k0QKiCKlKQicrBs9rYir897H8G8PwDA6HvP7hmLJkUIY8uxUbIn8CE0oBJLv8r7S0Tc/pGxvvDueY8lMVi4wEnT0ORScpn4xrCzlR/KuUAq+uegea4Xd84WON0k6FCvcEk1nvIghXVshZCjzmd1RKPYr9KowAHt5PU6iR+vCsZ54HE3mOFWIFqB18CmcfK+cKBoKtyQhkAUBhk/R2lCbX5PxWdVEcM1lLRk56jz1yUY4dh9rKekZ5S30tfoYfKUEXl78AiqypPsZlfXyPoDPijTBlKSieGXMWBz8shf+yLTeLvDS7cf0Fr0xefN5lHzlPKa/UxJeFCIOBUkdpvz0dy4KRpHySxCUj2KQMu5wr7J49ldGh6MOkjGx3xgWzrW0flEPdeamkzIpWa0IrDQPsw48i3IhHG3iwiT5Aiui+4hFaOsbDuuIWZhcS4d+qIOnmhzG72cN2D7wfRx5dj2WfdsExagYvfr4/9s7D/iqirSNP/fe9BASSCC0IFUJPfABUpQOAuoKrHRQpMryAQpIUUERZUEUCyqiIi4KuiBFWWwoIqCI4IrlE2kLCtIDJCGk3++Zc1NuQkJZBRLOMz/ILeecOTP/OfPeed95551emDekB6bcPA1z53IzzX7AaS/lLW+Z7PS5lCJW2qa5PREYk7D6H3utNUFnNtyPh8fegKcfGo5xNCIYd92TPjXwvwsmYGHdKdhQMgbD35gNbonHqI55MHFMEHf8TOa6YW8JkHkexz/lgxjGndfu2klLBpMxaORNbhqZg1/phyVBI7G4czCOTaOQ4CZh3MIQ/jeNwtxP7uJMkgunFsag5wbOFM0Zj2om2lR2ooHErwxK0CDL5duWXcm8uqmtGR3JiFL/ilUR7PwBEVHVUZnGGRwvQTmVglKVKqASx2FHOY7LyJ6tys5YbwoZASlCV7tB2IEz6rcDYxrAtTPPjzVXDgaHHMMntzTD/ekj8MKauWia6e2U4evx73f5cYEzFaGCFBkX/Wdj18/EA6PmYG+Dxfh0bABOJZXHX4dPwsqPh2PInV2xdnFT0HhBK3LBMIxaYvqzkxLNbCgYfHAJBrRfjOB2n+B/i7fH65WXYOjquzH55i6I/qgbbmBVLN9+5hvQgXsH8ForfDfvYWaLTgR2wyNLa+G0yc/rtutGN8aKOjPw6OCOKJG5gMnNqC8oF2UJI69T9VYERKAAAmbRsR9lQ2qmSDFRllzWyt8CLsjztVnTl7SoG1rP/w/9+aNw8kQGUqvnyCcjKpw8J/YoXVG4KjofPQQJKfUxbGpFvL9jHab2W4/uL+S5iZUHDT3YjzdHtmKkyFBU+XsyPhvjx72KKD+8BIORPcVSFnFjZz9UWtwA5akknWEhStwxBENiKjPSHQXNJSc3AsIbcH8TyiRXIk7saIw+n38M95ldDIHNG7r7YszGnpgYfgAf3tQKgzLm4PUfj+KuY7FIOLYHvx41FaiGO9/ewTVEZ5HchjNpHgvQJZdEF4hAkSbA7hJ8YB2W7t9pyYKSA/qA9YkAAB3ESURBVB5E6dfGcL/ANZjUNgLO1ATEb3oGre96DAcrdkTDsC2Y16cpEua+jIHN66BsCWZgxkLs0+60FzE5eiQ+LQgII7M88OEWlOS6POymRpIjlnKu4KES6f/ChHFHKUeexD3FZiAxiTf4ujwqLA1C5bvnY97jPRDFQAk7Pj+Mcs3rIrpOGEq7w7LzMMqbtaaSooXeeJa8M1EhM5JO4fhP32JzUH00KmUkoXfiiXm/8j6s94WSgBShwtAsRgCw/+SXUs6UQoc1n6FvvTZ45Lk+WDW+GQIuotWsNUH+x/DFvFl4dvJsbG0yB2+/2Rtl+KNvhgwJdYfh6Wk/oMewZug2eQ2WTumE6xjxyVg8Ckzs4MafPuPnf2DiHYPxfoPHsfCNZjjRm9aecsUx4J2X8dNfuqNn/yV465VeqMsF2DTIMlMzU8XEgZMnMeyuMxzVbg4/R4Yd5XT3R+WvQ0yLegy06ZWYj3Zs9uKhtyJwWQhwhpah4+LeG4FB41dYvvt+9athc88uWPopNxvNNMSYW7ucB3DwpyQENmqDaPZxirFcycG9QVL7MOAJr/Hfxehr3jKOMqw4TmPLG+9hJ6/yr9oZXWcsx+Od/JBgXGK9zzW5Uu4Ern4Zqx31wOi7lixwc9RUvu98TOTghJ51COI5eS8zl+aX6K2CJI6hzAxXSgJnm8L2YstYbvwcFEz56st1kJ7RlcNEH6Ew9WlyJ9qlfYTXBm/i3mmMKpV1J7OOIIV7CCU1wK0xM1GNMo/VVhIBWxFw0HV/3+cfYHuV1rjt23exufwojJmyHWO3focDrj14f/U/sfy9X1Cp5xt4bXZv3MKNlFfN6o+/D4rB6laTcU+7G1Dr5s5oULUk+14nDJ73Dm7lUgG/oCPY3G8w3qs5GaMnt0CECYHLqeEa1UKxu0RVYOMm7A+4E5EcYOQaurAPnvFtgM4jxiE9MAzhzOeHBa9iXei9GPmXkgiqXRMmPkzIgWl4+ke+CduE16f/wKApGXS4YWhuM86J7IlBg6IRwihUpw9uxveb/w9f/YfyYudL+FvrhSg9Ow7b7g5gdDsGqmFmQRy7+J45xCUBjDwXSsWQs0EmYKvDJ4BR6igvz5wrI231kBTiyl7EkLoQl94GRTM/7Kn+N6Pfo72weOISfDuqCVpwbjdXp8/DwUGFJvzUN3ju3qF4edl3ONlqCZa82gO12VGzIjClUyEK7vUs3jy7E63HdMZfj/0DS17sjxoUAGc5osk7oHBzxOCiscS1sjd6DH0HOxs9jFfmTUDj9GNYwfs7uWnhibJ34dFFqUjs0xv9O2zFdC5A7hHoxmlGO8ibn/lsTS/nKbtZQ+CmK5zZrJH/lERABP4LAtyGC6H8Mea+p1bySy0Of58Lj9AdVIJi59THrU/8gmq390edDxZhX/9lmPZdQ9w9dD66zEtk2No4S0EKjfsaa2N5g7JJOHKYLzR3JHBAEkclw9PfHR7lKNP4klUNF5UW/x/fw4xJk7H4k59w2lUFtw2dh0ntORPEc7OFBTMx6wdNqX25xmfLmz/B2XAlbomkbDBrmHgiJ5eRwhi9h56ajKnvb0JCUpoVXMUczT8x0/RwNJzyLO5rXtVjiOFXKXHRaPXGSjRHAv7z6VtY+8MJpOXaFMgUhjnm8Q10cVF0+zv60YiUDo53PBHr8r+xvhWBa5aAMyEWm95ciTLDZiBi5buM6OaHem07ocroweg7ez9OsOa+pesh6vBKvD5gKV6hVdSfHh9+UfRQWTsdT2+shnve7Ycmxv6QUQX1e1Sx+r4fXVSTQwZjbWQztOzaCRVoJDHywMEtPtIqV4Tfmg+wKflOGId9y9jK16yUmlgW9aY/iQbst/6hB7Di4yVYV30SJj8aQTlBGULRdWpfAFqPfNQqS5rlEsPNWI+uxbvvbELJR+/ACN7M/+R2LBrXEi+t53255i2sdh+MfXkeYtb3Rp++P2N70mGceqA7Po5wIeCnjQyRWRYvjuiJf/pn4OR3dJUNmIOhw0rhqdl/RXVOM51v7JZVdr1eWQJShK4s7wLvZtxMfPjDa/zaTUf3TmYVTZkur2FtJzdCQ1zWNK3LcinLeyavYosmLh2Jfve9gH/T0hk25gi+eaQ0GLfAmub1zjctyYWQXmvwobM/7hw1ALd+sgwj3l+F8fVoTcmjhfiEhOPQ4Kpo8c5+lG3P2aUFo1GDPvupSWZ04ElmkbWjxmA8/5YDd9GKMy7qbXy3+QCmVWeZMgdkWed6v5oIcsbwalLWq+eT/oqACFwqAeO6uqZzddQOSMr2T3emJePU72FoxGPnS8bXvlyTSohsPQ3z5rrwUPQi7PEriZajVuCZYylwXDcEaw88zukZ/sCvWIbPeX78wrZ4PuYAZnUfgkUHB3ICxQeMK1BAcnIX9ma45b6vcNzVEQM/GIHjnWZQ0QnIrWNQHqSdToU7nNsmUnYUS/gcK7gvlu9DLVGFeZ/2zp0uf8n7vsO2L4+h2sA2qJqUfM7sVNbp7rOnsX3lB9hxnMLRK7m5VsA3LBT+bj9EVmuIuj6JyLigMKJxKDSSbj0BCKEsNNI4H4nsdRe9FYFrk8DZfTPx4s9tMbVJDWw3v+X0KUuq0Qv9+zlx6wv18XPjaMyM34dd3xzMAWB++GMTOQNzMx7cuR79aUiwPEh4hjGSmuRkxCezFsdNwcQtvaz1RFYfY/z/mk0jEfDC61j7JdcbN6EilGfMYq63jK0sj4taj7U80pTr0EFs3rQHfg2bILrJgxjbJHPwYfVeJ77s7sA/2jyON/vVhy+1lrSw69H18d/Qp3oFHOnrQP+4iqhRrxjCl2/Etm3p8C/twOFdG3B4bxJOHmIhHEew++t12O/HkgZEIDSDn7/dQxOLpINpk8KYpAgVglZxJi7HlMrdsSzRCVfwYFSmNTfvmmY3wx6VCU3A5nbsiF9z2sZIBf9xGMQf8Cy3OhddUH4dVQEdFxxEIPMbunQhJjUthjO0fuRyS/GuMwVK2QFLsDyoMsZxc7MXbymP398/iKcb5igvpvumJ8Sh+nNv4uGoFLR+rCXKc8+QVGZqyTweNz60VuLJSXUHYfUKN4ZsHYyZ0W7EUlnyOkxx4HE7Mef7J+3D0rHNMWXlYUaForWE65ca31Has7O05IaHqf6KwEUToCGF/cY/MBDB/n6Wz711qaMYfKNKoBxDXZtuldUf82broOA502QlPlrGGeO4Fdk/3a4a9dGhMuUAFR83/UYCwJ3iX/saibVboN4Pv2SuL+ReOnQrS4uPRWIxup/ke5MMlL59AYYf/RCNR45BnaAFGMq7UKLlSoxqi1r/bgffu30x9pu1mHbgPSw/WQ39O3HWJZ8Bj7EHp4I7wS+YhdvjeU6u3HI+ZBz9DbO+Wo7tBcgWsw/Jqb2bsXXLEaSahVLnTSx3+VqIatQYjN2gJAK2JOCkpWLT6KeAOzagXtU0bM+kkJbiRPXuveDj2I3vfSJw2/Tf8MzfAuCT2TlNxNy4ifVQaxaDKnEkmjMqKBijZTTliab7lmzUCtcF0ktmJQMr3MzBD+WCb9oB/LLLB2VqlkFg7H7s2r0PJ/Z+hS+//sza38qxJRKVlpdAQJk+mPE2FaEw9vcduxBb8gZU59qAhCfLYti29pj84WTQ+86Sd2k+jMJ7Q6jlfnuMMs3cO4NubqFTDuHn6Z6ymllu1/Nc6zTqOKNXRqD6+Lfw8pi6KJYpZ8zyzATKJYpPpUJIQIpQIWiUDAYOGPDkGIQduR41OgxHVw4CEmmJyDWOYEdKTiiGJpOfwogvqNn4hqFKu75ozaAJWZ0rnUbOSs/vwgpacZP7DkVjWm2tPThyZXRuhVM5WxTR8wkso2B5bU9b9GvK+2dadN30l63YYyruD46htSYGA6ZS3sQZmePJ1M3Qk9f3nYLREXWsXelN7g6Gxz5YaTCerEaDj5cSZOaEQ2+dhSEZzUBdz0opwWXRYsBsjK+2G4l0+XOUbo4Ot7W0BhZZ9co8VS8iIAIXIJDBGNPG/bXDsu/xSkyemV122TTKiPPNzhqpY4XPZh7Ghz47sTOmWR2SZgzOlBxZNhHTvnah2+djENBsEI5knchflOOvdsP8Su9gfM9IbjKYdSDn1RFRA3dNqgFrnQ7zzE88mcmYEycpaBJ/RCxl3/frdyO+3GPocx3loJkOOuciY2xJtVzTzlJ2MVhlvsmddPa8QWE4DQRniYqIqhxqGXryzcT6koXigklnyQq0/PALylolEbAjgQxuwF773odxb9MWKIONuRCY6LXplpWDwVbOxiE+zksRoi03IbkAAWByYR92mShv5tWnGAL5enrPFmzf9i1OBnZE+4F346E6Y9Bz8UismvY6bqWCFOR+E9NbvYfG27/E/Z/ei57Td6NKzfqoEV0BZbjx2K46r2Hp871QuWKQpaRkpB/Atgn1MOZQL4wa4MS6x9xoO2ceutMQnOE1q21kai5FjWVxs9+b4Chmj7JTH0zFyFG/ImbSNsxtswi9b++HsZGb8FKPEJylApRlrM4FRx8KDQEpQoWhKdipqvWagwf4alxTzrLT8e25iYIjpdH9GH0jD/F3mOt0cwc34EWpCYG4YdBQOHhuYj6DkHMz9Xxj1gydLtcBvcrzd91LABhTTaU7HuHME/Pm/ZK9j5li+PB+f30UNTOPe3LzDKYS88o4nlOyw3gM5ElmUMWPrIM/wpv1xt03mQ+eq81kV94ZMc8R/RUBESiQAAcdcTe9iLc/OYmwUtwUmY75JgrTn5kcHI34bRyCAcM+QuVxn2BizD48TmmVLa/4Jn7HRvxyhhqXKzLfW5sZq2SjPDCZ1Y5mhtjH199EtvXMBPN77ruMI3todnU1RpXQ4/hs60Y4+jyFivzKyxvXysPzx7gUB1qDJbNQuSBFKCOJa6WMRbkALn7Jh7H1nQmYu78lmlTMrpXXfTLf0v/QdXoLPt1XG1Ou74Tq3MOooDzPvVjfiMA1RIC/5aW7TcNtrFJygSN+9nH/IDD+AZUaT92dfJ9m9t3w7ovsRE5OJYdwnTMS3Ni7aRU2HwN+3zAUd9NlP+H333DkdBqq91+HG/tURqupreHXZSnWvDIbbceFo+z//Yxv/XcihvLF0XUelrXwRcnwUoiMOox/bV+NDZVuRbMbgnCKcsTa08xRAW0WfMfQ2X/DqMc2Ic3vXjw7qgoiaH2Jz5FqBTaWL+twYtUYDO73LPaN/gKfjKuG0hkP463Jq3HTiPq469ev8dLDEfA97vGgKTAjHbiqBKQIXVX8OTc3EaIvSm+h0LlQ9DTvPYRy7nAR76iAsRjnJFM2HiowXei494VGeeN4LVeyvuP3SiIgAn+AAAcU6aFVEV3Xk0d+SlCWC6t5TaNrq1FDLjaZfXxi5zdB+3HbENLhaTw5thGKMVpBKKXGKU49Zzj9LevtvgN04725AkLYp/OTJ7nu5y7HMPm/YcPHc7EqqCGCjRWEilGg33asXLgbrjKz0YLONi/8FIIuE0pmzkrlyiHzAyNMYQbGXbcIU2i+LbBWjMJy+nDxAtdKmd3kzx47BNcd4zFnWIMCFUkTlTPg+3sQ08WE2s6vPPpOBOxD4EJGAFfqcXy1cDgmbC8OZ6ZgclCgJH35KzUWWhEyk5OGlv1TotB//gEcTzQGFs+aad/ACqhx20T07tESN0T5I4Ad0MGZ4dgW/8KrLRwY8Nxg/KvdCvTbuBJpwV0RXdUoZRVRNXNa25GeQuMqpQIHK5Z7r5eAcIbXQ8tZG/Fjk464cfBLmBB9Cu4Vi9GRxqRsgyzlpZGZHvnJMvG9v/M4NvSOxMDVobj+gS+wdsxNCKEsSOJC7fDR2/BlQlU0m1oOLdb9Hc+9ej8a0A3G67ZZVdZrISAgRagQNIKKIAIiIAKXlQAH7hG/voTObUbgW+Nalpn8IyYhugx/8AsYzBvfdhf/BzgOY83w1hj6/lnU67sKM+d3QRVaVVNSG6J5xxAseSQMDWaE0Ec/DilRHTC2lb81K511H6PcWIOAPCOB9IzO3HW+Ij576xnMWm/MLRxhMLlNyOrASmj52u2oSvf/mbv308/PE9HSOsHrjxmcuDnQSaFKdV2t2gylyw2YvY7nepucgF2Ht9LNN09BvE5yMnDDibkD0W3ZedYImcUKZ3cgIZirtD1F9spBb0XAvgQc7HzG2JnTLbgxKeXL2ZO7cWAvp3ozu56DU0Ppp+k3lrOvhqWkVK5WmesZK6E1Xf9v6z4AbWOCEM7LkunCz0jWSM8RE0jnzM//vPIuet7UCw/e6MCDXL1Yo89YtKDSkW7C8GcnrkMy7jY5hco+Yt646c6feudH+L4OvV86zMKsWfNR9/GhKE23PrMnW/zCXug69R38nlAOTYf0R+R343FL+6dxsHoz9Ji/Cg/3Kgnn2eyqWW51oQ/twc4Gf0Ofeyehf80tmLJ9Efoy+Mv59mvMVSh9uGIEpAhdMdS6kQiIgAhcJQIcPJyu2hOPTnfji1McPVDR8C1+Pap37owWHKRwjJErmfFCvE9tdJ/4d9xYn5bXjDJoe98zeGxQG/RubgIiuKl48KzkQDRf+BOWbN2C3+K5B4eb7ilNG6NOmJv79OSMOuJCG+HOcTPRpq4TjHCdK9Wcuh8fDNqPUylmk2hPcptp4lIVUb04y81RlSPvNLJXDhncNTa0XT8MD34Itz3TCtEckBQ0wexmfO/1857AwRpls+/llRVDcZdBg15PYOqEYehRJ9Oc7H1C5nszlvM5vhaLlh9DrQo5A6B8TtVXImAbAilnqqDFg0/Arzn7eWafzcgIR/0JT2Jm+3HociMVi8zOafYkTPn8Jby8OQoUC9bssYNaQnrvL/DlPezzPM8oPgwcR9lQMEJ3RDdMXb8eDf+5Bnt9mqLT8DoIoRLkLTLSksNR655HMKJ0aL7R5YyG5EhyI67qI3hqy1+wLz4GkXTPszZUZTki2gzH8OQYnAppjo5da3LD+IEY/kxnVOnRGv/D/YLivZQgq6QUZG4uI0jt8AKWfDUCXxyPQNOSUoIKbsWre8TB/WGeZBHGXd1ieO5ujHSrv4nFko0nuKmWA7UqF0e3m0oXECWoMJRYZRCBP5cA40Vgy8+J+PCbAzScOdCmdnEMah+Z76Dtz73ztZ9bGv0c7luwj6GduU8VN867v+f1jKzGH6yCJweuOShWdKZsbYN15498tvtHPrV1cbBiBiTWRsscrBjL2TmbLjM/swt7drZUuvJOuBhXEvNsG2vxOdczTzPBknV9djHYLnnzyT6W540JGW7y58RQwbNBmdfkqlOefMxHs5WBmQmzynlOoTIvMM+MqROBWK7B18gzZLZO2v17Khav/Q/bxIE6XFQ+oWv5nKigmdXXS/4E4rkJ37OrD+GX35OsrSC600X0+goBnlmM/C+55r41MyhG2fHu5+Y7I0es2RzvGhuZwv5m3PnNRM9/nTL7oumuJmR2fnkxQC7MVmoXWlqQ5QKXteeiVSaTP8tp5Z8pM03fN/LzgjKKF3E4e27d/+vKFu4LGb8Lr3/wOw4cO0Nl2I1pvaMQXYFTeoU0OZhYZCUREAEREAE7ELiU9XyGR9Z+HhYbo8TkB4mDC+N1cr5kNkYtyP3OXGcsr39ElzADkgsNcLLKl6tOWV96vZq6ZA+kzlcoHjMbPyuJgAjkEMhPqSlw3bKRKdmdLSePS353EX3RTeF1Md3VGMbOMY6Z/L2En6UQeX0+b3l57fmMTee9VgevCAHq40oiIAIiIAIiIAIiIAIiIAIiYC8CUoTs1d6qrQiIgAiIgAiIgAiIgAiIAAlIEdJjIAIiIAIiIAIiIAIiIAIiYDsCUoRs1+SqsAiIgAiIgAiIgAiIgAiIgBQhPQMiIAIiIAIiIAIiIAIiIAK2IyBFyHZNrgqLgAiIgAiIgAiIgAiIgAhIEdIzIAIiIAIiIAIiIAIiIAIiYDsCUoRs1+SqsAiIgAiIgAiIgAiIgAiIgBQhPQMiIAIiIAIiIAIiIAIiIAK2IyBFyHZNrgqLgAiIgAiIgAiIgAiIgAhIEdIzIAIiIAIiIAIiIAIiIAIiYDsCUoRs1+SqsAiIgAiIgAiIgAiIgAiIgBQhPQMiIAIiIAIiIAIiIAIiIAK2IyBFyHZNrgqLgAiIgAiIgAiIgAiIgAhIEdIzIAIiIAIiIAIiIAIiIAIiYDsCUoRs1+SqsAiIgAiIgAiIgAiIgAiIgBQhPQMiIAIiIAIiIAIiIAIiIAK2IyBFyHZNrgqLgAiIgAiIgAiIgAiIgAhIEdIzIAIiIAIiIAIiIAIiIAIiYDsCUoRs1+SqsAiIgAiIgAiIgAiIgAiIgBQhPQMiIAIiIAIiIAIiIAIiIAK2IyBFyHZNrgqLgAiIgAiIgAiIgAiIgAhIEdIzIAIiIAIiIAIiIAIiIAIiYDsCUoRs1+SqsAiIgAiIgAiIgAiIgAiIgBQhPQMiIAIiIAIiIAIiIAIiIAK2IyBFyHZNrgqLgAiIgAiIgAiIgAiIgAhIEdIzIAIiIAIiIAIiIAIiIAIiYDsCUoRs1+SqsAiIgAiIgAiIgAiIgAiIgBQhPQMiIAIiIAIiIAIiIAIiIAK2IyBFyHZNrgqLgAiIgAiIgAiIgAiIgAhIEdIzIAIiIAIiIAIiIAIiIAIiYDsCUoRs1+SqsAiIgAiIgAiIgAiIgAiIgE9hR+B0AOa/kgjYgYB51vW426GlVUcREAEREAEREIGrTaAQK0JusnEgNh5ITbvamHR/EbgyBJyco/VxOWGefiUREAEREAEREAEREIHLR6DQKkIOhwM/7z+NHb/GXb7aK2cRKIwEqAX5UhlKTZc6VBibR2USAREQAREQARG4NggUSkXIDP/c/GP+8++1QVq1EIFLJOB5/i/xIp1+0QSMC6LcEC8al04UARG4RAKWjOEfyZlLBKfTiyyBovisFzpFyNfHgVIhPnQPKoo4i+yzq4IXQgLpnBFy6Cf08rQMxUtSCmAYS+G8PIiVa9EjYNYouuifa8yP+gX+Y+3n4edA3BnKmQwZdP8YTV1dVAiYMXxRG74XKkXICOHm0cVRv3KwBoBF5alXOS8rAZdLA5LLAdi4Hi7/4jcpQZcDrvIs0gTolW655qbLQvCH2tGoPp/9+wj/SqX8QyB1cZEiYORHwtlUOKwoZ0XDAFCoFCHT2sUDXdb/ItXyKqwIiECRImCE9Ym45CJVZhVWBK4UAdM/5JX+x2nHxnPaWUkEbEigKKn/hU4RsuHzoiqLgAhcIQJ+nLYP9nfCGuhdoXvqNiJQFAmkZ3AuoyiNZgoBZDOJ5ku/IMmYQtAYKsJVJ2BNCl31Uly4AFKELsxIZ4iACFwDBFyUyv1aloLxYS4aE/bXAHRVocgSMDpQcip7ipShi25DP18HOjcsIWYXTUwnXssEMmhMKRPmW+irKEWo0DeRCigCIvBnEDDW7ZgqwX9GVspDBERABM4hEODrRJ3rgs75Xl+IgAgUXgLcvlFJBERABERABERABERABERABOxFQIqQvdpbtRUBERABERABERABERABESABKUJ6DERABERABERABERABERABGxHQIqQ7ZpcFRYBERABERABERABERABEZAipGdABERABERABERABERABETAdgSkCNmuyVVhERABERABERABERABERABKUJ6BkRABERABERABERABERABGxHQIqQ7ZpcFRYBERABERABERABERABEZAipGdABERABERABERABERABETAdgSkCNmuyVVhERABERABERABERABERABKUJ6BkRABERABERABERABERABGxHQIqQ7ZpcFRYBERABERABERABERABEZAipGdABERABERABERABERABETAdgSkCNmuyVVhERABERABERABERABERABKUJ6BkRABERABERABERABERABGxHQIqQ7ZpcFRYBERABERABERABERABEZAipGdABERABERABERABERABETAdgSkCNmuyVVhERABERABERABERABERABKUJ6BkRABERABERABERABERABGxHQIqQ7ZpcFRYBERABERABERABERABEZAipGdABERABERABERABERABETAdgSkCNmuyVVhERABERABERABERABERABKUJ6BkRABERABERABERABERABGxHQIqQ7ZpcFRYBERABERABERABERABERABERABERABERABERABERABEbAdgf8HYLwRsOsnIg0AAAAASUVORK5CYII=;" vertex="1" parent="1">
          <mxGeometry x="60" y="150" width="834" height="502" as="geometry" />
        </mxCell>
        <mxCell id="07tge18XdGWjkMhopAtY-47" value="" style="rounded=0;orthogonalLoop=1;jettySize=auto;html=1;fontColor=default;entryX=0;entryY=0.5;entryDx=0;entryDy=0;strokeWidth=2;fontStyle=1;labelBackgroundColor=none;" edge="1" parent="1" source="07tge18XdGWjkMhopAtY-23" target="07tge18XdGWjkMhopAtY-28">
          <mxGeometry relative="1" as="geometry" />
        </mxCell>
        <mxCell id="07tge18XdGWjkMhopAtY-23" value="" style="rounded=1;whiteSpace=wrap;html=1;labelBackgroundColor=none;arcSize=0;strokeWidth=2;fontStyle=1" vertex="1" parent="1">
          <mxGeometry x="1000" y="390" width="140" height="80" as="geometry" />
        </mxCell>
        <mxCell id="07tge18XdGWjkMhopAtY-24" value="&lt;font style=&quot;font-size: 16px;&quot; face=&quot;宋体-简&quot;&gt;数据源层&lt;/font&gt;" style="text;html=1;align=center;verticalAlign=middle;whiteSpace=wrap;rounded=0;labelBackgroundColor=none;strokeWidth=2;fontStyle=1" vertex="1" parent="1">
          <mxGeometry x="1020" y="410" width="100" height="20" as="geometry" />
        </mxCell>
        <mxCell id="07tge18XdGWjkMhopAtY-25" value="&lt;span style=&quot;font-family: 宋体-简; font-size: 16px;&quot;&gt;日志来源&lt;/span&gt;" style="text;html=1;align=center;verticalAlign=middle;whiteSpace=wrap;rounded=0;strokeWidth=2;fontStyle=1;labelBackgroundColor=none;" vertex="1" parent="1">
          <mxGeometry x="1025" y="430" width="90" height="30" as="geometry" />
        </mxCell>
        <mxCell id="07tge18XdGWjkMhopAtY-52" value="" style="edgeStyle=orthogonalEdgeStyle;rounded=0;orthogonalLoop=1;jettySize=auto;html=1;fontColor=default;entryX=0;entryY=0.5;entryDx=0;entryDy=0;strokeWidth=2;fontStyle=1;labelBackgroundColor=none;" edge="1" parent="1" source="07tge18XdGWjkMhopAtY-28" target="07tge18XdGWjkMhopAtY-35">
          <mxGeometry relative="1" as="geometry" />
        </mxCell>
        <mxCell id="07tge18XdGWjkMhopAtY-28" value="" style="rounded=1;whiteSpace=wrap;html=1;labelBackgroundColor=none;arcSize=0;strokeWidth=2;fontStyle=1" vertex="1" parent="1">
          <mxGeometry x="1200" y="390" width="140" height="80" as="geometry" />
        </mxCell>
        <mxCell id="07tge18XdGWjkMhopAtY-29" value="&lt;font face=&quot;宋体-简&quot;&gt;&lt;span style=&quot;font-size: 16px;&quot;&gt;采集层&lt;/span&gt;&lt;/font&gt;" style="text;html=1;align=center;verticalAlign=middle;whiteSpace=wrap;rounded=0;labelBackgroundColor=none;strokeWidth=2;fontStyle=1" vertex="1" parent="1">
          <mxGeometry x="1220" y="410" width="100" height="20" as="geometry" />
        </mxCell>
        <mxCell id="07tge18XdGWjkMhopAtY-30" value="&lt;span style=&quot;font-family: 宋体-简; font-size: 16px;&quot;&gt;本地抓取&lt;/span&gt;" style="text;html=1;align=center;verticalAlign=middle;whiteSpace=wrap;rounded=0;strokeWidth=2;fontStyle=1;labelBackgroundColor=none;" vertex="1" parent="1">
          <mxGeometry x="1225" y="430" width="90" height="30" as="geometry" />
        </mxCell>
        <mxCell id="07tge18XdGWjkMhopAtY-54" value="" style="edgeStyle=orthogonalEdgeStyle;rounded=0;orthogonalLoop=1;jettySize=auto;html=1;fontColor=default;strokeWidth=2;fontStyle=1;labelBackgroundColor=none;" edge="1" parent="1" source="07tge18XdGWjkMhopAtY-35" target="07tge18XdGWjkMhopAtY-38">
          <mxGeometry relative="1" as="geometry" />
        </mxCell>
        <mxCell id="07tge18XdGWjkMhopAtY-35" value="" style="rounded=1;whiteSpace=wrap;html=1;labelBackgroundColor=none;arcSize=0;strokeWidth=2;fontStyle=1" vertex="1" parent="1">
          <mxGeometry x="1400" y="390" width="140" height="80" as="geometry" />
        </mxCell>
        <mxCell id="07tge18XdGWjkMhopAtY-36" value="&lt;font style=&quot;font-size: 16px;&quot; face=&quot;宋体-简&quot;&gt;传输层&lt;/font&gt;" style="text;html=1;align=center;verticalAlign=middle;whiteSpace=wrap;rounded=0;labelBackgroundColor=none;strokeWidth=2;fontStyle=1" vertex="1" parent="1">
          <mxGeometry x="1420" y="410" width="100" height="20" as="geometry" />
        </mxCell>
        <mxCell id="07tge18XdGWjkMhopAtY-37" value="&lt;font face=&quot;宋体-简&quot;&gt;&lt;span style=&quot;font-size: 16px;&quot;&gt;安全传输&lt;/span&gt;&lt;/font&gt;" style="text;html=1;align=center;verticalAlign=middle;whiteSpace=wrap;rounded=0;strokeWidth=2;fontStyle=1;labelBackgroundColor=none;" vertex="1" parent="1">
          <mxGeometry x="1425" y="430" width="90" height="30" as="geometry" />
        </mxCell>
        <mxCell id="07tge18XdGWjkMhopAtY-51" value="" style="edgeStyle=orthogonalEdgeStyle;rounded=0;orthogonalLoop=1;jettySize=auto;html=1;fontColor=default;entryX=1;entryY=0.5;entryDx=0;entryDy=0;strokeWidth=2;fontStyle=1;labelBackgroundColor=none;" edge="1" parent="1" source="07tge18XdGWjkMhopAtY-38" target="07tge18XdGWjkMhopAtY-41">
          <mxGeometry relative="1" as="geometry" />
        </mxCell>
        <mxCell id="07tge18XdGWjkMhopAtY-38" value="" style="rounded=1;whiteSpace=wrap;html=1;labelBackgroundColor=none;arcSize=0;strokeWidth=2;fontStyle=1" vertex="1" parent="1">
          <mxGeometry x="1400" y="610" width="140" height="80" as="geometry" />
        </mxCell>
        <mxCell id="07tge18XdGWjkMhopAtY-39" value="&lt;font style=&quot;font-size: 16px;&quot; face=&quot;宋体-简&quot;&gt;处理层&lt;/font&gt;" style="text;html=1;align=center;verticalAlign=middle;whiteSpace=wrap;rounded=0;labelBackgroundColor=none;strokeWidth=2;fontStyle=1" vertex="1" parent="1">
          <mxGeometry x="1420" y="630" width="100" height="20" as="geometry" />
        </mxCell>
        <mxCell id="07tge18XdGWjkMhopAtY-40" value="&lt;span style=&quot;font-family: 宋体-简; font-size: 16px;&quot;&gt;格式转换&lt;/span&gt;" style="text;html=1;align=center;verticalAlign=middle;whiteSpace=wrap;rounded=0;strokeWidth=2;fontStyle=1;labelBackgroundColor=none;" vertex="1" parent="1">
          <mxGeometry x="1425" y="650" width="90" height="30" as="geometry" />
        </mxCell>
        <mxCell id="07tge18XdGWjkMhopAtY-53" value="" style="edgeStyle=orthogonalEdgeStyle;rounded=0;orthogonalLoop=1;jettySize=auto;html=1;fontColor=default;entryX=1;entryY=0.5;entryDx=0;entryDy=0;strokeWidth=2;fontStyle=1;labelBackgroundColor=none;" edge="1" parent="1" source="07tge18XdGWjkMhopAtY-41" target="07tge18XdGWjkMhopAtY-44">
          <mxGeometry relative="1" as="geometry" />
        </mxCell>
        <mxCell id="07tge18XdGWjkMhopAtY-41" value="" style="rounded=1;whiteSpace=wrap;html=1;labelBackgroundColor=none;arcSize=0;strokeWidth=2;fontStyle=1" vertex="1" parent="1">
          <mxGeometry x="1200" y="610" width="140" height="80" as="geometry" />
        </mxCell>
        <mxCell id="07tge18XdGWjkMhopAtY-42" value="&lt;font style=&quot;font-size: 16px;&quot; face=&quot;宋体-简&quot;&gt;分析与应用层&lt;/font&gt;" style="text;html=1;align=center;verticalAlign=middle;whiteSpace=wrap;rounded=0;labelBackgroundColor=none;strokeWidth=2;fontStyle=1" vertex="1" parent="1">
          <mxGeometry x="1220" y="630" width="100" height="20" as="geometry" />
        </mxCell>
        <mxCell id="07tge18XdGWjkMhopAtY-43" value="&lt;span style=&quot;font-family: 宋体-简; font-size: 16px;&quot;&gt;可视化/告警&lt;/span&gt;" style="text;html=1;align=center;verticalAlign=middle;whiteSpace=wrap;rounded=0;strokeWidth=2;fontStyle=1;labelBackgroundColor=none;" vertex="1" parent="1">
          <mxGeometry x="1225" y="650" width="90" height="30" as="geometry" />
        </mxCell>
        <mxCell id="07tge18XdGWjkMhopAtY-44" value="" style="rounded=1;whiteSpace=wrap;html=1;labelBackgroundColor=none;arcSize=0;strokeWidth=2;fontStyle=1" vertex="1" parent="1">
          <mxGeometry x="1000" y="610" width="140" height="80" as="geometry" />
        </mxCell>
        <mxCell id="07tge18XdGWjkMhopAtY-45" value="&lt;font style=&quot;font-size: 16px;&quot; face=&quot;宋体-简&quot;&gt;存储层&lt;/font&gt;" style="text;html=1;align=center;verticalAlign=middle;whiteSpace=wrap;rounded=0;labelBackgroundColor=none;strokeWidth=2;fontStyle=1" vertex="1" parent="1">
          <mxGeometry x="1020" y="630" width="100" height="20" as="geometry" />
        </mxCell>
        <mxCell id="07tge18XdGWjkMhopAtY-46" value="&lt;span style=&quot;font-family: 宋体-简; font-size: 16px;&quot;&gt;持久保存&lt;/span&gt;" style="text;html=1;align=center;verticalAlign=middle;whiteSpace=wrap;rounded=0;strokeWidth=2;fontStyle=1;labelBackgroundColor=none;" vertex="1" parent="1">
          <mxGeometry x="1025" y="650" width="90" height="30" as="geometry" />
        </mxCell>
        <mxCell id="07tge18XdGWjkMhopAtY-55" value="" style="rounded=1;whiteSpace=wrap;html=1;labelBackgroundColor=none;arcSize=0;strokeWidth=2;fontStyle=1" vertex="1" parent="1">
          <mxGeometry x="1200" y="500" width="140" height="80" as="geometry" />
        </mxCell>
        <mxCell id="07tge18XdGWjkMhopAtY-56" value="&lt;font style=&quot;font-size: 16px;&quot; face=&quot;宋体-简&quot;&gt;安全与管理策略&lt;/font&gt;" style="text;html=1;align=center;verticalAlign=middle;whiteSpace=wrap;rounded=0;labelBackgroundColor=none;fontStyle=1" vertex="1" parent="1">
          <mxGeometry x="1210" y="520" width="120" height="20" as="geometry" />
        </mxCell>
        <mxCell id="07tge18XdGWjkMhopAtY-57" value="&lt;font face=&quot;宋体-简&quot;&gt;&lt;span style=&quot;font-size: 16px;&quot;&gt;权限/合规&lt;/span&gt;&lt;/font&gt;" style="text;html=1;align=center;verticalAlign=middle;whiteSpace=wrap;rounded=0;fontStyle=1;labelBackgroundColor=none;" vertex="1" parent="1">
          <mxGeometry x="1225" y="540" width="90" height="30" as="geometry" />
        </mxCell>
        <mxCell id="07tge18XdGWjkMhopAtY-58" value="" style="shape=image;verticalLabelPosition=bottom;labelBackgroundColor=none;verticalAlign=top;aspect=fixed;imageAspect=0;image=data:image/png,iVBORw0KGgoAAAANSUhEUgAAA0AAAAGgCAYAAACDuAfpAAAAAXNSR0IArs4c6QAAAIRlWElmTU0AKgAAAAgABQESAAMAAAABAAEAAAEaAAUAAAABAAAASgEbAAUAAAABAAAAUgEoAAMAAAABAAIAAIdpAAQAAAABAAAAWgAAAAAAAACQAAAAAQAAAJAAAAABAAOgAQADAAAAAQABAACgAgAEAAAAAQAAA0CgAwAEAAAAAQAAAaAAAAAAXWdqPQAAAAlwSFlzAAAWJQAAFiUBSVIk8AAAQABJREFUeAHsnQdgFNXWx//bN7vpPSQQktA70osKiD4FFQRRn13U9yzYsWL3UxE72EWfBbtiQRCxgID03gUSIAFSSO/bv3M3mWSybJJNSEJ291wNc2fmzi2/u/fMObeNAi7O4XAElJrNKbDaJyugGOYAUihInFKpCKV7LqH5lAkwASbABJgAE2ACTIAJMAEmcHoJKBQK2O2OQspFpgJItUOxVqnGIqNWe5DuVchzR/drXXFFxWglFLOMet354qrF5oDNZqPI7GDjp5YT+5gAE2ACTIAJMAEmwASYABNoXwSEEaRUKqFSqaBRVZk5ZeWVS5Va9f8ZNJq/pdw675Bxoywrq7yCnpin1WrCzWazdJ+PTIAJMAEmwASYABNgAkyACTABrySg1WphNlvyaETnLqNR/wUZSXanAVRWZh7kUNgXk8UUI0Z72DEBJsAEmAATYAJMgAkwASbABHyBgBgVstts2QqoJhqN2s3KjIyMALvC/phOp2PjxxdqmMvABJgAE2ACTIAJMAEmwASYQA0BMcCj0+tjhM0jbB9FZWVlNzJ+/imrMNUEYg8TYAJMgAkwASbABJgAE2ACTMCXCBgDdDCZTN2VVodiii8VjMvCBJgAE2ACTIAJMAEmwASYABNwR8BBto+StnebYLbyuh93gPgaE2ACTIAJMAEmwASYABNgAr5BQNg8NjjOVZSUVRbwN358o1K5FEyACTABJsAEmAATYAJMgAm4J1C9GUKWkrbLNvA3ftxD4qtMgAkwASbABJgAE2ACTIAJ+AYB527XCkWEmoqjba0isWHVWmQ53vZIQHx8i13LEWD50XIsOab2T4DlR8vVEcuOlmPJMbV/Aiw7mlVHGmEANduxkGk2On7QBwk01h5YSNWt9MZ41Q3NZ0zAtwk01h5YftTWf2OsakOyjwn4PoHG2gPLDve/gWYZQK6wBVxn33d1D7jrffdJ81Um4JsEaoWNg/YYAf3RP+SkY+193yx/Y6WSOEjhWH5IJPjIBIBa+cDyw/X3wLLDlQifM4FaAiw7all44muyAeQqgEhco7CkFKVllTBbrHDOrfMkZQ7DBHyYgEKpgFaththvPjQ4UKbUVBlCtYLKhyG4KZqr/BCmYWFRCUorSH6YrTVGoptH+RIT8BsCYpGuU34YtCQ/guqUW7Qhf5QfJ8sOBYqKSfcoF7qHhXSPqo6mOrD4hAn4GQHa1Awa1j08qnUFCQ+PpYarAFp2sAT3LctEeqEVZyUZ8fqEBPSLM3qUMAdiAr5OQHQIFBaVoqCkzGkIhQQZT1Jc/EWRkcsOMVpsIyXuuz1FuH9ZFopNDkzsHoSXzk9ASoTe138WXD4m4BEBk9mCAuocKCqtQKBBj+BAg1/KD7nsEODEgPqSA8W479csZJVaMS45EK+S7tE7xuARVw7EBHydgNA9hOwoLCn3e92jobpWNnRTuicEkFwIqempBdsLcM3CDBzONcNusWFyrzA2fiRgfGQCREBLS+yiI0PRpVMc1CoVsnMLYbPX/eaWvF35KjTXMtpJnsxdl4ubfzyGPFJgrDY7pvUNZ+PHV38AXK5mEdBpNYiNCkdyx1in4VNAnSmuoxyubatZCbXjh1zLR53b+N/WfFz3/VEcKzTDZrHjkt5hbPy04zrkrLU9AaF7xESGIYV0DxXpHnmFxX6pezRG3qMRILkQUpEAWn6oFJd8mU7DzqTM0bqf2CANMh/u11hafJ8J+DWBnLwiVJhMCKMpcWKKi+R8fRRILj/E6M9CGvm57oejcFTbgj2j9dhzd28JBx+ZABNwQyDzRIFzirnrSJAvyw+57BDGj5h1Mu3rDFjFx9tJ9+gYqkX6A33d0OJLTIAJSARO5Avdw+ycji++fSM5X5YdUhkbOtZqYfWEkgsg4Q/QKnHbkkyYrTQOLSQS9d5e0ju0nqf5MhNgAhKBiLAgZw+u1UbfIBbzOKqd3C9d85WjvGzCr1UB9/yaWWX8CDlM8/anUA8uOybABBomEBkWjLJKk1N2uLarhp/0zruuZTRoFLiddA+n8VOte0xh3cM7K5dz3aYEwkKCYLHaYPMj3cMTwA0aQHIBJCLTqRX4dFsBjuSZxN4HVc7mwDkpdRdpVt/hAxNgAjICKhr1CaF5/KXlFc6r8vYl98se8WqvvEzCL+THO5vykVdkqZUfZACx/PDqaubMtxEBjVqFEGMArQkqc06Jc21fbZSNNklGXjaRoJAdH24pwPECc1XHq7hIusf4lGDhY8cEmEADBNQqJUJJ9ygp8w/dowEUdW41aADJQwqBpKFel5//KakVQCIAjUQP7MCLD+Ws2M8E6iMQFBhQZ7cz1xd9fc/5wnUtyY+Fu4sBMY9WcmQADewQIJ3xkQkwgQYIiB0lKyrMdUaQGwjuE7eEjBSy46d9JDvEyI/knLoHyw4JBx+ZQEMEgsgAMpmo8xFVs0/8Sfeoj4tHBpAESkwd3HOism5cdC0mUFP3Gp8xASbgloDYntIqNkKgl7qrk9qZ63VvPJeXpcavcGBHDskPuRJDQiVU3+Td+L0RCeeZCZwyAbExgtlqrYmnpm3RFbm/JoAXeuTlqPGTnrErRzbzRJSLdQ8vrF3O8ukiIDZGqJp+f3IOatrZybd8+opHBlAtAQfKLS6KGwmhJkZSGx37mIAfEnDQqIdoRf4odMrExilyx8JDToP9TKBRAlU7wdXdmbXRh7wogPuF2UL3OFl2yNZze1EJOatM4PQQEDuwCuePuoc74vWqHxIg1+NJkZABxI4JMIHmERDtS2pjIga5v3kxtq+npPJIx/aVO84NE/BSArJ+SHnbkvu9tGQ1MlAqi3T01vJwvplAuyHgIjfkbUvubzf5beWM1GsAuU3XaT3KCLoNxBeZABNojIAQNuLPfW9nY097332ncHXKD+/LO+eYCbQ3ApL8cM2Xz8oTlh2uVc3nTKDpBGjAwkHfn/An3aMhSB4ZQE7lpaFY+B4TYALNIuAPbYuFbbN+GvwQE2iUgK/LD18vX6MVzAGYQIsTqJq2xW2Ll++0+E+LI2QCTIAJMAEmwASYABNgAkyg/RJocARIbiHK/e23OJwzJuBdBKR2JR29K/cN51ZeJrm/4af4LhNgAo0ScFl762vtS14eub9RLhyACTABjwhI7Uo6evSQjwVq0AA6qaw8D/ckJHyBCTSHgBA6/iR4nGVl+dGcnwo/wwROIuDcSdKf2pM/lfWk2uYLTKDlCPAaoFqWbg0gf1LMalGwjwkwgZYgwPKjJShyHEyg6QS8ve15e/6bXmP8BBNoawK8Bkgi7tYAkm7ykQkwASbABJgAE2ACTIAJMAEm4EsE2ADypdrksjABJsAEmAATYAJMgAkwASbQIAF1g3f5ZrshYLdbcPRwNlbm2KBuBbPVGGjE8K7hiNK0QuTthiJnhAkwAYmAmG5ks9tQUVKEVamlKLYBRkMAzugShiitGhqlAi5r7aVH+cgEmICfELAU5eD7veWwkzxoLWe3AwmJ0RgdG4BWTKa1ss/xeikBNoC8oOIq8zJxw7sZ+DKPBJBTOrTCx2jtFGd4Fj66JgXXdQrwAiqcRSbABJpHwIbcE+X4Y9dRPPx7CQ6Vk1yR3gRCtNgPQxcTgFcndcZFiQYkBKialww/xQSYgFcTKNpxAFGfFsLi7AppBb3DSUcYVhS3JQsXTO2OJWeGejUzzrz3EJBee96TY3/LqaUI93+VhS9LSQnRS4VvpZ6Y4gpc/1k6hj/UHd1bKQmpBHxkAkzgdBAwY/WWY3jyl1z8UUCNXEtyxXByPkyFJtz2/j7M7R+JeefHY3y09uRAfIUJMAEfJlCKD9aUw6KVZoW0plIgZJECv/yeiVQygFJ8mCoXrf0QkH7Z7SdHnJM6BAoPV2BFPs1NaQnZY6NeFnlU4pyGnmucmFuXW4z30mqusIcJMAGfIWDDls0ZuO6HPPxRRm1dR0KlPrkiRpr1Suzbm4dLv0nHpmKrz1DggjABJuAJAR0SQ+oTEJ4837QwCjELJVKHpKY9xqGZQLMJsAHUbHRt82CF2QG7EAyn6kh/GdjfiPuSlHCQESQMn169DLgjnn4CciNI6UB22akmxs8zASbQvgg4kJOZjZk/5yPNSkqNp3oNGUJFGYWY8ks2/tl3GJfP3Qb141sR8OQWxLy6C/9LLWlfxeTcMAEm0EIENJh6WSymtcngr/gung4/TU8GK6UtVH0cTaME+LfWKCIfCEAjPV0HxOHXy3ripf8OxIdJVsR3i8GSq3ph7ow+eDeeLCC5EeQDReYiMAEmICNAmx2sWpWF5WLkx1PjR3pcpUDGtkz0+DAXX2fZYLPZUWkhg+qECdPf3YcB3xxFsRSWj0yACfgMAYcqGl/fHYmBKuqEbYF+WLdgRLwONWbf2gMXGd2G4ItMoFUIsAHUKljbWaSk8FSUWbC/2AxTYTH2WFQoLTfhUJEF9rJK7LW0s/xydpgAE2hRAubybMzdQkO/Gg+jrZ4uWxNaTInT0J/ceBJ+2jVy+9YcTP8jDxU1gdnDBJiALxBwNveQRCy9KgIpGuolbQ0jSKnENRcmYmZimww1+UK1cBlaiABvgtBCIFsrGtqp9tQdKS9H03Jx01dlSLaZsOQoiTVVIW77ykSLDc1YkkN2cI0p7IC1JdI89VxzDEyACbQQAdPBQqwUU9882dDNrsA5fQxILK/Eh6mk9DT2lnDY8f3OPGweGILR4Y0FbqECcTRMgAm0GYHo7p3wyXgLJv1ajFyH0yxqsbQHnRGN14aFeSSaWixRjogJEIEatZdptE8CkYFKaFvi2zwks/alV2DJMVJoqpWgvRkV+DnDRvv7y8puU6NXtOycvUyACXg9gcwsc/UW+o0UhUZ+Rg3tgPm0He0b13bBvdE0atTY9FjqYLFnlWNrkbnRoI2kzreZABNolwRUGHlmR8ztq5PUh1PPJfXuGuJCsXBKPMI96Zg59RQ5BiZQh4Bc9a1zg0/aBwFtZwOmRGtaRuiIjht5543rudhsITkU98a1j7JzLpgAE2gZApuO0S4onkh76g3pSlteRwcoEaAPQqL4JJgnI8K0JiiXjCdPgrZMiTgWJsAE2pZAAP59eTzuCvdEkDSSMzG1RaPHbzNS0KmRoHybCbQWAZ6v0FpkWyzeIDx2eRxSv87GaurFzRd6jNyIaaF0lDQPNzjMgPeu7IzAFoqTo2ECTOA0EqCpaZl5Bfji1ww8cJCUltbsZaVvhYTTX2smcRpJctJMgAk4CYTj5avLseK9LGwRH1Buji0kjB+VGo9d1wUjmSoTOI0E2AA6jfA9TjowCh9ND8ahtBLsoZXGtClTizuNVo2hySEIag3rqsVzyxEyASbQMAE79m6nbasX5WFnKQkMdSsIDXkG6CPNG7bmYaE1GFOSg+V32M8EmIAvEYhJwLLLrRi34AR2WMkCaopoEUPEShWmT0zE08l654hxUx73JYxcltNPgA2g018HHuaAPhCWzB8J8xAWB2MCfk2g+OAhjF9YgOMWUlDaQsqbrfh8bRZ+3p2Heclh+GBaJyTzcJBf/wa58L5LIKJbR3x4kQVTFxbiiKJpw0Bjh8XiZdr0QDg2fnz3N+INJWvaL9cbSsR5ZAJMgAn4NYFcPPwlGT9i1zdPJLxY+ye2vRa9s/U5T8LQ0HRxmRUrdp7AhZ8cwl5TY7sn1JcYX2cCTKB9E1Bh0JCOeGa4AYaG5IZLIRI7hZPhFIdQtnxcyPDp6SDQFn2Dp6NcvpemzYqcMjvKaVOm1nCiEyfMoEZwS+w41xoZ5DiZABPwiEDpmiy8VayAgr7506hu4lDi3stT8PIAHTb9ehBD/jA5bSEpIYdzsbIGc67vivtTlPjxiz2YvI0Mm0beHHv35uPhNUFYMCYSgazsSDj5yAR8iIAe11yUgK3Zh/HqYVqc3FA7JzkSGGLEpzcmobMPEeCieDeBRl5j3l04n8l9SSnmr07Hs2tKcbi0UZWm6cUWgitAjfMGROGZ8xMwNMiTbuOmJ8NPMAEm0NoEKvDBJtrymiR7o5JCBAjQYGS0jjw6DP5XVyx1HMFy+h6hNHajDdDikctSyPgR28EBZ4ltcDeXw9bYmiK1Az+uzMamgaEYE8qvGSc8/ocJ+BoBZQheuTIeme+n48scEijuVAcxehwUgLemd8WZ1Z0yDdlKvoaIy9N+CfCbqf3WTVXOHOWYu/gQ7tpqot0PaFK9oZUyTDJq2fpsbCtyYM9NiYhopWQ4WibABFqRgL0IS3OpMXuiYYgwFSY8uCwTI67vjA7Q4l/jkzCYpq4Jk0i4iyd0RUSsseokKxP/XkzGj9aDyBUUprgc81OtGDOIXzNVAPlfJuCDBAIj8fFVFUifl401Nmr3ruJBocYTl3bGNVFq3vTAB6vfm4vkzl735vL4XN4r00uw4BAZP6LH1VWwtGRpRdw6JXL2ncD7x1syYo6LCTCBNiNQaUNmUxKjdp/6Ty66vZmGIvGcWo0IoxbUUet08bGBoA3egMzjGPFxJn4taoIcUjmwPL24KiL+lwkwAZ8loI02YqCWOl5cnZhCSzLlTPq2mHCtqcK4Js3nTKAxAmwANUboNN8vKLWjjD4y2BJOp6aPG5IhJVW6ihYtB9CaH7J7ap3Cjp25tafsYwJMwIsIGDToKkZfmuJo6/uyY/mInpeKE26es2Xn4PzPM7GORoebpMFQPqx2aTKdm4j5EhNgAn5AgD6Q3DIqjB+w4iK2JQG56tuW6XJabUmA5uAa40Ow5ZGBKH+8E6YHkjSiL77fObkLyp8cgB3n04QXc62EaqL61JYl4bSYABNokIARtO+ABwuAXCIhY8WcWYBBHx7GQVmHS3l2LqZ/nY5fcyh8UwUDaT0B1PvLjgkwASbABJhAeyPABlB7q5HWyA/ZNnFhAeggJvarQjE8ii7QeqL+MeKCAkkdNQjljtrWIM9xMoE2JmDEtOGiQ6MZyZIRlHEgD5M+P4LVBWU4npqF/3x1GJ9kkOXTHDuGtuE+r2tQMzLCjzABJuBdBHiUx7vqi3MrCDTntcbkvI0ATXU7+M8JjJ9fig4KC9YdIYXGZsGD36Thm0gVjh4vQ6FO6t4lQeZt5eP8MgEmUEMgelA87v7zAF4rpP6tpnZxUfg9/+Rh2ofFCDZZsL+E5IK0IKgmBQ88Yuen6ED8N4G/huoBLQ7CBLycgB5GHfWiVpAAkVQJLy8RZ9/3CTT19ej7RNpZCcWaHQ3N0T9lZ7Fh86FSLEoz4YSd4qOazz5RjsV7S7C9ztx+JUKdq55POUWOgAkwgdNBQBmKh6+ORE9bM4d1STxk5ZPxU0aZb+4bgr4vdPPZcegdzH1sp+MnwGkygbYlYMRdl0ejL60h5h7UtiXPqTWfQHNfb81PkZ9sEoHQTnr0jiAloi2GZUSvbWAgpndrUhY5MBNgAu2MQHR8Ij6/IhTdxeZLQna0hfwQDEQ6NJXunKGxeGp4aNUOcuI6OybABHyaQHznJKy5LQEXxShBG0CyYwLtngB3z7X3KgoIxdvnRqHwxywsyaTelRYYDHJbZBJYuvAAPD4tEYPcBuCLTIAJeA8BJQackYI/gnPw/KZ8rDxYjp1FYkSolQSIUHhotDqpoxETu4fj6fExCPMeWJxTJsAEWoBAYEIcfroxAM/+egxzN5Yhx0LLjWP1iNFyX3sL4OUoWpgAG0AtDLQ1ogvu0gGfXxWIX7IqUFJhg7tvjZ1Kuk7dRa1F1/ggnB3H899OhSU/ywTaDwEl4rvE4o2UMBxMr8COYiuKK02gTwW1qBnkoNg0Gg2CaQvu7nEG9Aut+uZH++HAOWECTKDNCASGYtZUPcb3LMbWYju6JIahp4HXArYZf07IYwJsAHmM6nQGVCAkNgRXxAZXTzFpjby0Us9wa2SV42QCTMBzAgodKSH053yiteamsPzwvEI4JBPwdQJ6DOtFf1VzYn29sFw+LyXABpBXVRwpGaxneFWNcWaZQPsiwAKkfdUH54YJ+DIBlje+XLveXjaemOntNcj5ZwJMgAkwASbABJgAE2ACTMBjAmwAeYyKAzIBJsAEmAATYAJMgAkwASbg7QTYAPL2GuT8MwEmwASYABNgAkyACTABJuAxATaAPEbFAZkAE2ACTIAJMAEmwASYABPwdgJsAHl7DXL+mQATYAJMgAkwASbABJgAE/CYABtAHqPigEyACTABJsAEmAATYAJMgAl4OwE2gLy9Bjn/TIAJMAEmwASYABNgAkyACXhMgA0gj1FxQCbABJgAE2ACTIAJMAEmwAS8nQAbQN5eg5x/JsAEmAATYAJMgAkwASbABDwmwAaQx6g4IBNgAkyACTABJsAEmAATYALeToANIG+vQc4/EzhVAgoltErFqcbCzzMBJuCHBJQqJVR+WG4uMhNgAqdO4HTKDzaATr3+OAYm4L0EFAqoCnOxPNcCo4qNIO+tSM45E2h7AkrqODmamo2jShXUbZ88p8gEmIAXE1CQ/pF+KAfZJD9ORycKG0Be/OPhrDOBUyZAAkiHctz+fhq+KnJAxxLhlJFyBEzAbwgolTCl5eLML46hTKMEd6H4Tc1zQZnAqRMggZGxOweXLcmBSd328oPVnVOvQo6BCbQrAqJXVu3pH+XcERqC6fE23PNpGpYW2kE2ETsmwAT8kkATZAfJGNFrm9gvGAkZeZiyKBv5DrAR5Je/Gy40E6C2T8qDx7qHkB8UvmfvQORuy8Idq/NRRhDbUv3gUWsv/NXac3ZjyZrdMNmTce6UwQhutAwW5KWno9AehLhO0TA4KpG6dQXW7q3EgIkT0Sdc02gM7gKYio9h3W9/Ij1sKK4eHYzVP6+EZsAEDE8Ochecr7UBAYXCjDVbSrDFSoLI0/RoDVBQNyMifivEjd9l4IOL4zE2wuOnPU2Fw7U3Ag4rSgtycSK3AIV5x5BTHIjB/xqOCDf5tB3dhJ+2HkdwRE+MHpmCwv1bsXFrOjqffwn6hLh5gC95IQEFrGVF+GiXBSaaDuupIqJQGjGhRwmeXpONW7UKvHZ2BOLoebKF2Hk5AYedFNLGusmLDuKXNQcQENQVw0Z3QYCHZa48uBwLtxWj24iLMDjeJRHx4/H0B+hhehys9QkU5hfiu/1WWJswnV6pDMTE5DLM++UYNFTnzwwLRShltS3kB2s5rf2bKN2Et19ZinyNCi5N3CVlB/1oIjDukqkY2TWywbavzPwbr77wOvItl2GYJwZQZQ4W/+95fLG2AJe++i1u7FKCjT+9gQffz8VD/cc12wAqP7EPn/zfTPzS7zmcpziB++57B+o+SzHp2ltxx+ShMDTPrnLhwqeeE1BAqSjDpz8cxsdl9GtryguE5uDCSM8cKMGKPDMbQJ5Db6ch7ShI34n1mw6htPgw9h+vgFIYPCVFqLA4YLeYYLZaUVFahMLCEpQUZOFEiQHnHHoWz9xyJgzyUjly8MVbczBn0W4Mfeh3nDNSiZIdi/HSM58isKA/fr4lWR7a6XeIkYCm/P5OioEvtDkBqrDKvGzM+KwE0Dex8rSkSmgd+HlrIZ4aGe40gNo8/5xgCxIwI33995j30Tr0+s/TuGFgkFMhdfurOPYHHn98PuK63oz3ZQaQw1KB5R8/gUUFQ/DEzGkIdXm4dMP/MOvp7Ujp9wsGdDTAZhdCQ4mEoTfg3iv6NOn11YIF56hOgUDW0Szc+RmN4zRVfuhIWVTb8eH6fDw+LIzq3sEG0CnUQ/t51JSBZd98iyM6ekHYbPVWqlKlgkWXjIThF5ABJLLvQP7+3/H1oh2opJdLjewgRdV6dDPM0EOj2o33330TkWYrqKOmypHmYVFHYdxFF2JgxxDnc+XZx7Bjy19IPXouunehmBRqaLQ6BOgpDnUjNnADPTEBhgBnHDqKI3rMA1i27Aw8+N97sXLrBbh12lApR3xsMwIOeomEYs6D/fGUeJd4mK5DdPGVn8D097NROSgOtyd52ofnYQIc7DQQUMKSm4ov3n4Cu/M1TuXCYbfR0Q7JOLHZyG9XQB8WguAOQzD5vGR0SwlAKb2/DEYpyzbsXvwpPvt9PzQaHXa+cxXO/Z8CFlMFyvTBKP3oeoz/VuOMUzzhsJrJSFqC2RfwKLBE0GuO1N1vTEhG+vNkIIvXhAcZd74eaB3QgR0HccFSG56Y3AEpemW97zkPouQg7YKAFrbco9i2bTlW3nEdVJ8uxLVJ9WSMuu3tJFQc9IuR93k67OXIPrgDv//0K9as24P3FzyBfrJXi1roIKTblB/fix2FOpIh4qWlgim+wKnPnI5F8fWUkC97SKBLry44MrvKePFEfohohbGzYk0qrt2gwEdXJCCSzmv0WQ/TbW6wRrTf5kbLz8kJOOjFog1PwNljz0GswVKjLEhhFEo1DvwxH39mideJ5MgAOrwOn777BcoC9bWjR843DvX00/xJIBWL3jlY901FaVXoeiJ+0BinAUQaCdK2L8K6PUoEDItD4eKf8LO1FNsPFUOrt2DPip+x+IAeNilpel4R1gsXjulW9QJUHMLTIy7D5yUVUAkBJXMKElZafTQit76CPn3mOIWXVqeH4pcnMPCz3/DZkfcxXBaevW1BQAFjgBo1+mtjSZLxo7Pl4OrXc3AoKQKLzo+m3lsypOpWdWOx8P12SCAqeRAuufZm9DpWAoc2EJ17DENysAVlpmKkF0XjiklDoJO0jOLFeHR2Hvr27Y/omh+PDZlbvsHs2e/imDkCMV0SEEFbHkNhR3l+DsrLK6EIDkNUeIBTARIIhJEVqmur11c7hO7lWVJQB1t4Tf03XhgF/R5K9/yD8UusuOniBNzdnR62svBonFz7D5E08R48vWc77v1qFz66ZybiHp+K3T9+hyyLpnZ0l3QAdcE+p65QkPkrnpi1H3H9pmHm1CHQ6iLw79lfQBt4L15aXoyi9I34cfdxGuSh6ZVqHYq25EKlC0CPf92Ia4bH0Yi0kBtkRFHvS365DVEGSTi1f1acwyoCKurIj6gzfaARMjTqfGTLXly7Bnju6k64NFYHepk08lDL3WYDqOVY1h8T1acxriuuvusO9K3nx7HsyFugKZAyp0BwfD9cfLkVZjG9oNoJY8maQ70qG/bDbO+Is6cNQ7h8BIjCWdTRSIqu6mpxVGZiyUcLkRdAoz1bPsVdaz8i+5p6fQ1BMAYp8edrj+Bn6gmucTZSavo+g3PIAKrKKgkkMmoCbEpExiYhOpB696p/nzYa4s4+eghFjgj06BYDHf2YFdQbCIcZlWUpCKyJlD3tlgDZ0YqiSuR2CMd3l3dCD4UNlW0nf9otFl/ImCI0EZMnjMKbz7yI9OEv4KEJicDxpbjhmkexPrMnos/7HBdUN9IVc97Etz8dwabcE3jztfuQQo0/c/VbuO2Ol7HPHg6tPRh9Rp2FHjRVQUEG8vFtK7AsNx/ByaMwfmAILMJitplh7X0pZowLIRkjVBl2vk5ALHrOzHbg4vEd8NaoMFgq6p/l4OssfK98Soy4/wX8N/1pnBh/LeIKN+DNJT/jkIU6OZ0jPtUlpk40jVqFiuJUrFi4HeH2Ubj7EpoR6bwdhqkPz8GgmVHo/Pd96HDvYiR27oxY6ojJSC+AQR+Ogl2LMG+LjQSGAhUnDuJARQzueO5D3HVegu8h5RLVIUBVjux8BW6ZFI+ZPYywmGlWQp0QrXtSq1m3bjp+H7voGTVVEoZ6DCCzzXXRqQLRvSfhwWcmnczu4GfYePMrtAZoFB5/8H40tAZ5/QeP4uudGnQ5+wJMGtsfBuq9VVrLsPXPr/HzhnKM+e8MnNlBV2t0O0gQhVPvjUuqSq0R590xFzOGa1FJawiEM53Yj3lP3ISvU3vhzhdnobdagfwTx6GPTIRBpfVgcwaXRPi07QnQi8wUEI63rzAiSUnGj8wWbvvMcIotTcBcmoF1G1Kxa/1M9BvyDa5KORf/Hvkhdi7ago/e244L7u0P654FeHP5CRhDB+OWR+9xGj8iH8XFZkQlDoRWW47du5QwOKe80iuDDCCdVkUGDskBmsZiMOphchpAKtgUJmcR2Php6Zpsn/E5qPMsum88PokOgpWNn/ZZSaeUqzhcP+9tZwxlx3WYOacT8rJLoKFRX5uJdAV6zwekL8VD81chNHYMrrtzPGIj+0BL0+KKdn+P938twkXTr0d3WtVuU2qhD4rDeTfNxlOTCjH9ggeRajwLD7x2JQxHi2Gn3Uh3z74Er2T2wogRbPycUrV5ycNi2mOPQR0xJzKwzY0fgYgNoDb6oShUNC2pgSGRALW7RV92ZKz7AR988ycKbdVVRb0t1oJUFJSLmQZ/4J6ZWQix1va62bVBGDntblwxJAL2/R/giTdXoyS2L2699h7ceFZ0VWmthdCQ0Pr2Lwv6TbgCV/SUTcyth4eYxldy4hiOHtXRUHWVARQaGocOMeFwbKyANSqKen6yseChO/EDJmP+3DtoLie7dk9A9OTpDUhQkCHExk+7r66mZlCbOBkP/ftzTHlzF757+2dMeelCdO8ejfBjV+HS0aRkVB7A63O/xIH8Cox7djYmd6IR3GrXfcLdeLXvBHw7/3Hs2puBLUuX4B8xwku/lcqiXFgUWhTv/RMLj1evAbJWwDS6N24cmyRFwUcfJyAUmJBwerFZ7G02b9/HkbaL4pkLj2Pl74twpFRLG+tQv23IAEya3AvqZV/h6x83oe8D3+Kh86q7Sf85DJABZAjuiQn/mljz3t+//CvMJ7nz0+qNuOvZl0GDQs6pb6V7f8G9f63EfjKgzOY/8OT0VagsLEDM1fMx/7EPkJRuRH9eQtgufgetnglSJUPCaFSApj9WaZWtnmKdBNgAqoOjdU7ENIH8XX/impGDG0jAiEDXYRfqY63IOYzNf69CplW+vFBEI/pYc7FjxV914rTpIxA1pqoXVtntRvy0YgA+W5iJqZLxI0LbaNME+rWJ4Uc7+T1xdlMplrxyM5ZUBxZzxSc//gW6hofT+qQD2H8EGFrwMT5fnY3gy+IRRj3D7LyHQBtOu/UeKD6S095Xz8T/9YrBtHMSqUR2pB3IReGONfhi0zRMG5qCcWP6YV30DMyeEudSYhWMUZHQK0m5teoR368vOosNWWgEKHvPZuTlFULfoQcG9QyqnQKXyJqLC0SfP3UuXvf5UvpXAS2FR/HLJ6/iz6OBUCkdiO48HeMmD0RCmA1HaVOlQw/dgCE/fIZzwohLzYJRWjsqwzTk9k/xQ/JLuH3mT9hfQDsLkhO/lYDITjRFPxk7dpyAwtgf1z97E0bExCM6hhbDv/IZNFNvoI9zs/MXAvSTOG2ODaA2QC/qV6U1IDYmBnoVWbouFa6gUZ3S7IPIcGOLRPQciatvC0KZvWpBoMJuRsamJVh9oiPOGtEb8VG06FS2u5xDFYDuXWuHmrQxg3DN1Uex7NP5yCEjShg9Ygrc9v2kvOjN2PrzF1iwSVctuEiAmQMx5IpL0bfm40L0ADmx9ii2xyB0j1Lg+I6tOFBERlSAER1iOyFMuR17aXHj0t+/RJ6hO64ZcwZCGh9UcsbL/zABJtDyBByVxfjtk+fw3XaarqLWQEsjzCt/pOmvtNVo9p7jZAYpcGLZ87jnYCgcSh1SVL/ivjt/ht1uhbHnBbj/+osRZaxq+87cKawoLyxEAW3nT/tpo6zSTJ0odpjpuzH5+fTdB8mCXvsO7ts6Fg88fyliWr5YHCMTYAJtQEATmoDzr7sfAw9uxOvfbnKmKNSThElP4Zntu3D3t/sw97H56PnGTeggExN1sqbQoMeEe7FwDE3TN6hhX06TZklmBCefiRsnjabliP/Gd7l78OtH/8NaWEkO5WLbsl2IzUnGqJcuqm+1QJ0k+IQJnAoBNoBOhZ6nz5LFE9xlCJ6e+zLOEF94cuOW3NMDM1a53lAgoutwXE5/NY6+yfF1+ip8u/w3rAxLwszxU3Fev4ZUDbGb3CZ89vqz2FJhpC/vVsWkUtPcXbKdNnw+F2tqpj7RGpDSOMw6X24AlaKYBidV+iBMfvBN3NQb+OOBSXhgeRZ9+CwcHeLiEB5owPbP78SOvWp0HjIC44Z357mVNRXGHiZwGgjYTDi2ezX+WlEMvaZqWpvYat9hpV0oVRrn17rLj2zHH4cU0NHaPavYEpuyKbaxNlp6YYZznR8JC52O/g+gzpIghIaEI5zW/pjL8pFN2lBUv3MwunsUjf4Ic0rSguzQB4bQJv3smAAT8FYC2tAOOHfqjcAhJeZ+V2UASWU569HnMC3tWdgGxcIuJpuIXtV6nQMZ65diXehQnFFcDAV9esMQKnpHo/CfR2+C+q9jKKF99+022qRJG4GL/jMGI6ZOYOOnXp58oyUJsAHUkjQbiouMIOr8qNc5HO6FSO6Wn7Hg72MYOXkQNj3xNg73PQs33TwPbyU8gdtnv4cH9qzBtnsfww39i/DpR98jL2wKnrj3bNkmBgqEJo/Go+99iVIaRRKpqMxF+PPLl/H+0mJMe/Y1TEmmj5A5R6Vo/3WbFh3l9pS5BAWUdxVNg6G1zuTyceSohWSegxQiDRK0nRAapUVOWjoQFICLL7kOvRralaFeAnyDCTCBliKg0Ifi/Bnz0Ptqm3MOv4aMmP0/Po05X+2jDy5XpyJkEn25o8ekuzFzUh9YLWKLfholCumAmBD62On+Ffhlexbydd0wfrwK3fv3QCTt9lSZdxhH921EqSoUPXr3OmnutkJlxvEcK0Ki+fXSUvXJ8TCB00LA5GZairI77np5NpQRHao6Ouhjyk7nlCcuuSxNx+IFs7HA9B+8eeYx6GkXyZAQMW8OiBk1HQ8PTsfr9z0MzeSncNuZRvz2/W706CgJKJe4+JQJtDABfkO1MNCWja4M/2xeie/m/Y6Kka8jZ+0abFd2wLWB4Rh942tY2pdGZO5fhx40Nz+q81rsXLoGu0Iy0Pv8s3Flr9qcaI2R6HmGbEsCUx5S/wgghaccHXqegYF9aqfM1T5V7ctMxwGaFqNRJSDIYYI1fxe2FJWTIWWEgR7T0lB5UGAgFLklCBtyN+6blICt/5uLrd0m48ZRnU6Kji8wASbQBgRolCeu60BIq3rWv3ENXv3hAEyBcUgKL8Px7HIYhtK21tv+xM4f5+GNqLfw/q111yjmrXsfj83Zg0B9VcfJ8uUq+hgqjSbRdDcrjSTZj/6CF/b+SoWhqbNkPElLAZSGMFz30nnoWb3nShuUlpNgAkygNQhQh0eVU0LyiXOtUYf3pg/EgoNhtF6nwtlxYtfqXUZ+bUjfsQob1mWg8229UXFoLgKDesKx50vc9n0GumX9gd9zz8dN13fBy//3PsZ+MgZfvvwMflH1xCvT4quS5X+ZQCsSqJob0YoJcNRVBGzmchw/konDh9KQllb373D6UeRU0MdNXQeBik9g684tOI5BGNJLRfPzaaKJNNxMHyCLG3YnFq/8HMPyf8dXq4y4alokyrMz8ee336GgIfBSTw2l19gC1qLU/TTFxULD011QuuN5jBpyM/6mbTD1gcPQ3ZiFj197DVsPiklyDiijo+jbPxXISt+GN66+CV9kN5QJvscEmEBrEhAbnFTmrMNTlwzD9Pd3o1KXgBuenkNb2SdSB4YDMYNuwauvzkAyrQXc/PZVGDT1KWzKqoCFdpUULnr8I7RV9jt4e+5cvPrSHDx0w3Doyirp+2NVs17EN78U9O0fR0AMJt35LF5+ZS7efPNtvPXKi5jcw3XTltYsKcfNBJhASxOw0gdO33n1e5oV4kBR0Qb8uTMPJjN1fJD+oFYbMXDoMKFAQEUfNe044Fzc+fz1CKW1PBYTdYaIzJjpg+t//ICN5hG4dSqwbhXtGEjT5ouy/sHuEj0iK0pQVKbG8AnX49zkjXhzXW/cdU0E1n08BxsKW7o0HB8TOJkAjwCdzKTFrwijpfCfNbh3yjBSHlytnKrk9MFRoG+Tyhx9bPCfVfht2U4YL7gVY+lDpos1YvvZQhzanw5DpJiuQtPZqFsmdedfmPvip0j+75MYapiD9Wt/xfoDE3F+Yj7+WroJxUJRkcWstJRgV0YZfcLDjH9W/Yol6XrnrnCyIAgI7oaxZyVhw9oDToEWeM5ZOHeIAmkXFqE8Igwx3QZh7WNXYd7iE+g0tAc0aQdwYslsvNjzTpiPZsEcNgh95FPp5JGznwkwgVYlYDcV4I8PHsOT7/+BvEolonuOxmU334MZ5/bAitVV01psNhWiR92KF5/R4NW3P8OKXV/gyvMWYeyNz2L2f8fSlrVhiAgqwbFD+7D40w+xaEcxEgeMxoW9k5C2Zj42x9+IJ3tm47O/NuLT5x/CjguuxzUXD0N8XDT0jgoqH++E0qqVzJEzgVYiUHlsA5666058t8OMXmeOQFD2Rjxy6Xh8e85kXDh2IKIMKuh7XIO5rxigtFWg1GRC5dbv8dFPh3C8JB5X3n0ZIo4sxgcLdqLjpOcwNHUlXqBO3oigbijJXIz+Qx+C4pevxdgxLKokPP7hMvx443m4Rz8CiWWr8MvvezH00p6tVDqOlglUEWADqLV/CWSlmM1maOO6Y8pNU9HRQD2mrrvA0TeC9v7wPL49QjurSbspUb6M4Z0x7vJbEH7eIBp+jsHAAXZ8vW4Fnp25G2HGqj2zxa5wedkZOKYaioeumY5Y2yq8XXEm4oNpcK/0bzxx053Yr1PXGb4WixbVGj109LGyn+fQLi3S3JUaFgp07H0vvh81Hks3pqGsTIsLLhqNCJqb+8jrZ1GoMiy4ehhmrgX6jJyCR1+4AzErXsTVjy3E/EfvpW9ClCL+2gfQpyY+9jABJtCmBESPh5V2Z1NGY8L112LKpVdhdIpYxCd2oaS1fvaqo8hTyrib8EpKX3yxcCE+/2oFtPoAaGiuftpPT+Da137HiUI1koadh9tnnYuzzpmIvo7NuGfV66jUJOPCmQ/gzEvWYsmSZfjmq/dx6zevIazLSDz59qeYUs+GLyJNdkyACbRXAiQf6KPYKrsaiWOvwZxXb0d0+m/48puf8ePPn+OJn+fLOkzF3A9pCxQaV6Zp9QnXzse9NJ3FatYhrOcAjB6bjOXffoRcim/slPPQdW8pRo7oB+V2JbK2/I7nZhUiSl2CHVvSob9pHp66sBOOxAbTWBJ/qLK9/kJ8JV9sALV2TWqiMeKcMShNGYirrrsGXeqM8tQmvrZyNXL3dUZ8pLR/kgIhKWdixqxhtGuTmH2rwpQXv0Psmm04fjQDOw4fh5kMF5U+EOO73Y5BQ4ZiRKQS6ttex2uqYATryACyjMfbixehjISRfASoNtX6fdqAOISpYjDrmf/g+DwTbh8qnwFsxJQ5r6PssyKc+5+JSA6hXfuvfAJfJA7CJ1+sgIXyff21I5qcZv254TtMgAk0hYBSG4ZzbpqNrheXICK+I4JqZqSR4aMNgJG+ymzQ1koFbeIw+op7H/zr0jtodDkegdRJ0vPSO3F3Xh/EjpuAfsmxiIkIcnaklKbaoDUEI0hX9XxIygj8+/YzcO60m1BwYCPWFMRhYg+5vGhKzjksE2ACp5eAAoa44bj58ddxVWwXdKPvVKLHufjvgyNwyfR7UV5UjLxyU+10/JrMik2UgPBOPUCbRULf6xK8Nv9MKI2hUPZ9BDsdW3HzBV0RPfYuKHU06+T+Bfh4xN/Yl20mXcGOrk9eirHjeyHB2AvdWHuoocqe1iOgKC2vdBmPqF0XIq0PEUfxF0IvvJS5B5FWYKnNkdmG8ucGI6B6q9XaG+xjAkzAHYG9qRmIjQx1vkDE9EglTVEUTlrfJR3dPesN1+RyQ+RXnIsRh1C9Evpn98FklYkc8QXoF4Z4Q7E4j0ygXRDY8c9hJMZFUs87fZJJTG8mGSKc69F50cv+cSc7JN2jw8sHkFkq25WMdA/rnCH0aYdaQ97LisvZZQJtSmD3wXTER4c70xTywtd0j6bC5E0QmkqMwzMBJsAEmAATYAJMgAkwASbgtQTYAPLaquOMMwEmwASYABNgAkyACTABJtBUAmwANZUYh2cCTIAJMAEmwASYABNgAkzAawmwAeS1VccZZwJMgAkwASbABJgAE2ACTKCpBNgAaioxDs8EmAATYAJMgAkwASbABJiA1xJgA8hrq44zzgSYABNgAkyACTABJsAEmEBTCbAB1FRiHJ4JMAEmwASYABNgAkyACTABryXABpDXVh1nnAkwASbABJgAE2ACTIAJMIGmEmADqKnEODwTYAJMgAkwASbABJgAE2ACXkuADSCvrTrOOBNgAkyACTABJsAEmAATYAJNJaBu6gMcngjYi7Fr/QEEn9EfnXStiNB8AmuWrUS2VQ2lAlAFhKD/qDHoaGwnteCoxKHta7C7MhkXDO0MFZvT7aRiOBu+TsBalI7VKzeh0K6Cgv4LTxqG0f1iyFePc9iR989GHFInYmCXWJgOrsK6gs44e0hHqOp5xNPLJUc3YvleBUaNGoQIQ7058DQ6DscEmEAbEqg8sRt/rU1Fpd0OIUAUqhAMmTAG9j2rsT4nEpeM64mytA3YURaHwX07QluTNwf5mtDeHQ7sWf498mOGYmjvBFk8NRGyhwm0KQFWWZuD216A9b/+hQOV5uY87dkzpevx0gvvIU3RCV1TkpCUnIKwEyvxxz6LZ8+3Uihr2kq8/f2m6tjVCI5MQOeYICiaIAdbKWscLRPwCwK2nBV4cd43KDQkIiUpCYmdOiFr3e/Iaaj0DhuytvyG5TszYKVwxTsX4/s/D8DW0DNu7zlQcGQTfly2GSXVokgTGI2kjlHQt2JfkNus8EUmwAROmUDpsc1YsyMX0d26IonkSVLneBjohW6M6IDkhDBn/MW7f8dS6vQ1Oc/SsHDup/jH1MSXPgUPj09GXLjxlDtdTrnQHAETIAL8ymrWz0ABlbpqVKZZjzf6UCreeegjxN72Nq7uJQvcqxuGnuYqU1acwD8ZwVWZUqgRkdANEbIsspcJMIHWJLAbbz3zE3rf/QouTqlNp2+f3o32xSpUaqirh2mFX6NuTv+XAvbKAhzNIm2meuhIH5qIvqG1eWEfE2AC3kNAodAgOCoOvXv1RvWbvSrzcSkYEFddDmWt7AAqkbE3DZ2bPHSsQGz3AVURNnHwyHtock69iQAbQC1cW6bSYix65U78nhMCtbkAsZNm46EJHaAWnSWFmzDnha9wtMyEoPA4RIeGIG7sBEztT9PHZPkoWPoFtsZNxRty40fcV2mhqQ7nsB7Fgln/h7Vlapgdcbjyrpsxrls0shc/i7n7otDJkIM9e47BYumOGe/cDWdUNA3mz9dvxzcHNXBUaDHsxhtx5ciecJT+gRcfX4bgLh2RuqkU1334EBLWvoOnP9gBld6EQsrLR7Mm0BSa5Xj/3V9QbtbhzrsWY+A1j2JQ5of4vngCHvl3H8pbCbat/BoLPtsMUwApV9Zk3PTmvehPZS9f9Tpu+zEC956fhTe/2Y8KRRfc9fTtGBTdXubzySqAvUygnRLI/n4BDiRNxe0y40dkVaWpkgwOmsay8o078eV+JVS2cgQOvgr3XjEW0QENFSgPPz73PH7LNMPqCMToKdfiinE9nF0txUf3YcEbz2NXWTAUFXqMvfVMbHxnEYqoA+j+Vctw8TNzMKLyG7z2cQWmz7wWiSQvjm1dgOff2QwlpVmq7IdHnr8RXQwqHPztQ8w/mILzHYvw1S7qSw5NwnX/mYHhnfUNZY7vMQEm0OYEbNj701v44PhgzLllRFXqKg2MOcvxyIvfo8Buxt4ZD2L4v6/DVWf3QvkfL+Gubw4jEOUIHnkLHrpiKHTmfXh39v+gjolH6u4MnPPkHET+eD82xN+MGRd2xqJZt+Dv3vfhjMNzsTytEhg8A/Nuqe7iLd6Bea9+jgO5ZdAHxtDIVDQCe52JK0b3rNGB2hwJJ+hzBNgAaskqtR7Aew++AuX1c/HOENGXkoPPHnsYLxjexKyR2Xj/ne/QYeqTeGAwKf0VqXhr1ns0Bic3faoyk3o4D51Hjapu6HbkHtyNgydKAa0BsYk90TnyBD566i1opr+Dt7rTM5kr8eA7S9DvyetpZAo4crgAkx9+EP+9VYN18+7B15/txZNX9cCKuY/h775P4O27Y2kd0yG88fRCbO+WgoEGNSqyTehy5SW467Z4ZyaOaXriqfm3IBIO/DzrRryybgJmDh+LR2YU4Z5lIXh1xlgKV4lNP6qho55kBdk7h35/C19s7YpH338LokO4dOM7eG7Wuwh57r+I1RhgKFqH5fqn8O67Edjz7Wy8uXAfBt0yyJke/8MEmEDjBA5Q204eORzux25y8f1zc7BlwL14+85kisyCvz98Ei8vTsQLl3U6OXKa5qJFKZa88R4yxz2ON4aTzDIfxxuvfoU9vTqiX3gpvnnrXcRdPRe39QkBjm/H5uD+mPBIED7+W4Ebrh4DYbrkHNZAq7WK/hnkL30BT6zvgufnv4Uoule4YS5mPfgJHpt3IzQ6Ayq2fY28mW/j7duAvd+/hB83bEPfjsNhPFkMnpxfvsIEmEDLE1DYUZJzCJs2boDBaoXSmIgh/eKhVIt2LZM0NjNKo8fiuRfjMe/Wr3D224+hH+WmdPnLmLXuDLz7zkzoYMey1x/Hgu3dcWsfFWz5+dCNuwkv39GVQtqxVq2DtnrkWa03onDXr+j7xHu4TPMPXrlvLr4+PBRXxmXhiw+/hGHcfZh7JkkR+3H87+FXYe8ndA52TKDlCLAB1HIsYduyDNu0ozHHafyIiKNx1cX9cOuKtchL0eK4sgdm9Kzu7dRHo8+gFOTYaOFhHVeJ/AJbHQXHaqpAeUUFjv71NTYNfhAzOm/CjnINuq1+D+8sd0CjKELpwWNYlXcdzqZ+26Q+A9CtQ1WP8KAhSfh+7TFYab3S2mMO6k1ZRIKK4tdYcDxzJ1bus2LQIAcMHeLRI7HK+BHZiR88Cqu/mosdhYEos6lgLsynq+EwV1rgIEFY5Ry09kcMbSkov+XYtPIQeky8zWn8iPvGIddh0F/PIO0oEKewwh48HFeNrpow161rJyj2HqGnBsFQFRn/ywSYQIMESlFQAOeGKG6DHdmBzUUdcd2FwvgRToNRY4bhy8+2UTvr7GaKnAKWwjTspc4V1bbP8M42mtpLs/yPHjqCzXlmJB5cgH3Gf+EpYfwI16E/tVYHso+YYLNSi6dBHL1OWgathFaTh0W/p6P/1Y87jR/xSOjQKzHyq6ewMQsY6DBD2+dSTO0i5r+IASDqvVlfCKtYS8QGkJMJ/8METgcBu9WE8rIyOIQBpKxa3Cfe7HWd2G5FuEpaO2hHZQV5Awrw2+rjMAaEYcG778Cq1KI8KxtbVu/Fbf0ioYzohH5J1Z0v1OzrxEnrEmNGXoueJEOALhgUr8bq1FKYdcdwqDwBV/euWn8ERTj6j+yBvSfpSuI5dkyg+QTYAGo+u5OeLC+rgDplSN01MQEGmjpSjmKrHRFRsVBIIz60I4rNLhkQ8qj0GNAnEt+npgFjetMNJWJ7D6U/6jHN+RPLyeBwVFbCruuIsRddhDCKQ5hQEycpERiqQLmDpr4oNTWCxmqxwWapgMVsQqXZiNETL0R/h8K5+FkxcRp0wQZQ1ugZJfX4SPnYjbkzv0TQuKn49/kp2PbxJvztNHSk+65HIdbKKB49YjsE1dx02LRQa+2wkKKkoPKCWEg7yDjLTkZdOYVmA6gGGXuYQAMEAhEdYcdfaUeAYZKRUxvcQp0c9oSOSBKKgrQlo47aoKmMxnlclA/xGDVbi8UCsyIC486biESDlswbujyZFkBHh6Hkh1yok5I8bp8KkgFllZHoXidregQazSgXDZ2cjvJjoexpVA6I6XomkwkOmpor5Bw7JsAETgMB0hlC43vi7DFjUfv2tjllQeO5qURZhYUMmYm4pK8dZrGrimICrtSFwmJNh5r0HbHe0J0TKoFeX6MRwEZ6SSUJCru9AiFh0VDX7KpSpSu5i4OvMZn9ZjkAAEAASURBVIFTIcBvnVOh5/JsUKeOUO5Yi72y67lHjkOTkIjOhigUZO2nXhayBoQzV6I0LxcmN4ZF9JgxiNj4OVYVVwWV/iVbh5QFMppioqAtLKDh6BjExMYijv6io6MQWCNnhBojc/SMIzgGUboylJijER1Hz9BfDD0f6sb6cGz4E0cSzsXVEwYgLCQIIToyuupEWeeEErKTsIxCVKQZqXvSaxJ22DJQUGxAGA36OJ9wfcxN2WseZg8TYAInERh29VTo1n6BzdUGhRRANC1NZAQCj+zFOtGjUe0qMk/AGkPygVpg7dXqm/SQISQYgSSLisMjEFstS2JiohFEb4YOiQko27URx6XIhBypeVTy1dwkBSYeKfHFWL9ejBZL7jAO5cRCDC6LXXarJYF0k49MgAm0AwJCr6grH+qM1bjJodT+I9E5Voe8YivCo+MQG0d/JD+iQvVOnUHoDVJIN5G46BUihAL6gFhUFB5CSWG1kLNQB0pONipZX3CHkK+dAgE2gJoNrxI5aWlIO3gQBw8cwOGsIjhSLsW1Q/Lx6dylOJqRgYwdP+DNtWG4/so+UFCPxvCIQnyzbgcO0jNbd/yJv3cWQ+OuBoLOwgNXxWHxi09i4boMHEo9iNS0Q8gq0SI0hKycqHG49qxKzH/6RxzLOEJrfv7Ge5+vJQWEhI2dRnyEpSQ5Gma20bC2CYm4/MJErHztPWxzPrMLP3yxDEcrRJcN9bDYqMen+jFFygDEZq/AH3szcXzDd/h2V3nNNteq4CAYjx/AurRU5JbTsyJ+MQpF0vPMSyehaOO3WLb5CNIOp2Ptxx+guO/lGEoLgkT8VvkQNvX62qwibXZMgAl4TCDiX7SAWIuvXn4Fv1E7SyXZcGD/fiz5jL6vETEEl58Tgm9okXLGkcM4svdvfLLiBC6eTIuYqYFWyYZqNYfkhJXan03bFRePj8TCl38kOZKGQ2lb8c3Py5GTSx01g67F+Mj9+PGrv3E4Ix1pP3yKxQUKBAUEoCznMPbvPYh8mg1L+8JR+yYZU6nCv66ZANuKV/HDzqPIIBm45I0vUX7BdRhO01zMJANsQkhVOzHyYyOZUHtFusNHJsAE2oqAQ7zD5e9mZ8JihFbWXp3veclECkRwQA62rc9EXpkCo6+YCM2KF/H5tgykk9zZvPBT/H7MDJWC9AKhV8hauDiX9BMHyQybpHRQms5zobuER2JEvBWL1m/G/gOp2LXnd/y2qZDWDjVmlLUVMU7HVwioHpn16JOeFkZPP8C51LtXUCk1BHqSXmizzulAUxr86cdJa15oDU3+gcNIP3YMR49mIN8ehI5x0UgZciYistZj3f50HD6uxDn/uQH9aZTFoQ5ESt+uKN2/AwcO0bc4bB3RsbPote2KbtG0w1KdSnBAlzgMZ/YKxN6Nm3DkeCaOURr26LNw0ZhkaEhGxPQdgIjsvdhM8/WPHCpFv3NGIz6YtAwSKJrwTkiOD3fu4iSmnilCOiKlcxRCEweji+oItuyhfB8+huD+ozGApqyJjhWFIgSJXRIRJJYO0fdFukUUYcfW3UjVnIGrhkZCH9cdSREaKEM7IEZRiH/+OQRLeA8kh2thCO9I3wIyQhPSBX0SHNi9ZRsyjh5BWfxFmD5BLH4UjvIRTOuMUmho23lKhQiMRfeUWFqp4F8ut6AYgQa9c/2UWENVtY5K1EHVr0A6+hIV0cMo5Mf/rcqlF6CsZPTCe/Lc2rVnsjvsrYdAUMooDO7owC7Rzkg2HM/MQvzZ09CV9jAI7zYE3S17sYra+JFjJeh+3hSM6Uw3hIShJmeITkTHqGAoqT7Ukcno0ikMYUk90bHiCDYdJLlwJA+xPWgNYVIELcvRoduQfqjYvx4709KRbumIs+mDx6GB4QhR5mHP3gwYuvRGnN4BlS4SSZ1ioY/ohjHd1diwlvJ2JA3lXS7BjPOTKX1KnP7Xh8UhuUNYzTombSA9R98Q8q/3Rz0V6+Hl7LxChAZVDd37i/wQsuPltfkoNcuEB+kej5PsUPLIgIe/nHqCCVlAO611qtYZqkJVyYuA8A5I6RDinMIu9IokartqhKFLRyXN9jgAa3A4jRT3w5ldlNi9dS8y0g8jM+wMTKX9s+1Cr6CtIOOTOiNEX/VuE0IgiLbXjo8IIFWFPuDcuQc6h1dPXSH5ENqpG5Ijg9GpV3dY0/dgX+oRlJYloFc/Ja0N6oxeCeE8WbaeavTk8on8IgQbq7YE9RfZ0RAXRWl5Jf3s6jqhrAgnPwq/mAqVMvcg0gqqFsk5A9Gkz/LnBiPA7VCGMwT/44aAo/hvPDN7IybdcSv6xzlXAboJxZd8kcDe1AzERobWGEBKWn8lnGT4SEdvLbtcbogyiHM7jUCE6pXQP7sPJqtM5NB0LccLQ7y1qJxvJtDmBHb8cxiJcWJ/Tlo5RbJDkheuxzbPWAsk6E52SLpHh5cPILNUfMa32pHuYZ0zhEYaJOVausFHbyYgftd1atS6FS/M+gWjb7kHo5Ia3M/fm4vdJnnffTAd8dHhzrSEvPA13aOpEGtWjTT1QQ7fRAKlR/DV/Dfx575iZ4+VJjQOl97+OBk/TYyHgzMBJsAEmAATYAJMwAcJKCqysPij1/DDtkKolQqojaG4cMbzGNXZBwvLRTqtBNgAaiv8gbQG5+45uLxOeif1ddS5yydMgAkwASbABJgAE/AbArQJwsRbZ2NinQKzrlQHB5+0CAF3S/BbJGKOxBMCdQZ6PXmAwzABJsAEmAATYAJMwI8IsK7kR5XdZkVlA6jNUHNCTIAJMAEmwASYABNgAkyACZxuAmwAne4a4PSZABNgAkyACTABJsAEmAATaDMCbAC1GWpOiAkwASbABJgAE2ACTIAJMIHTTYANoNNdA5w+E2ACTIAJMAEmwASYABNgAm1GgA2gNkPNCTEBJsAEmAATYAJMgAkwASZwugmwAXS6a4DTZwJMgAkwASbABJgAE2ACTKDNCLAB1GaoOSEmwASYABNgAkyACTABJsAETjeBUzeAxPep2DEBJsAEmAATYAJMgAkwASbABLyAQNMMIDJ2AtQuH6Sia3YvKChnkQm0FwIKpUsbai8Za+18kKwwuMoPFh6tTZ3j9zECSmXTXtu+UvwAjYvcJNnh4A5YX6leLkcbEFAqRBviRiOhditJFU5IUpDao5WkTc9Ibe0F4SOWOaWWutf4jAkwAbcELFYb1D6uwDQkP/pE6+r2mJBMKaq0uWXFF5kAE6hLwGS2QKNW1qvC1Nf26sbSfs/qy7/N7kAvoXvIdTehe5RZ229hOGdMoB0RsFisUKlI5a9uQ/W1tXaU5VbPilsDqL5UrdTjMqFbECkwMilEMWzLrKjvEb7OBJiAjEBpWTnUahWE8PEnASTKKuTH5B7BgE0uPxQkP8plhNjLBJhAfQSKisug12n8Tn5Y7Apc1J1kh4vusfU4y476fit8nQnICRSXlkOrUYOEh1N+OHj4FA0aQHIFTfgrrQ5c1y8UHUM1NVYkVAr8kVoi58x+JsAE3BCw2e0oJCFk0NMoSLWT2ph0lK77wlFeJkl+3DI4FGFBqlr5QdMBWX74Qm1zGVqbgJVGj4uoAyXIEEBTv2SdCJSwvK21dj7aIn55eapkhx3TB4YgNoQUOKnopHv8zrpHW1QHp+HlBGw2O4pI9wgM0NeURGpj0rHmhh95GjSA3HEos9jx+vkxNJRGd4UgoiG173cXuAvK15gAE5ARKCgshYOMILUYhvZTZ6HRnznjo0ljIwBCfpABtHB3oZ/S4GIzAc8J5BYUO3tw/VVhKbc48Nq/YuCcQcy6h+c/HA7p9wTyCkvEwA+1HZd1dH5ORvXIrEefbIyBJHBFr5Od/rqEaxEVoMJf6eWwkkJTUmFFVLAWQxOMjUXF95mA3xEQIz8n8otQUFSC8JBAEkJKZ4+taFfSgmapjQk4cr8vwBLlkXqsRce1WEeopd7b1RkVzkXMueVW9IwJQO/oAF8oLpeBCbQoATHyk51XhMpKE4KMATWyw5388EXZIWBKukfXCC1CdUqsTK+AjXSPonIbEkK1OKODoUWZc2RMwBcIiJGfHNI9ikrKEBZs9Dvdo7E69MgAco1ETMPtR4uZxaLEjZmVKKF1iOVmGwaTEIoOpOlx7JgAE4DFakVeQQmycgtgt9sQGmR0LkIUSor0JzDJ/dK5L+MTfVCDO+jROUSDtccqIOb3W2w26kAxICyApriwYwJMAGba8OAEjfpk5RaSjHA4jR9554lcbgi/5OR+6ZqvHEUHysBYHbqRIbThuAlk/6DCQrpHvAFRRtY9fKWeuRynRsBMGx7kFRYjk3QPh8OOkEAD6x5ukCpKyyvFYLJbV9trWxXETj3Z4pp0XZyLKS1l1DNVWWmm0SA7FASbpLXb+PgiE/APAg5qAkqa6qaCXqtCoEFfp+dFUlzkR4mLrygvkowQ5ZL8rvJDjIw55UdFJckPC2xkJNJYET3B8kP6PfDRPwkIOaChzVL0WjWMQn7QuXy0WC475DJD7vdmcpLMkI6usqNG9yDZUeGUHaR7OD/IwbLDm+ud837qBIQMEBstOXUPWvPjrtNELj+kFH1Fdkjl8eTYZANIRCqEkvxP2DuiZ8bpajzV53xgAv5KgBqGeB07VXrRSMhJwkj4fVkISYqLKKfkF0qLdF5HfogwVXckj/OM/2ECfkvAKS4alh9yg0ji5AtKjCQvRJkkf72yo0b3IAki6SASDD4yAX8l4Me6R1Oq3KP5JkKoCkEkP8oTkYSUdJTuuZ5L1/nIBHyRgKvy4Ynx44scRJkkWSH3S9dcOUlywrXvRLruq4y4XExATqBOuyBlXvSZCJ1euu7aeSKele65+sW5tzpRJqntS375UV4uKRzLDjkV9vsbAbkcEGX3RPdwfcbfmInyemQASWDqAyZdl4SRCC/80nXpeT4yAX8gIP/dS35xrM8vMZHuS+e+dpTK5yobxHXXa6LHV+rh9jUOXB4m4I6AaAOuv3mpzYijO7+7eHzxmlR217JJ1wU7ybnKEuk6H5mArxKQfvNSexDllPzi6M4vZyHdl1/zB3+DBpCAIgkWyS8/ygFJFSC/xn4m4G8EXAWJdC4/yv0SH+madO4LR1Emd/LDk7K5KoKePMNhmIA3ExDtxVUOSOfyo9wvlVe6Jp17+1GUx53scKdnuLvm7eXn/DOBphAQ7cVVBkjn8qPcL8UvXZPO/enYoAEkQAg4ngoifwLHZWUC7gi4ChP5ufBL59JRxCH3u4vTm6+JstUnP3y97N5cb5z300PAVRbIz4VfOpeOvtyGRBnrkx3y8p+emuJUmUD7IuDaJuTnwi+dS0eRe7m/fZWmbXLTqAHkmg0BjHtcXKnwOROoIuAqUOTnkl86+iMzUXZJfkh+f+TAZWYC7gi4ygb5ueSXju6e9+VrotyS7PDlcnLZmEBzCLjKBfm55JeOzYnfF59pcBc4eYGlnhjpmuu5uC5dk45SWD4yAX8iIAkZcRRtQX7uykG653rd185dZYL8XGIkXZOOvsaAy8MEPCEgyQRX+SGele5J8bieS9d96egqD+Tnwi9xksosvy9d4yMT8AcCkjyQ2oT83LX80j3X6/507rEBJEFxJ1zcXZPC85EJ+DsBd4LG3TV/4OROVri75g8suIxMwBMC7mSFu2uexOXNYdzJCXfXvLmMnHcm0JIE3MkJd9daMk1viqvZU+DkhXQFykJJTof9/kbAtT24lr+x+67hfelclN1VPrjycL3vS+XnsjCBxgi4tgfX8I3ddw3vK+csO3ylJrkcrUWgMdnQ2P3Wyld7jbfJBpAoiASxPkVFut9eC835YgKniwC3DZYfp+u3x+l6NwGWHSw7vPsXzLk/nQRYfpxMv1kGkBSNBLQ+Q0gKx0cm4M8EpHbizwzclV3iwvLDHR2+xgSqCEjthHnUEpCYsOyoZcI+JuBKQGonrtf5vIrAKRlAEkSGLJHgIxNgAk0lwPKjqcQ4PBNgAoIAyw7+HTABJtBcAsrmPsjPMQEmwASYABNgAkyACTABJsAEvI0AG0DeVmOcXybABJgAE2ACTIAJMAEmwASaTYANoGaj4weZABNgAkyACTABJsAEmAAT8DYCbAB5W41xfpkAE2ACTIAJMAEmwASYABNoNgE2gJqNjh9kAkyACTABJsAEmAATYAJMwNsItMgucA0VmrepbIgO3/MlArwjUcvXJsuPlmfKMbZPAiw/WrZeWHa0LE+Orf0SYNnRvLppEQOIBU3z4PNTvkWgvnbAwqnheq6PW8NP8V0m4FsE6msHLD/qr+f6mNX/BN9hAr5HoL52wLKj4bputgEkBy5BVoi06B+Ho+FE+S4T8GUCCtEQqA1IzcBdW/Hl8ntSNndMWH54Qo7D+DoBlh8N1zDLjob58F3/JcCyo2l132QDSC58VEQ7QKeEpbISJeUmFFVYYLbayQCSVL+mZYZDMwFfICA6BMSfRq2CQa9FkNHgNIZEu5DahtRp4AvlbUoZpPKLZ9RKBfRaJUwVFTXyw2qrZdSUeDksE/AVApL80JL8CAjQVcmPatkhtR9/lB9S2UU9q0h2BJDsMFfU6h4WG+sevtIGuBzNIyDJDqF7BJDuERxIuofojGXdwy1QRWl5pcfWilwACeUlvciM+37NxME8E/pG63D7sEiMTgpxAnebGl9kAn5CQDSqSpMZhUWlKKGXdFRYMIwBetiFNJI5f1Jk5PJDp1JgZ3Yl7ib5kVdmxeAOOtw1Ihr94gJldNjLBPyTAHUDoKLSjPzCEpSTHIkODyaFRl/TgSJR8Rf5IZcdGtI9UgtMuGdpJjIKLegXo8Wdw6MwLDGYdQ/ph8FHvyUgZIfQPQoKS1FaaUJkWBACAwL8Wveo78fg8QiQXACJyPbkVOCyrzOQmmtyTnsThs/ZXcLrS4evMwG/I6BRB1DvbQAJIwvSM0/AbLEiJMhYh4NoV/6gxMjlh5jqtvxQKa5emIETpTYoaS/Kaf0icEbHkDps+IQJ+DMBTaDa2YNbVmHCsaxckh12GA0BfodELjtE4bdmluPybzKQXmAm3UOB/2fvPACjqrI+/p8+k14hJLTQiyggWBBsgAXL2it217Ku3V139bP33nfVtaAIWLCjICooigjSkd4JPQnpyfT5zp3khckwCQmkTPlfDe++++675ffeO3POrSN7JmNYt9SY48IKk0B9BExGo7/nuEoMobzt+XDLyCzVGxToYkX3CKxzsL9Ry2AHCiClvOwoc+EiEUDr88X4kZZck0mPx0dnB6fNcxIgASFgtZjQq2u2v0W3rKKqdm5QrMAJlB+qzst323HlF1uRX+r2N56kxRlx5/B2sYKD9SSBJhGIl2FwPbp0QKX0CFVKi26gC/62Aq9Fgz+wfkr32FzsxCWTxfgpFOOnZhjcQyM7RENVWQcSaHYCNosZPUX3qKy0o7yyqtnTj/QEG2UAaZVUg3fiZc7PHTJsZa0MX4FRRJKM2R/TKxmZ8Y3uTNKS45EEYopAl5xMvwLjcXvqDGUJ/JGPNiCBdVOj/2wiM+6cvgM79ogCI40nSn6c0TsZiWZDtFWd9SGBZiOgl27S9hkpKC2v9MuOut9V3WG1zZZpGydUt46ie8icH6V7bFQNrzW6x2kiO9Js1D3a+FEx+zAmoEaYdMrORIUYQR6P6B4BZQ38xgKCY8bboAGk4AQCko4ezNpUjimrywB1opwoMEoI0ZEACTRMQHVLJ8g8oEpZNES5wG8r0N9wKpFzNbhOJrFxpq4tw6/rK/bKDy/lR+Q8UZa0LQnEWS2wmkwolzmFqjck8PsK9LdlGZsr7+D6KNnx44ZyTF9bvld2iO5xOnWP5kLOdKKYgMVskjnIFlSI7BDBEdWyoymPsUEDKDAhJZCkAQYfLS0RgAFXRIE5olPdsYUBV+klARIIIKDG4dplKIv2A68dA6JEpVeTH+8vLpKhKwFVFFkytFPdeVEBV+klARIIIJCanICKGBtGq8mOSUuLA0iIV3SPI6l71GXCMxKoh4Caf6wWVtEU+FjRPerB4Q8OVEUailcdWcbc/rFDxhGq5ifNiWGUm2bVzngkARJogIBamlIt1xrKRZNAClUXvciPOVuV/AgQICI/OiebQ+FgGAmQQBCB+DgrHLKYivYFBX5ngf6g2yLqNFQ9lOyYty1Y9wB1j4h6sixsWxKwSQ+yU4bf1+nAqClQqG+uLcvaWnk3ygDaC8eHwkqZuBzoRDCZNGkcGE4/CZBASAJeablU39Te7ypktKgJ3FtPH/Jlyeta7U3VUM0DoiMBEmg0AW/Nfjd7v6tG3xoREQNXxdxbRx8KgnUPGRanlsSmIwESaBwBr1f2ypKoe7+rxt0XrbHqNYA0QMHHutqLYKH8idZ3g/VqMQKBY0ijWxjtIz8oL1rsrWLCsUHALz0CviPtG4uW2mv1CT6Gqp80I4UKZhgJkEAoAkGfi/aNhYoaC2H1GkAhKy+t1iH7z0JGZiAJkEB9BJTg0f4C40S1QPLLj8Da0k8CJHAgBELJDpVO1MoPyo4DeU14DwnUJSANJzEnO+oSqHPWNAOozq08IQESOFgCgcM9DjYt3k8CJBAjBIJacrVaU55oJHgkARJoiEDUNpY0VOmga40ygAgqiBpPSaCZCMTCtxULdWym14HJkECTCET7txXt9WvSw2ZkEiCBZiXQKANI5UhB1KzcmRgJ1CEQ7d9XtNevzsPkCQm0NIGAOUAqq2j+vqK5bi39mjB9EtgfgVj+vhrcQnkfMByHu793iddJoFEEAr+taB22ElhHPxTKj0a9G4xEAvsjoL4t9TlRduyPFK+TAAkEEgj8XY5W+RFY34b8je4BaigRXiMBEiCBhggECt2G4vEaCZBAIwjUMweoEXcyCgmQAAmQgBAI2QNEZSWy3g2X04XCKi9Cb68ZUBf50YxPMCHZSLs3gAq9zUyA8qOZgbZxcm6XCwUiX5ISLIij6Gjjp9Fw9urbi+RWXcqOhp9veF71wet2Q23T5HR5YQ9SRKwmPcyy31u8RS+7plCAhOczjM1ShTSAYhNFZNa6rKAAT3y/C9N3uuDaT6ugRzYB7tUzBWOHZOGcjtbIrDBLTQIk0GoEXI5yvDd1M17d4MKh/bPx/MntkNFquTMjEiCBsCRgr8T8vEosLfKiuNKBopIKbCj1Ir/EiR0OQNuf1qvTITvZiMx4E3IzrEiNsyHVpsehHW04PCMuLKvGQsUOARpAEfysvZ4K/OezTXhirVTCGDQrNlS9JMryOQWYs92D3td3R3/ZSZuOBEiABOojsH3Tdtz1ayVKTDos+WELevdrh3s71Reb4SRAAtFMoGrXLjw+qxS/FdixrtCJLeXS3eMVxUKpH/4/9U9d9+culwRUyUodpWq1DkB6grqkmdEjzYrhfVNx3xEZoCpSlxnPWocADaDW4dwiuXi8e/D1KhEo0qJS6+rrBdLkkhhKhUWV+G6LE/1zzbW30UMCJEACwQTWLC9DiV7ki1/EGNE1LTgGz0mABKKegNeNKTNX47pZduyWoW4epWconcIggmG/1oumfChK4hebaXOBE5vznfhpXRnenb8H71zYFSPTqY8oQnStR4AGUOuxbvacZB2gakGkUhaBZE42o7fNL1/2yatcBuhuLfNCRsHBK60wdnfQQN197mAACZBAbBMowXerRWIYRMPxioBpF4fT42ObCGtPArFIYO2yNTjnmyq4bDXGTKBNc6BAJA2PyJUtm0swZvJWrLm8K7oENuYeaLq8jwQaSYAGUCNBhX00pxvnn344PugfuqSr567DyK+Lsc3XjAIsdFYMJQESiAYCewrwQb608Eqjippg2GNAOpKjoV6sAwmQQJMI/DSnHC7zfrt6mpRmbWRZlMkpPUGz7R4aQLVQ6GkNAv6BDa2REfNoYQJi1zidql86lHOjVBQY9vmEYsMwEiCBUAS2LazALpn743ceA24YmBIqGsNIgASinICjpZUHtw9lUc6Q1Qs/AjSAwu+ZHFiJxPYxacrKPikYkCBzf2pUmX2uMoAESCD6CbjKCvGPd5ej8ytr8EN5fY0lGocyfLxUJi+rRl81/K19PC6qM//Hix0LNmLQy8sx6rOt2L6/5LRkeSQBEiABEiCBMCDAIXBh8BCapQhmIyZ+tggzplQvtFInTbF87NI7VKoNf6tzkSckQALRTsDt2I07/rMFrxarZpAqjH5/Ixx/64Z6px0XFuHpQomqosuM59490pCsJjxrLj8fJ35fhFVlYvnssONcjx6Tz8lGTguNktGy5ZEESKD1CaRaA7795s5erQwnG4x1aMEsmrvITC86CNAAiuDnqNMZYNUUDqWoyA5kO+31VEhdr3EmWZu/vc2knfJIAiQQxQQcZbtw92t5fuNHRAZ8YtDoZW0DtSBKfW7Xigrs1C76DDijpw0WTdaocBmyYlU9Q8qJ4vL779twWZwRH5zUDtkULdVc+C8JRAmBk0al49Ate7BU9vhp1r1M/SJEh4FDMjDCRnU0Sl6XiKkGbe6IeVT7FtSoT8dlh4tWorZeVrugilJSuyycMnj8Rk9NuLqu/hwedOuagpM7BGoz+6bNEBIggUgn4EPF7p246c1teKlEhsAq40et/phswxOndvCvbRC6hpX4Yq3au0OciAwkmXFkmhF17JoOqXj+yDgkKpkjTictxDN/3IwLv9mBzdVB/nD+QwIkEPkEMjvn4tsrO+CWviakeqXpRM03bqgFpaEqq4YTl8ghpxfpmTbceWpnTDszG6nmgFbahu7nNRJoJgI0uZsJZFsko9NbcckZPZHStQALC1x++8fn8WLOmgr8UiIlEnliSrTg5sOsMIuiopa/TuyQifP7J6MjTd+2eGTMkwRajUBl/i78bcIOvF8oCod87z6leKTG4Y0LcnFdN7W0Wz2uohKT9tRoNyIzstonoEeyNSiyBSeM7IHv49bhpE/LUSqbG+pkCdtf52zDOeUufDy2M7oH3cFTEiCByCSweOVOHNI3Gy/lpOPyrXZs3paPj5aW4rNNbrhlXyDIqBLo5U/ZMIG6hYgc/xxC7Sin1kwzLjo0BX+RYbVdMmwYlG5CyYZ8LMxOxWArVVJBRNdKBPi2tRLolsrGmpCIc45OxNlqHK04r92JpwqX4pcikUJ6HyxJ8Xh0TDfY5LqKoVOCio4ESCCqCbgqZc7PuG14v0iqWfPJ6xPMeO48ZfzENVj30s1ObKtSBlC1NjM424bchFC3mHDkUb3xs3E1TvikAsVqERZZbGXhygJcNFGHTy/qhM6BylCoJBhGAiQQ9gR+m7UFx35XhP/9pQsuzE3G4fJ3+pFevOX1wl5RhT1FJfh1pxNFxU4syffAVSNzTDJGf1AHC5ITrBjRMQGpyfGwyjWrSQ//mk2eYrz31VbcMMuDl+9NEQMo7FGwgFFEgAZQGD5Mj8uBdVsL8OsWBzzSqlIjSxpVUp90Lc8rUcaPiq6DS4TT279vhFVGtFSbSI1KBj7JNycrFcO7JCOZb0njoDEWCYQBAY8seHD3y1vwhlrwQI10lQ/fJOPr7z6vB27r0bDxI+NSMHtbCQqr5D4leESB6dsxrv79f3R6DBzaE5Mr1+GS7yuw2y9kfJi/eBcuTzRj0int0aHO2LkwAMQikAAJNImAT0asle2oxEX/WY6L4k247IhU3DokEx2lUcUcF4ecxHhc3U10lVANrNL46pXe50oZheJ0e+Rox+oV+XhhVjEm5klDizSawGtskn7SpMIzMgnUQ4CqbT1g2i64Eh9MWIMrtSVom1wQESaqaUUpL+IcxVW4+dPK6pOm/uvcheFjemD66HRwg+amwmN8EmgLAmV48c08vCDGj3/OjygetlQb7v5LLh7oHVfdC9xQsapc+FGGuBSpFSPl/2SbGcM7JzZ0h1wzYuRx3fCBbxNu/KkM69X0IZFBP8ucoL9mxmPKUSG7j/aTJi+TAAmEFQGlU5ilZdXpwfifdmP8D7v8DSztZUhbbpoJx2QYYbFZ0DnV7LdpVNldDgfyCp0oL3Ni7h43/tzuQoWSD9Jw4tdTVHrKNaV1tvoO/ksCB02ABtBBI2zmBDzl+GSbNLc0l8WhWmQOdHKhyKa52ypkvmKaFEdJPzoSIIGwJuAsxYRtUkK14IEqqBhA1pxkv/GjAkI10AbWp6zEjrW7ZFC/UlDEpciCCSNSA2PU5zdj9FHJ6PpbuRhANdqMrLH98ybZ3pAGUH3QGE4CkUdAqQIyhE1bFWVXkQe7xLj5fa2E+0qDjBmJrESJukcJH4MIJtUrTUcCYUCg+lcuDArCItQQMGTgyaNEc7BL17Aahx/4p8LkfyVLqp0oGoHXG+tX6YiNVZuOmhwd6l6PDn+V3d9thtqYWsY8kgAJhCMBcxZeOUo0DFmu1v/VGvUoWrUbw7+R1tr9fsZebCkuwpJCiVgTN7t7AtIbU097GW6dtBOzKquNH51/TqIRD8lQGToSIIHIJlAzxTh0JZQWqXQENZRNGUaqV6f2ryZcXd+PtlnTbBI6D4aSQAsQYA9QC0A9uCT1OGTkIfCNDJGKx42JX/+JS+eIAWP0wWxKxOLHeqNviKgNBlU58PAHS/HABpFIOh+SO6ej4MZcGchCRwIkENkEDDjmrMPwg28xRv0urRzqo5YGjtlztuJ42f9n6plZ9S9/LdG3rK/AZtFVqp0e5x2SoZ3Uf7Tb8cRn6/DyakmgpnXXpzfgjou64+ZunNVcPzheIYHIIJDaXCNSQlVXWVdxBm6EGooNw1qUAHXeFsV78Ik7xVjZXObxb/Wj93iwWU3n8SsoOvh8HqwqdsAnPTou6V7OjDciOyHUjGOZgFjuwKYKr3+bILVS3E5nrZYDj8uDJUV2WBxyXdLJksnL7UUg0ZEACUQiAR1GnjUAE7ASl813SGevfOuiY/z8+3ZcEW/AmyMzkRKiWm6PC3PWSteRGqailBKZ2HxxVoiIgUFVFXj9izW4Z4E0yqjlnZST+68a3RlPD07S7KHqcP5LAiQQkQROHpWBQXmFWKR6eJtzRIgafSLD6089LgsnyOIKdCTQmgRoALUm7SbmVbRtJ/79/W58tt4BWVmyxkmvTY1t4nJX4pynl1aHG/QY3CkBV4/IwU19AyYdi3zJ27Qd/5qWj0+3uSA2TrVTY/z9XdI6lO8qxpBn1Hq54iSdYd2TcePIjhjbia231VD4LwlEGAGdEZec1hN2rMM18+x+JUONe/3kxzzZC9mHSSe1Q/B6cK6S7fh4uxgxSg+RDVM7DUhHh4aqXVGCxz/biHsXVxs/atibz2fA9ad3wWtHp2piqqEUeI0ESCACCGR06orp18ThuVn5GL+iQpbJFzmhhrypucHyf5OcMnpqNlDumZuIsUPb4bahadjfUitNyoORSaARBGgANQJSW0Txeavw7td5eGODEjRqqFqoUijhU3NBdJCFG8uwsjgPvTv2xagaaeLyFODBiTswUeYmKuOmMen8troYGyp1GHhddxzCNyQUeIaRQPgTMFtxtWyUnOpbhXPmuKGTxVB8sp7tVzPycLrFiBnHpdWpw45lJVjt87eKyPJNRlw3uIH5O+4S/N/Hm/DY6gDjx63HPZf1wEMDEmn81CHLExKIbAK/LdqGPoNy8MRFKRi71YH1e/bgh/lF+HCjE/naIrN6pV9U9+jU6hnS2OJ3yuhRXmm8bZclG7gflo4Tc5PQJ9OGnklGFKzchd+6pmOYLNdPRwKtRYBvW2uRbmI+Xl8hZGSJrAZXY+Ao4VEjS/ZJSkXx/+ngdMg+HjvsYgBV9944dxXhmz1yXRue0sh0KmTI3MoS4JBGzYDep0QMIAESCAcCRgvOPmcAftIvwfGzpftXrQgpGyTP/KMQpWIAJdWWsQpT/5TV31Srrhr+Jqu/XdChxhiqjbPX495cjg+3Sfya3mjV86OMnwcOSeRcwr2Y6COBqCCwaO42nPhDEZ4+vTNu6ZuE/p0ScdohnfCktH/4PFXYUe7Gjrw92ChD6wt227Gw2AO9wYgje1qQ4NKje9cEZMXHo0Ocyd9mqzZC9UsXez6eGL8D9yzx4c1708QAigpcrESEEKABFLYPSjYP08omrSg9eybjwnY6redYuyKr1fqwdXsVPt/sQnlNqAxEqb2uJv2oPQ39Tvy9eyfjggzZIDUgirpm0HuxdGMVpu1w1+7irPQgOhIggUgnoMdxsjDC575lOGe+W751Hdr1TAwwfqR+rgK8u0WOsgClEjLxvZLRSzWq1OOMHa04MtmArQ4PvCYjrh7VGQ9Kzw9H8dcDjMEkEMkERBdwFDpw67urcavM8Rt5RCLuPCwTh2QmyIJvFrSXBteOhyXhGCUzRL5oTSdqA1TVK+Rw+mQ7DR/KnKJf2CuwdFUBnp1bip92iJaj9i30cCPUSH49IrXsNIAi4cnJ7smDhvTEI4eFKqwPK//YgJ+2FKFcbV7YkJNFFIYe0RMP9w8VyYUvpq7FT9Kq66pp1Q0Vi2EkQAKRSECPs/7SDz9n78BMnwX/PKp9nUp4l1ZggTa5WZa/v2x/q79Z0jHhYh9GLKqCrVsKrujOEfx1gPKEBKKRgFrmWhpYf5xTgh9/lXnDSuWQxZeOTJdV3NpZ0dXsg9NoxiHtLPBVVmG57BFkNnixcbsT26WX6I8C6TV2yU1qWL/qbbZoplI0wmKdwp0ADaBwf0KqfCIn3DIpWZpWQpTWiyppsW1sZ41b5E9o55UFEiQdJdDoSIAEoo+A3oQRR3bGiH1q5sQXy2T1N79uI5JEWnPPy26EIMjIwA2j90mMASRAAlFGwBs8HET12pi01Zh8mLvDBcgiS7XO3/MjcTQxoo5qvrL0FofsJhaxI6Pp6EigVQnQAGpV3AeYmQgHk9pYLKQzIFGEkSZnQkYJCDTVO0ZFL0vxSzqNtaQC0qSXBEgggglUFeH57aJ+KCEiikt6pyTk2uoVFBFcURadBEjgQAhkxYn+UZ9uoBk3dVSUxmokUhplXEn6uU245UDqwHtIIJgADaBgIuF4Lis2fTRpPj6aWE/hVMuKthpccBR1SQszGzH+g/kYX68gk5gc/qbR4pEEYoKAY30lVskYfb/zGnBc53hkxNVKjZhgwEqSAAnUT+DY0Rk4dHUhlu7VJuqP3NQrInqOPLo9jgi5h2FTE2N8Emg8gTo2e+NvY8yWJqDTyaRCtVGHZqwoA0etuR/qL0BX0ckYtiQxdDRnSLWid2C3TmPTEUHHRmCNIo8kEK0E3JizxQGHNjTWasBh7U11F0iI1qqzXiRAAo0i0D4nFzNuzMZFXczIUp3DanlrNSpf008alUpNJHWful/0ls7pFow9oSOmnt4eaXvVlqakxrgkcMAE+ModMLqWvVGvy8A1x+7EZ9OrZM6g2KkBRk7onEWgyCiWvgNScGGXvcNXzLZM3Dh0D+bNdVZPPAx9c0BotWA7ZkAGTkgOCKaXBEggCgkY0DHFgEo1x1DkhyXNgqM6xUdhPVklEiCBgyGQ3jkbk65LxZxFJZgiS11v31mG32RPoDUl1bLDPwpF6SmBo1HU8Db53z/MTWUeZ0C/HAuOzElEdoYVYwekok+SWnqSjgRanwANoNZn3rgcRYiccHxP/NaxCD/mlUMWUKnfiZBxy5r7g7ulY1CnBOQEGEt6gw0Xn9kLub0K8evOKti9AReDU1TpmM0Y1i0Dh3eJR0LwdZ6TAAlEGQEdegzpjJ+sJkzfo8eoQ7JwtBhEdCRAAiSwLwEbjh4kf2LVuKoc2FziRr5dlsj2OFBS4UaV3YENhXZU1egZcTYLcjMtiDOZkSxD+S2yilz7RCM6JptlLYQGdJF9M2YICTQ7ARpAzY60+RI0yk7uQ/plYXCfxvU062V4XCiRYrHF4TgRWsNV13MjnNonhI4ESCBGCJgtGDGoC4ZJSy2//Rh55qwmCRwUAR1MNit6yMalPfzpVDeX+qQRVS0ApznVGaSTf6hRaER4DCcCNIDC6WmELItsKtYsM7V0otyEzICBJEACsU5AlBRtG6BYR8H6kwAJHBgBZexQjhwYO97V+gSoErc+c+ZIAiRAAiRAAiRAAiRAAiTQRgRoALUReGZLAiRAAiRAAiRAAiRAAiTQ+gRoALU+c+ZIAiRAAiRAAiRAAiRAAiTQRgRoALUReGZLAiRAAiRAAiRAAiRAAiTQ+gRoALU+c+ZIAiRAAiRAAiRAAiRAAiTQRgRoALUReGZLAiRAAiRAAiRAAiRAAiTQ+gRoALU+c+ZIAiRAAiRAAiRAAiRAAiTQRgRoALUReGZLAiRAAiRAAiRAAiRAAiTQ+gRoALU+c+ZIAmFHgDt1h90jYYFIIGIIUH5EzKNiQUmABGoI0ADiq0ACsUxAdu7WOezY7vDBTGkQy28C604CTSagE/lRXlqFSr0eFB9NxscbSCDmCZSXVcEh8qMtGlEos2L+9SOAmCYgCoylsgA3f7odyz16WNtCCsX0A2DlSSByCegMeuxckocbfyuGyWpoEyUmcumx5CQQ2wR0eh1W/pGHB5eWw2RqfSOIBlBsv3+sfawT8AG+JCtSthXiosnbsN6nh4FGUKy/Faw/CTSKgM/rQ1YHPb6Ztg13zCuGzkjh0ShwjEQCJACf6B+ZGT785/M8vLquEsogak1nbM3MmBcJkEBLE/DB5fbBLdk0TpR4UYUMvHitB5e9sQuXf2fChyMzkEnJ0NIPiumTQPgREI3ELvKjkcJDyu+FsWt3TDt9LY77fCtyErvixlwbDOFXM5aIBEighQn4RH44miQ/gKw+3TG+YB0uGb8ZHW7shjPSTS1cyr3JU83ZyyKsfc7CtdhSmYbsDmmI01rZqvKxbrsdyelpSEuOD91yLy9k+e4NWF9sQvfcHCSY9/1pcu5chdUl8ejWrSPiTY1Tm8MaVswWTgeDvhh/f3wDxpVL526jH6UoPHp5L+Lknlk78HynODzRLy5mKUZVxd3FWL1mG4wJHdGlczIORODbi3dgw8at8kt1CPp1sNWDx4eyXTvgSc9GyoFkUk+qDG5FAjo9yresQdZzpYC1iYND1O+K6C3/+mQrht3SHUPkfm8rFp1ZtTwBR3kpHAYbkmwHq6A6kZ+Xh52FJUjsNhhdk1q+7MyhdQis+XMNDn+7ErA0Wvmo1lPM8qNh8OLi9/Ow/Pbu6AYfPK1QZP5UtQLkg8/CjZ8evQGPbOmLG+97BpcMrFZCKuc8g0vv34Lz77gHd51zaFA2otQqDVjmeCx5/xZcMHMQZkx6FL3NKppP/pPJ78q7aSYevfdf+Gz3QLz4xksY1c2qQukilIDXZ8M5J3VEe6foI42WQXqYvOWY8GspinNTcGq2/yWJUAIsdh0C67/E369+HsYTX8TUx0+ovVS+9DO8+8sumILGO/q8HqT2GYHTjz0UCf5fBx+2zfkEt9z8IPR//xXTb+tXm4byOIvy8OfCP7Bk5Ros+X0+KrqdhbvuHove8XWi8SQiCPhgSc3Aw2clwSHPvvHiQy/GbwFeWurGyCGp6CmCh8ZPRDzwRhfS5yjB9Lfux1c7e+L2e/6OfgdltLgw972HcP/E2eh2zeeYfGew7tLoYjFimBFo16EdHjzLBZe0hzRWfuhl2NuWTfkYt06HC45ORcdWMn4UOhpAYfYChSzOzil4ZV4Z3LpN2PLnZ3h44hJUGc3IX/4LKst8mPnxq9g1P10MaDFsZA5HhwGjcPnYE2Ge9w4e/HgFdq7ciZTyxXj5wbuQaO6I8x+8DYeLDbVz9ju477l3MXt5EVzmeXjyseeR8fQ9GJgeshQMDHsC6vlbcNIx7XFqY8sqBrLRV4JnPyhARVo8/nNuDo5LNfjH5jY2CcYLVwIuzJu+2D8kIf/X53DZ2Lfg8qbgtDsfw8hF4/Dgo4ul5zgJ8WYvysoqpcXNAIvFhD7nJuGEozUDSDoHRdbEJyZBX9t7bMeyT9/Cm1P+QGFZEXZt34ptu/egypCGfsYN2F0CGkDh+ko0VC4ZLWBKSsW/RovyotrPGuNk9SbntjycsMCDY4a0w1vHZyBJOo8ae3tjsmCctifgLM/DHz/PwIxVP2PTDh/GvXczcvZXLHcV5n/yGJ76cgOspr0jT3TS6FKxYyMMcSnY8vm/cMmyTBg93tp3xh2fjQtu+DfOHpiyvxx4PcwIpGWm4Z6RjTd+VAN9wfrNGPE7cOGJ2XjxqNRWHT5LAyjMXqB9i1OBL1+cjN12J9LPvQsnmafhb19/C4fNIsOdZAUvow87Vv+BHWuq7W2vx4C+3u64cKxYt9sXYur02bCJ4mL1bcecn/JEyPTD6HuAeRPvwr1v/YD8snic8fx3uCH+C9x8x1u46tSfcNodL+HRi/ruWxSGRAQBt6d6DlCjCivvkKG4BK9v1OFZGbpyRiLgovbSKHRhH6loJb5cuAzFpm44adShcG9ZiJkz8zC4ohhZV32G3ZcU4ZvXbsUdn2Zi4ozHcKhpCx4+Ywz+lKFQe528H7LSl9+pYZJ+58X2dauxeNESVCalo/+wC3DrOefh+EFdECdrqWvRayLzEEkExAhyqgmEjXRqzvLG5SVYl56KFWdlIdG9V5FtZBKMFgEELOmH4N8vvoayO/4Pvyx9G1fclospL56OhseLeFG6ayP+XL4CNtE0pX222onSaxDD2efzwlu+HSsWb69DwJlUhuNKXXXCeBIZBNQcIGcTxq6pn5rlK0oR36cdXjs+DTbRXbTXpDVqTAOoNSgfRB6l87/E+AUrpRW3C2684Xj0d3fEGxPGwrj5E1z58BSk9RiFv999BTrrHP5hBz6fDrbUDkiTPM3D78LbL/fAI9d9iJwrbsDYkwfBunkanjq1N5YWm8UoSsPoB57EDT0q4fCeiGsuX48XP5yNrx49G9MnnIEX3ngGx2QfROF5a/gTEGnj8Frx3xs7YpQMa6jk2JXwf2aNKqELy36Zhvnz1qHL1R/i4Wu64/vnLsJnPYfgaJmkY9cZoS/ait9+nIfEIfehd1wCDO5KVDripFcoGVbpId428Rqc+fIq2PRuOPXpcI27DMdOsCJ32Ck4KtkGT1UZ/vLWYtw/pFEFYqRoJOCVRRC6pGPJSR2Q7PK0yrj9aMQYCXWydTkWLzx2DU6/7r/YNedRPPn1EDx4RlaDRdeJOusoj8MV4z7CXcPaw6c3wr3yK1z94DvoPPSvuOn205Cjc0P03r1OGUgGqqZ7gUSxT557Tt92mNYjC3FuT6sPneVbFsbvlqdkBV5/YwI27nZIKfsj2/0bJn+3GZaEeDgWr5YhcbL5nN6M4u2rYXdozXbS+r96HYpcw3Fkn6441FaO3aKs9Kzchdlzd+O2m+7GfZVleG3mNhQVFmDVu/+Hq9+UVjux3NVQl7i0Hjj0pH7of+LfaPyE8bvRbEWTVjhPajscp/PS+Gk2qG2fkEvm5nz90QRsMqQj7aMbcfQEI3RuO1IMM3DLZStw1n23IWvuS5i8pTNuvWsQ1v88GQv//AGz8hNwYnoS1CwwW1oX9O7h8s/z2bytCPFZ3dC7fRyyczJhrciXGDp4lGiii1kCXmnW79xTlGAaP7HxDvQZjiHmd/BlRQVmvP0MRg19FsOz9jfbw4R47MSMyb+iULoMC1fMkkUQ1mHZuglo192OTi4xgGrp6ZCUeShOHNUP0gZDF+UElN7ZpXt7oA2MH4WWBlCYvmA+bxEmPXYXPv59q6yoIUNPxL4pnPM2/n7LFMQnxSNJWmnjREvZOP993DN7XMCgS+mCrLTh7KfexeF9srBo+nQkdOqDuPJleO8TD/5602gMvOgW3NZrPbYXFIkRJcJL/uLadUH37GS4CzZi5RZZnSWHq4CF6avR/MUSI4jD3pofa1umqI9LxaizxmJ+3nsoO/Ju3GaahNeWd8Vph5sxZfIKmMvm4qOpblz96NP4qwyP2zrhPcxe5cCwi6/CpacM8Ssf1uNvx+sD8/H1f+/B0xu2Ie7QK/DqQ8NEWanEzBcWQ2+xYf5bd+HuL1CnBdens6DvCVfh2jE92hIB824lAl6Zv0EXGwR8y2ZgrtMuK856UbRZZMhXv2Dwtcf6FxCtl4AMnTWVLsSzdz2MFZZ4pIr+YhSLx2n/A6/9c55/KJxHFODqTiA9ug/5J4bQAKoXZ7RdaEv5QQMoTN8mHRKQk2FGpcGCRFke0COtJFl/eQ3r1j6LhO1Tcfbtr6CwIhdPz3wLx8VXwKn9Bok94xPhYknOhKVyBsZ9WQZTFy/ypbfH6lyE11+bjGMPKcQLd7+HAtl5VwYwwBqfiEPPuB7dN/6BQX8diI8ffw7ua97F8J4yIYSOBEgg4ggYLKkYetQwdJwwAavNiUg0SQ+Q9PCabdJqIuNNck64Gy+Ur8c1X03HybYFeGrCXJTk3okvHzu7dly/zpoIiykf61cthU/85T8+hEdGT8ejJ8pwOVFX9AYTts77GmtluL7RbIFVFlDw2CukJzEOpVmn4xoxgPbXNhxxYFlgEohZAm78PmMRyuzSGuuLR2JcMWZO/BQLTx+M4dkJ9VCROR0emejR4VR8tOhsbJ73Bm665W0kXPIs3rl5EPLmrkSZ6Co9e/SQLTiqjSCjKQFc/qAenAxuVgKBs12bNWEmdpAEZKxsv4sewv/uuAr9u4khooaoiWqSnpGK0u0b4BZFQ595OHKTReGQBRKczuo/R3kljMnpSJbZid6l8/CH14iSvCVYtKoARuc6fPHO59hQ5sGeqkScfM2/8cwVA7C7sBhlJXuwbtlS5FdWwemwy0S2wEG5B1kX3k4CJND6BERmGMxxyP/uMTzwzXZUbJ6NiR//gCKlkMjQ2XXL58C+YS5e/3A6thZWoWT1ZNz/4L14bNx3KKys/v7zV03GzEV6GGXlJj0c+PH+q/FDiQXSdiI9zWU4953VWLNmJcbfcy4Sigpx0kvLsHblQvzvzqNp/LT+E2eOJNByBIqX46sFG1DlcKLz1a/i6Yv6wbPtazz34bIG5m744PUmIaN9ooxaseP7N97FjuzRuO2SE5DdXpY+vv0OPPz2pyg0y1DdtFSkpqYiJSVOZA0dCbQ8AfYAtTzjA8xBh/adD0P7M6vw/tcTA9IoxPczV6GwxAtnyZv4y6GvwCtD2IwmE9SKPF4ZfjLogvvxnwfOR+ZR5+KxG7qgMqUCf3z7Kb5b1x433Xkl+sUvhs61B/O+n4w873a/cqPG0OnUcDg6EiCB6CAg37PXWYl2Zz6De82v4b4FPXHxsVZMfHMBnDs+xjczrbC1K8HaDQ6ZwiHffukG/PbDBiQe2QVXnKNkQSlmjPsYBUmJsHor0fHok2H84wd89OZXGKWXjeq8PdCrk0LllPulC1rJH7dsQKV2xKQjARKIIgIerP5lOpat3gi7eQhuuvwwHL7zKoz4YgV++t9TeOfUCbi2b9DmX9KG4vZ4lGYh7S1mLH5+LF5enYCOHbdjwjP/xmSjNLomJcC5aSGevutaxBu90MniB+fe9ybG+OVKFOFjVcKSAA2gsHwsAYWSoW9q09Ja5/Ch03Fn4Kbeo2CR4SwehwsWfTF++ORLLN5eCF/qMFx68UnI9D/Znjjtup5yqwPG1bMwfaMJVrfs5iw6itcQj659B2OQTGL9ff362uTpIQESiA4C9qoqOOx2GHVV0uPrgk/25SgvlyEpMqVwz4J1cPbogyvvfBzD89/HrS9OgTt3LF58aLQMRclAB1kRcOu0J/HWPCsOPWIgSpZOg37wFXhkUDp2jT4Kea9/KKsHJkIWj6MjARKIcgIe6f2Z9MGX2FhgQP/b78ZINTo+/iicOnooln40G2/e8yyGTHoAAwPWxVabKhfvEZ0kORcJInT6jTwXw5atQtdOSTKkX4wdvRMm6aV2yNDcxKQ0pMgQOGUA2dj9E+VvU/hUjwZQ+DyLxpXEkoERYy7ECJmK/MsHX6HflZeg7LsX8JEMPynXD8Kz/3sap+VWz92xz30Xd4929K3aAABAAElEQVT7BUWyyWGBbFZokpVbnrlvNk6/9VZYdXbs3LwOK72F0nMUYGA1rhSMRQIkEOYEXE4HPPJtb/v8ETwiPTbALkzM88LhyELGkOMwJl96cXYtw1LZhdsty+d7y7dh+bI/ofO2Q1pHPaa/+y1cOcdizJiB+GzhN/BWySapN96JPhWb8WxRMRypA5F7UDvChzlAFo8ESEAIlOLj/7sNX/25G96Bl+OJS/tXU9Gn4OyrLsG0H9dgweYpeOzfspHlC3+t3SBVOn+we9sWeDoNQ68E6W0+4laMH+eD2azpGwtxc++xWJ47GLc//ij6c8ox37ZWJkADqJWBN092Zfjw5vPx9Jw9sLz2vOzaXY5izyF44tM3cVpntYBttbOmOzH3l/nSZW0QI0cUn4ShePKDZzCw4B2MlZVcdmxaIxOWS2Xom9rgUI3V5SZ2GjseSSCyCfhQWlIgDR+JOE82Uh698GbcPa8vrjgxDuNe+x0m+2Z89dFH2KQ2VFaDVNSOdNtn4uVHp6M8foTs9TMMV91xIX5feh5GZ/yEj6WnWLYulGFuRjgKdmPn1o1wD7wUAyIbEktPAiTQIAEfZtx/CR7/ZQ88KUNx791XIzdV2xBZbmw/Ck/c/j1G3fejLKX/Du6+34bn7huL9jIK1ulciiV/eND51L7Y+N9zccHkbf5h+nuzkwaYxDj4ln6Hq0f/UDvOxZnYBX978DVce0zG3qj0kUALEGBnYwtAbfkkE3HRKxNx56gcmPUOlJc4MPTK63FsutayUlOCDmfiv+O/wMKFs/HQuYeJ7tIdQ/qkygh9WcjW0gf/+M9XmPLqebDL1r22nIG4+9UXcXJ2Ss2ExupJ0C1fF+ZAAiTQ/ASkgWPzcuRV9MNRQzuhXaI0jBisSIy3Qe9zwptxAp4Z/z7GvTser996ChJMXlh7XYL/TpiISa/eikHpYhYN/Tfe/GtPlNulKbfWebB57W9YstyNEcMH14bSQwIkED0EfB4XSrb8gaeuOB63fLlNVo9sjwuuvwUXHJG9zwIFaWMewWMj28MkQ22XfPIULr3zHeySheIqF03F3MoEHCb7ESZndkC7du3q/rVPgVk1rJisSM1oX3utfWY64s1UTaPnbQrfmrAHKHyfTW3JfLJPi1fGytZ1abj0yc9xzA+v4pGXJ2Pu05fhEsdkTLtj6N5o8R0waJCc+vJlh3e3pCHLaUsy/ocuQ2Mq187ER7Lym87nljG4SXCVrsPX035Answb6Gyy7E2HPhIggYgi4CnLx2/TvkPZiGsxyKRDaWI7JHh2YebPedhdboQlLQc9s3Kq6+TMkn09ZBfuhO4Y2rd/bUts9UU1A1HmDYn88UsgTxFmf/YxFtuG4u/H1NyvIsp1tSlmsJSqToP/kgAJRBIBX8U2fPLSI/jgj51Acj+cfv1tuPPyI/0bJO9bDzNOffpT+J68EU9P+gUlXpNsXWjHjxO/QkFiLgbmZmHgyFcx5crgOxfi770uxfKBJ+OZFx7HgOTg6zwngZYlQAOoZfk2Q+oGWeFN9u+oxyDpOurveCG3O554eRGOGdU5dH6inOiNepiNNQqKzgeT7Ati0xfip3U+DDvpclw2Mgvbv5iAr+faMeZv/8Jpp3QMnRZDSYAEwp+AJQE9h5yHmzsfiXhpy4g76Z94qudmfPPVhzjvrrNxYoYyVap7jJ1utYqk9BDpXbKem+whVqd2YtjI8DiDXFebH8IQh8NP+SvuPKI9jum4d7cOvcEgY/tFTgV1QtdJiickQAIRQUCf1BVX3vs8EnrNQMKAkRg9rHuQXAiuhhVj7n4JmblfYEefE5AkOsYhFz+Ef/bZhCMO675Pr1H13Wo+kBkmkR0SnY4EWp2ArrzSvs+rp1r7lAs8Kn+yRYfuL6/DhiLZ+U5zMnyq8nHZOVxtDEHX/AS8LpSVlcsys2YkpckOyiFz8MJe5YHVVt/yszL/p6IcFS4DklPiZQnsCpSUuREn42+9sn+QV/YEiZd7PTIvyO4S48hiEWOJzzMk6mYIXLk+D1kZKf5lx9XS43p9NWttGXLt2AxZtUkSgXJDFUCdq/llKVbZyeqxVXC4A0SOW+adPRXQa9kmJY7OTL0uF9yiephN2ph9kQN2B3Qy5MQs+/pozueSPYDKq+AzxiEl0RrUAyT7pjrV6nGVgC0ZyTaRQNKTrJa9Nhplc1V/Ij647JUor7DDlJiGBFpBGtoWOS5dvQldOmT4e9uU7NDkRfCxRTJv4URDyQ5N98h+bi12lMvYKs2J7uF+eqgY5nvfZe0Sj81DwOP2wGDU5Ecj0hQ5r1bUN6g5heLcolMoeRMgbgIScaF8TxncRgsSEkW34WMMYNMy3uXrtiCnXZo/cSUvok33aCq10Pp0U1Nh/JYjoDchMTl1P+mLYtng2pF6WOKT9rbgmOKRWv0NyJYde40mg9kqY2/3kxUvkwAJRAQBvXzbdT9nkQNW2z5l15lsSEndN1yLaDDbkJwWcF2UG1OdBhIdTFaRKfJHRwIkED0EmmT8qGqLQR5oLhlFp6jfmZCQpiki9cfiFRJoKQJs5m8pskyXBEiABEiABEiABEiABEgg7AjQAAq7R8ICkQAJkAAJkAAJkAAJkAAJtBQBGkAtRZbpkgAJkAAJkAAJkAAJkAAJhB0BGkBh90hYIBIgARIgARIgARIgARIggZYiQAOopcgyXRIgARIgARIgARIgARIggbAjQAMo7B4JC0QCJEACJEACJEACJEACJNBSBGgAtRRZpksCJEACJEACJEACJEACJBB2BGgAhd0jYYFIgARIgARIgARIgARIgARaigANoJYiy3RJgARIgARIgARIgARIgATCjoAx7EoUCwWy78DSFTvh1RtgNOnhdXvg9QFxKR2Q27UdTLHAgHUkARJoXgK+KmzduAV7SqvglZR9+jh06dkNabaDE/O+qj1Yu24r4rv1R0584D7vzVt8pkYCJNB2BNxFW7EqrwBuJTyMNnTs0g0ZidRG2u6JMOeWJsAeoJYmHCp9Zwm2bt6C7ZsWYuJr72Hm+g3YuiUPOwvK4AkVP8zCHGtnYvJveWFWKhaHBGKcgDsPn73xAX7etBnb8vKwcu5PeH/CVBS4Dk6q+JwV2LU1D0UOpRnRkQAJRBuB8p2rMeGDL7Bm3Ubk5W3B0kV/YOGyrVJNN5ZPm4z5u6OtxqwPCYidTwhtQCCpD8ac3UeaaDdh68IS9D/9TBxjDtWyKt1C0NUtoM8Hn4TpgoLrRgo6C5FMUIwQp9X5qAvBWel3/IFpy9Nx3rBOIe5jEAmQQNsQ0EGvT8eQM/+Co/xNW7vwybPj8Nvm43Bmj6QDLpIuuRNGnLqfb30/MmY/lw+4bLyRBEjgIAlIz/Ga36djd/uhuPico2CW5HxuByqdSj3UYfPsadjT+zwM8WdzsF+ydr92bGTZRe9pmtLTyHQZLaYJ0ABqy8cvfc0++bC9HtVCq8fOpdPw3u970LNgMb7Ls+HqFx5GzvwP8coH36PYZ0B82gjc+cRlyIEDM57+J2b2/heOWflPTFqpR/Lwm/DCNUfAoPdi26Jv8fqbn2KXWw9r1/Px3L0jMX/S8/g9/XR0//UVfLHdA3OnI3Db365Bn8zqTsDyvD/xv5efwYoSK/RiXY36x+s4v4cUa/NXuPmpzbjkMjde+7AMw3PisHbTOhg8r+GGu7Jx7nX3YHQvdpO35WvEvEkgkIBfnsjwWsCKJFsZlm0S+ZLrxKePXY0pW2zQOW044/EXcXZHIG/u5xi/Aui3dRam5WfixufvgfPLl/H+1OVwGvTIGf0P3D/Ggecf/gqD77sDx5s8+O6d5+Bu3x1z587BriIXOgy+HPdeP6xm6O4eTLrrDny3x4DkoadgxO5Z2HXGK7hpcGAJ6ScBEggbAjoDrCkmuDbq4HYDZtEKdUYL4r1r8J8H3sCS3Qb4Hr8B64eehhuvOQPtDH/i2atewCqzHu7KDFzw1D8xJjsV3rId+OjdSYjPAKb/shwdz3kO/+i/GS88/zxWl5phMHTAFc8+jKPjVc2lWXXJm7jixXkw6NIwRhpYZq1oh/seuBCZcrVg4RS8+N7nyLcbkJBxLO58bCyywwYYCxItBGgAhdGT1InCUTTnF3jvfQFv9LABniLMj++Lf790EVIswNw3/o6Pvx6B28/oKALKjJ3fPwfLQ+PxXvJqvPDv/2DSxsNxaWY+Pv/2D5z3wLs4LAtY/fNMuKTPSG82Y9UH7+LQl1/HOyli1/z2Dl5480s8eNfZiKtYiJde/AzH3/oWbu8sxkzpLNz/wD+QctczGG0wiIBaiq/z/g8fvNTFT8v1y7O4ecXJeP36AWFEj0UhARJQBPQiR/yuIh+bi63o3dUic4L+hO2oZ/Hu/SIUlr+L656fhOOevxQGoxF7fv4O+kdfxesd9ShcOQ3/2ZyDx/53G5J05Zj723aRQ9IbrBpsa5zJsRXvLcrFfx95BcmmVXjh1rcxZdkQnD2gFBP/eS9WHf8oxp0u1tXmH3H/c2WQHOlIgATCloAZ/Q45EQvnvoi7XnfggfN7idGRhXhzL/ztoacx9YG/oeiq13FJV6lA4c+4+55PcOTDb+Mu1Sm8U3SF+56F9ZXHcKI0nBpL/8T0uOvx6n/vkIserN/oxlk3vYkeuRaUz3gUD772Awb9cxSsy8bjmjcLcPv/3sJAowcLPn4B00sccg9QvmkR3vphM2568m10EDVoy5RH8P47v+P2q4+CqEF0JNBsBDgHqNlQHnxCPq8H+l4jMKpDTY+KIRVDBnXHpgU/Yuq077DD1w7eyhLJSCdd1E4kDb8ZJ6TLqbEXjulmw5YNFdBZTOiQ4sXsH37FTrnU+7gTEAcnPE4H2p96HUaK8aNcl+4D0cG7A7tEsymZ/SXKu43GYGX8KJd0LMYem4qNK7eqjil43J1w9nnVxo+6bHfJXABPtbBS53QkQALhQEAUEFM5lkydiunTvsWkT3+Cq8conCoGkN4wGKccUYTvpkzFjE0uJJbuxi4pst7jgr7/KJzUrrr8JmsyUr2b8O0Pa2T0fwKOHNYLCJpD5EY6Tj1lGOKVuPD1wXFH2FBUWAis+g4zK4fiemX8KIOpy4kY3TnF761Onf+SAAmEJYGMXhh79yM4N2srvnjzETzz8ULsKpHuINjhkm/Zba8u9cofZqP88Gtwjhg//jaRrGNxzhEOzPm10j+hwqXviFOO7eJfhAUwoHvu4bDZF2Ha1O/w655ExFUWolIkyw/fL0WXM/8uxo9Kx4DDjxuMpCS/QEH+6p9QobNiwezpmDp1Gha5U1ApI1S2VYUlORYqggnQAAqnhyfGiC3OBo+u+rG4SgvwzUsydK3Yg/TMTCRbVbg2I8eHhER/X7KEueH26VBWIsaRJRUjz74cA7x/4LUnn8CbM7fJdenClv8S4izVQkvV2WKEyWyRYbU6FJc7kJrTCdLYUuvi4uLhqBKh5r9DBBfflFo29JBAuBLwyVDZxPR0pKdnotfhJ+Kqc4+C0WjAnt/H4dm3psGR1hGZyTIMTobIqU9aDcGNi4vzyw9Vp6SOh+Hsc8bAuPQDPP7si/h2nQQaNZmjYsg9JhMsOpP/fiUfXHY3XNLAUlpaAUP3njJEV5z/Fre0AfvVJBVCRwIkENYE0jHyvEtw/c234bCq7/HpjGXy/Qb+8LtQVuFCbo9u/lpoUiFeVoorLymSMGmYtVilwdVY8/k7seyLFzBpzhbEp7dHWqLMLhLdRo8KFFfEoVf3uL3pyDQArZfZU1oOny0eaSLHMjPTkdNxGM6/9CS053ilsH57IrFwgW93JJY/+sosUqBaEPhQuPt3bDKJQnLSSTji8MEY0i1RGmM1hUKEjSYxaihUL4ygR0p2T4y49Bbcd9colH86Dks8Fr8Oo5PhbJrQQnklyi02tJd7s9qlonDTWpQF0CzYU4SE5FS//aOMJy3X2ijVmdWe0kMCJNDWBHzSW2tD7pChOHyo/PXvhji/0lCCWd/OQ5czbseZwwZgwNAesIkg0L7pOnLEFIccWe76nFvuwx0ySWje+MkotZjrqEHqxjoSQWSBSiOpfSZ0a/+EspmqXTG2F6hWZDoSIIGIIZDSHUOP7AEUF8ls42qNofrn3oTM9DisXymTBmudD/m77MjM7iBCoXqVSE0tcdo3Yf4aD0444wKMOGIgjhjYEQa15QeSkZPhxYoVe5eW8xaX1syFll7szAwkJrTHgEGHY4jIsiFDDseAHp2re5xr86WHBA6eAA2gg2d4UClowkJLZO+5DnHWdrDLxML8HZWwO37HK+NWw2qpXi1OKRyaAuO/138ukxjLN2D65z9jj8gi3Y7d2GM2QScRDdIys/7DtzCrvBzOsl348afZ6HDoEMRJo4xtxMXoWjALP83NQ5XdhfK1H2Hy8g449liZjqgWaPArPFoJJV3Vc7R1I3Z7pYVXLtORAAmECQElB/YKkZpCJaNDjh5rF/0p52X4+d1vsdvj3dsYUlt0GbO/7mfM+nk9HD49dNu3o0yTN35po0mcIIGg8lSzp7schWGJqzDpS+l19rmx/sdvsaCoJEQ+tRnSQwIk0NYEvBWY/eOn+HXhVlRWVkhvTgmW/7wMGX16SW+OLIpgMmDrhp3+htncMaeh18ZxeOV3FzwuB4rmf4IvS47EFUfr4XNJZL8eUl0hvSEbJkMRdm3aJnsL7cYnr3wjja5G6VUChhzdG+XfjMc8GYLrLd2Iz35cIL1CsiiUXMvufyri1s/AvJXbUF5RIfrPcnz/zQIZyE9HAs1LgJ2KzcuzaampjQp75yKtZtKyJakdenZzyios1a0uSR0PxZhhm/DNB8/D6euLc+87E8s3K5GkQ0b3/ujdTqwXv9MjtWtf9Em1wmhOBoom4vVnf5MGmWT/Ci2HGssxu8qFvteMQeFrr+EZrxdpvYbjomN7waSyMnfGVbdfhk/eew8vzpShMYb2uOLR69FdpW3NwiGHSuuuP5/qfxKGX4zTF4zHO6+Ow4lnX4kjOvE1CsBDLwm0DQFdPLr27YZUfbX8CCzEkdffjnWPf4iHH7Zh+DmnYLi7EGoArUU2X+7VVeSGvylMj3ZxafhtwYeYPUeW2jcOwD33nIGksg3I7dMD6dKDLEtEIrOrKEZpMoxOZSD/pHTqgy6pNmnZ7YDLnvo3Jj8xDo8u86LTyDE4NudP5HPmcuCjoJ8EwouA3oKu2Un4/PPx+HW6CAJZFa7L0Ktw8dEd/eU85fIzsHjiOLztGI5zzhqO25+6BW8+8wyeninTAy09cfPdF8isQMBrskjvcQ+kJFTrJUZbHE49/1R8/ME4PDktGaOuvQ6YXebfe8U0cCyevmkinn7yWUy35uDsIQMwu9Qk61aKOpLZFZfIkLfJU97HfI/0CIlMGn35df7lucMLHEsT6QR05ZV2rVmvti5aC2LgUfmTLTp0f3kdNsjSp7XO6UHl40NgM7EzqZZJS3vUE6vRcQK8DeQqLTyTXsavtktx91mdG4i376WQ6YcM3PdehoQmsHJ9HrIyUvzzr9QcLL2++ttRfuW0Y+i7wz80UG6o0qpzrxjdKTKHzfrYKjjc6gWqcWop+KeGamc8tiaBxnzHqkVX3ssacdNw6YLTy5+Bfz+0AJc89w8MoBHUMLsmXF26ehO6dMjwt5Yr2aHJi+BjE5IMm6ihZIeme2Q/txY7ygOGVIru4X56qKxS2qi3M2zqGNkFCf7ID6A2IlPkpa1z49KPH8V45zl4Zmy/OuF7T5oh372Jxaxv+botyGmX5q+/khfRpns09cGy6b6pxMIhfoDsCPA2UDIf3E477Ea3/0ezcfdUJxcybsjABrLnJRIggfAj0JjvuLHGj6qdLg8T1L4hDjf0Pg9KzN1w461XoB+Nn/B79iwRCRwQgcYIjf0kLDLFvvgjPPbxIqgFZb1ONzKHnoxb/tK3gRubId8GUuel2CRAAygmnnsCjrviIRwXE3VlJUmABNqGQCdc+tCjuLRtMmeuJEACEULAOvBCPCJ/dCTQlgQ4bq0t6TNvEiABEiABEiABEiABEiCBViVAA6hVcTMzEiABEiABEiABEiABEiCBtiRAA6gt6TNvEiABEiABEiABEiABEiCBViVAA6hVcTMzEiABEiABEiABEiABEiCBtiRAA6gt6TNvEiABEiABEiABEiABEiCBViVAA6hVcTMzEiABEiABEiABEiABEiCBtiRAA6gt6TNvEiABEiABEiABEiABEiCBViVAA6hVcTMzEiABEiABEiABEiABEiCBtiRAA6gt6TNvEiABEiABEiABEiABEiCBViXQNAPIB5j1uroF9AISTEcCJNBIAjpd0DfUyPuiIZrFEFR3Co9oeKysQysS0Af/Brdi3m2ZldkQlLvIDh/lRxAUnpJA/QRiWfcIRSWkAVQfJI9Im57pprrpSNieKnfdMJ6RAAmEJOD2eGDQh/zsQsaPxMB65YfXhz4Z5rotJhJW4ZJWFDoSIIH9EnC53TAaDPU2Otb37e034TCJUF/5PSIieqUHyw6gqMoTJiVnMUggvAko3cNoEN2jptWgvm8tvGvRvKVrkiam9JSTuicCorTUOmmNWrqjqvaUHhIggfoJlFfYYTIaoIRPLAkgVVclP07vJfLDHSA/JHzpjsr6gfEKCZBALYGS0gpYLSaoftRYkh9u0TlO7RmsewBLKDtq3w16SKAhAmXlVX7dQwSHX3b42H2KBg2gQAGr/A6PD9cOTkFavPRFazqMGEAzN5Q1xJ3XSIAEhIBXBE5JeQVsVmnJrHHaN6YdtfBoOAbWyS8/xPC5eWgqLDbVClVTQ5EfP20sj4bqsg4k0KIEPF4visoqkRhnq/18tAwDvzUtLJKPgfVRfrvoHtcfnoKkuGDdg7Ijkp8zy946BLzSgFBcVoEEm7U2Q+0b0461F2LI06ABFMxBGYxuEUTPjm63txdIxvR/vqI4OCrPSYAEggiUlVfC7ZZuaOkBikWnbB7RZfDo8Rl15Mdny4tiEQfrTAJNIrCnuExacPWIxTlASvdQw+CeGlVX9/hsBWVHk14iRo5JAiVi/Ph8XhjUEDi6WgKNohFoIbrEkjyvXxLuHpGO6vnMOqzfVYWPllEQ1VKlhwQCCGitL9t3FSIpwQa9sgJqXOC3pYVF21HVUetuV6NnrxiYgmuHpNRWc8H2Sny/vrT2nB4SIIG9BFTPT6EYP6XSgJIQt7cFV8WIdvkRWD81DO7iQ5Jw+7A0f0OK+mfVzio2wO59VegjgToElO5RVFqOnQVFSIyPqyMvAr+tOjfF0Inhnnv/78Gm1lcpMUd3tCLNZsCiXQ6oeYiFshDC8d0SkGI1NjU5xieBqCTgkUmHSmnZtacEFZVVSE1KqO390ctCCJoAUkfNr0AE+qMRjGqEOqajDRbxLNxpl7lBMsRFJggdm5uAhH2WeopGAqwTCeyfgEt6i0ul5VbJD7vd4W88UQsgaPJCO6qUAmVGoH//uURWDNUTNKyTDcmWatlhF9lRbBfdIzcRSdbY7FmPrCfI0rYGAbXggV/3KCxBZZVddI946h4hwOvKK+0iUvZ1WoutuqL5vdISpfzauVv6pHeWu1FSaYdXVqdJMOpgNe1t3d43VYaQQGwQUL08BpnfohQWNWlZLXygGT2a4hJ41KhEi/KiyQhVL80fKD+UlLC7lfxwoazSIWNrRX5YdGIUUX5o7wKPsUtAyQGjNJIY5TfVZrH45Yg2fCVQbmh+jVQ0yA9NXqg6af5g2eGs0T1KZVEZv+5hFt1DWNGRQKwTUDJArTRrkt9Sm8XsN3z8K8/WNLRqMkM7aryiQXZodWnssV4DSCWgCR/tqISQFq7CtD8tLPDoj8h/SCCGCQQKGE24aEaQwqJd165pYdGATJMZqi6an/IjGp4s69AaBERXEbe3Z1iTEbEmPyg7WuNtYx7RRKBadMSu7GjKs2zUeDUlfJUgCjwGZlLfNU14BcalnwSilYCmpGj10861YyjlRYsbbUdNVqh6af7AY2B9KT8CadAfqwQ0OaHVXzvXjqHkh3ZNuyfajqp+9ckHVdf6rlH3iLY3gfVpiECwHNDOtWMsyo6GeGnXGmUAaZE1mJpw0c7VUQtTcdW5au3Vrmv380gC0U4g8J3X/Oqo+VX9G+OPRk5avTVZoZ2HqquK09D1UPcwjAQinUDgO6/51VHzq/oFn2t1DoyjhUXLUatbsOxQ4VqYVlfKDo0Ej7FEQPtGVJ01vzpqfi088FzjEypMuxbNxwYNIAVFEy6aXwOlnQfC0a6pMGVx0pFArBEI/Aa0uqswLTzYHxhH80fLUdW1PvkRWEctnsZIXdPuC4xHPwlEO4HAb0DVVTsPPAb6NR5amHYe6UdVH00GaH6tjtp5YB21aypMuy/wOv0kEO0EAr8BVVftPPAY6Nd4aGHaeSwdGzSAFAgFRxMoml87atdjCRjrSgINEQgWJoHnyq+da0eVVqC/obQj8ZqqWyj5oeqiwqO57pH4vFjmtiUQ/D0Eniu/dq4dVWkD/W1b+ubNXdUrlOwIDGveHJkaCUQugWA5EHiu/Nq5dlQ1DfRHbs0PvOT7NYCCk1bANMVF8wfH4TkJxCqBYIESeK75tWMsMlJ11+RHLNafdSaBhggEy4bAc82vHRtKJxqvqXprskPzR2M9WScSOBACwXIh8Fzza8cDST8a72lwFbjACmutLlpY4HmgX10PPtfu4ZEEYoFAsJAJPA/0KxbB59HKJ1gmBJ4H+lX9g8+jlQnrRQKhCATLhMDzQL+6N/g8VHqRHhYsDwLPA/2qnsHnkV53lp8EmkIgWB4Engf6VZrB503JJ1riNroHSIOlCRjtPBSIhq6Fis8wEohmAqG+h1BhscCA8iOanzLr1hIEQsmKUGEtkXc4pKnVlbIjHJ4GyxBJBLRvJ7DMocICr8eSv9EGkAZFwdMEUWCY5lfH4OuB1+gngWgnsD8Bs7/r0cyH8iOany7r1hwE9icf9ne9OcoQjmlQdoTjU2GZwonA/mTD/q6HU11aoyxNNoBUoTSI9Rk62vXWqADzIIFIIsBvg/Ijkt5XljV8CFB2UHaEz9vIkkQaAcqPfZ/YARlAWjIa0PoMIS0ejyQQywS07ySWGYSqu8aF8iMUHYaRQDUB7Tshj70ENCaUHXuZ0EcCwQS07yQ4nOfVBA7KANIgNgRZCaiGrmtp8EgCkUqA7/jBPbmG5APZHhxb3h3+BPiOH/gzouw4cHa8M/IJUHYc3DNs8d1KGxJQB1d03k0C4UGA73jLPQeybTm2TDk8CPAdb5nnQK4tw5Wphg8BvuMH9yxa3AA6uOLxbhIgARIgARIgARIgARIgARJoPgI0gJqPJVMiARIgARIgARIgARIgARIIcwI0gML8AbF4JEACJEACJEACJEACJEACzUeABlDzsWRKJEACJEACJEACJEACJEACYU6gWVaBC/M6sngkQAIk4CegVs2hI4FYIMAJ0rHwlFlHEiCBAyVAA+hAyfE+EiCBsCRAIycsHwsL1coEGvoOaBy18sNgdiRAAmFHgAZQ2D0SFogESOBACAQqfDqdSsH/T01S7Pk5EKa8JxoI1P0OVCeo9q3QEIqG58s6kAAJHAgBGkAHQo33kAAJhA0BTZlTBbKZ9ND5PKiscqLc4Ybd5alV9sKmwCwICbQyAWXo6PV6WExG2GwWGMSvvhvt26Eh1MoPhNmRAAm0OQFdeaWdTaNt/hhYABIggaYS0JQ37T6zQYf/LdiDL1aWIMOmw5ge8Ti7f7p0BAW2gGuxeSSB2CLg8XhQUWlHeZUdifE2JCXE1xpAGgkaQhoJHkmABKKdAA2gaH/CrB8JRCGBYOPHatTh2i+34r2FRf7a9suKw7Jb+kJP4ycKnz6rdDAEnC438nYW+HuBMtOSxAiqmxqNoLo8eEYCJBCdBLgMdnQ+V9aKBKKWQKDxo/p2xPbBX5Xx88ceiMUDuH14cGQHGj9R+wawYgdDwCzD4Lp3yoJLDKHCorJ9kgr8vva5yAASIAESiBICNICi5EGyGiQQiwRUz8/7S4owbnExIPN/4PWhSzsrRnRNiEUcrDMJNJpAz67Z8Hi9KK2obPQ9jEgCJEAC0UKABlC0PEnWgwRigEDd1mkfdlW48d4SMX40J8N5huTEI04ZQ3QkQAINEsjKTEWV3eE3hAK/rUB/gwnwIgmQAAlEKAFqCRH64FhsEohlAkpBU8Jr8fYqrClw7EUh4T0zLIinAbSXCX0kUA8BtSqc1WSC0+nyx6DhUw8oBpMACUQdARpAUfdIWSESiE4CwcqZWt9gS6kLBZWevRWWHqCsRJNM8Fazg+hIgAQaIqCWxjaZTXDLCnHBLvh7C77OcxIgARKIZAI0gCL56bHsJBCDBDTFTB3LHKK4ubx7KYjdY5HlsOlIgAQaR0CtlOiVuUCB31Xj7mQsEiABEohcAjSAIvfZseQkEDMENOWsboVp6NTlwTMSODACwUtha6mE/u60qzySAAmQQOQSMEZu0VlyEiCBWCOgKWTqWL19ifzLvX5i7TVgfVuAgPZtcR+gFoDLJEmABMKOAHuAwu6RsEAkQAKNIyDGT7UV1LjojEUCJEACJEACJEACQoAGEF8DEiCBiCGgWqe1luqIKTQLSgIRRIDfVwQ9LBaVBEjggAnQADpgdLyRBEigtQnUVc44B6i1+TO/2CBQ9zuLjTqzliRAArFFgHOAYut5s7YkEBUElIKmRr9xBFxUPE5Woo0J+L+nmpUQOAeojR8GsycBEmgVAuwBahXMzIQESKD5CdD8aX6mTJEESIAESIAEop8ADaDof8asIQlENAEOx4nox8fCRzgBfn8R/gBZfBIggZAEaACFxMJAEiABEiABEiABEiABEiCBaCRAAyganyrrRAIkQAItRsCHyrIybCl1+HPgQMQWA82ESYAESIAEWogAF0FoIbBMlgRIgASijoDPiz9XbMLV35QiX3ZROH5ULt4dnBh11WSFSIAESIAEopsAe4Ci+/mydiRAAiTQbAR8bi9+W7AHf+zxYFOxE+Nn7UZFs6XOhEiABEiABEigdQjQAGodzsyFBEiABKKCQOCQN06Qj4pHykqQAAmQQMwR4BC4mHvkrDAJkAAJhCkBpwPfrynH5iofOndKxElZljAtKItFAiRAAiQQyQRoAEXy02PZSYAESCBaCHid+HzGBlz5SzlKnUB2tzRM/Wt3HMpfqWh5wqwHCZAACYQNAQ6BC5tHwYKQAAmQQKwS8GLez2tx4c8VKJXFFWDWo7TIjlVlscqD9SYBEiABEmhJAjSAWpIu0yYBEiCBGCewafkaHPX4Alzw3U7sdIeC4cWaWStw5JQquPS62gg5XZNxVmrtKT0kQAIkQAIk0GwEOLig2VAyIRIgARIggVoCPg/mzl6Noz6vBCw6zJ2Wh212YMKYLHQ11cTyuTDnp7UYNkUuWMX4USssyN9hg9rj1ws6wlybGD0kQAIkQAIk0HwE2APUfCyZEgmQAAmQgCLgc2Paz+twwrdi/CjDRnXsxOnx2y95OO/LbdjqX0rOhSkz1+OE72viqDAvMOqYHMwQ4ydBpUNHAiRAAiRAAi1AgD1ALQCVSZIACZBALBP49de1OP+HClT5LR8hoYwbZQRZ9FiwcCfOKHPgqmw37pcFDxw6dUGcxBk5PBsfnJKFtOoQ/ksCJEACJEACLUKABlCLYGWiJEACJBCbBNbP/RMjvpIhbeaanh/BkJRhQnvZOHWtpzps8boi3LZebB5fjfEjcQ4Z2B6fnN4BnPYTm+8Na00CJEACrUmAQ+BakzbzIgESIIGoJeDDijnL0eOjGuNH1VN6dbr3zcTuOwbgnZMSkRXwi+NTvULKybFX/3aYc2FHGj/VRPgvCZAACZBACxMI+Dlq4ZyYPAmQAAmQQHQS8Ljw46zVGPBFFWCr6dVx+TBkSBbmj+0Mi4x/Gz68K945MR5p3mrLR6cOHmDY0A6Yd0knzvmJzjeDtSIBEiCBsCRAAygsHwsLRQIkQAKRQUD9iOxYuwM3zyiH11hj/Ihhc+zR2fjszByk1FbDglNP6I6pZyUg0+6Cz+nFycflSJxsJNfGoYcESIAESIAEWp4A5wC1PGPmQAIkQAJRS0AnS7dtLbGjzClVVPaP9Owc0j8T4/+SjU77NLGZcMQRPbHmEB9U9ASrAXGGqEXDipEACZAACYQpARpAYfpgWCwSIAESiAQCHugxtGs6DulQgZIiIK1dMqZd1hk59RVeZ0BKfH0XGU4CJEACJEACLU+ABlDLM2YOJEACJBDdBNqnY+rNMpDNK2Pf9JboritrRwIkQAIkEPEEaABF/CNkBUiABEggHAjIz4mePynh8CRYBhIgARIggYYJ7DNCu+HovEoCJEACJEACJEACJEACJEACkUuABlDkPjuWnARIgARIgARIgARIgARIoIkEOF6hicAYnQRIgARimUDNQtfVCDxelIovXi395v9rTjIqpzq5NWfiTIsESIAESCCGCdAAiuGHz6qTAAmQQFMI6PQ6pKbIz4Za7MAgC2DvKcf132zGMXE6yL6nze8MZow6NB1HpJpkrTk6EiABEiABEmgeAjSAmocjUyEBEiCB6CcgRs9hPZLQfU4h1iuTROfD17Py8bUyflqis8btwxclOswY0w5J2iar0U+ZNSQBEiABEmhhAmxUa2HATJ4ESIAEooeAHr36dsA/B1uh99R0+SjDxCR/6tjsf8COUjf+v707gauqzPsA/jt3v+wCiriCCUJuiOZuai5pWY5bWVbmklpNTeNklpXtjbZMzVRq5VJZTdpiWk5GmpZWLpi7uGCICAgCsl24+32fc+HghdCxt4aL9/5OHzr7s3wfgfPnec5zRRzEhQIUoAAFKPCHCbAH6A+jZEIUoAAF/EBAMmLGhA7oHXkSI36qgFmMhvtfLWaXFjO7hyJYDrC4UIACFKAABf4gAQZAfxAkk6EABSjgPwI6dBkcj5zBosYOixj+9j8KUFRakcH/KG3/aSzWlAIUoAAF6ggwAKoDwl0KUIACFPgNAmr9b7iYl1KAAhSgAAW8L8B3gLzfBiwBBShAAQpQgAIUoAAFKNBAAgyAGgia2VCAAhSgAAUoQAEKUIAC3hdgAOT9NmAJKEABClCAAhSgAAUoQIEGEmAA1EDQzIYCFKAABShAAQpQgAIU8L4AAyDvtwFLQAEKUIACFKAABShAAQo0kAADoAaCZjYUoAAFKEABClCAAhSggPcFGAB5vw1YAgpQgAIUoAAFKEABClCggQQYADUQNLOhAAUoQAEKUIACFKAABbwvwADI+23AElCAAhSgAAUoQAEKUIACDSTAAKiBoJkNBShAAQpQgAIUoAAFKOB9AQZA3m8DloACFKAABShAAQpQgAIUaCABBkANBM1sKEABClCAAhSgAAUoQAHvCzAA8n4bsAQUoAAFKEABClCAAhSgQAMJMABqIGhmQwEKUIACFKAABShAAQp4X4ABkPfbgCWgAAUoQAEKUIACFKAABRpIQNNA+TAbClCAAhRoRALFmSlYuiILV08Zhx5twqCSXLAUHcXqpV+h2ZjbcG1c0/pLW3oUz8yejjfXt8NHue+iv+dVLidsFjPMlSbk/7wei7YHY/bsG9HSqK25ynUuB8fOmkR+NYcuuuF06BHdvhVCNMrf6+yoKDPB6nBd9D7lpEptQFCwAcrdynGuKUABClDAfwUYAPlv27PmFKCA3wrYsHfFK3h12QlssIdgzfzxCNbYcfzbd/Ha2yvgPBaBHkvvQER9PpIKOoMRgYEGqKvPuyrO4sDBgziddRoHd3yH9Zs2IeOsBGNoEDJ1UVg9p39NAHL2y9kY8ngqAvQqSCKtC8ZBLhdcLhvKizvj9UPvY0zT4Krc7GlYMG0OvsoorK90vzoWHTcTb304Hc1/dYYHKEABClDAXwUYAPlry7PeFKCA3wo4DizC39dkIOyKPvjzhCEI0slhiBYdr52Cm77Zhfe+XYK5b3fB0ruSzhvJHS7yZYEB0KolEZyoYaw+K+XvxsvzH8GukxVQBbdB9wGTMbFrB0S3bYuO8Z3hFNcpPTAqXQCCgyLQZcBNmD79agRZ7dWp1F6pbGX44dN/4I11RmhrdRcZ0SImFu21TWrfcIG9pm2agL/oLoDDwxSgAAX8VIC/F/y04VltClDA/wTcMYxzHx5+aBWyVU3QffAN6N81vKYXRgqOx5Q7xmPjkbfx87K/4dXkFDzQvbqfRzqON6e9iD1qC7LSSxAYfAjP33sPIgKiMLRnHIyiR0cTdxdWvzsNLXRGBAVdZNiZZEfeye34ZOUp6BxyePTrRXLakJdRDI0qvPZJTQxuf+zvuPmSh8AZUd13VDsd7lGAAhSggN8KMADy26ZnxSlAAX8TkHAGb907H1vOWtEkOgm3zBiPyDoIEf2mYe41m/DQFxn4aO7NaPaPlbi1i9zXY8LRnTuw3aCDRgxPU4shcxm7UpEuenw6xMW43+lxaUMQHd4EIXXSrLsrifeNTAWZ2FN0SgRfLjhFEOQSWyqVPCxO2Re9RqLbSKtV1wRootsJTqcEQ2AwDHUTvci+S07fnfZFLuIpClCAAhTwGwEGQH7T1KwoBSjgzwKOyjxseOMprNyVAacrAJ3G3Ie+QQXIy5OHoClv4oj3biQdes+cgaTNj2Ln2RNY9NRjaL7wKVzTPh5/++ADjDu1C4v+sRB7cztj9qpnMUCvRbDpIOZ/IQIY60lsT92JUDGszbNfR20IRlzHzgjXV7WA06lH0vAH8cwzY8R7RqmYmzQTBzrdiIVvPImuYWfxzu03YkluM8xdvA6jWpbBpQsUNzqQmboCf5u+CNni/SOlxFUpysFT1RGXmIhBxEkeiwtmUwvMevMlTOsdW/PekscF3KQABShAAT8TYADkZw3O6lKAAv4o4ELJLz9h1dpNyHOEoIkUgPytCzD9GxH8SHLgIPesiKihahOSxghNoApGiw4V+Zk4mnUWV7eLRcsunWAp2ITCQjU0mjPYn1qGqVN7QDpxFE6VDtqsz3DX6HfFtgYGo3h3RxKTGJgsCI5Nxiur1uHaFoq9BOe5E/hoybM4k3kKh8UMb6bcPXj7uUcRpjEjI8cBV+U5rPnnPPykLkHHSQswpVcg1OL9ofDmUbAF6D0CIBH8OE3IzS6EVRwNjWqDUL1nECRmt6sIR6BembJBKQPXFKAABSjgrwIMgPy15VlvClDAjwQkhCeMwEPzHUgrz8Salz9F+rFf4HJYYbeLYMThgDGgekoD0YNittnFpAUSbnj8A4xsbUf3HrHuiQScVjNSUz5DtksPvb4Um19/GPNb/hvPdBa/ShwW2KIm4J33xiI4+yDeXvwqtlUMxbKFE9BUG4CYmrF2kjt4cdosKC4pQH5hCSwi8HLYK1FUmA+rxoJSq2galwNlxfmiHCVoZa2aRiGqw3V48s2+sGkNCAnUwyHSMFucMJh3Yc60F3DIocX4ecswNrYcLk2AeC8JqCgth9WpRVhUU/b++NG/eFaVAhSgwMUEGABdTIfnKEABCviKgPg8nE5Dx6KjGJw2euQ9gJjMYO9nr+CRx1ZCM/N9fPVAsvhsHRUMtgN45I6H8c2pQjTvkIDeV54fT2Yt2Yx160RQYjSIHqN4JFyRjm/+NRvd7pkInRii5ug8ANd06QZE2vGpiKcctuZI6t4DzTwMrWJyA5dGg4geo/DkTHEtDuGhLrdhX+xgPLtsHuJUFqyaPBAvZTfDjBeW4vqW52/WGsLEDHBhwOlPMXbSSiQMn4JZs0YjUmoOgxgCJzlVCG/ZBM2jHdiybAFe/MiJZ1JeRrIyBd35pLhFAQpQgAJ+LMBfC37c+Kw6BSjgZwJiuJskqcXn+BigEz092RlHkONQo2e3RKg0ehjE+zzQacR7QLKLBhr3qDH3jth3Ydsrz+FEVFu0bdVMfNhpS9z9yK1IiLkeia1NKCkrFRMjVP1N7fw7OOeDJ0X61LF0MZTNhp+/ehR94+KQkHATUnQq5O//CKOvTEBiYjc8t98KR2Em5g6T9+PQrs1QfJSnpABsX/URTuWdwq6tB2Fxv1dUJx+pAN9v2o/c4s144vGvYTt/K7coQAEKUIACNR/NQAoKUIACFPAjAUvBUWzZnIrK0KEYmlQ9O4Fc/4I8ZFhNIt4RgUcrD5BjSzD/00okXTUSSe10cNoqYUi+D4sWTERo0TmYTA4kdoj1uKG+zXJknpBEAGRAh35jMWlkL0Q2MUIXmojhN47CwOR4hBnUiLhyMMaOHoGeHaIR3CwOw0YPRWz1CD1H+jos2pADpz0Y/e++F3FyNp7xj3s7AY8+PApNxXbetlfw/vbS+grDYxSgAAUo4KcC7AHy04ZntSlAAX8WyMP7f38K3x4LQPLNI9Ej1GNS6coKiBeDRFAhJg6QJ19Tlshu6BfXFiPuuB4RTmt1zGFAQLAZWVnZKCoORccOnoPdlBs91o6D2JLuQIA+BMMnTce9T92GJgEStLHjsfDp57H42btwRRMdVNpgtG4TBZUIshzN+uCBBQ+jl5hb21F6EktfextHcnMROvCvmDNEDIe7wKLueg8euz5KTNhQgPWff4xs8wUu5GEKUIACFPA7AQZAftfkrDAFKODXAqX7sHDqnVjyfTZ0nfvivglDEKhRhrkBRdlZqDCJSQSMUWjuCRXeG48uWYTRbSWYPT+E1HQOaYe2I1fVDf07Xfy10sqfNuGg044AXRIS5RnhKh3VvTdVv4qcIR0xeXR35P38OV5b9CHyW9+Ed958DIlyICbeHdr3+b+wdMNB5IePw8KnRiFAKZ/eCLWogmdHkHjJCf3un46kylL8vDEFW4+eqTU1t3Ir1xSgAAUo4H8CF/9t5X8erDEFKEABnxRwlOfii389jpfXpKLCpYUuMgZT5jyPwVeIMKJ8E+4bsxDHtRLKS4pRWS4+hHTEVYipIxHWSoREZcdrHS05sxubU44hYOit6G0Q7xBdcCnCF6v2wSo+Iyhs+FgkiOtS16WgTAyds+x/HlclPw5TeQjuWL4Sn4S+iNv+uR2nf1qJu6ccwMRbJmPChEFIvuMZvOhMQGWvG9EzTIPU12/Bg58XI0h8SGtemRlqg+f02KIOkeMwbdrnOHnVfIzr0pxjvi/YNjxBAQpQwL8EGAD5V3uzthSggJ8KqMV4tsCQUBhDo9GqTTdMF0POhijv+ARdg0Hxj2Hnfj0CA8IQFpGIm6cMu6CU5J5MoarXyPTLUZRHJGHymH7Qaj0GFbiv8eiVEZMapBsDEBJ6Be6e1FWkXYL8s1Zog5uibUQEgoOCEB3bHyMTmyGh/xvY0uMzPPPy+zhwIg2rvsvBLRPl4gRi0J0zasrVtt8gGN74J04HhiA0NByt2o9Br9ia0+6N6+atrH2AexSgAAUo4PcCUnmFufaoAb8nIQAFKNCYBFznpxSDvK18qSUXFu06h7kbxPRgyhAuuxOLx8VgVs+mjakKjaYsroIMbM9xoWeXdr/6TJyCI9/jUIEKWmMoYhI6o4UYdib/cqgKczyqYC3Grm3f4lBmGIZPuQbySLbSwrOQDKEIDtS5L3SVn8G27zbhhCUe48deJXpolKUC+1LPoEuPdu50Tb/swc5zWnRJ7ISImvFsyrXy2oaMHamwd+mDuOpJEDzPWk2nsG3ttzgthaBl2zh069MZ4b8qsOcd3K4rUHCuFJVm8WG1gUYxQ6A8S+D5L+Va+RgXClCAAr4kwADIl1qTdaGADwowAPLBRmWVGo0AA6BG0xQsCAUo0IACHuMVGjBXZkUBClCAAhSgAAUoQAEKUMALAgyAvIDOLClAAQpQgAIUoAAFKEAB7wgwAPKOO3OlAAUoQAEKUIACFKAABbwgwADIC+jMkgIUoAAFKEABClCAAhTwjgADIO+4M1cKUIACFKAABShAAQpQwAsCDIC8gM4sKUABClCAAhSgAAUoQAHvCDAA8o47c6UABShAAQpQgAIUoAAFvCDAAMgL6MySAhSgAAUoQAEKUIACFPCOAAMg77gzVwpQgAIUoAAFKEABClDACwIMgLyAziwpQAEKUIACFKAABShAAe8IMADyjjtzpQAF/FmgMAWzJ0/GwpSi361g3/YC7n7s38j/jSkVHvgADz75No6cdVzynSVn1uKRyXfjL/ffhfte3waz88K35m1+E9Oe/gx1U3f99BKm/vU9ZJcfx5LH5+CjtJILJ/JbzzjM2L3iSby8fg9s4t7dbz+AeQvW/GYbwAWbxYTyCovYEnsOO9Y+fx8W/WcvKn9rmXg9BShAAQo0OgFNoysRC0QBClDAxwVObtqDFsN6o2LnZhQNH4fwi9VXfgKXLnKBWgeDXnvRS+q7O6LzJLzUub4zFzpmx9a3N6LPc4txYysrvpj/MD483h9TO9R/fVTvHoj9+DOklI7FyBDlGgdSNh1BzLApaBkUgVnPvKic+IPWEtRaPfQalTvw6n7Xq+h+0ZQvhCshM/UTpOR0xMwJPaBWazB63msXTYknKUABClDg8hFgAHT5tBVLSgEK+ITAaWw8Fo6RD0/Avmeexfaj1+G6DkZ3zSoPf4UNWSGI0Odg395s6EK64qapg9FEPus4iY+XrkeOxQFXcBv86YaRiInUV4lIKuisp/DZqv1Iuv06tENV537W9nXYFzAEo7oAm5e9iT1lIpYK7orJU4fAWLIXKZuL0XvEIEQZXdj9wWv47qwTkiEGoyeOQLswQ1XaNf+XRJDlgFOOGVCMPFMgmkWKTXMRtm7bhbZJA9Em0uMeY3cMjH8HX6ScxsjxrapSKd2KzRnRGPlQhLgvFxu/3IWoEcPQOciIc3s/wYpvT0MluRB3w19wfUwFdm38BtqO16Br61BITjuydm9EZlAy+iY2gyrrG7yy+hBUaiCw03WYNiS+VhAoCxSnrsZXRd0w7ioX1n3+NXLKXJAkNbQiSGqRPBAjesYhJ+UNfHrIAbWkQ9cbJ2JwuzCU71uFlV8dQqXrJP5x8heMmTNBAH6C7KZXY0CnKLduwQ/L8c6OMmiFSVjfOzG5txzGWnDspxScDO+NyNRV2FLgRERcL9w4rBeaaKsI+H8KUIACFPC+AIfAeb8NWAIKUMCPBAp3bEVmi05I1IShV6cw7N+zv2ZYlT1vP1at/hL5ms64fcYYGA6vxrKvT7l1yn78EbY+4zDl9pvQt1UuPhHDvMrdwYg4LdaSLgCVx79Fyp5qTNcZ/PRdOtQttUhd/gS2GwfinpkzkBxWgQpxg7UyGwf2paNSBBDHPn4C75/rintmTBNBSwTszvoGeqkx7IF7kf3qLPz53rfQ4s/3YqSIY5yWCpw5kwOTQyRUZxkwqDOKvk9BdvXxnG07kB83EAN14oClBMf2HkCOVcR2p9dj8ec5uHrS3Zg+qjXKzorzDgsy0/bj9LnqsricOHcqDSfOlLkDkJ/X7UPyjOmYMXEQLD9+jC9Piuvq9JRVZO3B7rQzQJP2GP6nWzFp0iTcNL4fKjJPIjCsLXRIw7qDcZg5Ywom9ovG5n+vRbbNiaCEobiufzzaXDkAt0wegdZOB3KP70F6blXeR/49Dy9tjcAtM6dh+t1DULr6Ofzz+1K50CjKScfaBc8jPelmTBl3LaRda/B12ml3j1Q1A1cUoAAFKOBlAQZAXm4AZk8BCviTQCn2Hc7HlUlVfTRhfbvBeeIo8kTPTNWiQnRcJ/Ttm4CwgLaYfPOVyDuSAREjIHjArbi1YzgMYuhYu5ad4LJkwyqfcC9O2BGJAd0jsXvLNvcRW1YmTgRGo3+IDrZKE0JaxcFgDMLAcTeglSTBJb5UKtGrI4IGW3kpQtomwBAQhORrBiA+3N3nVJ22stqNl/6yGIaBd2JExxJ8uHKn6JURcYzFArtLi8DAero4kgYjyboDW4/LaeTh+1QbRk8aVJWgyFiSv8R/LocVTlUzyqlUBAAADZlJREFUtIjSIyhuPCb2UUHEHOK8qlZM475e3CO/epR874MYoNdB17wDure0If2UfENV0jX/l+8Xx0RNEdIkAhERESj45kNYu9yMwfFyFJaI+2cPhU5rQPOOCYgyFSFDzlgfgrBgI/TGYIRHhohAqbosalHHyh/x3mYJI+8bjZaBQQg0dsV9MzsjbeN3ov9HDEV02BDQVwRaHZuiSasYJPdPQPmpImFUUypuUIACFKCAlwU4BM7LDcDsKUABPxI4l4/j+ZWINp9GWloRrKWhcFZsR25BMWKCwwSECkZjOAKq/zTlFOPNrIU5YsAZEJCfi5T3X8G+0iC4zMUojb7G/XCv6InHdrTp3xdN//MD9uJqqA8fQMv4vhCvB6H3NUOwfsULeCWjGwYOHYrklqHKbbCL2QI6DrsOumWL8dzBaAy8fTx6R4dDo/aMJgrx4YNvwnjPEkzrIReuN+I/fQ4PL4nAbclZcAZ2RlRQTZIeG3EY2seA937cj4lhZUgzxuPPLer83c1lh7r11UgKfgkvPVeMG4YMRtfuHaqG/bnqRg1ymeRwphKZx3dj7bJ1KAoIhOnMKUS198j2Apum/cux9HAC/rqgs7sXyVmej2O712D5+hwEBVqRmxuArp7VrpuOCKhwJhuFuhjEBHqcjG6DyPzDyJFTdTrRVIwNlIcKivhSLBXIK7C4AzrwN64HGjcpQAEKeE+gzm8i7xWEOVOAAhTwbQEXzhZkwyJpYMrJxKFDh5CecwYtIkKwM+2k6MFxj2SDSzz013rsV2lgwEmsXLwcpX0ewFNPzsf8+yYjNkjMUFbrQpFAxCBMTCrG7tRi5OYUo01sq6rei8TxePaFR3Ft+3J8/NpKHCpxVT+ci3vkjFsNx6NPPImpI8Kx5Z2V+PHEOXHQYzEdxYGSSHTvJP/KEOUT+caPexRTtJ/jtS9s6H99V1S/jeRxU9VmwrABwOFvsW53LiI7dEC4HETUWsR7OaoIjPrr3zHvlqtQsGU5Fm/KFEP61KJHKkBMQFAdkQgHm7kCkkYP+/E1WLBsLwbOfgFPzn8CU/q3h/ZigYucX9FO/OudLIy8fyraVOd/5JOXsSItEXNfeArzn7gfPdqId408TN29R57pyhUPDhKTLNiqh7RVt1VFCUoNIQiRbUTarqoXpapzkQMhz0RqDnODAhSgAAW8JFD3N5GXisFsKUABCvi4gOhqObbjB4R1H42J48di/PjxGDdmPCaNSkLB7r04KwKRCz8mO2C2ONE2sYUb6fjOL5B2Tgy3queGzsO74MDapUgra4qYVvL0a+fw3Wc7xIO5EVf2G4EYWwb2iy6lqjd2JGj1Vmxb85MYvgVEdxuNXpFlOFxQUbsxAntjaHwB1r+/TxyXh64B+ZuX4OOjUWjZNAMZWTVj8WrfJ/Zc0cMxKOoo1qw/gY4JLcSwuzqXqLRwHlyNTXlAZLvuGNo1CIf2nQQ0BoSFWrD3aFGVS8EmfLD5rBiupoLGWoHKijC0bSbSKjmCLYfSYfUIXGrnoBID00rxxcoUNL9jNoZXEbovsVRWwtIkFuJVJhTtT8WxrEJ3ACOfdLoqUChe69GLuspBkTt5p+guixyJ65vtwvL30sRV8gC+Cnz15jeIGjVOpCOG8sk3c6EABShAgUYtwA75Rt08LBwFKOArAjbbKew7akGnfrFVD/TVFdPHtkdr23fYmmXHKPH47BBDqGoW8eK/Q3wGjQVXYOYN0ZgzbxY+UgUiLrEHEsOrZ2QT18hD5ZRFumKYeO/mKVg73YwY9+RyTaA6uQRTpi+H2qZCr1mP4KY2EsrOyGmLGeVUOoQWfyImQHgXKjGOrv21kzCrVyslueq1CkPmvAW8MBl3TjfCIFlgihmHdxdeh9Izu7Dk6cl4q8U4LH9ETNwgem48FwlBSOjZCboCPWIjw8/XXfSmOEVd5aI7xXCyzx6citUGF0ytb8CKR/qLJNTo2W84dix+FTM2OGBsNQo3j45FeoUJ6DUds+Jm4IHp3yO4fVf0CGoOsztT0QMj0nQoXWPifR7xiT5I37sZP4ggqfDwg9ghojen3YLI/jPw2N33oM20pzFtoxZXijIGineEqhYt4tpdhYCvX8fUOzbi/vfmQi3ScsplFhdcO28FnM/fLiwCoXWUo90tr+LRofKYOFPt/MURl9yGHu1TlT7/TwEKUIAC3hSQyivM539zerMkzJsCFKBAPQLykDBlcQ8PE/vyWi3+LL9o1znM3SC6DjTVXSF2JxaPi8Gsnk2VW3xjLRvU191TX+2s6Vj+9FJc8cACDJSnqXb3XdTTVVRzr+x7sfM1FzaejUvyuAzr5QXhgnOlqDRbEBxoFP/E5N69819KceRjXChAAQr4kgB7gHypNVkXClDANwUu5QG0Mh97Dp1Axsa1KE4eDzEhXPXy3x5e/9t5JZ1GtL4Uj8stqGtEvCwKBShAAV8XYADk6y3M+lGAAv4hICYX0IhesaiBUzGyT7x444cLBShAAQpQgAL1CTAAqk+FxyhAAQpcbgKGSHQ+3+1zuZWe5aUABShAAQo0mEDd+XgaLGNmRAEKUIACFKAABShAAQpQoKEFGAA1tDjzowAFKEABClCAAhSgAAW8JsAAyGv0zJgCFKAABShAAQpQgAIUaGgBBkANLc78KEABClCAAhSgAAUoQAGvCTAA8ho9M6YABShAAQpQgAIUoAAFGlqAAVBDizM/ClCAAhSgAAUoQAEKUMBrAgyAvEbPjClAAQpQgAIUoAAFKECBhhZgANTQ4syPAhSgAAUoQAEKUIACFPCaAAMgr9EzYwpQ4PcKSL83Ad5PAT8XkCR+F/n5PwFWnwJ+KcAAyC+bnZWmwOUjcKEHNJeoQoheBZXW4wFOHKy0y2e4UIAClyLgcDqgUnl8D9W56ULff3Uu4y4FKECBy0qAAdBl1VwsLAUoUCPgktA2TIumAeqaQxDPcTmlVtidDILOo3CLAvULOJ1OWMw2aNQe30P1X8qjFKAABXxKgAGQTzUnK0MB/xCQ/yothzjJ0UZc2VR/vtLi+NGzFpiszvPHuEUBCtQrYLbYYLHZoNNqIH9PsbenXiYepAAFfFCAAZAPNiqrRAFfFfB8QJMDoGCdCtOTw8SDW3WNxU+01GwTAyBf/QfAev2hAtn5RQgw6n8V+Hh+n/2hGTIxClCAAo1EgAFQI2kIFoMCFPjvAi6Xq9bDmsXhwtiEYPylZxNAbMuRUG6BGRuOl/z3xHgFBfxY4OTpPOg0Khj1uloKDH5qcXCHAhTwUQEGQD7asKwWBfxFoEJMevDCsGb4W79w6DWiK0irwvPfnUGJ2eEvBKwnBS5JwCHe+TFVWpCemSu/LofQ4IBLuo8XUYACFPA1Aam8wsy3hX2tVVkfCviYgNzzoyzytrIvr+UXueW1TrzH/eUxE77PLEewBriqpQEDY0PcPUYetyvJcE0BPxGo6jWVv0+Ud34C9FoYDVXvzsk9PiqVqqZnVd737AXy3PYTMFaTAhTwAwGpwmx1yT8YuVCAAhRozAKeQY9cTnm/7pfo/JFPwGa3w2J3wiq+uFCAAnAHORoR6Gi1ave2bKIEO55r5bjnWt7mQgEKUMBXBOQ/+micDkehpFZHiCjIV+rFelCAAj4sID+syYGP51qprk1Mf+3u7VFpxIOeS3wpZ6oCpvN73KKA7wvI3yOei+e+vF33S77W8xrPe7lNAQpQwBcEJBH8yLGPxiVJhWpJiuBoeV9oVtaBAr4rID+YKb1ASi09j13swU0JmJT7uKaAvwh4fl/I28p+3XVdD+V83ePcpwAFKHA5C6jEz0G7iH004sM00tRqdbzDwRDocm5Qlp0C/iQgP5z9lqBGud6fjFhXCtQNYpR9ea1sy0rKtrKmHAUoQAFfFRAxD+x2R5pGcjl/1Kql0VZfrSnrRQEK+IyA/ICm9AIp28pDmxIQ1T0uV1455zMQrAgFLlFA+f5QLvfcl7eVfWUtX+e5rdzHNQUoQAFfEBAxD8TsBz9KpaXm+OBg/VF5akwuFKAABRq7gBIAKeX03Fe2lXV91yjHuKaAPwjUDWaUfWUtG3hu17fvD06sIwUo4B8CgeLDn8vKLB00IvjJMlWYN+j0+hFWK/uB/KP5WUsKXL4C8sOaZ4Djua9s132gu3xry5JT4PcJ1Pe94HnMc1vOqe7+78udd1OAAhRoPAJ6vR7llZa1JSVns9xTxFRW2vo74PxSvBgUyimxG09DsSQUoMCFBTyDIOWqusfq7ivXcU0BfxOoG9jU3Zc96jvmb06sLwUo4JsC8tTXDoezVKNSjzIatVtr5sg0mc33wokXtTqdkT1Bvtn4rBUFfFGgviBHOSY/0Cnbvlh31okClyLg+X1QX5BT37FLSZfXUIACFLgcBHQ6HWw2q0nEOQ8FBhoWyWWuCYDEQ4LKbDYPcjgxJzDAMEI+aXO4RLQk+oaqP2ldPsaFAhSgQGMUYKDTGFuFZWrMAgx8GnPrsGwUoMD/R0D+uSb39sizvckTHsiLyWzZoIZ6gcGg2SrOuz/4tCYAUjIRDxFGk9Xa3mnHDSq4+riAK8S5aJVKCuMDhqLENQUo0FgF+HOqsbYMy9UYBBj0NIZWYBkoQIH/hYD8883pdBWLtHNFgHNCfDT6DmhUnwfpdCfEuUrPPP8PnM4vIrstHnYAAAAASUVORK5CYII=;" vertex="1" parent="1">
          <mxGeometry x="1770" y="222" width="556" height="278" as="geometry" />
        </mxCell>
        <mxCell id="07tge18XdGWjkMhopAtY-59" value="" style="rounded=0;orthogonalLoop=1;jettySize=auto;html=1;fontColor=default;entryX=0;entryY=0.5;entryDx=0;entryDy=0;strokeWidth=2;fontStyle=1;labelBackgroundColor=none;strokeColor=light-dark(#66B2FF,#669DF6);fillColor=#dae8fc;" edge="1" parent="1" source="07tge18XdGWjkMhopAtY-60" target="07tge18XdGWjkMhopAtY-64">
          <mxGeometry relative="1" as="geometry" />
        </mxCell>
        <mxCell id="07tge18XdGWjkMhopAtY-60" value="" style="rounded=1;whiteSpace=wrap;html=1;labelBackgroundColor=none;arcSize=11;strokeWidth=2;fontStyle=1;strokeColor=light-dark(#66B2FF,#669DF6);" vertex="1" parent="1">
          <mxGeometry x="2390" y="230" width="140" height="80" as="geometry" />
        </mxCell>
        <mxCell id="07tge18XdGWjkMhopAtY-62" value="&lt;span style=&quot;font-family: 宋体-简; font-size: 16px;&quot;&gt;日志生成&lt;/span&gt;" style="text;html=1;align=center;verticalAlign=middle;whiteSpace=wrap;rounded=0;strokeWidth=2;fontStyle=1;labelBackgroundColor=none;strokeColor=none;" vertex="1" parent="1">
          <mxGeometry x="2415" y="270" width="90" height="30" as="geometry" />
        </mxCell>
        <mxCell id="07tge18XdGWjkMhopAtY-63" value="" style="edgeStyle=orthogonalEdgeStyle;rounded=0;orthogonalLoop=1;jettySize=auto;html=1;fontColor=default;entryX=0;entryY=0.5;entryDx=0;entryDy=0;strokeWidth=2;fontStyle=1;labelBackgroundColor=none;strokeColor=light-dark(#66B2FF,#669DF6);fillColor=#dae8fc;" edge="1" parent="1" source="07tge18XdGWjkMhopAtY-64" target="07tge18XdGWjkMhopAtY-68">
          <mxGeometry relative="1" as="geometry" />
        </mxCell>
        <mxCell id="07tge18XdGWjkMhopAtY-64" value="" style="rounded=1;whiteSpace=wrap;html=1;labelBackgroundColor=none;arcSize=13;strokeWidth=2;fontStyle=1;strokeColor=light-dark(#66B2FF,#669DF6);" vertex="1" parent="1">
          <mxGeometry x="2590" y="230" width="140" height="80" as="geometry" />
        </mxCell>
        <mxCell id="07tge18XdGWjkMhopAtY-66" value="&lt;span style=&quot;font-family: 宋体-简; font-size: 16px;&quot;&gt;采集&lt;/span&gt;" style="text;html=1;align=center;verticalAlign=middle;whiteSpace=wrap;rounded=0;strokeWidth=2;fontStyle=1;labelBackgroundColor=none;strokeColor=none;" vertex="1" parent="1">
          <mxGeometry x="2615" y="270" width="90" height="30" as="geometry" />
        </mxCell>
        <mxCell id="07tge18XdGWjkMhopAtY-68" value="" style="rounded=1;whiteSpace=wrap;html=1;labelBackgroundColor=none;arcSize=15;strokeWidth=2;fontStyle=1;strokeColor=light-dark(#66B2FF,#669DF6);" vertex="1" parent="1">
          <mxGeometry x="2790" y="230" width="140" height="80" as="geometry" />
        </mxCell>
        <mxCell id="07tge18XdGWjkMhopAtY-70" value="&lt;font face=&quot;宋体-简&quot;&gt;&lt;span style=&quot;font-size: 16px;&quot;&gt;过滤&lt;/span&gt;&lt;/font&gt;" style="text;html=1;align=center;verticalAlign=middle;whiteSpace=wrap;rounded=0;strokeWidth=2;fontStyle=1;labelBackgroundColor=none;strokeColor=none;" vertex="1" parent="1">
          <mxGeometry x="2815" y="270" width="90" height="30" as="geometry" />
        </mxCell>
        <mxCell id="07tge18XdGWjkMhopAtY-86" value="" style="editableCssRules=.*;html=1;shape=image;verticalLabelPosition=bottom;labelBackgroundColor=#ffffff;verticalAlign=top;aspect=fixed;imageAspect=0;image=data:image/svg+xml,PHN2ZyB4bWxucz0iaHR0cDovL3d3dy53My5vcmcvMjAwMC9zdmciIHhtbG5zOnY9Imh0dHBzOi8vdmVjdGEuaW8vbmFubyIgd2lkdGg9IjE5LjcwNjUzMTUyNDY1ODIwMyIgaGVpZ2h0PSIxOS45ODM4MjE4Njg4OTY0ODQiIGZpbGwtcnVsZT0iZXZlbm9kZCIgdmlld0JveD0iLTAuMDAwMjA5NTQ2OTY4MTA4MDQzMDcgMC4wMDAxNzcyNDA4Mjg2MzQyMzk3MyAxOS43MDY1MzE1MjQ2NTgyMDMgMTkuOTgzODIxODY4ODk2NDg0Ij4mI3hhOwk8c3R5bGUgdHlwZT0idGV4dC9jc3MiPiYjeGE7CS5zdDB7ZmlsbDojNDI4NWY0O30mI3hhOwkuc3Qxe2ZpbGw6IzY2OWRmNjt9JiN4YTsJPC9zdHlsZT4mI3hhOwk8cGF0aCBjbGFzcz0ic3QwIiBkPSJNMTAuMzQ1IDEwLjM5NnYtNC40M2gwYTEuMTQgMS4xNCAwIDAgMC0uNS0yLjE2NCAxLjE0IDEuMTQgMCAwIDAtLjUgMi4xNjR2NC40MmgtNC4yN3YtMi44MmExLjE0IDEuMTQgMCAwIDAtLjUzLTIuMTUgMS4xNCAxLjE0IDAgMCAwLS41MiAyLjE1djIuODNoLS4yMmEzLjgyIDMuODIgMCAwIDEtMi43MjItNi40ODUgMy44MiAzLjgyIDAgMCAxIDQuMTIyLS44OTUgNS4yMiA1LjIyIDAgMCAxIDkuNDQtLjA1IDQgNCAwIDAgMSAxLjIzLS4yaDBhMy44MyAzLjgzIDAgMSAxIDAgNy42NmgtLjI1di0yLjg2YTEuMTQgMS4xNCAwIDAgMC0uNTMtMi4xNDkgMS4xNCAxLjE0IDAgMCAwLS41MyAyLjE0OXYyLjgzeiIvPiYjeGE7CTxwYXRoIGNsYXNzPSJzdDEiIGQ9Ik01LjA3NSAxMy4zNTZhMiAyIDAgMCAxIDEuNTQgMiAyLjA3IDIuMDcgMCAwIDEtNC4xMS4zNTQgMi4wNyAyLjA3IDAgMCAxIDEuNTItMi4zNTR2LTIuOTZoMXptLS41MyAzYTEgMSAwIDEgMCAwLTIgMSAxIDAgMSAwIDAgMnptMTEuMDgtM2EyLjA3IDIuMDcgMCAwIDEtLjUzIDQuMDcxIDIuMDcgMi4wNyAwIDAgMS0uNTMtNC4wNzF2LTIuOTVoMS4wNnptLS41MyAzYTEgMSAwIDAgMCAuMzktMS45NCAxIDEgMCAwIDAtMS4yNjggMS4zMDcgMSAxIDAgMCAwIC44NzguNjMzem0tNC43NS0uNDNoMGEyLjA2IDIuMDYgMCAwIDEtLjUgNC4wNTggMi4wNiAyLjA2IDAgMCAxLS41LTQuMDU4di01LjVoMS4wNnptLS41NCAzYTEgMSAwIDAgMCAuNTUtMS44MzIgMSAxIDAgMCAwLTEuNDggMS4yMTIgMSAxIDAgMCAwIC45My42eiIvPiYjeGE7PC9zdmc+;" vertex="1" parent="1">
          <mxGeometry x="2645" y="244" width="30" height="30" as="geometry" />
        </mxCell>
        <mxCell id="07tge18XdGWjkMhopAtY-87" value="" style="editableCssRules=.*;html=1;shape=image;verticalLabelPosition=bottom;labelBackgroundColor=#ffffff;verticalAlign=top;aspect=fixed;imageAspect=0;image=data:image/svg+xml,PHN2ZyB4bWxucz0iaHR0cDovL3d3dy53My5vcmcvMjAwMC9zdmciIHhtbG5zOnY9Imh0dHBzOi8vdmVjdGEuaW8vbmFubyIgd2lkdGg9IjIwIiBoZWlnaHQ9IjIwIiB2aWV3Qm94PSIwIDAgMjAgMjAiPiYjeGE7CTxzdHlsZSB0eXBlPSJ0ZXh0L2NzcyI+JiN4YTsJLnN0MHtmaWxsOiM0Mjg1ZjQ7fSYjeGE7CS5zdDF7ZmlsbDojNjY5ZGY2O30mI3hhOwkuc3Qye2ZpbGw6I2FlY2JmYTt9JiN4YTsJPC9zdHlsZT4mI3hhOwk8cGF0aCBjbGFzcz0ic3QxIiBkPSJNMTYgMTBoMnY0aC0yem0tNyAwaDJ2NEg5em0tNyAwaDJ2NEgyeiIvPiYjeGE7CTxwYXRoIGNsYXNzPSJzdDAiIGQ9Ik05IDVoMnY0SDl6Ii8+JiN4YTsJPHBhdGggY2xhc3M9InN0MSIgZD0iTTIgOWgxNnYySDJ6Ii8+JiN4YTsJPHBhdGggY2xhc3M9InN0MiIgZD0iTTQgMGgxMnY1SDR6Ii8+JiN4YTsJPHBhdGggY2xhc3M9InN0MSIgZD0iTTEwIDBoNnY1aC02eiIvPiYjeGE7CTxwYXRoIGNsYXNzPSJzdDIiIGQ9Ik0xNCAxNGg2djZoLTZ6TTAgMTRoNnY2SDB6Ii8+JiN4YTsJPHBhdGggY2xhc3M9InN0MSIgZD0iTTMgMTRoM3Y2SDN6Ii8+JiN4YTsJPHBhdGggY2xhc3M9InN0MiIgZD0iTTcgMTRoNnY2SDd6Ii8+JiN4YTsJPHBhdGggY2xhc3M9InN0MSIgZD0iTTEwIDE0aDN2NmgtM3ptNyAwaDN2NmgtM3oiLz4mI3hhOzwvc3ZnPg==;rotation=-180;" vertex="1" parent="1">
          <mxGeometry x="2845" y="244" width="30" height="30" as="geometry" />
        </mxCell>
        <mxCell id="07tge18XdGWjkMhopAtY-88" value="" style="rounded=0;orthogonalLoop=1;jettySize=auto;html=1;fontColor=default;entryX=0;entryY=0.5;entryDx=0;entryDy=0;strokeWidth=2;fontStyle=1;labelBackgroundColor=none;strokeColor=light-dark(#66B2FF,#669DF6);fillColor=#dae8fc;startArrow=classic;startFill=1;endArrow=none;" edge="1" parent="1" source="07tge18XdGWjkMhopAtY-89" target="07tge18XdGWjkMhopAtY-92">
          <mxGeometry relative="1" as="geometry" />
        </mxCell>
        <mxCell id="07tge18XdGWjkMhopAtY-89" value="" style="rounded=1;whiteSpace=wrap;html=1;labelBackgroundColor=none;arcSize=11;strokeWidth=2;fontStyle=1;strokeColor=light-dark(#66B2FF,#669DF6);" vertex="1" parent="1">
          <mxGeometry x="2390" y="350" width="140" height="80" as="geometry" />
        </mxCell>
        <mxCell id="07tge18XdGWjkMhopAtY-90" value="&lt;font face=&quot;宋体-简&quot;&gt;&lt;span style=&quot;font-size: 16px;&quot;&gt;入库&lt;/span&gt;&lt;/font&gt;" style="text;html=1;align=center;verticalAlign=middle;whiteSpace=wrap;rounded=0;strokeWidth=2;fontStyle=1;labelBackgroundColor=none;strokeColor=none;" vertex="1" parent="1">
          <mxGeometry x="2415" y="390" width="90" height="30" as="geometry" />
        </mxCell>
        <mxCell id="07tge18XdGWjkMhopAtY-91" value="" style="edgeStyle=orthogonalEdgeStyle;rounded=0;orthogonalLoop=1;jettySize=auto;html=1;fontColor=default;entryX=0;entryY=0.5;entryDx=0;entryDy=0;strokeWidth=2;fontStyle=1;labelBackgroundColor=none;strokeColor=light-dark(#66B2FF,#669DF6);fillColor=#dae8fc;endArrow=none;endFill=1;startFill=1;startArrow=classic;" edge="1" parent="1" source="07tge18XdGWjkMhopAtY-92" target="07tge18XdGWjkMhopAtY-94">
          <mxGeometry relative="1" as="geometry" />
        </mxCell>
        <mxCell id="07tge18XdGWjkMhopAtY-92" value="" style="rounded=1;whiteSpace=wrap;html=1;labelBackgroundColor=none;arcSize=13;strokeWidth=2;fontStyle=1;strokeColor=light-dark(#66B2FF,#669DF6);" vertex="1" parent="1">
          <mxGeometry x="2590" y="350" width="140" height="80" as="geometry" />
        </mxCell>
        <mxCell id="07tge18XdGWjkMhopAtY-93" value="&lt;span style=&quot;font-family: 宋体-简; font-size: 16px;&quot;&gt;解析&lt;/span&gt;" style="text;html=1;align=center;verticalAlign=middle;whiteSpace=wrap;rounded=0;strokeWidth=2;fontStyle=1;labelBackgroundColor=none;strokeColor=none;" vertex="1" parent="1">
          <mxGeometry x="2615" y="390" width="90" height="30" as="geometry" />
        </mxCell>
        <mxCell id="07tge18XdGWjkMhopAtY-94" value="" style="rounded=1;whiteSpace=wrap;html=1;labelBackgroundColor=none;arcSize=15;strokeWidth=2;fontStyle=1;strokeColor=light-dark(#66B2FF,#669DF6);" vertex="1" parent="1">
          <mxGeometry x="2790" y="350" width="140" height="80" as="geometry" />
        </mxCell>
        <mxCell id="07tge18XdGWjkMhopAtY-95" value="&lt;font face=&quot;宋体-简&quot;&gt;&lt;span style=&quot;font-size: 16px;&quot;&gt;传输&lt;/span&gt;&lt;/font&gt;" style="text;html=1;align=center;verticalAlign=middle;whiteSpace=wrap;rounded=0;strokeWidth=2;fontStyle=1;labelBackgroundColor=none;strokeColor=none;" vertex="1" parent="1">
          <mxGeometry x="2815" y="390" width="90" height="30" as="geometry" />
        </mxCell>
        <mxCell id="07tge18XdGWjkMhopAtY-96" value="" style="editableCssRules=.*;html=1;shape=image;verticalLabelPosition=bottom;labelBackgroundColor=none;verticalAlign=top;aspect=fixed;imageAspect=0;image=data:image/svg+xml,PHN2ZyB4bWxucz0iaHR0cDovL3d3dy53My5vcmcvMjAwMC9zdmciIHhtbG5zOnY9Imh0dHBzOi8vdmVjdGEuaW8vbmFubyIgd2lkdGg9IjIwIiBoZWlnaHQ9IjE2IiB2aWV3Qm94PSIwIDAgMjAgMTYiPiYjeGE7CTxzdHlsZSB0eXBlPSJ0ZXh0L2NzcyI+JiN4YTsJLnN0MHtmaWxsOiM0Mjg1ZjQ7fSYjeGE7CS5zdDF7ZmlsbDojNjY5ZGY2O30mI3hhOwkuc3Qye2ZpbGw6I2FlY2JmYTt9JiN4YTsJLnN0M3tmaWxsOiNmZmY7fSYjeGE7CTwvc3R5bGU+JiN4YTsJPHBhdGggY2xhc3M9InN0MiIgZD0iTTAgMGgyMHY3SDB6Ii8+JiN4YTsJPHBhdGggY2xhc3M9InN0MSIgZD0iTTE4IDBoMnY3aC0yeiIvPiYjeGE7CTxwYXRoIGNsYXNzPSJzdDAiIGQ9Ik0xOCA3bDItN2gtMnoiLz4mI3hhOwk8cGF0aCBjbGFzcz0ic3QxIiBkPSJNMCAwaDJ2N0gweiIvPiYjeGE7CTxnIGNsYXNzPSJzdDMiPiYjeGE7CQk8cGF0aCBkPSJNNCAzaDZ2MUg0eiIvPiYjeGE7CQk8cmVjdCB4PSIxMyIgeT0iMiIgd2lkdGg9IjMiIGhlaWdodD0iMyIgcng9IjEuNSIvPiYjeGE7CTwvZz4mI3hhOwk8cGF0aCBjbGFzcz0ic3QyIiBkPSJNMCA5aDIwdjdIMHoiLz4mI3hhOwk8cGF0aCBjbGFzcz0ic3QxIiBkPSJNMTggOWgydjdoLTJ6Ii8+JiN4YTsJPHBhdGggY2xhc3M9InN0MCIgZD0iTTE4IDE2bDItN2gtMnoiLz4mI3hhOwk8cGF0aCBjbGFzcz0ic3QxIiBkPSJNMCA5aDJ2N0gweiIvPiYjeGE7CTxnIGNsYXNzPSJzdDMiPiYjeGE7CQk8cGF0aCBkPSJNNCAxMmg2djFINHoiLz4mI3hhOwkJPHJlY3QgeD0iMTMiIHk9IjExIiB3aWR0aD0iMyIgaGVpZ2h0PSIzIiByeD0iMS41Ii8+JiN4YTsJPC9nPiYjeGE7PC9zdmc+;strokeColor=#E6E6E6;" vertex="1" parent="1">
          <mxGeometry x="2443.75" y="366" width="30" height="24" as="geometry" />
        </mxCell>
        <mxCell id="07tge18XdGWjkMhopAtY-100" value="" style="rounded=1;whiteSpace=wrap;html=1;labelBackgroundColor=none;arcSize=11;strokeWidth=2;fontStyle=1;strokeColor=light-dark(#66B2FF,#669DF6);" vertex="1" parent="1">
          <mxGeometry x="2590" y="470" width="140" height="80" as="geometry" />
        </mxCell>
        <mxCell id="07tge18XdGWjkMhopAtY-101" value="&lt;span style=&quot;font-family: 宋体-简; font-size: 16px;&quot;&gt;分析展示与训练&lt;/span&gt;" style="text;html=1;align=center;verticalAlign=middle;whiteSpace=wrap;rounded=0;strokeWidth=2;fontStyle=1;labelBackgroundColor=none;strokeColor=none;" vertex="1" parent="1">
          <mxGeometry x="2602.5" y="510" width="115" height="30" as="geometry" />
        </mxCell>
        <mxCell id="07tge18XdGWjkMhopAtY-110" value="" style="edgeStyle=orthogonalEdgeStyle;rounded=0;orthogonalLoop=1;jettySize=auto;html=1;fontColor=default;entryX=0.5;entryY=0;entryDx=0;entryDy=0;strokeWidth=2;fontStyle=1;labelBackgroundColor=none;strokeColor=light-dark(#66B2FF,#669DF6);fillColor=#dae8fc;" edge="1" parent="1" target="07tge18XdGWjkMhopAtY-94">
          <mxGeometry relative="1" as="geometry">
            <mxPoint x="2860" y="310" as="sourcePoint" />
            <mxPoint x="2920" y="310" as="targetPoint" />
            <Array as="points">
              <mxPoint x="2860" y="320" />
              <mxPoint x="2860" y="320" />
            </Array>
          </mxGeometry>
        </mxCell>
        <mxCell id="07tge18XdGWjkMhopAtY-112" value="" style="rounded=1;orthogonalLoop=1;jettySize=auto;html=1;fontColor=default;entryX=0.5;entryY=1;entryDx=0;entryDy=0;strokeWidth=2;fontStyle=1;labelBackgroundColor=none;strokeColor=light-dark(#66B2FF,#669DF6);fillColor=#dae8fc;startArrow=classic;startFill=1;endArrow=none;exitX=0;exitY=0.5;exitDx=0;exitDy=0;curved=0;" edge="1" parent="1" source="07tge18XdGWjkMhopAtY-100" target="07tge18XdGWjkMhopAtY-89">
          <mxGeometry relative="1" as="geometry">
            <mxPoint x="2560" y="460" as="sourcePoint" />
            <mxPoint x="2620" y="460" as="targetPoint" />
            <Array as="points">
              <mxPoint x="2460" y="510" />
            </Array>
          </mxGeometry>
        </mxCell>
        <mxCell id="07tge18XdGWjkMhopAtY-114" value="" style="editableCssRules=.*;html=1;shape=image;verticalLabelPosition=bottom;labelBackgroundColor=#ffffff;verticalAlign=top;aspect=fixed;imageAspect=0;image=data:image/svg+xml,PHN2ZyB4bWxucz0iaHR0cDovL3d3dy53My5vcmcvMjAwMC9zdmciIHhtbG5zOnY9Imh0dHBzOi8vdmVjdGEuaW8vbmFubyIgd2lkdGg9IjIwIiBoZWlnaHQ9IjE2IiB2aWV3Qm94PSIwIDAgMjAgMTYiPiYjeGE7CTxzdHlsZSB0eXBlPSJ0ZXh0L2NzcyI+JiN4YTsJLnN0MHtmaWxsOiM0Mjg1ZjQ7fSYjeGE7CS5zdDF7ZmlsbDojNjY5ZGY2O30mI3hhOwkuc3Qye2ZpbGw6I2FlY2JmYTt9JiN4YTsJPC9zdHlsZT4mI3hhOwk8cGF0aCBjbGFzcz0ic3QwIiBkPSJNMTIgMTBIOEw2IDhoOHoiLz4mI3hhOwk8cGF0aCBjbGFzcz0ic3QyIiBkPSJNMTYgMkg0bDEtMmgxMHptMyAzSDFsMS0yaDE2eiIvPiYjeGE7CTxwYXRoIGNsYXNzPSJzdDEiIGQ9Ik0xNCA3bC0yIDNIOEw2IDdIMHY5aDIwVjd6Ii8+JiN4YTs8L3N2Zz4=;" vertex="1" parent="1">
          <mxGeometry x="2445" y="248.4" width="30" height="24" as="geometry" />
        </mxCell>
        <mxCell id="07tge18XdGWjkMhopAtY-115" value="" style="editableCssRules=.*;html=1;shape=image;verticalLabelPosition=bottom;labelBackgroundColor=#ffffff;verticalAlign=top;aspect=fixed;imageAspect=0;image=data:image/svg+xml,PHN2ZyB4bWxucz0iaHR0cDovL3d3dy53My5vcmcvMjAwMC9zdmciIHhtbG5zOnY9Imh0dHBzOi8vdmVjdGEuaW8vbmFubyIgd2lkdGg9IjM3NS44NTAyODQ2NDQwODg3MyIgaGVpZ2h0PSIzNTMuODA1Nzc3NDY3NzY5NyIgdmlld0JveD0iMC4yNTU5OTk1NjUxMjQ1MTE3IDAuNDI2MDAwMDI4ODQ4NjQ4MDcgOTkuNDQzNjU2OTIxMzg2NzIgOTMuNjExMDAwMDYxMDM1MTYiPiYjeGE7PHN0eWxlIHR5cGU9InRleHQvY3NzIj4mI3hhOwkuc3Qwe2ZpbGw6I2FlY2JmYTt9JiN4YTsJLnN0MXtmaWxsOiNmZmY7fSYjeGE7CS5zdDJ7ZmlsbDojNDI4NWY0O30mI3hhOwkuc3Qze2ZpbGw6IzY2OWRmNjt9JiN4YTs8L3N0eWxlPiYjeGE7CTxwYXRoIGNsYXNzPSJzdDAiIGQ9Ik04LjU0NCA3MS45MjhjLTQuODE1IDAtOC4yODgtMy44ODktOC4yODgtOC4zMjdWNy45ODNDLjI1NyA0LjY1IDQuMDcyLjQyNiA3LjQ5NS40MjZoODMuOTUyYzQuNzA1IDAgOC4yNTIgMy4zNzkgOC4yNTIgOC4xNzR2NTEuNDk1Yy4wNDcgNy41OTUtMi40NyAxMS44MzQtOS4wMTIgMTEuODM0eiIvPiYjeGE7CTxwYXRoIGNsYXNzPSJzdDEiIGQ9Ik0yOC4wNDYgNTcuMTV2LTkuOTIybDMxLjg4Mi0xMy44OTEtMzEuODgyLTEzLjY5MlY5LjI2MWw0NS44MDYgMTguOTg0djkuNzl6bTI1LjIzNSAzLjY3MXYtMTAuNTVoMjAuMDc1djEwLjU1eiIvPiYjeGE7CTxwYXRoIGNsYXNzPSJzdDIiIGQ9Ik00MC4wMyA4My41MjRWNzEuOTI4aDIwLjI5NXYxMS41OTZ6Ii8+JiN4YTsJPHBhdGggY2xhc3M9InN0MyIgZD0iTTY5Ljg3MyA4My41MjR2MTAuNTEzSDMwLjFWODMuNTI0eiIvPiYjeGE7PC9zdmc+;" vertex="1" parent="1">
          <mxGeometry x="2643.42" y="364" width="30" height="28.5" as="geometry" />
        </mxCell>
        <mxCell id="07tge18XdGWjkMhopAtY-116" value="" style="editableCssRules=.*;html=1;shape=image;verticalLabelPosition=bottom;labelBackgroundColor=#ffffff;verticalAlign=top;aspect=fixed;imageAspect=0;image=data:image/svg+xml,PHN2ZyB4bWxucz0iaHR0cDovL3d3dy53My5vcmcvMjAwMC9zdmciIHhtbG5zOnY9Imh0dHBzOi8vdmVjdGEuaW8vbmFubyIgd2lkdGg9IjM3OC45OTYwMDM2OTA5NDU4IiBoZWlnaHQ9IjM3My40ODg4MDkyODIxODgyNCIgdmlld0JveD0iMCAwIDEwMC4yNzYwMDA5NzY1NjI1IDk4LjgxOTAwNzg3MzUzNTE2Ij4mI3hhOzxzdHlsZSB0eXBlPSJ0ZXh0L2NzcyI+JiN4YTsJLnN0MHtmaWxsOiM0Mjg1ZjQ7fSYjeGE7CS5zdDF7ZmlsbDojNjY5ZGY2O30mI3hhOwkuc3Qye2ZpbGw6I2FlY2JmYTt9JiN4YTs8L3N0eWxlPiYjeGE7CTxwYXRoIGNsYXNzPSJzdDAiIGQ9Ik0xNC42MTQgMjQuNzc1TDAgMzQuNzA5bDE0LjYxNCA5LjkzM1YzOS45NWMzLjU0NSAxLjQwMyA3LjcwNCAzLjY1OSAxMS4yMjYgNi44NDggNS4yMjQgNC43MyA5LjIzNSAxMS4yIDkuMjM1IDIwLjk2NXYxMS41MzJoMTBWNjcuNzYyYzAtMTIuNjQ0LTUuNjcxLTIyLjE3NS0xMi41MjMtMjguMzc5LTUuOTI5LTUuMzY4LTEyLjU5Mi04LjQ3LTE3LjkzNy0xMC4wMjR6Ii8+JiN4YTsJPHBhdGggY2xhc3M9InN0MSIgZD0iTTU0Ljg4NiAxOC41NTR2NjYuMDIxaC00LjUzNWwxMC4xOSAxNC4yNDQgMTAuMTktMTQuMjQ0aC01Ljg0NlYxOC41NTR6TTM5Ljk2MSAwbC05LjcwNSAxMy45NThoNC44MTl2NjUuMzM2aDEwVjEzLjk1N2g0LjU5MXoiLz4mI3hhOwk8cGF0aCBjbGFzcz0ic3QyIiBkPSJNNTQuODg2IDE4LjU1NHYxMi45YzAgMTMuNDY0IDYuNzE5IDIzLjE0OCAxNC4wNTIgMjkuMTI1IDUuOTI1IDQuODI5IDEyLjE0NiA3LjUxIDE2LjQxNCA4Ljg3NnY0LjcyMmwxNC45MjQtOS41NzEtMTQuOTI0LTkuNTcxdjMuNzI1Yy0zLjA0My0xLjI3OC02Ljc3LTMuMjIxLTEwLjA5OC01LjkzMy01LjY5OC00LjY0NC0xMC4zNjktMTEuMTEtMTAuMzY5LTIxLjM3M3YtMTIuOXoiLz4mI3hhOzwvc3ZnPg==;" vertex="1" parent="1">
          <mxGeometry x="2844" y="364" width="30" height="30" as="geometry" />
        </mxCell>
        <mxCell id="07tge18XdGWjkMhopAtY-117" value="" style="editableCssRules=.*;html=1;shape=image;verticalLabelPosition=bottom;labelBackgroundColor=#ffffff;verticalAlign=top;aspect=fixed;imageAspect=0;image=data:image/svg+xml,PHN2ZyB4bWxucz0iaHR0cDovL3d3dy53My5vcmcvMjAwMC9zdmciIHhtbG5zOnY9Imh0dHBzOi8vdmVjdGEuaW8vbmFubyIgd2lkdGg9IjIwIiBoZWlnaHQ9IjEzLjUyOTk5OTczMjk3MTE5MSIgdmlld0JveD0iLTIuOTMyMDk3ODk3ODEyMDE0ZS05IC01LjI1ODAxNTA0MTgzNzk1NmUtMTUgMjAgMTMuNTI5OTk5NzMyOTcxMTkxIj4mI3hhOwk8c3R5bGUgdHlwZT0idGV4dC9jc3MiPiYjeGE7CS5zdDB7ZmlsbDojNDI4NWY0O30mI3hhOwkuc3Qxe2ZpbGw6IzY2OWRmNjt9JiN4YTsJPC9zdHlsZT4mI3hhOwk8cGF0aCBjbGFzcz0ic3QxIiBkPSJNOC44MyAxMC41OGgyLjMzdjIuNjRIOC44M3oiLz4mI3hhOwk8cGF0aCBjbGFzcz0ic3QwIiBkPSJNMTYuNDggOC42MWEuNTYuNTYgMCAwIDEtLjQtLjE3TDEyIDQuMjEgOS4yNiA3LjFhLjU3LjU3IDAgMCAxLS43Ni4wNUw2LjQyIDUuNDdsLTIuMiAyLjkyYS41Ni41NiAwIDAgMS0uNDUuMjJIMHYxLjcxYS43NS43NSAwIDAgMCAuNzQuNzVoMTguNTJhLjc1Ljc1IDAgMCAwIC43NC0uNzVWOC42MXoiLz4mI3hhOwk8cGF0aCBjbGFzcz0ic3QxIiBkPSJNMy41IDcuNWwyLjM4LTMuMTZhLjU1LjU1IDAgMCAxIC4zNy0uMjIuNjMuNjMgMCAwIDEgLjQyLjEybDIuMTIgMS43MiAyLjgtMi45NGEuNTQuNTQgMCAwIDEgLjQtLjE3aDBhLjU0LjU0IDAgMCAxIC40LjE3bDQuMzMgNC40OEgyMFYuNzRhLjc0Ljc0IDAgMCAwLS43NC0uNzRILjc0QS43NC43NCAwIDAgMCAwIC43NHY2LjgxeiIvPiYjeGE7CTxyZWN0IGNsYXNzPSJzdDAiIHg9IjYuNjciIHk9IjEyLjkyIiB3aWR0aD0iNi42NyIgaGVpZ2h0PSIuNjEiIHJ4PSIuMyIvPiYjeGE7PC9zdmc+;" vertex="1" parent="1">
          <mxGeometry x="2620" y="487.6" width="33" height="23.1" as="geometry" />
        </mxCell>
        <mxCell id="07tge18XdGWjkMhopAtY-119" value="" style="editableCssRules=.*;html=1;shape=image;verticalLabelPosition=bottom;labelBackgroundColor=#ffffff;verticalAlign=top;aspect=fixed;imageAspect=0;image=data:image/svg+xml,PHN2ZyB4bWxucz0iaHR0cDovL3d3dy53My5vcmcvMjAwMC9zdmciIHhtbG5zOnY9Imh0dHBzOi8vdmVjdGEuaW8vbmFubyIgd2lkdGg9IjIwIiBoZWlnaHQ9IjE4IiB2aWV3Qm94PSIwIDAgMjAgMTgiPiYjeGE7CTxzdHlsZSB0eXBlPSJ0ZXh0L2NzcyI+JiN4YTsJLnN0MHtmaWxsOiM0Mjg1ZjQ7fSYjeGE7CS5zdDF7ZmlsbDojNjY5ZGY2O2ZpbGwtb3BhY2l0eTouOH0mI3hhOwkuc3Qye2ZpbGw6I2FlY2JmYTtmaWxsLW9wYWNpdHk6LjZ9JiN4YTsJPC9zdHlsZT4mI3hhOwk8cGF0aCBjbGFzcz0ic3QwIiBkPSJNOS4xNyA1LjE0bDEuNjYtMi41N0w5LjE1IDBINUwwIDguNThsMi41IDUuMTQgNS04LjU4eiIvPiYjeGE7CTxwYXRoIGNsYXNzPSJzdDEiIGQ9Ik0xNC4xNyA1LjE0bDEuNjYtMi41N0wxNC4xNyAwaC0zLjM0bDEuNjcgMi41Ny0xLjY3IDIuNTd6Ii8+JiN4YTsJPHBhdGggY2xhc3M9InN0MiIgZD0iTTEwLjgzIDEyLjg2bC0xLjY2IDIuNTdMMTAuODUgMThIMTVsNS04LjU4LTIuNS01LjE0LTUgOC41OHoiLz4mI3hhOwk8cGF0aCBjbGFzcz0ic3QxIiBkPSJNOS4xNyAxMi44Nkg1LjgzbC0xLjY2IDIuNTdMNS44MyAxOGgzLjM0TDcuNSAxNS40M3oiLz4mI3hhOzwvc3ZnPg==;" vertex="1" parent="1">
          <mxGeometry x="2676" y="486.6" width="26.67" height="24" as="geometry" />
        </mxCell>
        <mxCell id="07tge18XdGWjkMhopAtY-120" value="&lt;font style=&quot;color: light-dark(rgb(102, 178, 255), rgb(102, 157, 246)); font-size: 26px;&quot;&gt;&lt;b style=&quot;&quot;&gt;/&lt;/b&gt;&lt;/font&gt;" style="text;html=1;align=center;verticalAlign=middle;whiteSpace=wrap;rounded=0;" vertex="1" parent="1">
          <mxGeometry x="2652" y="486.20000000000005" width="26" height="25.4" as="geometry" />
        </mxCell>
      </root>
    </mxGraphModel>
  </diagram>
</mxfile>
